<svg xmlns="http://www.w3.org/2000/svg" width="315.201" height="326.4" viewBox="0 0 8339.66 8635.98" shape-rendering="geometricPrecision" image-rendering="optimizeQuality" fill-rule="evenodd"><path d="M2537.38 2305.72c-95.48 13.6-1530.2 1.26-1792.93 2.8-253.82 1.47-276.3 209.16-340.45 429.14L3.8 4133.36c-8.4 129.75-.25 624.37-.25 778.1v2056.16c-.02 178.83 16.75 307.95 119.97 398.86 135.6 119.42 293.15 100.14 500.76 100.78l151.28.34c-55.74 113.52-347.64 487.64-342.88 553.93C484.12 8059.2 704 8039 791 8039l1143.88.12c-23.54 81.92-62.82 168.35-92.78 248.48-60.37 161.5-94.7 195.98 23.28 195.98h4630.98c98.74 0 56.12-63.62 3.8-194.96-30.16-75.7-72.44-172.23-93-249.53 165.96-.4 1369 14.9 1419.13-10.17 33.94-36.46-133.62-252.73-158-288.14-63.83-92.68-127.18-178.72-182.55-274.42 146.42 1 753.96 17.45 845.56-6.74l8.4-3094.62c-.13-385.8-6.14-254.97-125.45-679.72l-408.55-1372.44-1999.82-4.3-.18-1231.54c.4-92.63 22.98-126.68-68.78-126.68h-3139.8c-79.4 0-60.1 37.87-59.57 117.4l-.13 1237.98zM71.94 4291.06l8199.03-.32.57-132.7-8199.83.23.23 132.8zm6305.54 3677.9l1355.33 1.92c-28.96-63.88-525.5-782.8-609.82-916.83l-244.18-367.23-59.86-88.17c-20.43-29.36-39.28-67.24-63.25-94.56l-934.53-2.42 556.3 1467.3zm-570.2-5367.18l-1.3 90.4c194.62 17.4 469.47 1.73 671.87 1.58 568.22-.4 456.5-27.38 694.2 662.56 112.08 325.32-46.23 303.05-295.94 303.05H1467.13c-230 0-416.4 30.4-295.76-302.62 251.28-693.66 116.35-662.76 694-662.85 204.95-.05 473.37 14.8 670.52-1.8l1.25-90.38-1101.76 1.83c-218.03 27.6-254.7 305.93-296.1 451.47-31.3 109.97-156.82 511.42-153.03 596.78 5.04 114 71.2 189.65 184 194.28 241.72 9.9 506.4.1 750.7.1l5242.7.12c113-3.02 180.75-67.55 191.97-176.6 10.35-100.6-113.37-477.3-147.94-600.2-23.3-82.8-53.02-219.46-86.34-292.94-105.03-231.55-324.07-176.73-569.43-176.63h-370.47c-112.2 0-267.3-8.92-374.18 1.88zM532.2 7970.05l1425.8.82 563.35-1468.35-1020.38-.75c-18.9 50.97-193.97 297.87-237.35 363.96l-244.38 367L652.5 7783c-34.27 51.7-95.62 134.2-120.3 187.06zm990.66-1576.67l.01 39.03c339.6 10.25 851.5.84 1194.6.8l4019.9-1.14-.33-438.9-5214.2-1 .03 401.2zm4282.7-3627.47l.16 95.34c94.95 13.3 280.82 2.3 385.04 1.54 71.3-.52 106.76-4.7 156.7 39.45 35.92 31.75 60.63 68.97 52.4 134.56-16.2 128.87-128.9 130.74-255.46 130.64H2217.33c-130.16.01-250.4 5.18-272.8-122.94-45.7-261.56 340.38-154 592.32-184.05l.87-94.46-950.7-2.28c-106.8 1-155.6 51.4-186.5 135.97-57.16 156.4-106.82 318.2-162.2 476.97-91.56 262.55-21.7 213.3 358.43 213.3h5140.38c102.57 0 214.26 4.27 315.63.23 130-5.2 84.62-115.75 57.13-200l-163.46-484.9c-27.05-78.2-77.73-136.98-171.97-142.16l-968.94 2.8zM86.63 4086.82l8170.52.17-495.38-1708.17-1954.5-1.2-1.78 150.4c71.87 10.2 650.24 3.15 774.22 3.22 299.9.17 468.45-28.74 593.16 194.17 36.66 65.52 255.86 815.15 254.73 917.3-1.46 134.33-63.75 212.8-151.23 252.3-91.45 41.3-612.82 21.8-752.23 21.8h-4695.8c-137.4 0-674.05 19.12-761.98-21.4-242-111.54-127.64-391.46-78.08-564.8 32.15-112.4 142.02-534 181.92-605.4 123.66-221.25 284.64-194.36 584.04-194.17 125.15.08 711.68 7.73 783.18-2.83l-.26-148.72c-103.45-10.44-1335.3-1.9-1551.66-1.9-478.5 0-389.5-26.73-547.36 495.05L86.63 4086.82zm2519.8-3019.07l4 1904.76 3122.36 1.13 3.7-1954.1-3129.78-.38-.27 48.6zm-737.48 7346.67l4603.12 1.04-727.44-1907.3-72.6.18-3010.14.08-64.74-.17-728.2 1906.18zm-649.3-1616.33c23.62-23.62 37.77-50.9 55.04-78.35 47.57-75.63 128.34-179.84 167.12-249.45 58.4-104.77-49.82-523 46.74-544.73 13.52-3.04 28.8-2.16 42.8-2.1l5232.47.72c26.2 3.88 13.47-1.24 32.2 12.85 27.78 33.24 3.43 388.6 9.5 484.08 3.34 52.66 151.67 256.1 184.15 303.35 42.58 61.9 91.38 148.55 135.25 197.22 9.3-205.9 1.04-431.38 1.04-639.45 0-199.42 15.1-1145.8-13.14-1265.06-37.77-159.6-164.36-286.4-316.66-331.7-115.06-34.23-1076.8-17.8-1272.3-17.8H2949.03c-420.96 0-870.26-15.2-1287.7.35-196.2 7.3-328.83 125.2-393.12 248.06-76.03 145.3-50.96 418.4-50.96 597.42l2.4 1284.6zm6219.85 597.3l827.74.5 16.67-3036.27L74.1 4361.2c-11.54 142.83-1.64 797.26-1.64 994.85v1500.43c0 154.67-18.9 324.75 70.58 425.82 109.62 123.84 187.1 114.36 388.63 114.36 81.54 0 170.64 3.6 251.04.95 59.65-1.97 67.08-32.48 125.42-127.54 62.38-101.68 134.52-197.34 201.03-299.05 55.7-85.18 39.14-86.8 39.14-207.16-.01-272.2-14.18-1615.25 10.48-1743.87 27.43-143.1 114.6-254.34 191.23-309.28 126.16-90.43 197.7-111.44 385.7-111.18l4501.32.02c147.57 0 353.7-11.85 494.38 3.24 122.04 13.08 264.58 85.53 330.57 169.04 79.28 100.33 131.82 196.67 133.06 371.18l-.1 1750.52c-.03 124.35-14.55 118.3 42.8 203.52 52.12 77.4 142.53 237.53 201.76 298.36zm227.88-2531.82c-346.22 86.9-215.47 603.12 127.6 522.2 344.9-81.36 224.44-610.55-127.6-522.2zm27.73 64.86c-274 60.87-169.9 453.47 86.7 389.3 252-63.04 159.07-443.88-86.7-389.3zm-12.93 1331.62c-260.18 75.44-143 447.32 105.46 378.04 88.18-24.6 166.03-119.82 137.03-236.6-22.77-91.7-124.12-175.77-242.5-141.45zm22.9 67.2c-171.12 41.94-106.1 286.13 61.75 243.23 155.7-39.8 101.87-283.32-61.75-243.23zm-24.3-670c-251.53 69.87-146.77 449.64 106.12 377.85 88.67-25.2 165.07-119.44 138.1-236.56-21.3-92.48-125.9-174.16-244.23-141.3zm23.06 67.46c-170.53 42.9-103.15 285.18 62.6 243.2 154.75-39.2 103.94-285.07-62.6-243.2z" stroke="#000" stroke-width="42.33" stroke-miterlimit="22.9256" fill="#121325"/></svg>