<svg xmlns="http://www.w3.org/2000/svg" xmlns:xlink="http://www.w3.org/1999/xlink" viewBox="0 0 264 280"><defs><circle id="A" cx="120" cy="120" r="120"/><path d="M12 160c0 66.274 53.726 120 120 120s120-53.726 120-120h12V0H0v160h12z" id="B"/><path d="M124 144.61V163h4c39.765 0 72 32.235 72 72v9H0v-9c0-39.765 32.235-72 72-72h4v-18.39c-17.237-8.19-29.628-24.924-31.695-44.73C38.48 99.058 34 94.052 34 88V74c0-5.946 4.325-10.882 10-11.834V56c0-30.928 25.072-56 56-56s56 25.072 56 56v6.166c5.675.952 10 5.888 10 11.834v14c0 6.052-4.48 11.058-10.305 11.88-2.067 19.806-14.458 36.54-31.695 44.73z" id="C"/></defs><g fill="none" fill-rule="evenodd"><g transform="translate(12 40)"><mask id="D" fill="#fff"><use xlink:href="#A"/></mask><use fill="#e6e6e6" xlink:href="#A"/><g mask="url(#D)" fill="#65c9ff"><path d="M0 0h240v240H0z"/></g></g><mask id="E" fill="#fff"><use xlink:href="#B"/></mask><g mask="url(#E)"><g transform="translate(32 36)"><mask id="F" fill="#fff"><use xlink:href="#C"/></mask><use fill="#d0c6ac" xlink:href="#C"/><g mask="url(#F)" fill="#ffdbb4"><path d="M-32 0h264v244H-32z"/></g><path d="M156 79v23c0 30.928-25.072 56-56 56s-56-25.072-56-56v-8c0 30.928 25.072 56 56 56s56-25.072 56-56V79z" fill-opacity=".1" fill="#000" mask="url(#F)"/></g><g transform="translate(0 170)"><defs><path d="M165.624 29.268C202.76 32.138 232 63.18 232 101.052V110H32v-8.948c0-38.217 29.775-69.48 67.393-71.855A14.107 14.107 0 0 0 99 32.5C99 44.374 113.998 54 132.5 54S166 44.374 166 32.5c0-1.098-.128-2.178-.376-3.232z" id="G"/></defs><mask id="H" fill="#fff"><use xlink:href="#G"/></mask><use fill="#e6e6e6" xlink:href="#G"/><g mask="url(#H)" fill="#ff488e"><path d="M0 0h264v110H0z"/></g><g fill="#fff" mask="url(#H)"><path d="M87.272 88.132c3.273-.56 5.73-3.554 5.18-6.788-.464-2.724-1.745-.343-2.976.853-1.335 1.298-2.45 2.574-4.536 2.054-3.607-.9-4.858-5.4-3.84-8.48a5.941 5.941 0 0 1 3.478-3.696c1.852-.746 3.204.1 4.748 1.094.29.187 1.73 1.37 1.994 1.25.462-.21.115-2.43.045-2.725-.338-1.42-1.266-2.575-2.617-3.238-3.333-1.635-7.514.49-9.64 3.055-4.884 5.897-.92 18.164 8.164 16.62m8.417-6.228c.503 3.474 2.977 6.5 6.952 6.357 4.278-.155 6.056-4.098 7.008-7.486.957-3.4 2.052-7.683.664-11.093-.42-1.032-.685-2.38-1.716-1.53-1.252 1.033-1.41 4.04-1.515 5.442-.2 2.647-.78 9.97-4.108 10.944-4.18 1.222-4.048-5.847-4-7.977.04-1.896.246-3.734-.342-5.584-.313-.985-.6-2.44-1.528-1.634-1.3 1.108-1.453 3.828-1.544 5.327-.144 2.405-.214 4.842.13 7.234m19.094 2.843c.188.412.624 1.402 1.02 1.68.944.66-.055.708.8-.06.813-.73 1.13-2.717 1.254-3.67.385-2.96-.12-6.108-.087-9.093 1.024 2.218 1.584 4.584 2.386 6.874.554 1.582 1.396 4.804 3.654 4.753 2.443-.055 2.57-3.145 2.894-4.82.46-2.37.97-4.72 1.676-7.037.092 3.9-1.427 10.995 2.108 13.92.014.013 1.432-4.15 1.467-4.406.223-1.69.083-3.444.107-5.148.05-3.597.718-8.003-.3-11.506-.328-1.134-.975-2.264-2.41-2.233-1.825.04-2.233 1.985-2.698 3.298-1.28 3.614-2.445 7.224-3.357 10.94-.548-1.68-5.34-16.42-8.79-10.9-.555.888-.315 2.218-.338 3.196l-.196 5.635c-.06 2.843-.4 5.907.808 8.577M139.02 71.7c.72-.135 5.735-1.727 5.523-.136-.223 1.675-4.633 3.31-5.816 3.876a10.629 10.629 0 0 0-.643-3.567l.936-.173m5.717-.64s-.027-.035 0 0m.122 8.34c2.272 1.22 1.287 3.417-.426 4.608-.65.45-6.53 1.802-6.513 1.663.176-1.69-.26-5.013.996-6.015 1.304-1.04 4.5-.808 5.943-.256m.062-7.995c.01.022.001.002 0 0m-9.977 16.844c.224.55.86 1.912 1.566 1.945.86.04.794-1.043.93-1.7 3.44 1.72 8.498-.047 10.907-3.03 2.787-3.45 1.348-8.27-2.58-9.745 2.113-1.688 4.026-5.4 1.255-7.5-2.196-1.655-5.828-1.747-8.123-.302-2.735 1.723-3.85 5.833-4.1 9.006-.255 3.382-1.158 8.125.135 11.326m18.106-8.39c.074 2.07-.15 4.287.332 6.306.17.717.433 1.51.76 2.162.61 1.215.3 1.05 1.032.36 2.172-2.083 1.21-8.575 1.157-11.25-.04-2.078.064-4.28-.513-6.283-.162-.562-1.123-3.348-1.655-3.284-.816.098-1.376 3.93-1.423 4.693-.148 2.396.226 4.895.3 7.295m18.698.56c-1.582-.137-3.622.075-5.117.557.697-1.916 1.475-4.054 2.238-5.8.474-1.1.972-2.17 1.494-3.24 1.278 2.686 1.992 5.828 2.832 8.666a15.7 15.7 0 0 0-1.447-.193m5.44.725c-.727-2.78-1.58-5.532-2.426-8.28-.538-1.743-1.13-3.91-2.6-5.168-4.163-3.56-6.527 5.85-7.548 8.232-.985 2.296-2.216 4.634-2.85 7.05a9.478 9.478 0 0 0-.244 3.652c.205 1.52-.004 1.74 1.294.914 1-.636 1.414-1.792 2.227-2.562.144-.136.218-.668.4-.755.188-.096 1.504.253 1.815.274 2.17.15 4.712-.218 6.715-1.054.205.842 1.627 5.962 2.977 5.773.597-.083.965-3.064.992-3.537.087-1.553-.352-3.05-.742-4.538m9.114-13.723c-.264-1.203-.814-3.292-1.842-2.112-1.4 1.596-1.1 5.173-1.11 7.177-.015 1.45-1.552 12.062.556 11.883-.1 0 .845-1.668.98-1.922.815-1.524 1.13-2.97 1.33-4.722.365-3.237.783-7.11.088-10.304m-1.138 20.87c-2.24-2.728-6.31.658-5.04 3.374 1.73 3.7 7.33-.56 5.04-3.374m-13.266 4.244c-2.89-.738-6.297-.24-9.25-.152l-9.24.357c-6.568.198-13.124.092-19.692.038-12.454-.103-24.935.7-37.383.168-2.672-.112-5.545-.713-8.198-.21-.727.14-3.01.543-3.33 1.266-.336.76 1.402 1.555 2.33 1.955 2.422 1.044 5.33.858 7.9.964 2.93.12 5.887.058 8.82-.014 12.075-.297 24.09-1.343 36.18-1.165 6.976.103 13.937.038 20.912.001 3.32-.017 7 .526 10.273-.062.552-.1 3.763-.854 3.807-1.836.02-.453-2.806-1.228-3.13-1.31"/></g></g><g fill="#000"><path d="M118 150c0 5.372 6.158 9 14 9s14-3.628 14-9c0-1.105-.95-2-2-2-1.293 0-1.87.905-2 2-1.242 2.938-4.317 4.716-10 5-5.683-.284-8.758-2.062-10-5-.13-1.095-.707-2-2-2-1.05 0-2 .895-2 2z" fill-opacity=".6" fill-rule="nonzero"/><path d="M120 130c0 4.418 5.373 8 12 8s12-3.582 12-8" fill-opacity=".16"/><path d="M103.24 110.346a6 6 0 1 0 10.699 2.8 1.998 1.998 0 0 0-.125-.739 7.509 7.509 0 0 0-.144-.372 6.007 6.007 0 0 0-1.646-2.484c-2.126-2.234-5.52-3.55-9.027-3.55-4.834 0-8.99 2.65-10.838 6.447-.54 1.11.387 1.853 1.278 1.125 2.436-1.993 5.82-3.228 9.56-3.228l.243.002zm58 0a6 6 0 1 0 10.699 2.8 1.998 1.998 0 0 0-.125-.739 7.509 7.509 0 0 0-.144-.372 6.007 6.007 0 0 0-1.646-2.484c-2.126-2.234-5.52-3.55-9.027-3.55-4.834 0-8.99 2.65-10.838 6.447-.54 1.11.387 1.853 1.278 1.125 2.436-1.993 5.82-3.228 9.56-3.228l.243.002zm-54.007-7.924l-.91.402c-5.242 2.08-13.188 1.21-18.046-1.123-.567-.272-.18-1.153.402-1.108 14.92 1.15 24.963-8.146 28.375-14.44.1-.187.407-.208.482-.034 2.308 5.32-4.45 13.985-10.302 16.303zm49.532 0l.91.402c5.242 2.08 13.188 1.21 18.046-1.123.567-.272.18-1.153-.402-1.108-14.92 1.15-24.963-8.146-28.375-14.44-.1-.187-.407-.208-.482-.034-2.308 5.32 4.45 13.985 10.302 16.303z" fill-opacity=".6"/></g><defs><path id="I" d="M0 0h264v280H0z"/><path d="M162.83 71.618A56.73 56.73 0 0 1 163 76v38c0 22.34-13.08 41.623-32 50.61V183h4c1.524 0 2.038.047 3.54.14-14.913 27.356-18.715 50.434-1.067 64.403 1.698 1.203 2.924 1.786 3.135 1.885 2.373 1.118 4.837 2.34 7.467 2.955 4.623 1.08 9.933-.373 14.557-.953 2.112-.266 4.217-.43 6.346-.436 2.565-.01 5.21.084 7.142 1.697 1.884 1.574 1.644 7.198-3.875 9.833 4.1 1.855 9.012-2.453 10.688-5.177 1.466-2.385 2.594-4.968 3.214-7.605.772-3.283.822-6.725.218-10.014-1.258-6.848-4.176-13.432-6.163-20.122-.732-2.466-1.686-5.165-2.102-7.7-.113-.684-.247-3.215-.14-3.744.078-.393.06-.797 1.415-1.176 3.916-1.096 8.007-2.933 10.852-5.52 3.365-3.058 5.12-7.03 6.533-10.98 2.24-6.252 3.523-12.947 4.113-19.44a55.87 55.87 0 0 0 .215-4.047c.015-.817-.085-1.747.008-2.565.153-1.34-.054-.987 1.248-1.874 4.257-2.9 7.58-7.122 9.7-11.37 3.346-6.672 3.782-13.708 1.066-20.467-2.253-5.607-5.827-11.235-11.392-14.846-2.137-1.386-4.392-2.643-6.6-3.93-1.2-.7-4.048-1.615-4.906-2.517-.6-.63.355-3.792.476-4.858.528-4.648-.08-9.157-1.165-13.696-2.394-10.008-12.033-26.15-15.903-35.662-3.325-8.172-8.136-55.3-65.03-55.026s-67.168 50.24-74.87 59.575c-8.365 10.138-16.81 29.402-11.113 47.262-5.504 6.922-18.058 17.008-21.218 27.1-1.982 6.325-1.897 13.37.644 19.507 1.437 3.47 3.496 6.618 5.91 9.64 2.117 2.646 4.468 5.15 6.518 7.837 1.237 1.622 1.568 2.02 1.102 4.018-.92 3.94-2.82 7.725-4.466 11.475-2.552 5.8-4.697 11.22-5.014 17.413-.302 5.896 1.324 22.673 18.26 32.56a62.778 62.778 0 0 0 6.042 3.11c-1.1-3.396.146-15.524 2.343-20.032.56 1.55 1.51 3.043 2.536 4.398 1.6 2.115 5.374 7.41 10.147 7.655-1.937-2.984-4.02-4.998-4.624-8.598 3.977 1.96 9.634 3.747 14.262 3.582 3.404-.12 8.424-1.82 10.953-3.943-8.372 1.327-16.32-1.433-19.518-7.33-.667-1.23-1.174-2.52-1.468-3.86-.417-1.9-1.076-4.944-.19-6.697.215-.426.566-.86.984-1.3a30.968 30.968 0 0 1-.197-.235c5.694-4.787 12.84-12.404 16.665-17.97l.2-.367h.04l.085-.126A72.215 72.215 0 0 1 79 183h4v-18.39C64.08 155.623 51 136.34 51 114V76c0-2.463.16-4.888.467-7.267 3.942-1.263 7.898-2.455 11.932-3.528 4.456-1.186 14.4-3.114 18.3-4l2.736-2.98 1.063 1.955c2.158-.166 14.078-1.957 14.078-1.957l1.33-3.223c1.717 1.763 2.94 2.68 2.94 2.68 2.556-.21 13.653-.458 16.285-.426l9.12.328 1.668-.638.548 1.077c1.454.59 10.243 3.6 11.978 4.128l2.547-.906c1.12 2.694 3.94 2.354 6.276 4.48 2.503 2.28 7.226 4.024 10.574 5.905z" id="J"/></defs><mask id="K" fill="#fff"><use xlink:href="#I"/></mask><g mask="url(#K)"><path d="M99.9 42.465c-9.798 6.007-18.514 13.862-24.313 22.895-2.762 4.303-5.034 8.84-7.15 13.398a136.14 136.14 0 0 0-2.961 6.931c-.587 1.47-1.487 3.056-.64 4.6.517-.302.713-.194.388.347 2.692.734 6.434-1.335 8.767-2.1 4.763-1.56 9.53-3.033 14.408-4.33 4.456-1.186 14.4-3.114 18.3-4l2.736-2.98 1.063 1.955c2.158-.166 14.078-1.957 14.078-1.957l1.33-3.223c1.717 1.763 2.94 2.68 2.94 2.68 2.556-.21 13.653-.458 16.285-.426l9.12.328 1.668-.638.548 1.077c1.454.59 10.243 3.6 11.978 4.128l2.547-.906c1.12 2.694 3.94 2.354 6.276 4.48 3.092 2.814 9.57 4.816 12.66 7.263 1.108.876 2.143 1.792 3.183 2.726 1.156 1.037.985 1.188 1.36 2.378.113.356 1.256 2.2 1.743 2.35 1.733.536-10.154-30.486-13.417-34.453-3.368-4.094-25.21-31.654-54.174-30.752" fill-opacity=".16" fill="#000"/><g transform="translate(25 16)"><mask id="L" fill="#fff"><use xlink:href="#J"/></mask><use fill="#361a0a" xlink:href="#J"/><g mask="url(#L)" fill="#4a312c"><path d="M0 0h264v280H0z"/></g><path d="M62.68 184.462c7.075-9.707-.53-36.675-6.552-46.66 16.837-7.663 50.086-6.248 99.746 4.247-4.795 8.852-6.75 16.756-5.868 23.7-4.537 5.575-8.286 11.37-11.246 17.383l-34.87 8.606c-22.036 2.653-35.773.225-41.2-7.285z" fill-opacity=".24" fill="#000" mask="url(#L)"/></g><path d="M78.04 170.094c-.06-.2-.205-.427-.405-.665l.405.665zm-22.63-49.72a88.6 88.6 0 0 0 4.456 18.002c2.062 5.72 4.42 11.46 7.813 16.7 3.16 4.876 6.924 9.425 9.956 14.362-.797-.948-2.472-2.1-3.114-2.778a49.966 49.966 0 0 1-2.984-3.458c-1.923-2.443-3.637-5-5.294-7.583-3.252-5.073-5.7-10.576-7.803-16.08-4.15-10.807-8.313-23.913-4.666-35.33-.282.735.46 2.488.575 3.297.204 1.414.386 2.837.478 4.26.185 2.883.184 5.75.583 8.618zm12.445 44.666c-1.358-1.73-3.88-3.097-5.442-4.762-1.415-1.5-2.51-3.2-3.506-4.94-2.255-3.94-3.737-7.964-4.217-12.37.1.523.918 1.427 1.173 1.856a85.236 85.236 0 0 1 1.788 3.124c1.097 2.04 2.013 4.15 3.122 6.187 2.038 3.74 4.63 7.36 7.082 10.905zm4.677 18.458c1.115 1.962 2.04 3.966 2.625 6.102a42.27 42.27 0 0 1 .77 3.413c.07.37.082 1.696.258 2.27-2.215-4.29-3.905-8.835-6.543-12.942-2.604-4.054-5.947-7.78-9.446-11.28-3.695-3.695-7.4-7.182-9.392-11.847-1.725-4.06-2.39-8.218-2-12.556.002 1.91 1.757 4.622 2.363 6.47.83 2.527 1.49 5.105 2.737 7.507 2.126 4.09 5.96 7.243 9.165 10.688 3.553 3.816 6.946 7.762 9.453 12.177zm-14.303-9.32a21.991 21.991 0 0 1 2.806 3.275c.898 1.285 1.556 2.636 2.145 4.05.507 1.217.73 3.482 1.527 4.498-2.578-3.146-5.233-6.117-7.01-9.7l-2.243-4.495c.23.593 2.253 1.86 2.776 2.362zm-10.326 6.35c2.838 4.25 6.548 8.08 8.974 12.528 2.83 5.187 4.075 10.807 4.326 16.54.12 2.71.112 5.465-.253 8.168-.196 1.448-.5 2.886-.87 4.312-.136.54-.84 1.926-.977 2.77-.3-10.54 1.454-21.082-4.027-30.903-2.596-4.65-6.586-8.616-9.68-13.018-2.782-3.96-5.498-7.84-7.713-12.074 1.356 1.716 3.8 3.065 5.316 4.77 1.9 2.134 3.348 4.58 4.902 6.908zm11.2 44.32c-.032.204-.033.377.014.5l-.013-.5zm-9.543-22.353c.001.496.816 1.518 1.04 2.035.52 1.21.946 2.478 1.157 3.76.418 2.53-.13 5.14-1.067 7.56-1.9 4.907-4.874 9.253-8.613 13.3 1.335-1.748 1.867-4.59 2.806-6.538.965-2 2-3.97 2.85-6.01 1.92-4.605 1.75-9.31 1.827-14.107zM40.917 221.2c.4-.548.193-3.183.405-3.872.392-1.273 1.07-2.502 1.85-3.635-.416.7.198 2.466-.005 3.373-.332 1.49-1.17 2.932-2.25 4.134zm57.7-178.453a.934.934 0 0 0-.239.297l.24-.297zM83.847 64.33c1.42-1.246 2.177-4.2 3.156-5.78 1.125-1.825 2.418-3.58 3.645-5.356 2.432-3.524 4.726-6.984 7.72-10.2-.622.934-1.173 3.768-1.514 4.513a34.612 34.612 0 0 1-3.221 5.605c-2.86 4.044-5.93 7.803-9.786 11.208zm-.535-10.2c.75-1.327 1.894-2.448 3.18-3.414-.573.503-.83 2.575-1.225 3.275-.795 1.412-1.953 2.63-3.196 3.772.664-.582.772-2.803 1.24-3.633zm119.194 98.006l-.04.3c-.002-1.525-.68-3.2-.76-4.77-.113-2.2.202-4.315 1.082-6.392 1.74-4.1 5.003-7.207 9.164-9.638-1.145.674-2.267 3.213-3 4.268-1.103 1.586-2.282 3.187-3.214 4.85-1.943 3.47-2.506 7.618-3.23 11.37zm-1.508-21.646a22.94 22.94 0 0 1-.989 3.626c-.474 1.28-1.093 2.523-1.783 3.728-.43.75-1.98 2.327-1.978 3.157-.083-4.898 1.728-9.335 5.172-13.257-.378.657-.283 2.03-.422 2.746zm-.8 35.238c3.656-.517 7.105 1.26 9.42 3.55 1.238 1.224 2.338 2.63 3.065 4.133.547 1.13.546 2.983 1.28 3.92-1.797-2.42-4.076-4.373-6.324-6.464-1.564-1.455-4.688-5.18-7.442-5.14zm-.778 10.377c-.192-.065-1.934-.558-2.337-.32.597-.267 1.33-.592 1.987-.68 4.284-.57 9.492 3.14 10.067 6.72-.478-1.226-3.025-2.24-4.176-2.85-1.823-.967-3.564-2.137-5.54-2.872zm1.81 7.81c.742.182 2.32 1.176 3.047 1.165-2.93.07-5.572-.255-8.39-.914.152.04 1.76-.456 1.81-.463 1.215-.172 2.357-.076 3.533.212zm-11.345 13.857c4.288-.242 9.336.384 13.43 1.417a22.338 22.338 0 0 1 5.692 2.295c1.414.814 3.93 1.932 4.876 3.137-3.74-6.452-11.85-9.803-20.16-8.14-1.107.222-2.808 1.276-3.84 1.29zm-.96 12.433c2.688-.965 5.66-1.894 8.583-2.03 2.77-.127 5.845.3 8.4 1.173-.883-.24-2.993.332-3.92.437l-3.896.418a51.749 51.749 0 0 1-4.801.222c-1.14-.002-3.32-.54-4.376-.22zM178.46 227.4c.253 3.972 2.552 7.434 5.93 10.08 3.583 2.805 8.38 4.082 10.98 7.83 1.267 1.825 1.943 3.95 1.834 6.098-.056 1.106-.334 2.218-.635 3.294-.197.708-.902 1.868-.9 2.56.03-3.887.084-8.412-2.636-11.673-2.73-3.274-7.493-4.427-10.83-7.115-3.278-2.642-5.765-6.094-6.325-9.985-.452-3.144-.23-8.626 3.03-10.76-.662.4-.53 2.374-.547 2.93a73.85 73.85 0 0 0 .098 6.742zm-2.453 15.262c.396.52 2.57 1.15 3.208 1.5 1.456.817 2.865 1.746 4.02 2.877 2.317 2.266 3.8 5.445 3.918 8.494 0-.72-1.646-2.457-2.11-3.073-.768-1.022-1.635-1.97-2.518-2.917l-6.52-6.89zM228.17 153.8c1.204 1.05 2 2.357 2.675 3.71 1.53 3.12 1.815 6.717.59 10 .203-.704-.4-2.184-.57-2.898-.373-1.563-.955-3.04-1.563-4.542-1.18-2.916-2.134-5.648-4.184-8.202.53.668 2.328 1.3 3.054 1.933zM170.5 41.983c0 .332.917 1.293 1.123 1.654.517.902.924 1.85 1.064 2.855.158 1.142-.035 2.26-.38 3.37-.206.66-1.184 1.934-1.184 2.528-.16-3.498-.933-6.86-.622-10.406zm7.637 6.822c.165 1.243-.24 2.644-.964 3.742.132-.3-.454-2.383-.473-2.762-.06-1.173.07-2.38.146-3.552.001.64 1.183 1.763 1.29 2.572zm-60.77 1.568a34.964 34.964 0 0 1-4.15 4.243c-1.023.9-2.984 1.9-3.764 2.9 3.5-5.71 7.546-10.638 12.302-15.63-.716.92-.903 2.916-1.428 3.993-.774 1.587-1.8 3.076-2.96 4.484zm5.898 2.48c.57-.336 1.104-1.993 1.538-2.55a16.914 16.914 0 0 1 2.578-2.63c-.205.22-.602 2.044-.825 2.402-.723 1.16-2 2.107-3.3 2.778z" fill-opacity=".6" fill="#fff"/><g transform="translate(61 85)"><defs><path d="M80.465 16.394C84.38 8.46 92.553 3 102 3c8.92 0 16.703 4.866 20.84 12.088a2.52 2.52 0 0 1 .66-.088h8a2.5 2.5 0 1 1 0 5h-6.537A23.998 23.998 0 0 1 126 27c0 13.255-10.745 24-24 24S78 40.255 78 27c0-1.422.124-2.815.36-4.17-.083-4.376-3.445-7.83-7.497-7.83-3.736 0-6.887 2.94-7.42 6.83.365 1.665.558 3.395.558 5.17 0 13.255-10.745 24-24 24S16 40.255 16 27a24.01 24.01 0 0 1 1.037-7H10.5a2.5 2.5 0 1 1 0-5h8a2.48 2.48 0 0 1 .66.088C23.297 7.866 31.08 3 40 3c9.352 0 17.455 5.35 21.416 13.155C63.493 13.04 66.95 11 70.862 11c4.013 0 7.545 2.144 9.603 5.394zM40 47c11.046 0 20-8.954 20-20S51.046 7 40 7s-20 8.954-20 20 8.954 20 20 20zm62 0c11.046 0 20-8.954 20-20s-8.954-20-20-20-20 8.954-20 20 8.954 20 20 20z" id="M"/><filter x="-.8%" y="-2.1%" width="101.6%" height="108.3%" id="N"><feOffset dy="2" in="SourceAlpha"/><feColorMatrix values="0 0 0 0 0 0 0 0 0 0 0 0 0 0 0 0 0 0 0.1 0"/></filter></defs><use fill="#000" filter="url(#N)" xlink:href="#M"/><use fill="#252c2f" xlink:href="#M"/></g></g></g></g></svg>