<svg xmlns="http://www.w3.org/2000/svg" xmlns:xlink="http://www.w3.org/1999/xlink" viewBox="0 0 264 280"><defs><circle id="A" cx="120" cy="120" r="120"/><path d="M12 160c0 66.274 53.726 120 120 120s120-53.726 120-120h12V0H0v160h12z" id="B"/><path d="M124 144.61V163h4c39.765 0 72 32.235 72 72v9H0v-9c0-39.765 32.235-72 72-72h4v-18.39c-17.237-8.19-29.628-24.924-31.695-44.73C38.48 99.058 34 94.052 34 88V74c0-5.946 4.325-10.882 10-11.834V56c0-30.928 25.072-56 56-56s56 25.072 56 56v6.166c5.675.952 10 5.888 10 11.834v14c0 6.052-4.48 11.058-10.305 11.88-2.067 19.806-14.458 36.54-31.695 44.73z" id="C"/></defs><g fill="none" fill-rule="evenodd"><g transform="translate(12 40)"><mask id="D" fill="#fff"><use xlink:href="#A"/></mask><use fill="#e6e6e6" xlink:href="#A"/><g mask="url(#D)" fill="#65c9ff"><path d="M0 0h240v240H0z"/></g></g><mask id="E" fill="#fff"><use xlink:href="#B"/></mask><g mask="url(#E)"><g transform="translate(32 36)"><mask id="F" fill="#fff"><use xlink:href="#C"/></mask><use fill="#d0c6ac" xlink:href="#C"/><g mask="url(#F)" fill="#d08b5b"><path d="M-32 0h264v244H-32z"/></g><path d="M156 79v23c0 30.928-25.072 56-56 56s-56-25.072-56-56v-8c0 30.928 25.072 56 56 56s56-25.072 56-56V79z" fill-opacity=".1" fill="#000" mask="url(#F)"/></g><g transform="translate(0 170)"><defs><path d="M133.96.295c36.976 3.03 66.04 34 66.04 71.757V81H0v-8.948C0 33.952 29.592 2.765 67.045.22 67.015.593 67 .97 67 1.348c0 11.863 14.998 21.48 33.5 21.48S134 13.21 134 1.348c0-.353-.013-.704-.04-1.053z" id="G"/></defs><g transform="translate(32 29)"><mask id="H" fill="#fff"><use xlink:href="#G"/></mask><use fill="#e6e6e6" xlink:href="#G"/><g mask="url(#H)" fill="#262e33"><path d="M-32-29h264V81H-32z"/></g><g opacity=".6" mask="url(#H)" fill-opacity=".16" fill="#000"><ellipse cx="100.5" cy="2.848" rx="39.635" ry="26.914"/></g></g><path d="M100.785 29.122C62.512 30.804 32 62.365 32 101.052V110h69.362C97.96 97.92 96 83.71 96 68.5c0-14.327 1.74-27.77 4.785-39.378zM163.638 110H232v-8.948c0-38.345-29.975-69.7-67.77-71.878C167.265 40.77 169 54.194 169 68.5c0 15.21-1.96 29.42-5.362 41.5z" fill="#3a4c5a"/><path d="M181 86l9.556-7.167a4 4 0 0 1 4.856.043L202 84l-21 2z" fill="#e6e6e6"/><path d="M101 28c-4 19.333-2.333 46.667 5 82H90L76 74l6-9-6-6 19-30c2.028-.63 4.028-.964 6-1zm62 0c4 19.333 2.333 46.667-5 82h16l14-36-6-9 6-6-19-30c-2.028-.63-4.028-.964-6-1z" fill="#2f4351"/></g><g fill="#000"><rect x="120" y="152" width="24" height="6" rx="3" fill-opacity=".7"/><path d="M120 130c0 4.418 5.373 8 12 8s12-3.582 12-8" fill-opacity=".16"/><path d="M103.24 110.346a6 6 0 1 0 10.699 2.8 1.998 1.998 0 0 0-.125-.739 7.509 7.509 0 0 0-.144-.372 6.007 6.007 0 0 0-1.646-2.484c-2.126-2.234-5.52-3.55-9.027-3.55-4.834 0-8.99 2.65-10.838 6.447-.54 1.11.387 1.853 1.278 1.125 2.436-1.993 5.82-3.228 9.56-3.228l.243.002zm58 0a6 6 0 1 0 10.699 2.8 1.998 1.998 0 0 0-.125-.739 7.509 7.509 0 0 0-.144-.372 6.007 6.007 0 0 0-1.646-2.484c-2.126-2.234-5.52-3.55-9.027-3.55-4.834 0-8.99 2.65-10.838 6.447-.54 1.11.387 1.853 1.278 1.125 2.436-1.993 5.82-3.228 9.56-3.228l.243.002zm-65.957-23.34c-2.368-.266-4.858.497-6.427 2.434-.6.728-1.553 2.48-1.51 3.417.017.356.225.375 1.124.6 1.646.392 4.5-1.114 6.355-.972 2.582.198 5.047 1.395 7.283 2.68 3.838 2.202 8.354 6.84 13.093 6.598.353-.018 5.42-1.74 4.4-2.723-.316-.484-3.034-1.128-3.5-1.36-2.172-1.084-4.367-2.448-6.443-3.718-4.528-2.772-8.944-6.338-14.385-6.944m73.622 0c2.368-.266 4.857.497 6.426 2.434.6.728 1.554 2.48 1.51 3.417-.017.356-.225.375-1.124.6-1.645.392-4.5-1.114-6.355-.972-2.582.198-5.046 1.395-7.282 2.68-3.84 2.202-8.355 6.84-13.093 6.598-.353-.018-5.42-1.74-4.41-2.723.317-.484 3.034-1.128 3.502-1.36 2.17-1.084 4.367-2.448 6.442-3.718 4.528-2.772 8.945-6.338 14.386-6.944" fill-opacity=".6"/></g><defs><path id="I" d="M0 0h264v280H0z"/></defs><mask id="J" fill="#fff"><use xlink:href="#I"/></mask><g mask="url(#J)"><g transform="translate(48 72)"><defs><path d="M65.18 77.737c2.183-1.632 15.227-2.258 17.578-3.648.734-.434 1.303-.873 1.742-1.31.44.436 1.01.875 1.742 1.3 2.35 1.39 15.395 2.015 17.578 3.647 2.2 1.654 3.824 5.448 3.647 8.414-.212 3.56-4.106 12.052-13.795 13.03-2.114-2.353-5.435-3.87-9.172-3.87s-7.058 1.517-9.172 3.87c-9.7-.978-13.583-9.47-13.795-13.03-.176-2.966 1.437-6.76 3.647-8.414m.665 17.164l.017.007-.017-.007m79.018-38.916c-.39-5.955-1.585-11.833-2.63-17.7-.28-1.58-1.8-12.286-2.5-12.286-.232 9.1-1.032 18.08-2.064 27.14l-.845 8.134c-.17 2.196.135 4.848-.397 6.972-.68 2.706-4.08 5.232-6.725 6.165-6.6 2.326-12.105-7.303-17.742-10.12-7.318-3.656-19.897-4.527-27.38.24-7.645-4.766-20.224-3.895-27.542-.24-5.637 2.817-11.142 12.446-17.742 10.12-2.645-.933-6.047-3.46-6.725-6.165-.532-2.124-.226-4.776-.397-6.972-.213-2.718-.536-5.426-.845-8.135-1.032-9.06-1.833-18.03-2.065-27.14-.69 0-2.218 10.707-2.5 12.286-1.043 5.866-2.24 11.744-2.627 17.7-.4 6.12.077 12.18 1.332 18.177a165.44 165.44 0 0 0 2.049 8.541c.834 3.143-.32 9.262.053 12.488.707 6.104 3.582 18.008 6.81 23.26 1.56 2.538 3.4 4.123 5.433 6.168 1.967 1.97 2.788 5.02 4.9 7.118 3.956 3.908 9.72 6.234 15.64 6.806C65.677 143.05 74.506 146 84.5 146s18.823-2.95 24.135-7.457c5.92-.572 11.683-2.898 15.64-6.806 2.12-2.097 2.942-5.15 4.91-7.118 2.042-2.045 3.872-3.63 5.433-6.168 3.23-5.25 6.104-17.155 6.8-23.26.374-3.226-.78-9.345.054-12.488.75-2.828 1.45-5.676 2.05-8.54 1.254-5.997 1.73-12.06 1.332-18.18z" id="K"/></defs><mask id="L" fill="#fff"><use xlink:href="#K"/></mask><use fill="#5e7aa9" xlink:href="#K"/><g mask="url(#L)" fill="#c93305"><path d="M-32 0h264v244H-32z"/></g></g><g transform="translate(61 85)"><defs><filter x="-.8%" y="-2.4%" width="101.5%" height="109.8%" id="M"><feOffset dy="2" in="SourceAlpha"/><feColorMatrix values="0 0 0 0 0 0 0 0 0 0 0 0 0 0 0 0 0 0 0.2 0" result="B"/><feMerge><feMergeNode in="B"/><feMergeNode in="SourceGraphic"/></feMerge></filter></defs><g filter="url(#M)" transform="translate(6 7)" fill="#252c2f" fill-rule="nonzero"><path d="M34 41h-2.758C17.315 41 9 33.336 9 20.5 9 10.127 10.817 0 32.53 0h2.94C57.183 0 59 10.127 59 20.5 59 32.57 48.72 41 34 41zM32.385 6C13 6 13 12.84 13 21.502 13 28.572 16.116 37 30.97 37H34c12.365 0 21-6.373 21-15.498C55 12.84 55 6 35.615 6h-3.23zM96 41h-2.758C79.315 41 71 33.336 71 20.5 71 10.127 72.817 0 94.53 0h2.94C119.183 0 121 10.127 121 20.5 121 32.57 110.72 41 96 41zM94.385 6C75 6 75 12.84 75 21.502 75 28.572 78.12 37 92.97 37H96c12.365 0 21-6.373 21-15.498C117 12.84 117 6 97.615 6h-3.23z"/><path d="M2.955 5.772C3.645 5.096 11.2 0 32.5 0c17.85 0 21.63 1.853 27.35 4.652l.42.207c.398.14 2.43.83 4.8.907a16.998 16.998 0 0 0 4.563-.869C76.17 1.722 82.562 0 97.5 0c21.3 0 28.854 5.096 29.545 5.772 1.634 0 2.955 1.3 2.955 2.885v2.886c0 1.596-1.32 2.886-2.955 2.886 0 0-6.9 0-6.9 2.886s-1.962-4.176-1.962-5.772v-2.8c-3.603-1.38-10.054-3.947-20.682-3.947-11.842 0-17.74 2.1-22.798 4.185l.057.137-.003 1.986-2.217 5.35-2.74-1.084c-.244-.097-.772-.27-1.504-.45-2.04-.503-4.137-.656-5.992-.276-.68.14-1.312.35-1.89.633l-2.643 1.3-2.643-5.16.117-2.295.08-.195c-4.362-2.033-8.385-4.12-22.824-4.12-10.628 0-17.078 2.565-20.682 3.944v2.812c0 1.596-2.954 8.657-2.954 5.772s-5.9-2.886-5.9-2.886c-1.63 0-2.954-1.3-2.954-2.886V8.657c0-1.595 1.324-2.885 2.955-2.885z"/></g></g></g></g></g></svg>