<svg xmlns="http://www.w3.org/2000/svg" xmlns:xlink="http://www.w3.org/1999/xlink" viewBox="0 0 264 280"><defs><circle id="A" cx="120" cy="120" r="120"/><path d="M12 160c0 66.274 53.726 120 120 120s120-53.726 120-120h12V0H0v160h12z" id="B"/><path d="M124 144.61V163h4c39.765 0 72 32.235 72 72v9H0v-9c0-39.765 32.235-72 72-72h4v-18.39c-17.237-8.19-29.628-24.924-31.695-44.73C38.48 99.058 34 94.052 34 88V74c0-5.946 4.325-10.882 10-11.834V56c0-30.928 25.072-56 56-56s56 25.072 56 56v6.166c5.675.952 10 5.888 10 11.834v14c0 6.052-4.48 11.058-10.305 11.88-2.067 19.806-14.458 36.54-31.695 44.73z" id="C"/></defs><g fill="none" fill-rule="evenodd"><g transform="translate(12 40)"><mask id="D" fill="#fff"><use xlink:href="#A"/></mask><use fill="#e6e6e6" xlink:href="#A"/><g mask="url(#D)" fill="#65c9ff"><path d="M0 0h240v240H0z"/></g></g><mask id="E" fill="#fff"><use xlink:href="#B"/></mask><g mask="url(#E)"><g transform="translate(32 36)"><mask id="F" fill="#fff"><use xlink:href="#C"/></mask><use fill="#d0c6ac" xlink:href="#C"/><g mask="url(#F)" fill="#f8d25c"><path d="M-32 0h264v244H-32z"/></g><path d="M156 79v23c0 30.928-25.072 56-56 56s-56-25.072-56-56v-8c0 30.928 25.072 56 56 56s56-25.072 56-56V79z" fill-opacity=".1" fill="#000" mask="url(#F)"/></g><g transform="translate(0 170)"><defs><path d="M171.32 29.936C205.706 35.366 232 65.14 232 101.052V110H32v-8.948c0-35.914 26.294-65.686 60.682-71.116a23.896 23.896 0 0 0 7.554 13.603l29.085 26.23a4 4 0 0 0 5.358 0l29.085-26.23a24 24 0 0 0 1.234-1.196 23.888 23.888 0 0 0 6.322-12.407z" id="G"/></defs><mask id="H" fill="#fff"><use xlink:href="#G"/></mask><use fill="#e6e6e6" xlink:href="#G"/><g mask="url(#H)" fill="#b1e2ff"><path d="M0 0h264v110H0z"/></g></g><g fill="#000"><path d="M122.2 150.106c-.172-5.1-4.398-9.31-9.896-10.106 3.366 1.96 5.686 5.495 5.686 9.677 0 5.668-5.473 10.568-11.803 10.568H106a13 13 0 0 0 4.392.755c5.322 0 9.82-3.153 11.294-7.486 2.475 2.156 6.177 3.525 10.314 3.525s7.84-1.37 10.314-3.525c1.473 4.333 5.972 7.486 11.294 7.486 1.552 0 3.034-.268 4.392-.756l-.177.001c-6.33 0-11.803-4.9-11.803-10.568 0-4.182 2.32-7.718 5.686-9.677-5.498.797-9.724 4.996-9.897 10.106-2.564 1.736-6.014 2.8-9.81 2.8s-7.245-1.064-9.8-2.8z" opacity=".6" fill-opacity=".6"/><g fill="#ff4646"><circle fill-opacity=".2" cx="95" cy="149" r="9"/><circle fill-opacity=".2" cx="169" cy="149" r="9"/></g><path d="M120 130c0 4.418 5.373 8 12 8s12-3.582 12-8" fill-opacity=".16"/><g transform="translate(76 90)"><defs><path d="M14 14.048c9.6 0 14 4.45 14-2.486S21.732 0 14 0 0 4.624 0 11.562s4.4 2.486 14 2.486z" id="I"/></defs><g transform="translate(16 13)"><mask id="J" fill="#fff"><use xlink:href="#I"/></mask><use fill="#fff" xlink:href="#I"/><circle fill-opacity=".7" mask="url(#J)" cx="14" cy="10" r="6"/></g><g transform="translate(68 13)"><mask id="K" fill="#fff"><use xlink:href="#J" href="#I"/></mask><use fill="#fff" xlink:href="#J" href="#I"/><circle fill-opacity=".7" mask="url(#K)" cx="14" cy="10" r="6"/></g></g><path d="M98.766 83.578l.91-.402c5.242-2.08 13.188-1.21 18.046 1.123.567.272.18 1.153-.402 1.108-14.92-1.15-24.963 8.146-28.375 14.44-.1.187-.407.208-.482.034-2.308-5.32 4.45-13.985 10.302-16.303zm66.468 0l-.91-.402c-5.242-2.08-13.188-1.21-18.046 1.123-.567.272-.18 1.153.402 1.108 14.92-1.15 24.963 8.146 28.375 14.44.1.187.407.208.482.034 2.308-5.32-4.45-13.985-10.302-16.303z" fill-opacity=".6"/></g><defs><path id="L" d="M0 0h264v280H0z"/><path d="M48.725 89.22A12 12 0 0 0 42 100v13c0 6.02 4.43 11.002 10.21 11.867 1.743 20.248 14.26 37.416 31.79 45.744V189h-4c-1.586 0-3.16.05-4.72.152a72.113 72.113 0 0 1-13.689-9.103A48.013 48.013 0 0 1 48 182c-26.5 0-48-21.5-48-48 0-14.4 6.35-27.335 16.402-36.134A43.802 43.802 0 0 1 8 72c0-21.84 15.91-39.962 36.774-43.4C51.02 11.9 67.12 0 86 0a43.798 43.798 0 0 1 22 5.886A43.798 43.798 0 0 1 130 0c18.88 0 34.98 11.9 41.226 28.6C192.1 32.04 208 50.16 208 72a43.802 43.802 0 0 1-8.402 25.866C209.65 106.665 216 119.59 216 134c0 26.5-21.5 48-48 48a48 48 0 0 1-13.59-1.951 72.113 72.113 0 0 1-13.689 9.103A73.084 73.084 0 0 0 136 189h-4v-18.39c17.53-8.328 30.048-25.496 31.79-45.744C169.57 124.002 174 119.02 174 113v-13a11.99 11.99 0 0 0-5.476-10.073 24.329 24.329 0 0 1-3.235-1.47c-.42-.12-.85-.218-1.29-.29v-.453c-8.68-5.303-17.235-16.538-22.55-30.914C131.312 58.835 119.547 60 107 60c-11.96 0-23.212-1.06-33.02-2.92C68.756 71.064 60.465 82.043 52 87.423v.743a11.912 11.912 0 0 0-3.275 1.053z" id="M"/></defs><mask id="N" fill="#fff"><use xlink:href="#L"/></mask><g mask="url(#N)"><path d="M104.985 27.764C113.013 26.627 121.796 26 131 26c10.358 0 20.183.794 29 2.216C182.45 38.75 198 61.56 198 88v17.044c-11.538-.37-25.17-14.28-32.55-34.245C155.312 72.835 143.547 74 131 74c-11.96 0-23.212-1.06-33.02-2.92-7.304 19.548-20.597 33.223-31.98 33.943V88c0-26.825 16.004-49.913 38.985-60.236z" fill-opacity=".16" fill="#000"/><g transform="translate(24 10)"><mask id="O" fill="#fff"><use xlink:href="#M"/></mask><use fill="#314756" xlink:href="#M"/><g mask="url(#O)" fill="#f59797"><path d="M0 0h264v280H0z"/></g></g></g></g></g></svg>