<svg xmlns="http://www.w3.org/2000/svg" xmlns:xlink="http://www.w3.org/1999/xlink" viewBox="0 0 264 280"><defs><circle id="A" cx="120" cy="120" r="120"/><path d="M12 160c0 66.274 53.726 120 120 120s120-53.726 120-120h12V0H0v160h12z" id="B"/><path d="M124 144.61V163h4c39.765 0 72 32.235 72 72v9H0v-9c0-39.765 32.235-72 72-72h4v-18.39c-17.237-8.19-29.628-24.924-31.695-44.73C38.48 99.058 34 94.052 34 88V74c0-5.946 4.325-10.882 10-11.834V56c0-30.928 25.072-56 56-56s56 25.072 56 56v6.166c5.675.952 10 5.888 10 11.834v14c0 6.052-4.48 11.058-10.305 11.88-2.067 19.806-14.458 36.54-31.695 44.73z" id="C"/></defs><g fill="none" fill-rule="evenodd"><g transform="translate(12 40)"><mask id="D" fill="#fff"><use xlink:href="#A"/></mask><use fill="#e6e6e6" xlink:href="#A"/><g mask="url(#D)" fill="#65c9ff"><path d="M0 0h240v240H0z"/></g></g><mask id="E" fill="#fff"><use xlink:href="#B"/></mask><g mask="url(#E)"><g transform="translate(32 36)"><mask id="F" fill="#fff"><use xlink:href="#C"/></mask><use fill="#d0c6ac" xlink:href="#C"/><g mask="url(#F)" fill="#ffdbb4"><path d="M-32 0h264v244H-32z"/></g><path d="M156 79v23c0 30.928-25.072 56-56 56s-56-25.072-56-56v-8c0 30.928 25.072 56 56 56s56-25.072 56-56V79z" fill-opacity=".1" fill="#000" mask="url(#F)"/></g><g transform="translate(0 170)"><defs><path d="M171.32 29.936C205.706 35.366 232 65.14 232 101.052V110H32v-8.948c0-35.914 26.294-65.686 60.682-71.116a23.896 23.896 0 0 0 7.554 13.603l29.085 26.23a4 4 0 0 0 5.358 0l29.085-26.23a24 24 0 0 0 1.234-1.196 23.888 23.888 0 0 0 6.322-12.407z" id="G"/></defs><mask id="H" fill="#fff"><use xlink:href="#G"/></mask><use fill="#e6e6e6" xlink:href="#G"/><g mask="url(#H)" fill="#ff5c5c"><path d="M0 0h264v110H0z"/></g></g><g fill="#000"><g transform="translate(78 134)"><defs><path d="M29 15.61C30.4 25.23 41.062 33 54 33c12.968 0 23.646-7.817 25-18.26.1-.4-.225-1.74-2.174-1.74H31.174c-1.8 0-2.304 1.24-2.174 2.61z" id="I"/></defs><mask id="J" fill="#fff"><use xlink:href="#I"/></mask><use fill-opacity=".7" xlink:href="#I"/><rect fill="#fff" mask="url(#J)" x="39" y="2" width="31" height="16" rx="5"/><path d="M65.984 23.747A2.11 2.11 0 0 1 66 24v9c0 6.075-4.925 11-11 11h-1c-6.075 0-11-4.925-11-11v-9a1.92 1.92 0 0 1 .016-.253A1.922 1.922 0 0 1 43 23.5c0-1.933 2.9-3.5 6.5-3.5 2 0 3.808.49 5 1.263 1.192-.772 3-1.263 5-1.263 3.6 0 6.5 1.567 6.5 3.5a1.85 1.85 0 0 1-.016.247z" fill="#ff4f6d"/></g><path d="M120 130c0 4.418 5.373 8 12 8s12-3.582 12-8" fill-opacity=".16"/><g fill-opacity=".6"><circle cx="106" cy="112" r="6"/><path d="M146.6 114.955c1.577-3.918 5.54-6.85 10.36-7.188 4.805-.335 9.124 2 11.24 5.637.627 1.08-.09 2.052-.928 1.428-2.592-1.93-6.156-3-10.008-2.73-3.73.26-7.02 1.73-9.312 3.887-.838.79-1.814.113-1.352-1.033z"/></g><path d="M107.234 102.422l-.91.402c-5.242 2.08-13.188 1.21-18.046-1.123-.567-.272-.18-1.153.402-1.108 14.92 1.15 24.963-8.146 28.375-14.44.1-.187.407-.208.482-.034 2.308 5.32-4.45 13.985-10.302 16.303zm49.532 0l.91.402c5.242 2.08 13.188 1.21 18.046-1.123.567-.272.18-1.153-.402-1.108-14.92 1.15-24.963-8.146-28.375-14.44-.1-.187-.407-.208-.482-.034-2.308 5.32 4.45 13.985 10.302 16.303z" fill-opacity=".6"/></g><defs><path id="K" d="M0 0h264v280H0z"/><path d="M38 79.36V111c0 22.34 13.08 41.623 32 50.61v13.135c-19.637 2.688-35.36 7.418-46.615 6.254C9.162 179.53 1.496 150.796 1 126 .383 95.164 29.32 30.795 40 18 47.923 8.51 69.695.55 94 1s46.862 5.812 55 16c12.324 15.428 37.87 74.08 38 109 .094 24.8-9.537 49.66-23 51-11.08 1.103-26.524-1.49-46-3.003V161.61c18.92-8.988 32-28.272 32-50.61V82.988c-9.52-4.857-18.137-10.74-25.846-17.647 3.208 5.296 6.695 9.807 10.46 13.532-27.018-7.58-48.508-20.423-64.473-38.528C62.16 56.8 51.446 69.815 38 79.36z" id="L"/></defs><mask id="M" fill="#fff"><use xlink:href="#K"/></mask><g mask="url(#M)"><g transform="translate(38 19)"><mask id="N" fill="#fff"><use xlink:href="#L"/></mask><use fill="#e6e6e6" xlink:href="#L"/><g mask="url(#N)" fill="#d6b370"><path d="M0 0h264v280H0z"/></g></g></g></g></g></svg>