<svg xmlns="http://www.w3.org/2000/svg" xmlns:xlink="http://www.w3.org/1999/xlink" viewBox="0 0 264 280"><defs><circle id="A" cx="120" cy="120" r="120"/><path d="M12 160c0 66.274 53.726 120 120 120s120-53.726 120-120h12V0H0v160h12z" id="B"/><path d="M124 144.61V163h4c39.765 0 72 32.235 72 72v9H0v-9c0-39.765 32.235-72 72-72h4v-18.39c-17.237-8.19-29.628-24.924-31.695-44.73C38.48 99.058 34 94.052 34 88V74c0-5.946 4.325-10.882 10-11.834V56c0-30.928 25.072-56 56-56s56 25.072 56 56v6.166c5.675.952 10 5.888 10 11.834v14c0 6.052-4.48 11.058-10.305 11.88-2.067 19.806-14.458 36.54-31.695 44.73z" id="C"/></defs><g fill="none" fill-rule="evenodd"><g transform="translate(12 40)"><mask id="D" fill="#fff"><use xlink:href="#A"/></mask><use fill="#e6e6e6" xlink:href="#A"/><g mask="url(#D)" fill="#65c9ff"><path d="M0 0h240v240H0z"/></g></g><mask id="E" fill="#fff"><use xlink:href="#B"/></mask><g mask="url(#E)"><g transform="translate(32 36)"><mask id="F" fill="#fff"><use xlink:href="#C"/></mask><use fill="#d0c6ac" xlink:href="#C"/><g mask="url(#F)" fill="#d08b5b"><path d="M-32 0h264v244H-32z"/></g><path d="M156 79v23c0 30.928-25.072 56-56 56s-56-25.072-56-56v-8c0 30.928 25.072 56 56 56s56-25.072 56-56V79z" fill-opacity=".1" fill="#000" mask="url(#F)"/></g><g transform="translate(0 170)"><defs><path d="M133.96.295c36.976 3.03 66.04 34 66.04 71.757V81H0v-8.948C0 33.952 29.592 2.765 67.045.22 67.015.593 67 .97 67 1.348c0 11.863 14.998 21.48 33.5 21.48S134 13.21 134 1.348c0-.353-.013-.704-.04-1.053z" id="G"/></defs><g transform="translate(32 29)"><mask id="H" fill="#fff"><use xlink:href="#G"/></mask><use fill="#e6e6e6" xlink:href="#G"/><g mask="url(#H)" fill="#262e33"><path d="M-32-29h264V81H-32z"/></g><g opacity=".6" mask="url(#H)" fill-opacity=".16" fill="#000"><ellipse cx="100.5" cy="2.848" rx="39.635" ry="26.914"/></g></g><path d="M100.785 29.122C62.512 30.804 32 62.365 32 101.052V110h69.362C97.96 97.92 96 83.71 96 68.5c0-14.327 1.74-27.77 4.785-39.378zM163.638 110H232v-8.948c0-38.345-29.975-69.7-67.77-71.878C167.265 40.77 169 54.194 169 68.5c0 15.21-1.96 29.42-5.362 41.5z" fill="#3a4c5a"/><path d="M181 86l9.556-7.167a4 4 0 0 1 4.856.043L202 84l-21 2z" fill="#e6e6e6"/><path d="M101 28c-4 19.333-2.333 46.667 5 82H90L76 74l6-9-6-6 19-30c2.028-.63 4.028-.964 6-1zm62 0c4 19.333 2.333 46.667-5 82h16l14-36-6-9 6-6-19-30c-2.028-.63-4.028-.964-6-1z" fill="#2f4351"/></g><g fill="#000"><path d="M118 149c0 7.732 6.268 14 14 14s14-6.268 14-14" fill-opacity=".7"/><path d="M120 130c0 4.418 5.373 8 12 8s12-3.582 12-8" fill-opacity=".16"/><g fill-opacity=".6"><circle cx="106" cy="112" r="6"/><circle cx="158" cy="112" r="6"/></g><path d="M102.547 88.148c-5.807.27-15.195 4.488-14.953 10.344.008.192.3.276.427.13 2.755-2.96 22.316-5.95 29.205-4.365.63.145 1.1-.477.7-.927-3.422-3.848-10.186-5.426-15.39-5.18m59.906-.001c5.807.27 15.195 4.488 14.953 10.344-.008.192-.3.276-.427.13-2.755-2.96-22.316-5.95-29.205-4.365-.63.145-1.1-.477-.7-.927 3.422-3.848 10.186-5.426 15.39-5.18" fill-opacity=".6"/></g><defs><path id="I" d="M0 0h264v280H0z"/><path d="M1 64c.347 1.488 1.673 1.223 2 0-.463-1.554 3.296-28.752 13-36 3.618-2.517 23.008-4.768 42.313-4.754C77.41 23.26 96.42 25.5 100 28c9.704 7.248 13.463 34.446 13 36 .327 1.223 1.653 1.488 2 0 .72-10.298 0-63.726-57-63S.28 53.702 1 64z" id="J"/></defs><mask id="K" fill="#fff"><use xlink:href="#I"/></mask><g mask="url(#K)"><g transform="translate(74 34)"><mask id="L" fill="#fff"><use xlink:href="#J"/></mask><use fill="#28354b" xlink:href="#J"/><g mask="url(#L)" fill="#c93305"><path d="M0 0h264v280H0z"/></g></g></g></g></g></svg>