<?xml version="1.0" encoding="UTF-8"?>
<!DOCTYPE svg PUBLIC "-//W3C//DTD SVG 1.1//EN" "http://www.w3.org/Graphics/SVG/1.1/DTD/svg11.dtd">
<!-- Creator: CorelDRAW 2018 (64-Bit) -->
<svg xmlns="http://www.w3.org/2000/svg" xml:space="preserve" width="556.175mm" height="165.015mm" version="1.1" style="shape-rendering:geometricPrecision; text-rendering:geometricPrecision; image-rendering:optimizeQuality; fill-rule:evenodd; clip-rule:evenodd"
viewBox="0 0 55617.52 16501.52"
 xmlns:xlink="http://www.w3.org/1999/xlink">
 <defs>
  <style type="text/css">
   <![CDATA[
    .str0 {stroke:black;stroke-width:20;stroke-miterlimit:22.9256}
    .fil1 {fill:#424242}
    .fil2 {fill:#FF5900}
    .fil3 {fill:#FF9900}
    .fil0 {fill:#FFEB3B}
    .fil4 {fill:white}
   ]]>
  </style>
 </defs>
 <g id="Layer_x0020_1">
  <metadata id="CorelCorpID_0Corel-Layer"/>
  <g id="_1382173057568">
   <g>
    <rect class="fil0 str0" x="2565.48" y="2601.66" width="11976.32" height="12320.04"/>
    <rect class="fil1" x="2061.97" y="7144.82" width="989.69" height="7746.92"/>
    <rect class="fil1" x="13608.39" y="7144.82" width="989.69" height="7746.92"/>
    <g>
     <path class="fil1" d="M2784.59 2138.55c-881.54,205.35 -1585.99,413.4 -2211.28,1253.12 -95.81,128.66 -212.64,291.93 -282.74,429.5 -186.57,366.25 -262.56,746.79 -290.45,1146.82l0 1476.7c0,377.25 238.99,780.21 492.83,1028.94 112.37,110.1 303.85,247.52 459.56,317.44 329.79,148.1 479.14,123.46 522.76,183.82 647.09,85.47 1196.95,-138.03 1649.45,-670.38 776.6,933.82 1641.11,949.04 2593.59,45.66 874.87,829.89 1731.68,825.39 2570.49,-13.6 858.06,831.84 1721.46,831.84 2590.2,0 891.75,841.35 1755.15,835.69 2590.2,-17.07 503.55,502.05 1059.9,710.23 1669.04,624.49 70.66,-29.64 219.37,-22.64 467.96,-139.37 314.94,-147.82 643.34,-439.28 799.51,-754.59 77.9,-157.24 171.77,-387.27 171.77,-605.34l0 -1476.7c-27.89,-400.03 -103.89,-780.57 -290.45,-1146.82 -379.62,-745.18 -1127.21,-1298.59 -1914.99,-1549.41 -195.38,-62.17 -374.88,-85.7 -579.03,-133.21 0,-860.56 160.62,-1446.31 -330.86,-1903.17 -103.7,-96.42 -355.72,-233.75 -543.35,-233.75l-9260 0c-364.77,0 -687.37,306.63 -829.9,659.43 -103.98,257.22 -44.31,1117.64 -44.31,1477.49z"/>
     <path class="fil2" d="M3431.79 1070.08l0 1068.84 9713.67 0c0.34,-335.18 0.88,-670.37 1.26,-1005.51 0.54,-439.16 -128.07,-484.59 -551.71,-484.59 -2884.17,0 -5870.82,24.28 -8741.95,-0.31 -307.19,-2.48 -423.94,114.5 -421.27,421.57z"/>
     <path class="fil3" d="M647.09 6250.43c0,345.93 139.39,606.39 310.1,759.05 736.42,658.54 1827.98,191.2 1827.98,-759.05l-0.92 -873.73 -2137.16 -1.03 0 874.76z"/>
     <path class="fil4" d="M13793.38 6120.95c-0.95,740.23 420.85,1232.62 1130.65,1190.59 706.55,-41.83 1006.44,-561.49 1006.44,-1222.98l0 -712.85 -2137.39 1.76 0.3 743.48z"/>
     <path class="fil3" d="M678.1 4729.02l2127.57 -0.73c129.63,-912.81 444.55,-1352.7 1041.04,-1937.17 -829.61,-84.78 -1553.94,48.64 -2127.9,419.39 -430.22,277.93 -940.78,838.05 -1040.71,1518.51z"/>
     <path class="fil4" d="M13771.82 4717.54l2126.79 11.9c-166.65,-1136.68 -1314.13,-1943.94 -2526.53,-1943.94l-646.05 4.55c99.58,106.11 279.27,255.33 370.02,368.79 119.12,148.91 200.81,265.16 303.72,441.68 202.45,347.31 304.05,661.65 372.05,1117.02z"/>
     <path class="fil4" d="M8611.94 5505.77c0.08,695.75 -93.96,1170.67 337.94,1573.04 401.53,374.07 1212.71,329.06 1515.96,-335.99 137.64,-301.72 89.95,-958.32 89.95,-1367.11l-1943.43 0.04 -0.42 130.02z"/>
     <path class="fil3" d="M11203.87 5602.9l-1.65 647.53c0.23,1198.24 1326.98,1341.68 1774.44,640.46 226.31,-354.65 169.37,-1017.63 169.37,-1515.22l-1942.24 1.68 0.08 225.55z"/>
     <path class="fil4" d="M3431.6 6250.43c0,1414.92 1943.78,1421.65 1943.78,0l-1.69 -873.04 -1949.62 -1.68 7.53 874.72z"/>
     <path class="fil3" d="M6021.77 6250.43c0,1415.57 1943.81,1421.3 1943.81,0l0 -97.13 -1.8 -194.26 0.16 -420.88 1.49 -162.38 -1943.66 -0.11 0 874.76z"/>
     <path class="fil4" d="M8612.02 4729.13l1943.19 0.15c1.57,-630.28 -72.96,-1068.91 -477.29,-1465.73 -413.62,-405.89 -821.88,-478.05 -1465.87,-478.05l-0.03 1943.63z"/>
     <path class="fil3" d="M6023.45 4727.6l1942.13 2.1 -1.03 -1942.52c-676.3,0 -1108.31,118.81 -1465.3,475.75 -356.98,357.02 -475.8,789.03 -475.8,1464.67z"/>
     <path class="fil3" d="M11202.22 4502.06l0 227.22 1917.5 0.27c-149.1,-1121.03 -1239.1,-2136.22 -2584.35,-1930.98 427.84,353.04 666.85,1081.15 666.85,1703.49z"/>
     <path class="fil4" d="M3458.98 4728.9l1916.4 0.38c0,-450.97 8.41,-752.46 153,-1142.68 97.36,-262.75 371.74,-681.98 510.94,-788.06 -857.6,-184.86 -1829.2,348.06 -2279.8,1091.16 -153,252.32 -242.41,503.52 -300.54,839.2z"/>
    </g>
    <circle class="fil1" cx="9443.45" cy="12458.75" r="494.84"/>
    <path class="fil1" d="M5525.9 15485.16l5525.75 0 0 -4865.94c0,-1315.46 -1076.24,-2391.69 -2391.72,-2391.69l-742.31 0c-1315.48,0 -2391.72,1076.23 -2391.72,2391.69l0 4865.94zm824.72 -824.72l3876.3 0 0 -3958.76c0,-907.22 -742.21,-1649.43 -1649.45,-1649.43l-577.4 0c-907.23,0 -1649.45,742.21 -1649.45,1649.43l0 3958.76z"/>
    <g>
     <path class="fil1" d="M1873.02 14666.87l-580.48 0c-385.48,0 -824.9,439.42 -824.9,824.9l0 677.22c23.55,187.51 87.6,330.97 244.38,330.97l15153.56 0c156.78,0 220.83,-143.46 244.38,-330.97l0 -677.22c0,-385.48 -439.42,-824.9 -824.9,-824.9l-580.48 0 -12831.56 0z"/>
     <path class="fil2" d="M1079.7 15705.65l0 182.26 14419.57 1.37c0,-438.64 14.58,-611.7 -458.6,-611.7 -1433.78,0 -13296.62,-32.44 -13656.6,4.58 -252.05,25.95 -304.37,151.52 -304.37,423.49z"/>
    </g>
   </g>
   <g>
    <path class="fil1" d="M19727.35 5694.74l0 8157.67c0,316.2 24.17,673.89 257.24,897.12 378.9,362.89 1591.51,342.23 2046.39,113.83 508.2,-255.18 420.45,-875.28 420.45,-1380.35l0 -4509.81c50.33,33.7 144.91,165.11 191.34,224.23 32.64,41.57 56.65,71.19 89.26,110.82 323.47,393.13 681.44,877.52 1014.31,1294.36 34.1,42.7 58.12,78.36 93.75,121.73l280.23 350.8c111.65,148.46 671.51,846.2 762.46,915.18 277.88,210.72 570.48,339.72 924.28,354.38l365.94 -49.75c191.22,-51.82 401.45,-162.78 559.3,-271.8 124.16,-85.75 302.14,-310.93 404.49,-442.02l373.7 -472.82c65.26,-87.48 126.28,-159.48 189.21,-241.75l540.61 -706.07c240.31,-321.23 501.1,-628.64 750.01,-943.01l202.07 -228.89 0 4494.42c0,382.72 -27.59,878.08 178.15,1176.3 173.68,251.73 688.43,362.88 1006.9,362.88 896.28,0 1569.81,23.28 1569.81,-1215.96l0 -8080.7c0,-415.29 -70.12,-740.4 -302.67,-928.65 -422.31,-341.85 -1906.65,-348.1 -2274.42,90.57l-658.84 787.94c-249.6,280.3 -809.01,967.94 -1053.12,1270.94l-791.94 962.65c-139.72,171.58 -977.06,1224.34 -1059.74,1279.71 -13.45,-50.38 -213.51,-278.34 -249.67,-319.8 -248.01,-284.39 -533.61,-666.86 -784.91,-954.29l-653.59 -793.18c-288.15,-342.43 -633.38,-791.08 -916.22,-1115.41 -44.87,-51.45 -80.79,-98.19 -124.54,-152.5l-788.76 -950.44c-64.51,-53.91 -88.12,-89.75 -161.02,-131.41 -482.42,-275.72 -1632.12,-315.05 -2092.92,14.7 -260.86,186.67 -307.54,584.37 -307.54,908.38z"/>
    <path class="fil1" d="M37657.05 12497.93c-417.07,0 -756.13,-115.72 -1004.44,-365.33 -251.1,-252.43 -411.46,-474.17 -411.46,-881.41 0,-190.65 62.06,-371.21 127.87,-503.17 73.05,-146.46 167,-260.34 276.09,-370.35 480.51,-484.57 1377.3,-519.17 1900.77,0 84.06,83.37 215.81,258.53 265.45,365.59 428.76,924.67 -364.65,1754.67 -1154.28,1754.67zm1385.13 -4232.75c-99.07,-66.35 -204.36,-311.46 -699.04,-516.84 -547.38,-227.26 -687.7,-237.36 -1286.31,-237.36 -1491.57,0 -3024.56,1404.95 -3404.42,2798.14 -188.53,691.43 -161.52,1477.79 78.15,2144.6 222.35,618.64 548.46,1029.43 990.79,1471.8 328.47,328.5 654.15,561.81 1073.42,773.5 138.23,69.79 278.75,121.29 440.4,175.23 298.95,99.76 700.06,163.65 1068.72,133.36 260.11,-21.38 278.39,-3.7 559.81,-55.81 96.17,-17.8 158.48,-36.55 246.34,-61.47 101.75,-28.86 145.76,-48.35 226.41,-81.41 167.76,-68.77 347.6,-173.46 478.85,-290.69 35.18,-31.43 50.89,-37.99 84.85,-69.06 65.03,-59.5 83.63,-116.37 157.42,-165.79 20.11,41.9 17.35,101.7 61.56,200.1 84.45,187.95 210.47,339.67 421.08,410.04 205.6,68.69 487.78,115.28 717.96,113.12 112.23,-1.06 155.65,18.26 261.73,16.52 267.59,-4.4 675.24,-47.39 892.54,-200.91 231.7,-163.69 323.05,-484.86 323.05,-785.14l0 -5571.84c0,-292.42 -109.4,-602.78 -320.53,-772.26 -281.89,-226.27 -1274.36,-246.22 -1686.61,-142.26 -639.89,161.38 -627.6,592.36 -686.17,714.43z"/>
    <path class="fil1" d="M43166.78 8773.11c0,358.99 349.36,697.49 573.1,904.46 33.19,30.7 44.2,32.59 77.03,61.49l1370.54 1292.11c79.79,66.7 156.07,162.67 241.71,220.02 -79.72,119.06 -474.64,451.15 -604.07,581.05l-1223.53 1146.68c-421.38,421.11 -603,756.46 -217.28,1271.64 84.4,112.73 243.95,288.75 351.94,371.44 274.38,210.11 550.69,507.93 938.81,507.93 488.46,0 905.63,-510.78 1257.47,-804.91l308.48 -291.77c197.09,-198.28 418.45,-371.02 615.62,-569.5l465.57 -427.11c68.73,18.36 110.34,86.99 157.61,134.82 54.98,55.61 98.13,81.67 154.11,138.32l611.69 573.41c56.02,42.76 98.15,90.19 150.05,142.39l777.34 715.59c424.75,378.77 822.09,529.54 1332.14,201.21 74.07,-47.68 139.16,-92.14 206.49,-147.5 38.85,-31.94 62.93,-51 100.74,-83.96 256.58,-223.64 665.21,-591.53 665.21,-966.25 0,-219.75 -146.41,-452.6 -280.89,-596.42l-746.1 -731.44c-34.13,-32.85 -42.67,-33.6 -76.58,-61.95l-993.37 -930.5c-49.25,-49.53 -94.39,-123.41 -165.44,-142.39l0 -46.17c68.73,-18.35 110.34,-86.99 157.62,-134.81l1677.68 -1569.83c406.13,-405.51 595.19,-767.44 211.8,-1266.16 -263.41,-342.64 -848.53,-892.55 -1277.58,-892.55 -430.47,0 -823.83,391.69 -1119.84,665.51l-307.64 292.6c-52.07,52.55 -93.48,94.7 -145.88,146.56 -33.7,33.35 -41.48,35.53 -75.69,62.82 -80.75,64.42 -147.63,153.51 -224.84,221.51l-469.25 438.81c-49.39,49.85 -275.36,269.11 -319.38,280.87l-227.2 -203.75c-29.02,-26.84 -48.42,-48.59 -76.69,-77.22l-1703.32 -1559.58c-556.32,-402.51 -850.87,-314.47 -1374.31,74.84l-200.77 168.62c-190.82,176.51 -573.1,549.73 -573.1,889.07z"/>
    <path class="fil1" d="M52908.85 8449.88l0 5618.01c0,298.86 88.09,584.78 305.43,756.57 372.07,294.1 1773.37,301.59 2138.18,-36.59 220.73,-204.62 265.08,-578.01 265.08,-889.29l0 -5202.43c0,-161.06 -11.26,-419.69 -43.79,-541.1 -46.61,-173.97 -99.9,-261.94 -213.67,-371.2 -303.57,-291.53 -850.6,-272.87 -1281.57,-272.87 -340.11,0 -634.86,61.26 -851.78,194.78 -191.29,117.74 -317.88,437.06 -317.88,744.12z"/>
    <path class="fil1" d="M52908.85 4940.54c0,476.84 -68.34,1000.55 303.75,1327.75 314.69,276.73 1312.25,240.49 1744.81,151.52 156.27,-32.14 295.63,-98.54 394.99,-189.86 238.43,-219.13 263.12,-605.08 265.14,-934.71l0 -169.99c0,-183.03 -11.82,-395.13 -59.43,-525.46 -47.85,-131.01 -121.96,-286.95 -221.14,-379.11 -162.77,-151.25 -517.3,-231.86 -897.08,-249.82l-332.31 0c-350.93,16.3 -682.36,83.91 -863.58,196.66 -212.58,132.27 -335.15,429.55 -335.15,773.02z"/>
   </g>
  </g>
 </g>
</svg>
