<svg xmlns="http://www.w3.org/2000/svg" width="2102.06" height="623.698" viewBox="0 0 55617.52 16501.52" shape-rendering="geometricPrecision" image-rendering="optimizeQuality" fill-rule="evenodd"><path d="M2565.48 2601.66H14541.8V14921.7H2565.48z" stroke="#000" stroke-width="20" stroke-miterlimit="22.9256" fill="#ffeb3b"/><g fill="#424242"><path d="M2061.97 7144.82h989.7v7746.92h-989.7zm11546.43 0h989.7v7746.92h-989.7z"/><path d="M2784.6 2138.55c-881.54 205.35-1586 413.4-2211.28 1253.12-95.8 128.66-212.64 291.93-282.74 429.5C104 4187.42 28 4567.96.12 4968v1476.7c0 377.25 239 780.2 492.83 1028.94 112.37 110.1 303.85 247.52 459.56 317.44 329.8 148.1 479.14 123.46 522.76 183.82 647.1 85.47 1196.95-138.03 1649.45-670.38 776.6 933.82 1641.1 949.04 2593.6 45.66 874.87 829.9 1731.68 825.4 2570.5-13.6 858.06 831.84 1721.46 831.84 2590.2 0 891.75 841.35 1755.15 835.7 2590.2-17.07 503.55 502.05 1059.9 710.23 1669.04 624.5 70.66-29.64 219.37-22.64 467.96-139.37 314.94-147.82 643.34-439.28 799.5-754.6 77.9-157.24 171.77-387.27 171.77-605.34V4968c-27.9-400.03-103.9-780.57-290.45-1146.82-379.62-745.18-1127.2-1298.6-1915-1549.4-195.38-62.17-374.88-85.7-579.03-133.2 0-860.56 160.62-1446.3-330.86-1903.17-103.7-96.42-355.72-233.75-543.35-233.75h-9260c-364.77 0-687.37 306.63-829.9 659.43-103.98 257.22-44.3 1117.64-44.3 1477.5z"/></g><path d="M3431.8 1070.08v1068.84h9713.67l1.26-1005.5c.54-439.16-128.07-484.6-551.7-484.6-2884.17 0-5870.82 24.28-8741.95-.3-307.2-2.48-423.94 114.5-421.27 421.57z" fill="#ff5900"/><path d="M647.1 6250.43c0 345.93 139.4 606.4 310.1 759.05 736.42 658.54 1827.98 191.2 1827.98-759.05l-.92-873.73-2137.16-1.03v874.76z" fill="#f90"/><path d="M13793.38 6120.95c-.95 740.23 420.85 1232.62 1130.65 1190.6 706.55-41.83 1006.44-561.5 1006.44-1222.98V5375.7l-2137.4 1.76.3 743.48z" fill="#fff"/><path d="M678.1 4729.02l2127.57-.73c129.63-912.8 444.55-1352.7 1041.04-1937.17-829.6-84.78-1553.94 48.64-2127.9 419.4-430.22 277.93-940.78 838.05-1040.7 1518.5z" fill="#f90"/><path d="M13771.82 4717.54l2126.8 11.9C15731.97 3592.76 14584.5 2785.5 13372.1 2785.5l-646.05 4.55c99.58 106.1 279.27 255.33 370.02 368.8 119.12 148.9 200.8 265.16 303.72 441.68 202.45 347.3 304.05 661.65 372.05 1117.02zm-5159.88 788.23c.08 695.75-93.96 1170.67 337.94 1573.04 401.53 374.07 1212.7 329.06 1515.96-336 137.64-301.72 89.95-958.32 89.95-1367.1l-1943.43.04-.42 130.02z" fill="#fff"/><path d="M11203.87 5602.9l-1.65 647.53c.23 1198.24 1326.98 1341.68 1774.44 640.46 226.3-354.65 169.37-1017.63 169.37-1515.22l-1942.24 1.68.08 225.55z" fill="#f90"/><path d="M3431.6 6250.43c0 1414.92 1943.78 1421.65 1943.78 0l-1.7-873.04-1949.62-1.68 7.53 874.72z" fill="#fff"/><path d="M6021.77 6250.43c0 1415.57 1943.8 1421.3 1943.8 0v-97.13l-1.8-194.26 1.65-583.26-1943.66-.1v874.76z" fill="#f90"/><path d="M8612.02 4729.13l1943.2.15c1.57-630.28-72.96-1068.9-477.3-1465.73-413.62-405.9-821.88-478.05-1465.87-478.05l-.03 1943.63z" fill="#fff"/><path d="M6023.45 4727.6l1942.13 2.1-1.03-1942.52c-676.3 0-1108.3 118.8-1465.3 475.75-356.98 357.02-475.8 789.03-475.8 1464.67zm5178.77-225.54v227.22l1917.5.27c-149.1-1121.03-1239.1-2136.22-2584.35-1930.98 427.84 353.04 666.85 1081.15 666.85 1703.5z" fill="#f90"/><path d="M3458.98 4728.9l1916.4.38c0-450.97 8.4-752.46 153-1142.68 97.36-262.75 371.74-681.98 510.94-788.06-857.6-184.86-1829.2 348.06-2279.8 1091.16-153 252.32-242.4 503.52-300.54 839.2z" fill="#fff"/><g fill="#424242"><circle cx="9443.45" cy="12458.75" r="494.84"/><path d="M5525.9 15485.16h5525.75v-4865.94c0-1315.46-1076.24-2391.7-2391.72-2391.7h-742.3c-1315.48 0-2391.72 1076.23-2391.72 2391.7v4865.94zm824.72-824.72h3876.3v-3958.76c0-907.22-742.2-1649.43-1649.45-1649.43h-577.4c-907.23 0-1649.45 742.2-1649.45 1649.43v3958.76z"/><path d="M1873.02 14666.87h-580.48c-385.48 0-824.9 439.42-824.9 824.9V16169c23.55 187.5 87.6 330.97 244.38 330.97h15153.56c156.78 0 220.83-143.46 244.38-330.97v-677.22c0-385.48-439.42-824.9-824.9-824.9H1873.02z"/></g><path d="M1079.7 15705.65v182.26l14419.57 1.37c0-438.64 14.58-611.7-458.6-611.7-1433.78 0-13296.62-32.44-13656.6 4.58-252.05 25.95-304.37 151.52-304.37 423.5z" fill="#ff5900"/><path d="M19727.35 5694.74v8157.67c0 316.2 24.17 673.9 257.24 897.12 378.9 362.9 1591.5 342.23 2046.4 113.83 508.2-255.18 420.45-875.28 420.45-1380.35V8973.2c50.33 33.7 144.9 165.1 191.34 224.23a5625.2 5625.2 0 0 0 89.26 110.82c323.47 393.13 681.44 877.52 1014.3 1294.36 34.1 42.7 58.12 78.36 93.75 121.73l280.23 350.8c111.65 148.46 671.5 846.2 762.46 915.18 277.88 210.72 570.48 339.72 924.28 354.38l365.94-49.75c191.22-51.82 401.45-162.78 559.3-271.8 124.16-85.75 302.14-310.93 404.5-442.02l373.7-472.82c65.26-87.48 126.28-159.48 189.2-241.75l540.6-706.07c240.3-321.23 501.1-628.64 750-943l202.07-228.9V13483c0 382.72-27.6 878.08 178.15 1176.3 173.68 251.73 688.43 362.88 1006.9 362.88 896.28 0 1569.8 23.28 1569.8-1215.96v-8080.7c0-415.3-70.12-740.4-302.67-928.65-422.3-341.85-1906.65-348.1-2274.42 90.57l-658.84 787.94c-249.6 280.3-809 967.94-1053.12 1270.94l-791.94 962.65c-139.72 171.58-977.06 1224.34-1059.74 1279.7-13.45-50.38-213.5-278.34-249.67-319.8-248-284.4-533.6-666.86-784.9-954.3L23202.13 6006c-44.87-51.45-80.8-98.2-124.54-152.5l-788.76-950.44c-64.5-53.9-88.12-89.75-161.02-131.4-482.42-275.72-1632.12-315.05-2092.92 14.7-260.86 186.67-307.54 584.37-307.54 908.38zm17929.7 6803.2c-417.07 0-756.13-115.72-1004.44-365.33-251.1-252.43-411.46-474.17-411.46-881.4 0-190.65 62.06-371.2 127.87-503.17 73.05-146.46 167-260.34 276.1-370.35 480.5-484.57 1377.3-519.17 1900.77 0 84.06 83.37 215.8 258.53 265.45 365.6 428.76 924.67-364.65 1754.67-1154.28 1754.67zm1385.13-4232.75c-99.07-66.35-204.36-311.46-699.04-516.84-547.38-227.26-687.7-237.36-1286.3-237.36-1491.57 0-3024.56 1404.95-3404.42 2798.14-188.53 691.43-161.52 1477.8 78.15 2144.6 222.35 618.64 548.46 1029.43 990.8 1471.8 328.47 328.5 654.15 561.8 1073.42 773.5 138.23 69.8 278.75 121.3 440.4 175.23 298.95 99.76 700.06 163.65 1068.72 133.36 260.1-21.38 278.4-3.7 559.8-55.8 96.17-17.8 158.48-36.55 246.34-61.47 101.75-28.86 145.76-48.35 226.4-81.4 167.76-68.77 347.6-173.46 478.85-290.7 35.18-31.43 50.9-38 84.85-69.06 65.03-59.5 83.63-116.37 157.42-165.8 20.1 41.9 17.35 101.7 61.56 200.1 84.45 187.95 210.47 339.67 421.08 410.04 205.6 68.7 487.78 115.28 717.96 113.12 112.23-1.06 155.65 18.26 261.73 16.52 267.6-4.4 675.24-47.4 892.54-200.9 231.7-163.7 323.05-484.86 323.05-785.14V8465.27c0-292.42-109.4-602.78-320.53-772.26-281.9-226.27-1274.36-246.22-1686.6-142.26-639.9 161.38-627.6 592.36-686.17 714.43zm4124.6 507.92c0 359 349.36 697.5 573.1 904.46 33.2 30.7 44.2 32.6 77.03 61.5l1370.54 1292.1c79.8 66.7 156.07 162.67 241.7 220.02-79.72 119.06-474.64 451.15-604.07 581.05l-1223.53 1146.68c-421.38 421.1-603 756.46-217.28 1271.64 84.4 112.73 243.95 288.75 351.94 371.44 274.38 210.1 550.7 507.93 938.8 507.93 488.46 0 905.63-510.78 1257.47-804.9l308.48-291.77c197.1-198.28 418.45-371.02 615.62-569.5l465.57-427.1c68.73 18.36 110.34 87 157.6 134.82 54.98 55.6 98.13 81.67 154.1 138.32l611.7 573.4c56.02 42.76 98.15 90.2 150.05 142.4l777.34 715.6c424.75 378.77 822.1 529.54 1332.14 201.2 74.07-47.68 139.16-92.14 206.5-147.5l100.74-83.96c256.58-223.64 665.2-591.53 665.2-966.25 0-219.75-146.4-452.6-280.9-596.42l-746.1-731.44c-34.13-32.85-42.67-33.6-76.58-61.95l-993.37-930.5c-49.25-49.53-94.4-123.4-165.44-142.4v-46.17c68.73-18.35 110.34-87 157.62-134.8l1677.68-1569.83c406.13-405.5 595.2-767.44 211.8-1266.16-263.4-342.64-848.53-892.55-1277.58-892.55-430.47 0-823.83 391.7-1119.84 665.5l-307.64 292.6-145.88 146.56c-33.7 33.35-41.48 35.53-75.7 62.82-80.75 64.42-147.63 153.5-224.84 221.5l-469.25 438.8c-49.4 49.85-275.36 269.1-319.38 280.87l-227.2-203.75c-29.02-26.84-48.42-48.6-76.7-77.22L45314.9 7640.56c-556.32-402.5-850.87-314.47-1374.3 74.84l-200.77 168.62c-190.82 176.5-573.1 549.73-573.1 889.07zm9742.07-323.22v5618c0 298.86 88.1 584.78 305.43 756.57 372.07 294.1 1773.37 301.6 2138.18-36.6 220.73-204.62 265.08-578 265.08-889.3v-5202.4c0-161.06-11.26-419.7-43.8-541.1-46.6-173.97-99.9-261.94-213.67-371.2-303.57-291.53-850.6-272.87-1281.57-272.87-340.1 0-634.86 61.26-851.78 194.78-191.3 117.74-317.88 437.06-317.88 744.12zm0-3509.34c0 476.84-68.34 1000.55 303.75 1327.75 314.7 276.73 1312.25 240.5 1744.8 151.52 156.27-32.14 295.63-98.54 395-189.86 238.43-219.13 263.12-605.08 265.14-934.7v-170c0-183.03-11.82-395.13-59.43-525.46-47.85-131-121.96-286.95-221.14-379.1-162.77-151.25-517.3-231.86-897.08-249.82h-332.3c-350.93 16.3-682.36 83.9-863.58 196.66-212.58 132.27-335.15 429.55-335.15 773.02z" fill="#e6e6e6"/></svg>