<svg xmlns="http://www.w3.org/2000/svg" width="67" height="25" viewBox="0 0 361 136" fill-rule="evenodd"><path fill="#ec2127" d="M338.787 54.75c0-3.837 2.975-6.942 6.607-6.942 3.652 0 6.596 3.105 6.596 6.942 0 3.843-2.943 6.948-6.596 6.948-3.632 0-6.607-3.105-6.607-6.948zm6.608 5.303c2.776 0 5.042-2.382 5.042-5.303 0-2.906-2.266-5.267-5.042-5.267-2.765 0-5.042 2.36-5.042 5.267 0 2.92 2.277 5.303 5.042 5.303zm-.9-2.26h-1.353v-6.116h2.453c.5 0 1.06.03 1.488.337.47.345.74.924.74 1.537 0 .678-.385 1.312-.998 1.542l1.06 2.7h-1.504l-.895-2.397h-1v2.397h.001zm0-3.437h.754c.277 0 .598.01.83-.127.23-.15.33-.446.33-.708 0-.23-.133-.507-.33-.615-.202-.137-.61-.106-.846-.106h-.738v1.556zM244.322 8.583l-1.8 11.773c-3.926-2.1-6.813-2.91-9.897-2.91-8.23 0-14.05 8.365-14.05 20.308 0 8.25 3.907 13.22 10.332 13.22 2.727 0 5.724-.876 9.39-2.797l-1.93 12.39c-4.056 1.167-6.702 1.582-9.77 1.582-11.92 0-19.334-8.99-19.334-23.423 0-19.413 10.244-32.97 24.898-32.97 1.893 0 3.584.185 4.958.583l4.556 1.194c1.356.537 1.66.62 2.655 1.05zm-36.69 8.07a6.076 6.076 0 0 0-1.131-.114c-3.642 0-5.7 1.927-9.083 7.185l.982-6.707h-10.013L181.6 61.15h11.108c3.972-26.974 4.988-31.632 10.313-31.632.324 0 .354 0 .808.045.982-5.318 2.327-9.228 4.182-12.794l-.378-.116zM141.453 60.6c-3.005 1-5.38 1.455-7.93 1.455-5.642 0-8.723-3.437-8.723-9.708a25.16 25.16 0 0 1 .315-3.957l.684-4.303.507-3.515 4.796-30.114h10.99l-1.26 6.548h5.656l-1.553 10.728h-5.642l-2.92 18.42c-.1.813-.185 1.413-.185 1.828 0 2.26 1.153 3.27 3.766 3.27 1.275 0 2.236-.133 2.975-.412l-1.474 9.76zM97.878 30.972c0 5.57 2.566 9.422 8.377 12.3 4.45 2.213 5.157 2.858 5.157 4.867 0 2.742-1.975 4.012-6.325 4.012-3.28 0-6.348-.548-9.883-1.767l-1.53 10.18 2.53.536c.653.14 1.614.263 2.882.4 2.636.246 4.657.364 6.087.364 11.596 0 16.96-4.682 16.96-14.734 0-6.04-2.236-9.612-7.762-12.286-4.61-2.197-5.134-2.715-5.134-4.764 0-2.394 1.83-3.624 5.38-3.624 2.166 0 5.103.257 7.907.657l1.575-10.19c-2.882-.49-7.162-.87-9.698-.87-12.304 0-16.57 6.773-16.524 14.92zM332.37 61.15h-10.462l.55-4.324c-3.047 3.416-6.174 4.907-10.214 4.907-8.085 0-13.383-7.285-13.383-18.32 0-14.68 8.233-27.073 18-27.073 4.296 0 7.544 1.86 10.603 6.042l2.406-15.504h10.896L332.37 61.15zm-16.315-10.39c5.165 0 8.775-6.133 8.775-14.868 0-5.61-2.06-8.664-5.88-8.664-5.008 0-8.568 6.158-8.568 14.843 0 5.78 1.916 8.69 5.674 8.69zm-139.588 9.464C172.685 61.4 169.03 62 165.11 61.994c-12.327 0-18.768-6.784-18.768-19.755 0-15.167 8.192-26.33 19.33-26.33 9.083 0 14.917 6.257 14.917 16.063 0 3.247-.393 6.413-1.377 10.886h-21.98c-.092.672-.106.98-.106 1.37 0 5.158 3.288 7.756 9.72 7.756 3.943 0 7.493-.855 11.467-2.807l-1.845 11.047zm-6.202-26.28c.063-.922.078-1.674.078-2.233 0-3.607-1.946-5.713-5.234-5.713-3.506 0-6.018 2.813-7.048 7.916l12.204.03zM53.497 61.15H42.453l6.325-41.705L34.645 61.15h-7.57l-.915-41.46-6.663 41.46H9.154l8.63-54.273H33.7l.438 33.584L44.88 6.876h17.177l-8.56 54.273zM81.955 41.5c-1.17-.14-1.683-.2-2.475-.2-6.263 0-9.437 2.28-9.437 6.737 0 2.748 1.56 4.5 3.973 4.5 4.496 0 7.755-4.5 7.94-11.046zm8.04 19.66H80.84l.2-4.582c-2.8 3.654-6.517 5.35-11.582 5.35-6 0-10.113-4.918-10.113-12.024 0-10.774 7.17-17.03 19.428-17.03 1.252 0 2.85.097 4.496.327.345-1.46.438-2.1.438-2.864 0-2.915-1.92-4.02-7.102-4.02-3.127 0-6.717.476-9.19 1.26l-1.537.445-.968.286 1.52-9.898c5.52-1.715 9.153-2.376 13.25-2.376 9.5 0 14.533 4.482 14.533 12.94 0 2.197-.16 3.827-.914 8.755l-2.313 15.637-.377 2.824-.476 3.786-.138 1.184zm173.37-19.66c-1.15-.14-1.684-.2-2.456-.2-6.288 0-9.472 2.28-9.472 6.737 0 2.748 1.577 4.5 3.99 4.5 4.517 0 7.74-4.5 7.937-11.046zm8.047 19.66h-9.166l.213-4.582c-2.788 3.654-6.523 5.35-11.58 5.35-6 0-10.13-4.918-10.13-12.024 0-10.774 7.163-17.03 19.445-17.03 1.245 0 2.86.097 4.493.327.34-1.46.438-2.1.438-2.864 0-2.915-1.92-4.02-7.1-4.02-3.146 0-6.726.476-9.18 1.26l-1.572.445-.956.286 1.538-9.898c5.526-1.715 9.152-2.376 13.22-2.376 9.514 0 14.548 4.482 14.548 12.94 0 2.197-.2 3.827-.906 8.755l-2.33 15.637-.342 2.824-.31 2.25-.202 1.537-.12 1.184zm30.878-44.497a5.515 5.515 0 0 0-1.112-.114c-3.63 0-5.704 1.927-9.102 7.185l.986-6.707h-10L276.3 61.15h11.07c3.976-26.974 5.02-31.632 10.31-31.632.343 0 .32-.03.773.045 1.002-5.318 2.354-9.228 4.212-12.794l-.376-.116z"/><path d="M255.903 103.95c0 10.005-3.097 15.896-7.98 15.896-3.564.1-5.725-3.862-5.725-9.803 0-7.026 3.157-15 8.223-15 4.072.001 5.48 4.316 5.48 8.897zm10.872.184c0-11.12-5.495-19.777-15.823-19.777-11.9 0-19.6 10.526-19.6 26.022 0 11.094 4.55 20.165 15.808 20.165 11.36 0 19.605-8.043 19.605-26.4zm-31.86-27.584l-1.7 11.76c-3.675-2.075-6.35-2.936-9.24-2.936-7.724 0-13.12 8.4-13.12 20.344 0 8.245 3.613 13.233 9.63 13.233 2.566 0 5.374-.876 8.782-2.8l-1.8 12.38c-3.82 1.177-6.314 1.58-9.15 1.58-11.128 0-18.06-8.995-18.06-23.43 0-19.422 9.567-32.976 23.27-32.976 1.774 0 3.344.225 4.642.583l4.228 1.2c1.305.518 1.575.61 2.496 1.06zm-68.354 8.08a4.047 4.047 0 0 0-1.061-.122c-3.352 0-5.318 1.935-8.46 7.175l.914-6.695h-9.347l-6.3 44.138h10.32c3.713-27 4.695-31.647 9.646-31.647a4.58 4.58 0 0 1 .753.05c.93-5.34 2.184-9.25 3.92-12.823l-.376-.076zm134.83 44.024h-9.753l.502-4.308c-2.837 3.397-5.788 4.9-9.563 4.9-7.52 0-12.487-7.297-12.487-18.33 0-14.655 7.708-27.085 16.82-27.085 4.02 0 7.072 1.9 9.89 6.082l2.277-15.52h10.16l-7.848 54.258zm-15.26-10.382c4.862 0 8.214-6.128 8.214-14.87 0-5.625-1.915-8.645-5.465-8.645-4.695 0-8.03 6.135-8.03 14.848 0 5.75 1.8 8.668 5.282 8.668zm-216.364 10.2c-3.51 1.21-6.932 1.797-10.574 1.797-11.528 0-17.545-6.798-17.545-19.765 0-15.146 7.654-26.32 18.044-26.32 8.508 0 13.933 6.246 13.933 16.052 0 3.24-.37 6.417-1.252 10.892H51.798c-.062.66-.085.986-.085 1.37 0 5.146 3.082 7.742 9.07 7.742 3.69 0 7.024-.86 10.72-2.795l-1.737 11.025zm-5.772-26.26c.047-.933.077-1.676.077-2.243 0-3.6-1.813-5.705-4.88-5.705-3.297 0-5.642 2.833-6.586 7.902l11.39.046zm128.562 26.26c-3.522 1.21-6.95 1.797-10.58 1.797-11.55 0-17.56-6.798-17.56-19.765 0-15.146 7.662-26.32 18.044-26.32 8.5 0 13.952 6.246 13.952 16.052 0 3.24-.385 6.417-1.3 10.892h-20.53c-.063.66-.1.986-.1 1.37 0 5.146 3.075 7.742 9.06 7.742 3.7 0 7.034-.86 10.732-2.795l-1.72 11.025zm-5.804-26.26c.068-.933.106-1.676.106-2.243 0-3.6-1.828-5.705-4.882-5.705-3.298 0-5.64 2.833-6.594 7.902l11.37.046zm149.86 26.26c-3.568 1.21-6.95 1.797-10.606 1.797-11.527 0-17.56-6.798-17.56-19.765 0-15.146 7.678-26.32 18.06-26.32 8.508 0 13.928 6.246 13.928 16.052 0 3.24-.354 6.417-1.27 10.892h-20.55c-.072.66-.087.986-.087 1.37 0 5.146 3.084 7.742 9.07 7.742 3.693 0 7.022-.86 10.728-2.795l-1.714 11.025zm-5.803-26.26l.076-2.243c0-3.6-1.805-5.705-4.88-5.705-3.298 0-5.632 2.833-6.588 7.902l11.39.046zM39.2 86.627c-2.02-1.352-4.757-2.533-8.623-2.533-4.173 0-7.53.865-7.53 5.305 0 7.84 15.216 4.913 15.216 21.704 0 15.294-10.043 19.26-19.128 19.26-4.042 0-8.692-1.337-12.12-2.86l2.467-11.238c2.068 1.878 6.24 3.165 9.652 3.165 3.25 0 8.346-.888 8.346-6.562 0-8.885-15.208-5.58-15.208-21.175 0-14.266 8.884-18.54 17.454-18.54 4.826 0 9.36.708 12.02 2.475l-2.545 11zm60.78 41.83c-2.13 1.024-4.972 1.698-9.168 1.698-9.022 0-14.617-9.018-14.617-19.997 0-14.37 8.093-25.832 20.004-25.832 2.598 0 6.563 1.124 9.69 2.937l-2.283 10.54c-2.214-1.455-4.52-2.38-6.893-2.38-5.52 0-9.46 5.058-9.46 14.12 0 5.218 2.86 9.498 7.377 9.498 2.69 0 4.58-.567 6.895-1.92l-1.545 11.334zm38.612-11.052c-.53 3.797-1.022 7.483-1.315 11.444h-9.937l.838-7.134h-.1c-3.112 4.85-6.332 8.15-11.958 8.15-6.24 0-9.62-6.565-9.62-15.14 0-2.955.184-4.623.844-9.238l2.813-20.428h11.06l-2.967 20.488c-.3 2.2-.722 4.384-.722 6.66 0 2.582 1.176 5.194 4.158 5.034 4.533 0 7.208-5.545 7.97-12.015l3.052-20.17h10.705l-4.818 32.346zm208.31 10.91h-1.672v-7.32h-2.418v-1.568h6.508v1.568h-2.418v7.32zm11.086 0h-1.562v-7.43h-.022l-1.493 7.43h-1.638l-1.458-7.43h-.023v7.43h-1.558v-8.888h2.438l1.45 7.007h.022l1.425-7.007H358v8.888z" fill="#f89620"/></svg>