<svg xmlns="http://www.w3.org/2000/svg" width="32.001" height="32.319" viewBox="0 0 846.66 855.12" shape-rendering="geometricPrecision" image-rendering="optimizeQuality" fill-rule="evenodd"><defs><linearGradient id="A" gradientUnits="userSpaceOnUse" x1="-.02" y1="427.56" x2="846.65" y2="427.56"><stop offset="0" stop-color="#268acb"/><stop offset="1" stop-color="#268acb"/></linearGradient></defs><path d="M752.94 239.7c2.5 1.58 14.72 27.82 16.95 33.08 40.6 95.93 44 199.2 5.78 295.6-26.27 66.23-56.9 103.8-104.73 148.7-4.05 3.8-9.42 7.9-13.92 11.5-67.38 53.9-155.35 84.9-246.93 81.45-58.02-2.2-116.2-18.15-160.52-42.37-23.93-13.07-42.26-24.95-61.52-40.18l-39.56-36.72c-8.7-7.85-27.16-31.97-34-41.45-6.64-9.2-13.62-19.9-19.5-30.54-9.48-17.2-27.3-51.7-31.26-70.67-4.9-4.72-15.12-60.96-16.55-71.9-10.16-77.33 4.85-156.35 38.54-223 11.7-23.14 36.44-61.6 54.13-79.52 2.08-2.1 3.25-3.98 5.26-6.25l16.4-16.42c2.53-2.27 3.05-2.85 5.75-5.7l18.07-15.56c14.43-12.3 35.93-26.5 52.58-36 98.52-56.34 220.3-64.7 325.9-21.7 43.95 17.9 69.9 35.67 103.97 63.33l17.58 16.05c8.22 7.55 15.1 16.07 21.64 22.67 11.35 11.45 40.55 51.75 45.95 65.6zM-.01 420.98c0 39.87 2.6 70.55 11.48 105.8 9.6 38.1 18.42 62.27 35.27 95.96 11.8 23.6 24.62 43.5 40.42 64.56l11.6 14.65c1.28 1.63 1.87 2.06 3.05 3.52 1.3 1.62 1.3 1.93 2.95 3.6l38.76 39.15c2.7 2.07 4.06 3.77 7.03 6.1 11.8 9.23 16.1 13.26 29.53 22.97 10.47 7.57 20.5 13.96 31.87 20.63 3 1.77 5.35 3.18 8.4 4.72 19.3 9.8 22.9 12.02 44.33 21.28 6.4 2.77 12.77 4.63 19.1 7.15 35.55 14.18 95.7 23.8 133.7 23.8 44.82 0 85.37-4.92 124.78-17.12 64-19.82 101.94-41.72 153.16-83.06 8.57-6.92 11.2-10.45 17.14-15.67l22.56-22.55c2.6-2.58 3.55-4.37 6.14-6.98 15.16-15.23 37.3-49.13 49.07-69.04 3.46-5.86 6-10.95 9.1-17.15 53.4-106.8 61.82-221.4 23.75-335.7-14.4-43.23-41.33-92.76-69.6-127.25l-27.5-31.55-30.2-28.04c-5.14-4.02-9.22-7.96-14.4-11.84-16.56-12.4-28.52-20.9-47-31.76-19.04-11.2-32.3-17.16-52.74-26-6.4-2.77-12.77-4.63-19.1-7.15-10.92-4.36-28.68-9-40.52-11.98-68.87-17.25-150.45-15.6-217.95 5.3-64 19.82-101.94 41.72-153.16 83.06-16.14 13.03-25.97 24.56-39.7 38.22l-9.16 10.53c-23.82 30.48-26.73 32.82-46.05 65.5-8.43 14.26-19.1 37.08-25.54 53.2C12.15 313.85-.01 369.56-.01 420.98z" fill="url(#A)"/><path d="M515.98 473.35c-12 83.3-125.12 111.38-173.7 43.1-7.7-10.82-33.26-59.7-13.28-71.38 6.86-4 13.85-1.65 17.7 2.37 9.35 9.77-3.18 25.26 20.24 54.22 18.23 22.54 53.4 34.27 87.14 15.65 7.27-4 8.23-4.65 14.02-10.87 2.78-2.98 3.45-2.9 5.76-5.84 4.9-6.22 10.65-17.22 12.82-25.4 2.85-10.72-1.28-31.17 14.88-32.65 16.88-1.56 16.43 16.86 14.42 30.8zm-183.95-80.1c19.3-8.7 27.07 19.84 12.64 26.37-19.22 8.7-29.54-18.75-12.64-26.37zm163.1.57c18.95-8.38 28.43 18.56 12.13 26.06-16.25 7.5-30.25-18.04-12.13-26.06zM254.6 514.73c0 45.02-6.3 99.12-15.3 141.95-5.3 25.25-16.03 41.36-4.2 54.65 2.88 3.23 5.57 5.33 11.22 5.33h349.25c29.34 0 20.83-26.44 17.86-39.37-1.57-6.8-2.7-17.05-4.3-23.86-10.4-44.62-14.22-126.6-13.64-173.53l15.07-130.73c4.87-27.07-22.33-26.5-43.6-23.6L315.9 339.34c-9.82.1-16.1.12-23.7 1.13-13 1.75-35.93-.4-44.74 4.92-12.9 7.8-8.3 19.38-5.42 34.57 2.8 14.72 3.6 28.92 6.17 43.48l6.37 91.3z" fill="#268acb"/><path d="M274.46 239.96c10.07-15.05 26.27.55 31.44 8.28-12.86 0-25.97-.8-31.44-8.28zm81.1-3.3h0zm0 0c1.66-7.1 3.8-11.6 7.74-17.12 5.52-7.74 8.02-6.66 15.44-2.74-2.04 7.62-16.12 18.22-23.18 19.86zm-59.6 25.12c4.32-.27 4.14-1.57 7 14.18L315.94 331c9.13 0 21.4-.86 31.1-1.9 10.93-1.17 21.6-1.4 34.9-1.4-3.23-19.37-18.5-66.45-17.97-80.58 6.26-3.26 3.37-3.27 9.8-3.44l9.54-10.33c7.18-14.24 18.38-22.12-4.57-30.63-16.5-7.76-25.46 5-31.3 15.9-2.17 4.04-1.9 3.28-3.52 8.08-1.93 5.78-4.37 9.98-4.92 16.6-6.05-2.9-11.12.44-16.55 3.3-4.74-7.08-4.65-7.7-11.4-13.42-38.2-32.23-60.13 4.26-45.43 17.3 6.46 5.72 19.9 9.67 30.35 11.32z" fill="#e41f29"/><path d="M555.84 233.34c2.6-3.87 20.5-21.22 24.83-4.97-10.55 2.46-10.75 4.97-24.83 4.97zm-56.27-29.8c9.36 0 14.3 12.63 14.9 19.86-2-1.35-32.93-19.86-14.9-19.86zm-15.75 3.3l-.73 3.3c2.48 2.96 4.42 6.64 7 9.48 4.46 4.9 5.4 2.92 9.48 8.5h1.65l1.66 1.74c3.68 5.18-6.14 39.34-7.52 45.43-3.45 15.2-7.67 30.9-10.17 45.74 21 0 36.5-3.3 56.4-3.3l17-73.27 8.85-1.97c20.2 3.2 39.98-20.74 11.64-32.55-9.83-4.1-19.25 3.93-25.88 9.13-3.64 2.86-6.54 7.6-9.06 9.16-3.54 2.2-9.27.1-16.42.1 0-9.55-.45-11.23-5.2-19.62-16.42-29-40.43-16.26-38.68-1.9zm-100.12 34.3c-6.2.86-5.02.83-9.93 2.54-6.44.17-3.55.18-9.8 3.44-.53 14.13 14.74 61.2 17.97 80.58 5.7-.78 6.58-1.72 14.94-1.7 5.85 0 12.28.46 18.04-.2 7.93-.9 25.15-3.07 33.44-3.07l-9.87-45.55c-6.05-8.9-5.5-34.56-13.06-40.95-6.97-5.88-31.74 3.63-41.72 4.9z" fill="#ef9720"/><path d="M385.36 187.18c-7.36 4.38-6.62 4.4-6.62 15.53 22.95 8.5 11.75 16.4 4.57 30.63l.4 7.8c9.98-1.28 34.75-10.8 41.72-4.9 7.57 6.4 7 32.04 13.06 40.95 6.2-16.62 5.26-44.4 16.4-55.2 10.05-1.95 19.54 3.03 29.8 4.12-1.97-5.55-1.7-8.38-1.58-15.9l.73-3.3c-1.7-1.8-1.8.7-2.56-8.24-.6-7.2 1.13-13.94-9.83-18.97-6.57-.94-27.3-6.6-31.5-6.25-9.94.85-3.08 10.14-26.43.47-8.16 3.5-19.74 12.9-28.14 13.3z" fill="#8fc43f"/><path d="M438.48 277.17l9.87 45.55 18.16.06c9.26-.01 11.08-1.56 18.68-1.7 2.5-14.84 6.72-30.54 10.17-45.74 1.38-6.1 11.2-40.25 7.52-45.43-2.3.18-1.66.67-1.66-1.74h-1.65c-10.92.54-7.55-2.53-14.9-2.08-10.26-1.1-19.75-6.07-29.8-4.12-11.13 10.8-10.18 38.6-16.4 55.2z" fill="#df3186"/><path d="M315.94 331l-12.96-55.05c-2.87-15.75-2.7-14.45-7-14.18-3.1 1.63-9.7 2.08-13.27 2.98-5.72 1.45-7.6 2.34-14.44 3.77-4.35.9-9.4 2.68-14.45 3.76-8.28 1.77-7.87-.43-13.08 5.17-10 10.76 5.18 32.04 7.24 56.86l67.97-3.3z" fill="#ef9720"/><path d="M541.6 317.76c15.18 0 45.37-.54 57.3-3.3 2.52-5.25 11.6-49.53 11.6-57.94-16.74-11.2-35.2-6.77-43.04-14l-8.85 1.97-17 73.27z" fill="#df3186"/><path d="M445.97 143.96c-7.66 11.5-8.6 2.37-19.34 2-10.5-.38-10.02 6.28-18.82 3.92-4.2-1.14-2.65-.84-4.93-2.6-8.26-.83-12.08-3.3-22.5-3.3 0 17.42-.34 31.44 4.97 43.22 8.4-.4 19.98-9.82 28.14-13.3 23.35 9.67 16.5.38 26.43-.47 4.2-.36 24.93 5.3 31.5 6.25 2.95-16.1-1.6-31.15-4.97-45.62-8.6 2-11.9 8-20.5 9.93z" fill="#1eac4b"/><path d="M402.88 147.27c2.28 1.76.73 1.46 4.93 2.6 8.8 2.36 8.33-4.3 18.82-3.92 10.73.38 11.68 9.52 19.34-2 1.65-3.98 5.25-17.38 5.6-21.52-7.12.6-10.34 3.57-14.9 6.62-20.82-13.93-20.62.14-26.5 1.66-5.6-.47-16.85-5.23-15.24 1.95.37 1.67 6.1 8.08 7.94 14.6z" fill="#8fc43f"/></svg>