<svg xmlns="http://www.w3.org/2000/svg" width="159.999" height="161.601" viewBox="0 0 4233.32 4275.66" shape-rendering="geometricPrecision" image-rendering="optimizeQuality" fill-rule="evenodd" fill="#e31e52"><path d="M3764.75 1198.57c12.54 7.92 73.62 139.14 84.75 165.43 203.02 479.65 220.06 996 28.9 1477.94-131.35 331.13-284.5 518.95-523.62 743.5-20.24 19-47.1 39.53-69.63 57.55-336.88 269.47-776.75 424.54-1234.63 407.26-290.08-10.95-581.05-90.72-802.62-211.82-119.6-65.37-211.3-124.77-307.56-200.9l-197.8-183.63c-43.53-39.2-135.8-159.8-170.06-207.23-33.2-46-68.1-99.43-97.47-152.7-47.4-85.94-136.5-258.46-156.28-353.36-24.43-23.56-75.6-304.78-82.76-359.42-50.78-386.67 24.28-781.73 192.7-1114.97 58.48-115.68 182.2-307.95 270.65-397.6 10.42-10.55 16.25-19.88 26.3-31.25l81.98-82.06c12.67-11.38 15.25-14.27 28.75-28.57l90.37-77.8c72.13-61.53 179.63-132.43 262.87-180.03 492.6-281.7 1101.5-323.47 1629.46-108.53 219.74 89.47 349.45 178.38 519.83 316.68l87.94 80.2c41.08 37.8 75.5 80.38 108.18 113.35 56.76 57.28 202.75 258.8 229.75 327.96zM0 2104.93c0 199.36 13.03 352.74 57.4 529.03 47.95 190.46 92.1 311.35 176.35 479.82 59 118.04 123.1 217.56 202.12 322.8l58 73.24c6.38 8.13 9.36 10.3 15.23 17.58 6.54 8.1 6.6 9.66 14.76 18.05l193.82 195.78c13.52 10.33 20.27 18.82 35.16 30.46 59.03 46.13 80.52 66.25 147.64 114.8 52.33 37.86 102.55 69.8 159.3 103.16 15.05 8.85 26.76 15.88 42 23.6 96.54 48.97 114.58 60.1 221.7 106.4 31.98 13.83 63.85 23.15 95.47 35.76 177.77 70.88 478.52 118.93 668.47 118.93 224.1 0 426.82-24.6 623.86-85.6 319.98-99.1 509.7-208.58 765.8-415.3 42.88-34.6 56.07-52.24 85.7-78.34l112.8-112.75c12.96-12.9 17.74-21.84 30.72-34.9 75.76-76.17 186.42-245.65 245.32-345.22 17.33-29.3 30-54.75 45.5-85.75 266.98-533.96 309.14-1107.02 118.75-1678.5-72.02-216.16-206.64-463.8-347.98-636.27l-137.5-157.77-150.98-140.2c-25.7-20.1-46.1-39.8-72.03-59.2-82.8-61.95-142.6-104.5-234.93-158.77-95.23-55.98-161.47-85.83-263.68-130.02-31.98-13.82-63.86-23.15-95.48-35.76-54.58-21.76-143.37-45.04-202.6-59.87C2266.36-26.1 1858.45-17.8 1520.97 86.7 1201 185.8 1011.27 295.3 755.16 502c-80.7 65.12-129.86 122.8-198.5 191.1l-45.77 52.65c-119.13 152.38-133.65 164.1-230.3 327.45-42.15 71.26-95.42 185.37-127.7 266C60.8 1569.3 0 1847.84 0 2104.93zm1989.44-600.3c2.8 45.47 32.56 144.15 43.9 192.37 17.26 73.4 42.74 120.87 86.9 150.96 150.8 102.75 227.46-22.93 402.16 12.14 283.06 56.83 366.98 398.4 203.55 581.5-35.5 39.76-74.28 74.28-137.94 99.9-80.87 32.55-103.28 31.22-151.46 86.25-96.23 109.93-21.22 240.53 23.63 352.36 51.86 129.3 137.94 211.27 290.96 161.38 200.52-65.37 300-164.26 424.22-288.72 41-41.07 70.68-85.05 102.6-135.4 217.73-343.6 189.8-781.26-39.12-1083.16-225.13-296.9-625.34-459.94-1017.05-371.75-126.03 28.37-241.9 86.14-232.33 242.17zM811.3 1197.93c10.15 60.1 77.27 205.58 103.73 268.06l324.08 787.73c62.5 149.48 124.77 416.03 386.46 352.83 213.64-51.6 387.38-136.32 324.25-388.67l-290.54-1196.76c-25.82-109-72.53-179.65-161.2-214.6-109.28-43.07-207 2.23-304.96 33.33-157.5 50-425.65 98.73-381.82 358.08zm1431.14 2001.15c40.5-214.36-105.68-378.7-276.5-414.7-213.07-44.9-382.92 105.3-418.76 272.22-47.27 220.13 105.14 387.93 275.54 422.66 213.9 43.6 387.25-108.4 419.7-280.18z"/></svg>