<svg xmlns="http://www.w3.org/2000/svg" width="32.001" height="32.319" viewBox="0 0 846.66 855.12" shape-rendering="geometricPrecision" image-rendering="optimizeQuality" fill-rule="evenodd" fill="#e31e52"><path d="M752.95 239.7c2.5 1.58 14.72 27.82 16.95 33.08 40.6 95.93 44 199.2 5.78 295.6-26.27 66.23-56.9 103.8-104.73 148.7-4.05 3.8-9.42 7.9-13.92 11.5-67.38 53.9-155.35 84.9-246.93 81.45-58.02-2.2-116.2-18.15-160.52-42.37-23.93-13.07-42.26-24.95-61.52-40.18l-39.56-36.72c-8.7-7.85-27.16-31.97-34-41.45-6.64-9.2-13.62-19.9-19.5-30.54-9.48-17.2-27.3-51.7-31.26-70.67-4.9-4.72-15.12-60.96-16.55-71.9-10.16-77.33 4.85-156.35 38.54-223 11.7-23.14 36.44-61.6 54.13-79.52 2.08-2.1 3.25-3.98 5.26-6.25l16.4-16.42c2.53-2.27 3.05-2.85 5.75-5.7l18.07-15.56c14.43-12.3 35.93-26.5 52.58-36 98.52-56.34 220.3-64.7 325.9-21.7 43.95 17.9 69.9 35.67 103.97 63.33l17.58 16.05c8.22 7.55 15.1 16.07 21.64 22.67 11.35 11.45 40.55 51.75 45.95 65.6zM0 420.98c0 39.87 2.6 70.55 11.48 105.8 9.6 38.1 18.42 62.27 35.27 95.96 11.8 23.6 24.62 43.5 40.42 64.56l11.6 14.65c1.28 1.63 1.87 2.06 3.05 3.52 1.3 1.62 1.3 1.93 2.95 3.6l38.76 39.15c2.7 2.07 4.06 3.77 7.03 6.1 11.8 9.23 16.1 13.26 29.53 22.97 10.47 7.57 20.5 13.96 31.87 20.63 3 1.77 5.35 3.18 8.4 4.72 19.3 9.8 22.9 12.02 44.33 21.28 6.4 2.77 12.77 4.63 19.1 7.15 35.55 14.18 95.7 23.8 133.7 23.8 44.82 0 85.37-4.92 124.78-17.12 64-19.82 101.94-41.72 153.16-83.06 8.57-6.92 11.2-10.45 17.14-15.67l22.56-22.55c2.6-2.58 3.55-4.37 6.14-6.98 15.16-15.23 37.3-49.13 49.07-69.04 3.46-5.86 6-10.95 9.1-17.15 53.4-106.8 61.82-221.4 23.75-335.7-14.4-43.23-41.33-92.76-69.6-127.25l-27.5-31.55-30.2-28.04c-5.14-4.02-9.22-7.96-14.4-11.84-16.56-12.4-28.52-20.9-47-31.76-19.04-11.2-32.3-17.16-52.74-26-6.4-2.77-12.77-4.63-19.1-7.15-10.92-4.36-28.68-9-40.52-11.98-68.87-17.25-150.45-15.6-217.95 5.3-64 19.82-101.94 41.72-153.16 83.06-16.14 13.03-25.97 24.56-39.7 38.22l-9.16 10.53c-23.82 30.48-26.73 32.82-46.05 65.5-8.43 14.26-19.1 37.08-25.54 53.2C12.16 313.85 0 369.56 0 420.98zm397.9-120.06c.55 9.1 6.5 28.83 8.77 38.47 3.46 14.7 8.55 24.18 17.38 30.2 30.16 20.55 45.5-4.6 80.44 2.42 56.6 11.37 73.4 79.68 40.7 116.3-7.1 7.96-14.86 14.86-27.6 20-16.18 6.5-20.66 6.24-30.3 17.25-19.25 21.98-4.25 48.1 4.72 70.47 10.37 25.86 27.6 42.25 58.2 32.27 40.1-13.07 60-32.85 84.85-57.74 8.2-8.2 14.14-17 20.52-27.08 43.54-68.72 37.96-156.25-7.83-216.64-45.02-59.37-125.06-91.98-203.4-74.35-25.2 5.68-48.38 17.23-46.46 48.44zm-235.64-61.34c2.03 12.02 15.45 41.12 20.74 53.6l64.82 157.55c12.5 29.9 24.95 83.2 77.3 70.56 42.73-10.32 77.48-27.26 64.85-77.73l-58.1-239.35c-5.16-21.8-14.5-35.93-32.24-42.92-21.86-8.62-41.4.44-61 6.66-31.5 10-85.13 19.75-76.36 71.62zM448.5 639.8c8.1-42.87-21.14-75.74-55.3-82.94-42.62-8.98-76.6 21.06-83.75 54.44-9.46 44.03 21.02 77.6 55.1 84.54 42.78 8.72 77.46-21.68 83.95-56.04z"/></svg>