<svg xmlns="http://www.w3.org/2000/svg" width="159.999" height="161.601" viewBox="0 0 4233.32 4275.66" shape-rendering="geometricPrecision" image-rendering="optimizeQuality" fill-rule="evenodd"><defs><linearGradient id="A" gradientUnits="userSpaceOnUse" x1="-.01" y1="2137.83" x2="4233.32" y2="2137.83"><stop offset="0" stop-color="#760db3"/><stop offset="1" stop-color="#4f007c"/></linearGradient></defs><path d="M533.74 2537.05l25.1 75.8c1.78 1.7 65.17 134.7 120.63 186.42 8.87 8.28 13.8 12.57 21.88 21.36 42.08 45.83 143.66 113.9 230.2 127.48 25.16 12.88 117.5 14.5 150.34 11.65 260.4-22.57 447.56-223.7 548.68-448.7 7.9-17.56 40.33-116.1 44.9-120.95-1-17.56 18.06-91.54 22.02-118.9 31.87-220.1-23.48-335.8-22.08-373.9l-30.04-77.27c-67-149.2-168.12-270.57-324.58-325.2-195.9-68.4-376.07 3.5-500.7 97.57-110.37 83.3-206.98 214.83-267.8 380.92-57.54 157.13-79.5 397.3-18.5 563.75zm408.33-838.25c-95.2 21.07-140.87 122.76-158.8 228.22-20 117.64-7.58 237.14 20.16 348.42 25.35 101.76 67.16 198.7 118.03 271 38.9 55.27 129.35 167.32 238.98 146.53 93.5-17.74 140-124.4 159.4-226.26 37.38-196.38-27.25-466.84-138.23-623.68-38.16-53.92-130.34-168.4-239.54-144.23z" fill="#4f007c"/><path d="M3453.98 3057.6l79.28-18.18c7.83-5.48 103.26-24.9 123.2-30.6 50.56-14.4 60.04-31.65 79.03-76.14 4.53-60.54-19.02-83.83-42.88-123.33l-308.77-501.98c-33.47-53.67-90.38-151.6-122.1-197.54-19.2-32.2-33.8-38.76-6.42-67.46 6.3-6.62 3.7-3.63 7.14-5.36 7.63-18.46 38.8-57.17 52.88-75.44l259.73-356.3 52.42-70.1c36.3-46.9 34.44-58.85 45.32-74.52 4.45-28.7 8.36-42.35.87-72.56-25-63.04-97.86-71.35-166.42-45.35-30.86 11.7-49.9 25-71.63 43.74-17.9 15.43-39.83 39.92-55.48 57.53l-15.7 17.1c-8.14 10.14-19.75 19.9-29.05 30.53l-26.66 29.75-11.17 10.72c-10.9 9.44-21.33 22.62-31.78 34.12-7.77 8.56-24.03 23.4-30.1 31.68l-6.2 6.6c-14.85 13.98-25.52 27.94-42.18 45.28-21.83 22.72-116.36 128.03-126.1 132.5l-98.14-156.88c-31.5-53.08-64.68-106.34-96.05-156.1-34.5-54.74-54.35-99.57-124.37-127.8-76-30.63-148.77-18.64-190.57 29.84-55.65 64.56-30.1 121.86-4.5 193.92l200.22 557.47c-12.95 10.1-25.3 22.9-37.9 37l-138.9 149.44c-12.67 12.95-21 25.27-34 38.1-41.9 41.33-65.8 73.2-106.48 113.24-30.85 30.36-80.26 83.24-95.87 120.5-51.93 123.98 20.64 207.35 86 318.32 21.27 36.1 28.54 58.46 67.4 76.74 80.13 37.68 133.55-70.34 163.94-110.23l247.05-334.2c13.64 16.25 67.14 178.4 80.2 212.77l78.2 213.6c17.14 45.35 23.8 68.05 52.3 95.55 102.8 99.28 215.98 22.68 344.24 4.04z" fill="#ff880a"/><path d="M1766.55 1388.5l5.4 290.17 1.48 12.1 1 132.05 2.5 23.73c-3 10.93.42 110.92 1.04 131.24 1.7 55 1.73 81.35 11.28 132.1 4.68 4.8 7.8 13.84 12.28 21.3 5.76 9.62 10.1 14 17.93 21.77 14.87 14.78 25.9 19 47.25 29.48 35.48 14 40.16 16.68 84.62 15.54l61.26-1.22 70.88 2.32c6.5-5.8 282.2-6.13 289.47-6.25l71.1.3c72.95-28.9 51.98-108.34 56.75-194.43 6.13-110.63 26.5-185.3-66.53-184.95-55.35.2-200.26 18.82-242.02 9.66-78.54-17.22-64.53-106.24-65.12-195.15l-1.9-256c-1.08-76.55 8.45-171.5-62.8-194.18-28.22-9-88.58-4.67-121.9-5.08-42.55-.52-79.88-2.2-114.6 16.38-70.66 37.82-69.45 106.08-59.4 199.13z" fill="#a4bd0a"/><path d="M3764.75 1198.57c12.54 7.92 73.62 139.14 84.75 165.43 203.02 479.65 220.06 996 28.9 1477.94-131.35 331.13-284.5 518.95-523.62 743.5-20.24 19-47.1 39.53-69.63 57.55-336.88 269.47-776.75 424.54-1234.63 407.26-290.08-10.95-581.05-90.72-802.62-211.82-119.6-65.37-211.3-124.77-307.56-200.9l-197.8-183.63c-43.53-39.2-135.8-159.8-170.06-207.23-33.2-46-68.1-99.43-97.47-152.7-47.4-85.94-136.5-258.46-156.28-353.36-24.43-23.56-75.6-304.78-82.76-359.42-50.78-386.67 24.28-781.73 192.7-1114.97 58.48-115.68 182.2-307.95 270.65-397.6 10.42-10.55 16.25-19.88 26.3-31.25l81.98-82.06c12.67-11.38 15.25-14.27 28.75-28.57l90.37-77.8c72.13-61.53 179.63-132.43 262.87-180.03C1682.2 187.2 2291.1 145.44 2819.05 360.38c219.74 89.47 349.45 178.38 519.83 316.68l87.94 80.2c41.08 37.8 75.5 80.38 108.18 113.35 56.76 57.28 202.75 258.8 229.75 327.96zM0 2104.93c0 199.36 13.03 352.74 57.4 529.03 47.95 190.46 92.1 311.35 176.35 479.82 59 118.04 123.1 217.56 202.12 322.8l58 73.24c6.38 8.13 9.36 10.3 15.23 17.58 6.54 8.1 6.6 9.66 14.76 18.05l193.82 195.78c13.52 10.33 20.27 18.82 35.16 30.46 59.03 46.13 80.52 66.25 147.64 114.8 52.33 37.86 102.55 69.8 159.3 103.16 15.05 8.85 26.76 15.88 42 23.6 96.54 48.97 114.58 60.1 221.7 106.4 31.98 13.83 63.85 23.15 95.47 35.76 177.77 70.88 478.52 118.93 668.47 118.93 224.1 0 426.82-24.6 623.86-85.6 319.98-99.1 509.7-208.58 765.8-415.3 42.88-34.6 56.07-52.24 85.7-78.34l112.8-112.75c12.96-12.9 17.74-21.84 30.72-34.9 75.76-76.17 186.42-245.65 245.32-345.22 17.33-29.3 30-54.75 45.5-85.75 266.98-533.96 309.14-1107.02 118.75-1678.5-72.02-216.16-206.64-463.8-347.98-636.27l-137.5-157.77-150.98-140.2c-25.7-20.1-46.1-39.8-72.03-59.2-82.8-61.95-142.6-104.5-234.93-158.77-95.23-55.98-161.47-85.83-263.68-130.02-31.98-13.82-63.86-23.15-95.48-35.76-54.58-21.76-143.37-45.04-202.6-59.87C2266.36-26.1 1858.45-17.8 1520.97 86.7 1201 185.8 1011.27 295.3 755.16 502c-80.7 65.12-129.86 122.8-198.5 191.1l-45.77 52.65C391.76 898.13 377.24 909.85 280.6 1073.2c-42.15 71.26-95.42 185.37-127.7 266C60.8 1569.3 0 1847.84 0 2104.93z" fill="url(#A)"/></svg>