<svg xmlns="http://www.w3.org/2000/svg" width="32.001" height="32.319" viewBox="0 0 846.66 855.12" shape-rendering="geometricPrecision" image-rendering="optimizeQuality" fill-rule="evenodd"><defs><linearGradient id="A" gradientUnits="userSpaceOnUse" x1="0" y1="427.56" x2="846.66" y2="427.56"><stop offset="0" stop-color="#760db3"/><stop offset="1" stop-color="#4f007c"/></linearGradient></defs><path d="M106.74 507.4l5.02 15.16c.36.34 13.03 26.94 24.13 37.3 1.77 1.65 2.76 2.5 4.37 4.27 8.42 9.16 28.73 22.78 46.04 25.5 5.03 2.58 23.5 2.9 30.07 2.34 52.08-4.52 89.5-44.74 109.74-89.75 1.57-3.5 8.06-23.22 8.97-24.2-.2-3.5 3.62-18.3 4.4-23.78 6.37-44.02-4.7-67.16-4.42-74.78l-6-15.45c-13.4-29.84-33.62-54.12-64.9-65.04-39.18-13.68-75.22.7-100.15 19.5-22.07 16.66-41.4 42.97-53.56 76.18-11.5 31.43-15.9 79.46-3.7 112.75zm81.67-167.65c-19.04 4.22-28.18 24.56-31.76 45.65-4 23.53-1.52 47.43 4.03 69.68 5.07 20.36 13.43 39.74 23.6 54.2 7.77 11.06 25.87 33.47 47.8 29.3 18.7-3.55 28-24.88 31.88-45.25 7.48-39.28-5.45-93.37-27.64-124.74-7.63-10.78-26.07-33.68-47.9-28.85z" fill="#4f007c"/><path d="M690.8 611.5l15.86-3.63c1.57-1.1 20.65-4.98 24.64-6.12 10.1-2.88 12-6.33 15.8-15.23.9-12.1-3.8-16.77-8.58-24.67l-61.75-100.4c-6.7-10.73-18.08-30.32-24.42-39.5-3.84-6.44-6.76-7.75-1.3-13.5 1.26-1.33.74-.73 1.43-1.07 1.53-3.7 7.76-11.44 10.58-15.1L715 321.05l10.5-14.03c7.26-9.38 6.9-11.76 9.06-14.9.9-5.74 1.67-8.47.18-14.5-5-12.6-19.58-14.27-33.3-9.07-6.17 2.34-9.98 5-14.33 8.75-3.57 3.08-7.96 7.98-11.1 11.5l-3.14 3.42c-1.63 2.03-3.95 3.98-5.8 6.1l-5.33 5.95-2.24 2.14c-2.18 1.9-4.26 4.53-6.35 6.83-1.56 1.7-4.8 4.68-6.02 6.33l-1.25 1.33c-2.96 2.8-5.1 5.58-8.43 9.05-4.37 4.55-23.27 25.6-25.22 26.5l-19.63-31.38-19.2-31.22c-6.9-10.94-10.87-19.9-24.87-25.55-15.2-6.13-29.76-3.73-38.12 5.96-11.13 12.92-6.02 24.38-.9 38.8l40.04 111.5c-2.6 2.02-5.06 4.58-7.58 7.4l-27.78 29.9c-2.53 2.6-4.2 5.05-6.8 7.62-8.38 8.26-13.16 14.64-21.3 22.65-6.17 6.07-16.05 16.64-19.17 24.1-10.4 24.8 4.13 41.46 17.2 63.66 4.25 7.22 5.7 11.7 13.48 15.35 16.03 7.53 26.7-14.07 32.8-22.05l49.4-66.84c2.73 3.25 13.43 35.68 16.04 42.55l15.64 42.72c3.42 9.07 4.76 13.6 10.45 19.1 20.56 19.86 43.2 4.54 68.85.8z" fill="#ff880a"/><path d="M353.3 277.7l1.08 58.04.3 2.4.2 26.4.5 4.75c-.6 2.18.08 22.18.2 26.25.34 11 .34 16.27 2.25 26.42.94.96 1.57 2.77 2.46 4.26 1.15 1.92 2.02 2.8 3.6 4.35 2.97 2.96 5.18 3.8 9.45 5.9 7.1 2.8 8.03 3.33 16.92 3.1l12.25-.24 14.18.46c1.3-1.16 56.44-1.22 57.9-1.25l14.22.06c14.6-5.77 10.4-21.66 11.35-38.88 1.23-22.13 5.3-37.06-13.3-37-11.07.04-40.06 3.76-48.4 1.93-15.7-3.44-12.9-21.25-13.02-39.03l-.38-51.2c-.22-15.3 1.7-34.3-12.56-38.84-5.64-1.8-17.7-.93-24.38-1-8.5-.1-15.97-.44-22.92 3.28-14.13 7.56-13.9 21.2-11.87 39.82z" fill="#a4bd0a"/><path d="M752.95 239.7c2.5 1.58 14.72 27.82 16.95 33.08 40.6 95.93 44 199.2 5.78 295.6-26.27 66.23-56.9 103.8-104.73 148.7-4.05 3.8-9.42 7.9-13.92 11.5-67.38 53.9-155.36 84.9-246.93 81.45-58.02-2.2-116.2-18.15-160.53-42.37-23.92-13.07-42.25-24.95-61.5-40.18l-39.56-36.72c-8.7-7.85-27.16-31.97-34-41.45-6.64-9.2-13.62-19.9-19.5-30.54-9.47-17.2-27.3-51.7-31.25-70.67-4.9-4.72-15.12-60.96-16.55-71.9-10.16-77.33 4.85-156.35 38.54-223 11.7-23.14 36.44-61.6 54.13-79.52 2.08-2.1 3.25-3.98 5.26-6.25l16.4-16.42c2.54-2.27 3.06-2.85 5.76-5.7l18.07-15.56c14.43-12.3 35.92-26.5 52.57-36 98.53-56.34 220.3-64.7 325.9-21.7 43.95 17.9 69.9 35.67 103.96 63.33l17.6 16.05c8.22 7.55 15.1 16.07 21.64 22.67 11.35 11.45 40.55 51.75 45.95 65.6zM-.01 420.98c0 39.87 2.6 70.55 11.5 105.8 9.6 38.1 18.42 62.27 35.27 95.96 11.8 23.6 24.62 43.5 40.42 64.56l11.6 14.65c1.28 1.63 1.87 2.06 3.04 3.52 1.3 1.62 1.32 1.93 2.96 3.6l38.76 39.15c2.7 2.07 4.05 3.77 7.03 6.1 11.8 9.23 16.1 13.26 29.53 22.97 10.47 7.57 20.5 13.96 31.86 20.63 3 1.77 5.35 3.18 8.4 4.72 19.3 9.8 22.92 12.02 44.34 21.28 6.4 2.77 12.77 4.63 19.1 7.15 35.55 14.18 95.7 23.8 133.7 23.8 44.82 0 85.37-4.92 124.77-17.12 64-19.82 101.94-41.72 153.17-83.06 8.57-6.92 11.2-10.45 17.14-15.67l22.56-22.55c2.6-2.58 3.54-4.37 6.14-6.98 15.15-15.23 37.3-49.13 49.07-69.04 3.46-5.86 6-10.95 9.1-17.15 53.4-106.8 61.83-221.4 23.75-335.7-14.4-43.23-41.32-92.76-69.6-127.25l-27.5-31.55-30.2-28.04c-5.14-4.02-9.22-7.96-14.4-11.84-16.55-12.4-28.52-20.9-46.98-31.76-19.05-11.2-32.3-17.16-52.74-26-6.4-2.77-12.77-4.63-19.1-7.15-10.92-4.36-28.68-9-40.52-11.98-68.87-17.25-150.45-15.6-217.95 5.3-64 19.82-101.94 41.72-153.16 83.06-16.14 13.03-25.98 24.56-39.7 38.22l-9.15 10.53c-23.82 30.48-26.73 32.82-46.05 65.5-8.43 14.26-19.1 37.08-25.54 53.2C12.16 313.85-.01 369.56-.01 420.98z" fill="url(#A)"/></svg>