<svg xmlns="http://www.w3.org/2000/svg" xmlns:xlink="http://www.w3.org/1999/xlink" width="32.001" height="32.319" viewBox="0 0 846.66 855.12" shape-rendering="geometricPrecision" image-rendering="optimizeQuality" fill-rule="evenodd"><defs><linearGradient id="A" gradientUnits="userSpaceOnUse" x1="185.9" y1="419.36" x2="660.75" y2="419.36"><stop offset="0" stop-color="#f63"/><stop offset="1" stop-color="#f53d2d"/></linearGradient><linearGradient id="B" xlink:href="#A" x1="0" y1="427.56" x2="846.66" y2="427.56"/></defs><path d="M752.95 239.7c2.5 1.58 14.72 27.82 16.95 33.08 40.6 95.93 44 199.2 5.78 295.6-26.27 66.23-56.9 103.8-104.73 148.7-4.05 3.8-9.42 7.9-13.92 11.5-67.38 53.9-155.36 84.9-246.93 81.45-58.02-2.2-116.2-18.15-160.53-42.37-23.92-13.07-42.25-24.95-61.5-40.18l-39.56-36.72c-8.7-7.85-27.16-31.97-34-41.45-6.64-9.2-13.62-19.9-19.5-30.54-9.47-17.2-27.3-51.7-31.25-70.67-4.9-4.72-15.12-60.96-16.55-71.9-10.16-77.33 4.85-156.35 38.54-223 11.7-23.14 36.44-61.6 54.13-79.52 2.08-2.1 3.25-3.98 5.26-6.25l16.4-16.42c2.54-2.27 3.06-2.85 5.76-5.7l18.07-15.56c14.43-12.3 35.92-26.5 52.57-36 98.53-56.34 220.3-64.7 325.9-21.7 43.95 17.9 69.9 35.67 103.96 63.33l17.6 16.05c8.22 7.55 15.1 16.07 21.64 22.67 11.35 11.45 40.55 51.75 45.95 65.6zM-.01 420.98c0 39.87 2.6 70.55 11.5 105.8 9.6 38.1 18.42 62.27 35.27 95.96 11.8 23.6 24.62 43.5 40.42 64.56l11.6 14.65c1.28 1.63 1.87 2.06 3.04 3.52 1.3 1.62 1.32 1.93 2.96 3.6l38.76 39.15c2.7 2.07 4.05 3.77 7.03 6.1 11.8 9.23 16.1 13.26 29.53 22.97 10.47 7.57 20.5 13.96 31.86 20.63 3 1.77 5.35 3.18 8.4 4.72 19.3 9.8 22.92 12.02 44.34 21.28 6.4 2.77 12.77 4.63 19.1 7.15 35.55 14.18 95.7 23.8 133.7 23.8 44.82 0 85.37-4.92 124.77-17.12 64-19.82 101.94-41.72 153.17-83.06 8.57-6.92 11.2-10.45 17.14-15.67l22.56-22.55c2.6-2.58 3.54-4.37 6.14-6.98 15.15-15.23 37.3-49.13 49.07-69.04 3.46-5.86 6-10.95 9.1-17.15 53.4-106.8 61.83-221.4 23.75-335.7-14.4-43.23-41.32-92.76-69.6-127.25l-27.5-31.55-30.2-28.04c-5.14-4.02-9.22-7.96-14.4-11.84-16.55-12.4-28.52-20.9-46.98-31.76-19.05-11.2-32.3-17.16-52.74-26-6.4-2.77-12.77-4.63-19.1-7.15-10.92-4.36-28.68-9-40.52-11.98-68.87-17.25-150.45-15.6-217.95 5.3-64 19.82-101.94 41.72-153.16 83.06-16.14 13.03-25.98 24.56-39.7 38.22l-9.15 10.53c-23.82 30.48-26.73 32.82-46.05 65.5-8.43 14.26-19.1 37.08-25.54 53.2C12.16 313.85-.01 369.56-.01 420.98z" fill="url(#B)"/><path d="M411 459.56c2.25-.01 13.1 3.8 14.97 4.76 3.8 1.1 14.26 4.23 16.22 6.47 4.28.06 20.03 8.36 24.2 10.48 6.14 3.1 17.3 10.36 20.67 13.96 9.17 6 19.13 20.64 22.1 33.12 3.67 15.43.95 33.53-5.64 47.27-3.48 7.26-11.34 17.4-16.42 21.04-2.6 3.17-9.1 7.1-13.8 9.7-5.56 3.06-11.16 4.12-16.48 6.66-3.98.77-8.44 2.6-12.63 2.17-1.94 1.44-6.6 1.57-9.46 1.25-3.28 2.45-20 .13-24.8-.26-6.98-1-27.18-4.3-31.8-7.44-3.76-.9-14.4-4.86-16.57-7.07-6.73-2.06-26.13-15.95-29.2-19.63.07-3.33 3.54-7.13 5.3-9.68 1.25-1.8 5.36-8.28 6.2-8.96 3.1-2.53 10.4 4.15 15.8 8.2l2.28 2.1c.85.15 13.12 6.85 15.6 8.24 5.25 1.95 9.64 3.97 15.23 5.8 5.43 1.76 10.97 2.7 17.15 3.92 5.06.6 10.6 1.4 15.85.86l16.6-2c1.95-.86 4.63-1.3 6.6-1.9 2.77-.82 5.04-1.93 7.82-2.66 2.24-2.1 13.53-5.43 21.74-17.63 17.15-25.5.77-52.06-23.12-64.87-1.84-1-12.53-6.05-13.05-6.6l-15.74-5.53-16.76-5.97c-9.23-3.54-17.88-6.96-26.4-11-5.3-2.5-20.68-12.04-21.93-15.9-4.7-2.54-11.15-11.8-14.27-18.1-8.1-16.35-7.7-35.88.14-52.37 3.15-6.63 9.3-15.55 14.1-18.22 2.2-4.6 14.5-11.66 20.67-14.55 8.77-4.1 16.87-6.03 27.73-7.56 4.77-.32 15-1.65 18.86.4 3.7-1.1 9.14.18 13 1 3.67.5 12.54 1.6 14.73 3.73 4.42-.22 11.5 3.08 15.57 4.72 7.85 3 17.1 7.73 23.38 12.07 5.75 3.98 3.1 5.75-.1 10.97-7.77 12.66-6.17 12.97-15.43 7.18-1.78-1.1-6.15-3.24-7.4-4.5-2.2-.77-15.6-6.3-16.24-6.73l-14.25-3.62-16.28-2.03-13.02-.22c-3.2 2.2-18.62 2.2-30.72 13.3-6.84 6.28-14.77 15.85-14.6 30.2.3 22.4 20.86 35.84 39.5 43.27l4.04 2.17zm-49.62-244.1c.36-2.03.66-1.67 3.04-4.58 2.28-2.8 10.56-10.7 13.2-11.98 2.73-3.3 10.33-7.33 14.68-9.34 5.82-2.68 10.92-4.2 17.64-5.78l15.68-1.15c3.04.12 8 0 10.06 1.55 3.8-.32 7.87 1.25 11.25 2.45 2.92 1.03 7.84 2.43 9.9 4.77 2.77.38 6.97 3.5 9.16 5 3.25 2.23 5.26 4.14 8.05 6.4 3.47 2.82 11.54 11.04 13.65 15.88.9.3.88.44 1.9 1.92l5.87 9.92c7.7 14.67 12.35 32.78 12.72 49.97H360.74l-22.46-.03c.95-21.27 6.6-41.37 18.05-58.63l2.1-3.14 2.94-3.24zm48.55-63.53c-9.9 1.65-17.78 3.52-26.48 7.16-4.02 1.68-7.9 3.43-11.48 5.58-2.43 1.47-8.4 5.44-10.2 5.9-.7.92-.1.37-1.36 1.56-.98.92-.4.34-1.48 1.16-10.1 7.65-10.62 8.94-19.2 18.18-3.25 3.5-6.4 7.92-9.3 12.35-.98 1.5-7.82 12.74-8.05 12.92-1.83 5.66-5.34 11.8-7.53 18.05-2.13 6.1-3.57 13.8-5.65 19.33-1.12 8.97-2.95 16.93-3.05 26.4h-96.5c-4.1 0-11.9-.44-15.55.15-5.2.86-5.74 3.6-8.08 6.9l-.12 9.83c2.42 30.3 2.9 63.1 4.27 93.8l10.7 235.52c.36 7.78.2 15.8 1.88 23.12 1.88 8.22 4.7 11.85 7.4 18.07 1.68 1.2 2.43 3.07 4.03 4.6 1.82 1.76 3 3.08 4.96 4.86 3.04 2.75 7.65 5.15 12.32 7.34 4.94 1.44 8.03 2.43 13.54 2.7l26.7.17h316.6c13.04 0 15.94-.3 27.32-4.18 5.26-3.72 5.92-2.65 12.58-8.7l4-3.6c.43-1.8-.35.3.5-1.16 4.28-7.43 8.1-9.85 10.36-23.66 1.53-9.36 4.52-88.62 5.4-103.6l7.3-138.18c-1.06-5.03.76-25.1 1.07-31.67l3.92-79.37c.32-9.86-3.15-8.86-4.58-11.7-6.96-2.02-15.76-1.23-23.6-1.24H588.3h-14.23c-6.22 0-29.37.76-33.64-.4-.58-8.72-1.23-16.27-3-24.64-.96-4.58-5.63-19.6-5.6-21.84-2.26-2.16-4.52-9.95-6.07-13.07-2.23-4.47-4.45-8.5-7.02-12.62-1.35-2.16-2.22-3.75-3.58-5.58l-12.74-16.52c-2.37-1.24-5.55-4.64-7.92-6.8-1.68-1.53-2.18-2.03-3.88-3.35l-3-2.9c-3-1.44-4.7-3-7.64-4.83-2.36-1.48-4.76-2.87-7.37-4.38-4.7-2.7-10.32-4.38-15.8-6.98-11-2.85-18.46-5.25-30.78-5.45l-16.13.78z" fill="url(#A)"/></svg>