<svg xmlns="http://www.w3.org/2000/svg" xmlns:xlink="http://www.w3.org/1999/xlink" width="159.999" height="161.601" viewBox="0 0 4233.32 4275.66" shape-rendering="geometricPrecision" image-rendering="optimizeQuality" fill-rule="evenodd"><defs><linearGradient id="A" gradientUnits="userSpaceOnUse" x1="-.01" y1="2137.83" x2="4233.32" y2="2137.83"><stop offset="0" stop-color="#f63"/><stop offset="1" stop-color="#f53d2d"/></linearGradient><linearGradient id="B" xlink:href="#A" x1="929.51" y1="2096.83" x2="3303.8" y2="2096.83"/></defs><path d="M3764.75 1198.57c12.54 7.92 73.62 139.14 84.75 165.43 203.02 479.65 220.06 996 28.9 1477.94-131.35 331.13-284.5 518.95-523.62 743.5-20.24 19-47.1 39.53-69.63 57.55-336.88 269.47-776.75 424.54-1234.63 407.26-290.08-10.95-581.05-90.72-802.62-211.82-119.6-65.37-211.3-124.77-307.56-200.9l-197.8-183.63c-43.53-39.2-135.8-159.8-170.06-207.23-33.2-46-68.1-99.43-97.47-152.7-47.4-85.94-136.5-258.46-156.28-353.36-24.43-23.56-75.6-304.78-82.76-359.42-50.78-386.67 24.28-781.73 192.7-1114.97 58.48-115.68 182.2-307.95 270.65-397.6 10.42-10.55 16.25-19.88 26.3-31.25l81.98-82.06c12.67-11.38 15.25-14.27 28.75-28.57l90.37-77.8c72.13-61.53 179.63-132.43 262.87-180.03C1682.2 187.2 2291.1 145.44 2819.05 360.38c219.74 89.47 349.45 178.38 519.83 316.68l87.94 80.2c41.08 37.8 75.5 80.38 108.18 113.35 56.76 57.28 202.75 258.8 229.75 327.96zM0 2104.93c0 199.36 13.03 352.74 57.4 529.03 47.95 190.46 92.1 311.35 176.35 479.82 59 118.04 123.1 217.56 202.12 322.8l58 73.24c6.38 8.13 9.36 10.3 15.23 17.58 6.54 8.1 6.6 9.66 14.76 18.05l193.82 195.78c13.52 10.33 20.27 18.82 35.16 30.46 59.03 46.13 80.52 66.25 147.64 114.8 52.33 37.86 102.55 69.8 159.3 103.16 15.05 8.85 26.76 15.88 42 23.6 96.54 48.97 114.58 60.1 221.7 106.4 31.98 13.83 63.85 23.15 95.47 35.76 177.77 70.88 478.52 118.93 668.47 118.93 224.1 0 426.82-24.6 623.86-85.6 319.98-99.1 509.7-208.58 765.8-415.3 42.88-34.6 56.07-52.24 85.7-78.34l112.8-112.75c12.96-12.9 17.74-21.84 30.72-34.9 75.76-76.17 186.42-245.65 245.32-345.22 17.33-29.3 30-54.75 45.5-85.75 266.98-533.96 309.14-1107.02 118.75-1678.5-72.02-216.16-206.64-463.8-347.98-636.27l-137.5-157.77-150.98-140.2c-25.7-20.1-46.1-39.8-72.03-59.2-82.8-61.95-142.6-104.5-234.93-158.77-95.23-55.98-161.47-85.83-263.68-130.02-31.98-13.82-63.86-23.15-95.48-35.76-54.58-21.76-143.37-45.04-202.6-59.87C2266.36-26.1 1858.45-17.8 1520.97 86.7 1201 185.8 1011.27 295.3 755.16 502c-80.7 65.12-129.86 122.8-198.5 191.1l-45.77 52.65C391.76 898.13 377.24 909.85 280.6 1073.2c-42.15 71.26-95.42 185.37-127.7 266C60.8 1569.3 0 1847.84 0 2104.93z" fill="url(#A)"/><path d="M2054.96 2297.84c11.28-.04 65.47 18.95 74.86 23.8 18.94 5.5 71.3 21.1 81.08 32.35 21.4.3 100.2 41.8 121.1 52.38 30.66 15.53 86.42 51.8 103.3 69.78 45.87 29.97 95.66 103.23 110.52 165.62 18.36 77.15 4.78 167.63-28.18 236.35-17.4 36.3-56.7 87.07-82.13 105.17-13.05 15.9-45.54 35.55-69.02 48.48-27.8 15.32-55.82 20.6-82.43 33.3-19.9 3.87-42.16 13.03-63.12 10.88-9.72 7.2-32.95 7.84-47.33 6.25-16.4 12.24-99.95.63-123.97-1.33-34.9-4.96-135.92-21.5-159.04-37.2-18.8-4.54-72.04-24.28-82.88-35.36-33.66-10.27-130.65-79.74-146-98.16.37-16.63 17.7-35.63 26.55-48.4 6.28-9.04 26.83-41.4 30.94-44.77 15.52-12.67 52 20.74 79.06 40.92l11.4 10.45c4.23.75 65.58 34.27 78.05 41.2 26.23 9.74 48.18 19.86 76.15 28.95 27.13 8.82 54.87 13.5 85.76 19.6 25.3 3.08 52.94 6.96 79.24 4.3l83.04-9.93c9.74-4.33 23.15-6.54 33.08-9.48 13.83-4.1 25.2-9.63 39.06-13.26 11.22-10.5 67.68-27.15 108.7-88.17 85.73-127.5 3.87-260.33-115.58-324.36-9.2-4.93-62.65-30.23-65.27-33l-78.7-27.66-83.8-29.82c-46.15-17.7-89.42-34.83-131.95-55-26.44-12.53-103.43-60.2-109.67-79.43-23.55-12.7-55.72-58.96-71.36-90.54-40.47-81.73-38.53-179.4.7-261.83 15.8-33.18 46.58-77.8 70.45-91.1 11.03-23.05 72.46-58.33 103.36-72.8 43.88-20.54 84.35-30.15 138.67-37.77 23.84-1.62 74.97-8.28 94.27 1.95 18.5-5.45 45.73.9 65.05 4.93 18.36 2.45 62.7 8 73.66 18.63 22.1-1.07 57.47 15.4 77.88 23.6 39.2 15.03 85.53 38.67 116.87 60.37 28.78 19.92 15.44 28.75-.56 54.84-38.83 63.32-30.86 64.88-77.13 35.92-8.9-5.57-30.76-16.22-36.93-22.48-11.06-3.83-77.98-31.5-81.23-33.6l-71.23-18.13-81.4-10.14-65.1-1.1c-16.06 10.98-93.1 11.04-153.6 66.53-34.2 31.36-73.82 79.2-72.9 151 1.42 111.96 104.28 179.22 197.5 216.4l20.2 10.84zM1806.9 1077.32c1.8-10.1 3.3-8.32 15.18-22.87 11.4-13.95 52.8-53.52 65.98-59.9 13.62-16.54 51.63-36.66 73.4-46.7 29.08-13.4 54.56-20.93 88.2-28.93l78.37-5.75c15.23.62 40.03.01 50.32 7.8 19-1.6 39.33 6.2 56.25 12.2 14.58 5.17 39.2 12.18 49.48 23.86 13.85 1.92 34.88 17.57 45.82 25.07 16.27 11.16 26.32 20.66 40.24 31.97 17.38 14.12 57.7 55.23 68.25 79.42 4.48 1.47 4.4 2.17 9.53 9.58l29.32 49.63c38.44 73.32 61.75 163.88 63.6 249.8l-105.93.01-256.85-.01-128.4.02-245.9-.01-112.3-.16c4.75-106.33 33-206.8 90.23-293.12l10.5-15.7 14.74-16.23zm242.74-317.64c-49.5 8.23-88.9 17.6-132.42 35.8-20.08 8.4-39.52 17.13-57.38 27.9-12.16 7.34-42.07 27.2-51 29.43-3.46 4.63-.45 1.87-6.8 7.8-4.93 4.6-1.96 1.7-7.4 5.83-50.5 38.24-53.12 44.68-96 90.86-16.26 17.52-32 39.6-46.47 61.75-4.88 7.48-39.1 63.7-40.27 64.6-9.14 28.3-26.66 58.98-37.62 90.27-10.66 30.46-17.84 69.02-28.25 96.63-5.58 44.87-14.74 84.68-15.28 131.94H1357.8l-198.37-.01-111.14.01c-20.46.03-59.46-2.2-77.73.78-25.95 4.26-28.7 17.9-40.43 34.5l-.6 49.16c12.1 151.45 14.56 315.47 21.36 468.96l53.48 1177.62c1.82 38.9 1.03 79 9.42 115.58 9.4 41.1 23.56 59.27 36.94 90.36 8.38 6 12.15 15.33 20.14 23.04 9.13 8.8 15 15.42 24.8 24.3 15.2 13.76 38.3 25.76 61.6 36.72 24.72 7.2 40.13 12.17 67.72 13.53l133.54.8 1582.92-.01c65.22.04 79.7-1.5 136.6-20.9 26.3-18.56 29.62-13.22 62.9-43.54l20-17.93c2.17-9.08-1.72 1.54 2.5-5.8 21.44-37.16 40.52-49.25 51.8-118.32 7.64-46.8 22.6-443.07 27.07-518.05l36.43-690.88c-5.28-25.14 3.8-125.45 5.35-158.35l19.6-396.85c1.58-49.3-15.76-44.3-22.9-58.56-34.78-10.06-78.78-6.14-118.04-6.17h-292.44c-31.08.03-146.86 3.82-168.2-2.04-2.87-43.6-6.16-81.3-14.94-123.18-4.8-22.9-28.16-98.03-27.98-109.2-11.34-10.82-22.62-49.78-30.4-65.36-11.13-22.36-22.23-42.55-35.1-63.1-6.75-10.8-11.12-18.75-17.9-27.9l-63.68-82.6c-11.87-6.2-27.78-23.22-39.6-33.97-8.42-7.65-10.9-10.14-19.4-16.74l-14.97-14.45c-14.94-7.18-23.47-14.94-38.17-24.15-11.8-7.4-23.8-14.36-36.86-21.9-23.45-13.53-51.58-21.87-78.95-34.9-55.05-14.27-92.3-26.26-153.9-27.25l-80.65 3.9z" fill="url(#B)"/></svg>