<svg xmlns="http://www.w3.org/2000/svg" width="32.001" height="32.319" viewBox="0 0 846.66 855.12" shape-rendering="geometricPrecision" image-rendering="optimizeQuality" fill-rule="evenodd"><path d="M752.95 239.7c2.5 1.58 14.72 27.82 16.95 33.08 40.6 95.93 44 199.2 5.78 295.6-26.27 66.23-56.9 103.8-104.73 148.7-4.05 3.8-9.42 7.9-13.92 11.5-67.38 53.9-155.36 84.9-246.93 81.45-58.02-2.2-116.2-18.15-160.53-42.37-23.92-13.07-42.25-24.95-61.5-40.18l-39.56-36.72c-8.7-7.85-27.16-31.97-34-41.45-6.64-9.2-13.62-19.9-19.5-30.54-9.47-17.2-27.3-51.7-31.25-70.67-4.9-4.72-15.12-60.96-16.55-71.9-10.16-77.33 4.85-156.35 38.54-223 11.7-23.14 36.44-61.6 54.13-79.52 2.08-2.1 3.25-3.98 5.26-6.25l16.4-16.42c2.54-2.27 3.06-2.85 5.76-5.7l18.07-15.56c14.43-12.3 35.92-26.5 52.57-36 98.53-56.34 220.3-64.7 325.9-21.7 43.95 17.9 69.9 35.67 103.96 63.33l17.6 16.05c8.22 7.55 15.1 16.07 21.64 22.67 11.35 11.45 40.55 51.75 45.95 65.6zM-.01 420.98c0 39.87 2.6 70.55 11.5 105.8 9.6 38.1 18.42 62.27 35.27 95.96 11.8 23.6 24.62 43.5 40.42 64.56l11.6 14.65c1.28 1.63 1.87 2.06 3.04 3.52 1.3 1.62 1.32 1.93 2.96 3.6l38.76 39.15c2.7 2.07 4.05 3.77 7.03 6.1 11.8 9.23 16.1 13.26 29.53 22.97 10.47 7.57 20.5 13.96 31.86 20.63 3 1.77 5.35 3.18 8.4 4.72 19.3 9.8 22.92 12.02 44.34 21.28 6.4 2.77 12.77 4.63 19.1 7.15 35.55 14.18 95.7 23.8 133.7 23.8 44.82 0 85.37-4.92 124.77-17.12 64-19.82 101.94-41.72 153.17-83.06 8.57-6.92 11.2-10.45 17.14-15.67l22.56-22.55c2.6-2.58 3.54-4.37 6.14-6.98 15.15-15.23 37.3-49.13 49.07-69.04 3.46-5.86 6-10.95 9.1-17.15 53.4-106.8 61.83-221.4 23.75-335.7-14.4-43.23-41.32-92.76-69.6-127.25l-27.5-31.55-30.2-28.04c-5.14-4.02-9.22-7.96-14.4-11.84-16.55-12.4-28.52-20.9-46.98-31.76-19.05-11.2-32.3-17.16-52.74-26-6.4-2.77-12.77-4.63-19.1-7.15-10.92-4.36-28.68-9-40.52-11.98-68.87-17.25-150.45-15.6-217.95 5.3-64 19.82-101.94 41.72-153.16 83.06-16.14 13.03-25.98 24.56-39.7 38.22l-9.15 10.53c-23.82 30.48-26.73 32.82-46.05 65.5-8.43 14.26-19.1 37.08-25.54 53.2C12.16 313.85-.01 369.56-.01 420.98z" fill="#4f9c4e"/><path d="M587.97 599.9c-.6 1.74-2.33 2.98-3.86 4.1l-12.95 9.17c-8.13 3-9.45 5.75-21.33 9.93l-5.3 2.05c-3.08 1.62-6.9 2-13.15 3.95-12 3.72-91.43 1.94-109 1.92H274.76c-12.23 0-38.13 1.24-48.78-.45-1.04-13.92-.1-73.5-.1-92.3l-.13-274.03c-.01-4.68-.78-4.05 2.25-4.93l83.66-.22c11.3.2 53.52 3.07 64.47 6.44 9.74 3 19.67 3.3 33.27 9.38 3.16 1.4 17.6 8.22 18.36 10.03 6.65.17 13.98-6.4 20.86-8.38l11.02-3.84c5-1.75 10.97-3.8 16.5-4.5l18.64-3.5c9.52-1.87 17.77-1.34 27.4-2.7 6.6-.93 3-1 12.58-1.37 3.88-.14 6.43.3 9.46-.9 7.23-2.84 21.27-1.37 31.54-1.42 18.94-.08 39.67-.73 58.43.12 1.43 8.72.4 218.18.36 242.1-.02 15.37-2.4 28.73-6.66 41.55-5.22 15.76-7.67 20.52-16.93 33.84l-1.28 1.94c-.6.95-.38.8-1.26 2-.1.13-.26.32-.36.46-.1.13-.28.3-.4.45-.1.13-.28.3-.4.44l-19.32 18.7zm-235.6-355.05c-1.16-4.64 3.13-15.17 5.58-20.4 1.02-2.15.75-1.6 1.76-3.16 4-6.06 5.5-10.02 11.1-15.95.3-.3 1.73-1.72 2.1-2l6.25-5.3c.53-.5.57-.56 1.26-1.2l11.33-7.52c5.75-3.03 1.87-2.87 8.3-4.12l14.05-3.9c10.82-3.67 34.68-1.37 45.85 3.66 7.45 3.35 12.14 4.8 18.42 10.32l1.3 1.14c3.42 3 10.8 8.87 12.75 11.82l2.72 4.68c6.25 8.77 14.58 21.02 13.42 32.32-14.93.6-15.8 1.74-27.8 3.68l-33.56 8.94c-2 .7-2.26.92-4.7 1.94l-12.63 4.75-25.95-11.1c-4.26-1.3-6.55-.6-13.78-2.84-12.4-3.85-25.1-5.46-37.74-5.78zm-143.93 309l-.01 74.63c0 5.04-.92 10.2 1.63 13.03 8 8.92 10.4 6.58 22.87 6.58h265.75c17.95 0 18.22-.3 35-2.06 3.3-.35 3.74-.86 5.62-1.34 4.02-1.05 4.02-.1 8.78-2.08l13.82-5.14c10.58-4.76 23.66-11.4 32.2-19.4l19.16-17.73c4.93-5.12 8.94-7.7 13.24-16.32 1.54-3.1 3.38-4.1 7.05-11l3.93-7.6c4.97-8.7 3.75-9.1 8.4-21.04.98-2.5.78-3.16 1.5-5.87.42-1.56 1.06-3.27 1.37-5.98 1.02-9 3.15-17.2 3.2-26.27l.3-265.4-101.93.01c-5.05.1-8.27 1.4-11.9.9-.74-7.67-3.02-14.3-5.13-20.34l-4.8-10.78c-4.47-9.92-1.06-3.58-7.96-13.38l-5.64-7.5c-2.47-3.34-3.42-4.08-5.7-6.6-.47-.52-1.06-1.14-1.6-1.68l-35.3-23.74c-2.87-1.34-6.53-1.53-9.58-2.84-.15-.07-.36-.18-.5-.25-3.98-1.9-1.24-1.68-9.36-2.37-7.07-.6-6.7-1.26-10.04-1.66-10.72-1.3-25.58.44-35.64 1.74-3.32.43-3.18.85-4.93 1.32-6.9 1.83-.7-1-9.44 2.97-4.76 2.15-.8-.82-10.96 4.64l-19.42 11.77c-.12.12-.27.3-.38.43l-9.56 9.34c-5.64 5.4-1.04-.54-7.14 7.64-1 1.35-1.53 1.9-2.8 3.74l-5.05 7.28c-.88 1.13-1.7 2.17-2.4 3.35l-12.23 31.1c-.28 1-.34 1.67-.63 2.7-.07.23.13 3.15-.46 1.32-.04-.12-.14.44-.26.64l-113.07.23-.01 312.95z" fill="#424242"/><path d="M587.97 599.9l-10.23-18.47c-3.15-4.98-3.76-7.1-8.22-13.1-2.56-3.45-3.75-3.67-9.62-11.72l-2.7-3.04c-.1-.12-.28-.3-.4-.42l-10.3-9.37c-3.9-3.6-3.46-4.22-7.98-7.63l-9-5.75c-4.9-3.67-5.04-4.73-12.5-8.8-3.45-1.88-7.4-3.83-8.34-6.7-4.65-.05-9.4-1.25-13.6-2.72-5.14-1.8-6.25-4.08-11.76-4.05-1.1 2.73.14.37-1.63 2.44l-18.34 19.4-6.83 7.13-3.6 3.77-.4.43-.4.4-5.32 5.4c-.17.17-.67.62-.87.83l-4.45 5.27-.4.4-4 4.2c-.12.12-.28.3-.4.42l-3.92 4.3c-2.14 2.2-2.78 1.96-4.4 1.92l1.9 66.33-167.27-.26c1.25-7.3 6.1-23.98 9.1-29.4 10.57-19.17 4.6-12.14 18.1-31.87 2.62-3.83 3.85-4.1 6.5-8.27.1-.15.22-.36.32-.5l6.65-8.1c.1-.12.28-.3.4-.42.1-.13.28-.3.4-.43l2.45-2.47c1.22-1.05.47-.35 1.87-1.4.14-.1.34-.24.48-.35.13-.1.33-.25.46-.36l3.35-3.26c.1-.13.26-.32.38-.45l11.74-10.37c.7-.43 1.02-.5 1.65-.83 3.2-1.7 4.27-3.3 7.5-5.6.14-.1.34-.24.48-.33l.5-.33 10.27-6.16c1.34-1.18 1.6-2.08 2.2-4.36-9.85.37-32.4.9-40.8-1.97-14.07-4.83-17-6.26-28.1-13.56-2.4-1.58-4.32-1.84-6.9-3.77l-17.9-17.36-.36-.47-4.56-6.1a24.04 24.04 0 0 1-.3-.52c-.08-.16-.2-.37-.28-.54-3.47-6.95-2.9-4.57-5.23-8.72-3.56-6.33-1.35-5.2-3.55-5.6l-2.73.4-6.2-12.42c-.73-2.9-.75-2.25.46-3.16V621.1c.16 13 .96 9.16-3.28 9.84V259.3c-3.03.88-2.26.25-2.25 4.93l.22 366.34c10.65 1.7 36.55.45 48.78.45H422.4c17.56.02 97 1.8 109-1.92 6.24-1.94 10.07-2.33 13.15-3.95l5.3-2.05c11.88-4.18 13.2-6.94 21.33-9.93L584.1 604c1.53-1.12 3.27-2.36 3.86-4.1z" fill="#5eba54"/><path d="M429.85 485.35c12.36.08 21.8 2.9 29.64 10.13l3.77 3.62c3.2 3.2 5.8 5.57 3.3 8.66a96.52 96.52 0 0 1-1.17 1.31l-6.02 6.28-.42.4c-.12.12-.3.28-.42.4l-25.06 26.62c-.17.18-.62.72-.8.9l-.85.9c-1.32 1.05-.5 1.04-2 .9-2.22-.2-.92.62-1.73-1.3l-4.28-4.85c-.1-.13-.28-.3-.4-.43l-22.4-23.55c-1.52-1.23-1.12-.7-2.75-2.17-1.32-1.2-.44-.38-1.22-1.23-4.8-5.2-4.93-5.96-3.02-9.44 2.06-3.74 5.5-6.18 9.14-8.88 1.34-1 2.67-1.7 4.12-2.47 9.1-4.8 9.52-5.62 22.56-5.8zm-1.82-29.1c.85-2.24-.34-1.2 1.75-1.96 1.9.98.86.35 2.05 2.43l3.2 6.6c2.15 3.33 4.14 3.95 5.1 9.04l-10.64-.33-9.15.34c.46-2.46-.12-.9.98-3.25 1.2-2.54 5.5-5.42 6.72-12.86zm181.16-64.8c.73 7.16 2.08 10.16 2.24 18.04.4 18.8-2.16 33.48-12.72 49.18l-1.95 2.98c-1.3 1.95-2.26 2.98-3.8 5.2l-14.54 14.2c-8.08 5.76-10.37 7.1-20.33 11.77-9 4.22-16.73 5.12-27.4 5.42-16.55.46-19.1-.1-33.7-4.14l-18.7-10.03c-2.33-1.77.02-.3-3.05-1.9-8.4-4.42-13.58-13-17.02-16.7-2.57-2.77-2.16-1.02-3.03-4.85-1.7-.27-2.08-1.8-3.95-5.38a37.18 37.18 0 0 0-.56-1.09l-4.05-6.55c-2.03-3.6-1.7-7.47-2.83-11.2-4.74-15.54-4-33.5-.36-48.77 1.62-6.8 6.45-16.45 11.1-22.26l15.64-17.15c.13-.1.3-.27.43-.4l.44-.38c.12-.12.3-.28.43-.4a165.67 165.67 0 0 1 1.32-1.15l13.6-9.33 3.83-1.88c6.32-2.6 11.53-3.64 18.83-5.24 9.4-2.06 11.4-1.82 22.4-1.53 7.95.22 22.6 3.6 30 6.55l11.5 6.44c3.53 2.23 7.73 6.83 11.16 9.32.62.46 1.16.76 1.92 1.36 1.33 1.07 1.95 1.82 2.92 2.84.9.95 1.78 1.72 2.77 2.95 2.03 2.53 1.22 2.95 5.68 8.3l8.68 15c.08.17.17.4.25.56 2.07 4.8 1.67 4.67 2.8 10.2zm-357-2.2c-.25-2.67 1.04-6.46 2.37-9.06l.6-.97c.12-.2.5-.78.6-1 .57-1.1.14-.18.77-1.72 2.2-5.33 3.42-6.34 6.4-10.8l20.3-21.57a14.15 14.15 0 0 0 .43-.37l3.25-2.5c.53-.34.92-.57 1.54-.92l6.63-4c1.65-1.12 2.1-1.48 3.64-2 6-2.02 22.4-6.1 27.72-6.3 6.27-.23 22.36-.45 28.54 1.45l10.68 4.02c6.38 1.55 10.33 3.72 15.27 7.6l15.4 12.48.4.42.4.42.76.9c.38.45.65.84 1.07 1.37l7.3 9.12c3.03 3.55 4.03 5.25 6 10.47l3.3 8.15c4.95 9.32 5.34 38.87 1.85 50.5l-5.8 15.62c-.97 3.86-5.65 10.88-7.85 13.4-6.67 7.66-11.66 14.34-20.78 19.4-3.28 1.82-2.94 2.46-5.68 4.12-6.8 4.1-17.73 8.2-25.5 9.86-7.36 1.56-26.75 1-33.6.28l-16.83-4.82c-.24-.1-.88-.4-1.1-.5l-16-9.38-.53-.3-12.08-10.9c-.12-.12-.28-.3-.4-.43l-6.87-7.82c-.26-.42-.56-1.16-.8-1.66l-5.7-9.93c-.36-.63-1.54-2.53-1.83-3.05l-5.46-13.98c-5.22-25.55-1.52-25.74.13-45.56h1.5zm-12.43 67.4c2.2.4-.01-.72 3.55 5.6 2.32 4.15 1.76 1.77 5.23 8.72l.28.54.3.52 4.56 6.1.36.47 17.9 17.36c2.6 1.93 4.5 2.2 6.9 3.77 11.1 7.3 14.03 8.73 28.1 13.56 8.4 2.88 30.96 2.34 40.8 1.97 11.84-.66 14.93-2.22 24.2-6.12l5.2-1.05 10.73 12.2 1.6 1.66 22.6 24.13c.9 1.15.6.8 1.6 1.8l6.9 6.96c2.82 3 6.4 5.74 7.75 9.63 1.62.04 2.26.3 4.4-1.92l3.92-4.3c.1-.12.27-.3.4-.42l4-4.2.4-.4 4.45-5.27c.2-.2.7-.66.87-.83l5.32-5.4.4-.4c.12-.12.28-.3.4-.43l3.6-3.77 6.83-7.13.4-.4 17.94-18.98c1.77-2.07.53.3 1.63-2.44 5.5-.03 6.62 2.24 11.76 4.05 4.2 1.47 8.94 2.67 13.6 2.72 24.36.88 36.85 2.5 57.8-6.53 9.82-4.23 12.24-7.3 17.74-10.05 6.5-3.23 8.47-6.1 13.62-11.05l1.66-1.62c.92-.9 1.45-1.55 2.47-2.48.13-.12.3-.27.44-.4.13-.1.32-.26.45-.38l1.35-1.1c3.4-3.2 4.83-6.72 7.4-10.58l2-2.9c.3-.47.6-1 .94-1.53.88-1.38.1-.2 1-1.52l7.7-15.2c4.23-10.32 1.93-10.3 4.3-18.88 1.83-6.65 3.2-21.63 1.76-29.75-2.2-12.46-4.82-24.37-11.2-35.38l-10.58-16.52c-.1-.13-.26-.3-.36-.44-.1-.12-.28-.3-.38-.42l-7.9-8.52c-9.26-9.23-13.34-10.74-23.34-17.7-4.97-3.45-6.2-3.02-10.27-4.42-17.74-6.1-29.1-9.5-51-7.7l-21.8 5.67c-12.76 4.8-7.4 1.4-19.34 8.54-1.37.82-3.84 2.4-5.48 3.52l-13.32 10.47-21.06 28.16c-4.2 5.92-.3 4.1-3.47 5.45-1.88-.78-.8 1.5-1.98-2.8-.6-3.66-4.38-9.57-6.77-12.95L406.13 338c-.12-.12-.3-.3-.4-.4l-4.58-3.63c-5.4-3.5-6.4-5.17-9.35-7.07-11.35-7.3-22.67-12.07-36.24-15.25-7.03-1.64-15.77-2.16-23.37-2.07-7.7.08-26.1 3.2-33 6.24-5.48 2.4-11.3 3.38-17.5 7.95l-10.36 7.66c-2.94 2.4-4.7 2.4-6.77 4.7l-13.96 15.54-.4.42c-.1.13-.28.3-.4.44s-.25.33-.35.47l-2.2 4.4c-.04.08-1.17 2.06-1.18 2.07l-12.4 25.9c-4.67 15.82-4.07 46.88 2.57 61.84 1.44 3.24 2.9 4.87 3.53 9.44z" fill="#404040"/><path d="M427.77 284.94l2.05.87.23 83.06h-2.25c1.18 4.3.1 2.02 1.98 2.8 3.17-1.36-.73.47 3.47-5.45l21.06-28.16 13.32-10.47 5.48-3.52c11.93-7.14 6.58-3.75 19.34-8.54l21.8-5.67c21.9-1.82 33.25 1.58 51 7.7 4.08 1.4 5.3.97 10.27 4.42 10 6.95 14.08 8.46 23.34 17.7l7.9 8.52c.1.12.27.3.38.42.1.13.26.3.36.44l10.58 16.52c6.37 11 9 22.92 11.2 35.38 1.43 8.12.07 23.1-1.76 29.75-2.37 8.57-.07 8.56-4.3 18.88l-7.7 15.2c-.88 1.32-.1.14-1 1.52l-.94 1.53-2 2.9c-2.58 3.86-4 7.37-7.4 10.58-.18.16-.7.58-.9.74l-.45.37c-.13.12-.32.27-.45.38-.13.12-.3.27-.44.4-1.02.93-1.55 1.57-2.47 2.48l-1.66 1.62c-5.15 4.94-7.12 7.82-13.62 11.05-5.5 2.74-7.92 5.82-17.74 10.05-20.94 9.03-33.43 7.4-57.8 6.53.93 2.86 4.9 4.8 8.34 6.7 7.47 4.06 7.62 5.12 12.5 8.8l9 5.75c4.52 3.4 4.08 4.02 7.98 7.63l10.3 9.37.4.42 2.7 3.04c5.87 8.05 7.06 8.27 9.62 11.72 4.46 6 5.07 8.13 8.22 13.1l10.23 18.47 19.32-18.7.4-.44c.1-.14.28-.32.4-.45.1-.14.26-.33.36-.46.88-1.18.66-1.04 1.26-2l1.28-1.94c9.26-13.32 11.7-18.08 16.93-33.84 4.26-12.82 6.64-26.18 6.66-41.55l-.36-242.1c-18.76-.85-39.5-.2-58.43-.12-10.27.05-24.3-1.42-31.54 1.42-3.03 1.2-5.58.77-9.46.9-9.58.36-5.97.44-12.58 1.37-9.63 1.36-17.88.83-27.4 2.7l-18.64 3.5c-5.54.68-11.5 2.74-16.5 4.5l-11.02 3.84c-6.88 1.97-14.2 8.55-20.86 8.38z" fill="#4f9c4e"/><path d="M347.76 515.3c-.6 2.28-.85 3.18-2.2 4.36l-10.27 6.16-.5.33-.48.33c-3.23 2.28-4.3 3.9-7.5 5.6-.63.33-.94.4-1.65.83l-11.74 10.37-.38.45-3.35 3.26-.46.36-.48.35c-1.4 1.05-.65.35-1.87 1.4l-2.45 2.47-.4.43-.4.42-6.65 8.1-.32.5c-2.66 4.16-3.9 4.44-6.5 8.27-13.5 19.73-7.53 12.7-18.1 31.87-3 5.43-7.84 22.12-9.1 29.4l167.27.26-1.9-66.33c-1.35-3.9-4.93-6.64-7.75-9.63l-6.9-6.96c-1-.98-.7-.64-1.6-1.8l-22.6-24.13-1.6-1.66-10.73-12.2-5.2 1.05c-9.26 3.9-12.35 5.46-24.2 6.12z" fill="#84c567"/><path d="M239.76 456.66c-.63-4.57-2.1-6.2-3.53-9.44-6.64-14.96-7.24-46.02-2.57-61.84l12.4-25.9c.01-.01 1.14-2 1.18-2.07l2.2-4.4c.1-.14.24-.33.35-.47s.28-.3.4-.44a16.44 16.44 0 0 1 .41-.42l13.96-15.54c2.08-2.3 3.83-2.3 6.77-4.7l10.36-7.66c6.2-4.57 12-5.55 17.5-7.95 6.9-3.03 25.32-6.16 33-6.24 7.6-.1 16.34.43 23.37 2.07 13.57 3.18 24.9 7.96 36.24 15.25 2.95 1.9 3.95 3.58 9.35 7.07l4.58 3.63c.12.1.3.3.4.4l14.9 17.92c2.4 3.38 6.17 9.3 6.77 12.95h2.25l-.23-83.06-2.05-.87c-.75-1.8-15.2-8.62-18.36-10.03-13.6-6.07-23.53-6.38-33.27-9.38-10.95-3.37-53.17-6.24-64.47-6.44l-83.66.22v371.64c4.24-.68 3.44 3.17 3.28-9.84V441.48c-1.2.9-1.2.25-.46 3.16l6.2 12.42 2.73-.4z" fill="#60bb55"/><path d="M252.2 389.25l.4 6.9c2.97 0 .72-1.3 4.76 6.95l1.1 2.18 5.6 10c1.25 1.96.2.42 1.42 1.87l25.37 22.2c5.82 4.4 3.7 5.72 7.6 10.42 8.76 10.52 15.8 15.83 29.04 20.96 9.2 3.56 26.66 3.62 35.43-.2.63-.27 1.64-.75 2.28-1.03.9-.4 3.1-1.32 3.92-1.76l-.2-2.84c-7.57 2.17-4.8 2.48-8.2 3.43-9.6 2.67-19.3 2.1-28.5.4l-15.9-5.63-8.98-7.4c-.13-.12-.3-.3-.42-.4l-2.06-2.06-1.6-1.66-2.76-2.95a103.18 103.18 0 0 0-1.17-1.34c-2.43-2.9-4.14-9.42-6.74-14.57-8.76-17.37 2.6-40.44 3.3-44.1 4.63.84 1.1-.5 4.1 3.95 5.5 8.15 16.93 11.7 26.5 10.48 2.62-.33 3.3-.83 5.7-1.76l4.55-1.98c1.97-.93 1.3-.45 2.66-1.47l5.05-5.6c10.3-15.92-1.05-30.37-1.23-32.47 10.15-.8 18.6 2.65 26.96 6.04 3.93 1.6 5.3 1.9 8.52 4.62l2.97 2.74c.12.1.3.28.4.4.12.12.3.3.42.4.12.12.3.28.43.4l.42.4 1.25 1.23c.12.12.3.28.42.4l6.48 7.47c3.56 4.07 8.34 19.82 8.72 23.2 2.9 1.12.98-.36 2.2 2.4l1.1 8.46.37-.6c.12-.2.73-1.34.93-1.7l6.06-10.32c.66-1.35.46-.8 1.2-2.9l2.96-5.66c1.8 3.12.98 3.2 1.76 7.15l.7 15.55c-.22 7.42-7.5 27.85-7.24 31.1h1.38l5.8-15.62c3.5-11.62 3.1-41.17-1.85-50.5l-3.3-8.15c-1.98-5.22-2.98-6.92-6-10.47l-7.3-9.12c-.42-.53-.7-.92-1.07-1.37l-.76-.9-.4-.42c-.12-.13-.3-.3-.4-.42l-15.4-12.48c-4.94-3.87-8.9-6.04-15.27-7.6l-10.68-4.02c-6.18-1.9-22.27-1.68-28.54-1.45-5.33.2-21.72 4.3-27.72 6.3-1.55.52-2 .88-3.64 2l-6.63 4c-.62.35-1 .58-1.54.92l-3.25 2.5a14.15 14.15 0 0 1-.43.37l-20.3 21.57c-2.97 4.47-4.2 5.48-6.4 10.8-.63 1.54-.2.62-.77 1.72-.12.22-.5.8-.6 1l-.6.97c-1.33 2.6-2.62 6.4-2.37 9.06z" fill="#fdfdfd"/><path d="M352.37 244.86c12.65.32 25.35 1.93 37.74 5.78 7.23 2.25 9.52 1.55 13.78 2.84l25.95 11.1 12.63-4.75c2.43-1.02 2.7-1.24 4.7-1.94l33.56-8.94c12.02-1.94 12.88-3.07 27.8-3.68 1.16-11.3-7.17-23.55-13.42-32.32l-2.72-4.68c-1.94-2.95-9.33-8.82-12.75-11.82l-1.3-1.14c-6.28-5.53-10.97-6.97-18.42-10.32-11.17-5.03-35.03-7.33-45.85-3.66l-14.05 3.9c-6.42 1.25-2.54 1.1-8.3 4.12l-11.33 7.52c-.7.63-.73.68-1.26 1.2l-6.25 5.3c-.36.3-1.8 1.7-2.1 2-5.6 5.93-7.1 9.9-11.1 15.95-1 1.55-.74 1-1.76 3.16-2.45 5.22-6.74 15.75-5.58 20.4z" fill="#fefefe"/><path d="M455.2 460.63l1.94-.3-5.2-9.86c-7.4-11.97-10.7-34.07-8.75-44.8.38-2.12 1-5.33 1.44-8.84l13.04 22.38c.01-5.7-1.12-10.62 2.6-12.16.32-3.66 2.56-14.35 5.03-17 1.63-1.75-.14-.62 2.22-1.28 2.9 1.8 1.03 3.3 7.22 8.6l1.9 1.4a74.33 74.33 0 0 0 1.6.88c7.77 4.2 18.65 5 24.03 1.93l6.88-3.72 8.9-13.94c3.23-8.64-.07-14.7-4.08-20.84-.1-.14-.24-.33-.32-.47-.74-1.34-.63.1-.87-2.95 8.1-.27 15.14 1.07 22.3 3.7l6.18 2.8c5.08 2.38 5.56 3.27 9.33 6.2l9.6 10.15c4.6 7.07 9.92 17.1 10.47 25.32 1.63 24.44-5 24.7-4.42 31.1.9 3.74.1 1.5 1.33 1.95l25.33-21.58c.1-.15.22-.36.32-.5l3.56-4.65c0-.01.93-1.3 1-1.42.5-.73.6-.92 1.26-2.05l6-11.26c1.85-4.73 1.25-2.04 2.73-4.83l1.4-3.08c-1.14-5.54-.74-5.42-2.8-10.2-.08-.17-.17-.4-.25-.56l-8.68-15c-4.46-5.35-3.65-5.77-5.68-8.3-1-1.23-1.87-2-2.77-2.95-.97-1.02-1.6-1.77-2.92-2.84-.76-.6-1.3-.9-1.92-1.36-3.43-2.5-7.63-7.1-11.16-9.32l-11.5-6.44c-7.4-2.95-22.06-6.33-30-6.55-11-.3-13-.53-22.4 1.53-7.3 1.6-12.5 2.65-18.83 5.24-.27.1-3.36 1.65-3.83 1.88l-13.6 9.33-1.32 1.15c-.13.1-.3.27-.43.4l-.44.38c-.12.12-.3.28-.43.4l-15.64 17.15c-4.66 5.8-9.5 15.46-11.1 22.26-3.63 15.27-4.38 33.23.36 48.77 1.13 3.73.8 7.6 2.83 11.2l4.05 6.55a37.18 37.18 0 0 1 .56 1.09c1.87 3.57 2.25 5.1 3.95 5.38z" fill="#fdfdfd"/><path d="M460.26 407.04c-.26 7.63-1.1 17.83 1.36 24.77.73 2.03-.8-2.2.48 1.18l2.5 5.63c.85 1.42.04-.01.9 1.54 1.77 3.2 2.6 5.17 4.7 7.66l11.43 11.5c11.9 9.04 26.05 11.8 41.7 10.57 4.9-.38 10.03-2.92 14.2-4.43 4.76-1.73 3.62-.56 8.13-4.06l16.4-17.26c3.57-6.2 1.6-4.27 4.18-5.26-.6-6.4 6.05-6.66 4.42-31.1-.55-8.2-5.88-18.25-10.47-25.32l-9.6-10.15c-3.77-2.93-4.25-3.82-9.33-6.2l-6.18-2.8c-7.17-2.63-14.2-3.97-22.3-3.7.24 3.04.13 1.6.87 2.95.08.14.23.33.32.47 4 6.15 7.3 12.2 4.08 20.84l-8.9 13.94-6.88 3.72c-5.38 3.07-16.26 2.28-24.03-1.93l-1.6-.88-1.9-1.4c-6.2-5.3-4.32-6.78-7.22-8.6-2.36.66-.6-.47-2.22 1.28-2.47 2.65-4.7 13.34-5.03 17zM368.9 464.9l6.08-2.74 15.6-14.8c3.58-4.3 3.53-6.34 5.4-11 4.92-12.36 4.76-13.7 4.22-29.32-.38-3.38-5.16-19.13-8.72-23.2l-6.48-7.47c-.12-.12-.3-.28-.42-.4l-1.25-1.23-.42-.4c-.12-.12-.3-.28-.43-.4-.12-.1-.3-.28-.42-.4-.12-.1-.3-.28-.4-.4l-2.97-2.74c-3.22-2.73-4.6-3.02-8.52-4.62-8.35-3.4-16.8-6.84-26.96-6.04.18 2.1 11.52 16.55 1.23 32.47l-5.05 5.6c-1.36 1.02-.7.54-2.66 1.47l-4.55 1.98c-2.4.93-3.07 1.43-5.7 1.76-9.57 1.22-21-2.33-26.5-10.48-3-4.46.52-3.1-4.1-3.95-.7 3.66-12.05 26.73-3.3 44.1 2.6 5.15 4.3 11.66 6.74 14.57a103.18 103.18 0 0 1 1.17 1.34l2.76 2.95 1.6 1.66 2.06 2.06c.12.1.3.28.42.4l8.98 7.4 15.9 5.63c9.2 1.72 18.9 2.28 28.5-.4 3.4-.95.63-1.26 8.2-3.43z" fill="#404040"/><path d="M566.25 438.9c-2.57 1-.6-.94-4.18 5.26l-16.4 17.26c-4.5 3.5-3.37 2.33-8.13 4.06-4.16 1.5-9.3 4.05-14.2 4.43-15.65 1.22-29.8-1.53-41.7-10.57l-11.43-11.5c-2.1-2.5-2.94-4.46-4.7-7.66-.86-1.55-.05-.12-.9-1.54l-2.5-5.63c-1.28-3.37.25.85-.48-1.18-2.47-6.94-1.62-17.14-1.36-24.77-3.7 1.54-2.58 6.45-2.6 12.16l-13.04-22.38c-.43 3.5-1.06 6.72-1.44 8.84-1.95 10.74 1.35 32.84 8.75 44.8l5.2 9.86-1.94.3c.87 3.83.46 2.08 3.03 4.85 3.44 3.7 8.6 12.28 17.02 16.7 3.07 1.6.72.13 3.05 1.9l18.7 10c14.6 4.04 17.16 4.6 33.7 4.14 10.66-.3 18.4-1.2 27.4-5.42 9.96-4.68 12.25-6 20.33-11.77l14.54-14.2c1.53-2.22 2.5-3.25 3.8-5.2l1.95-2.98c10.56-15.7 13.12-30.37 12.72-49.18-.16-7.88-1.5-10.88-2.24-18.04l-1.4 3.08c-1.48 2.8-.88.1-2.73 4.83l-6 11.26c-.66 1.13-.77 1.32-1.26 2.05l-1 1.42-3.56 4.65c-.1.15-.22.36-.32.5l-25.33 21.58c-1.24-.45-.42 1.8-1.33-1.95zm-154.63 11.6h-1.38c-.25-3.26 7.02-23.7 7.24-31.1l-.7-15.55c-.78-3.95.05-4.03-1.76-7.15l-2.96 5.66c-.75 2.1-.55 1.56-1.2 2.9l-6.06 10.32-.93 1.7-.37.6-1.1-8.46c-1.23-2.76.7-1.28-2.2-2.4.54 15.63.7 16.96-4.22 29.32-1.86 4.66-1.8 6.7-5.4 11l-15.6 14.8-6.08 2.74.2 2.84c-.8.44-3 1.36-3.92 1.76l-2.28 1.03c-8.77 3.82-26.23 3.76-35.43.2-13.23-5.13-20.28-10.44-29.04-20.96-3.9-4.7-1.8-6.02-7.6-10.42l-25.37-22.2c-1.22-1.45-.17.1-1.42-1.87l-5.6-10c-.3-.53-.96-1.9-1.1-2.18-4.04-8.24-1.8-6.95-4.76-6.95l-.4-6.9h-1.5c-1.65 19.82-5.35 20-.13 45.56l5.46 13.98c.3.52 1.47 2.42 1.83 3.05l5.7 9.93c.25.5.55 1.24.8 1.66l6.87 7.82.4.43 12.08 10.9.53.3 16 9.38 1.1.5 16.83 4.82c6.86.7 26.25 1.28 33.6-.28 7.78-1.65 18.72-5.75 25.5-9.86 2.74-1.66 2.4-2.3 5.68-4.12 9.12-5.07 14.1-11.75 20.78-19.4 2.2-2.52 6.88-9.54 7.85-13.4z" fill="#e7e6e6"/><path d="M428.08 544.18c.8 1.9-.5 1.08 1.73 1.3 1.5.14.7.15 2-.9l.85-.9.8-.9 25.06-26.62.42-.4.42-.4 6.02-6.28a96.52 96.52 0 0 0 1.17-1.31c2.5-3.1-.1-5.46-3.3-8.66l-3.77-3.62c-7.84-7.23-17.28-10.05-29.64-10.13l-.06 45.54c0 8.76 1.63 13.7-1.7 13.3z" fill="#ffc969"/><path d="M428.08 544.18c3.34.4 1.7-4.53 1.7-13.3l.06-45.54c-13.04.2-13.46 1-22.56 5.8-1.45.76-2.78 1.48-4.12 2.47-3.64 2.7-7.08 5.14-9.14 8.88-1.9 3.48-1.8 4.25 3.02 9.44.78.85-.1.02 1.22 1.23 1.63 1.48 1.23.94 2.75 2.17l22.78 23.98 4.28 4.85z" fill="#fcf5ae"/><path d="M428.03 456.25h2.02c.08 5.1.32 11-.57 15.77l10.64.33c-.95-5.1-2.94-5.7-5.1-9.04l-3.2-6.6c-1.2-2.08-.14-1.45-2.05-2.43-2.1.76-.9-.28-1.75 1.96z" fill="#4f9c4e"/><path d="M429.48 472.02c.9-4.76.65-10.67.57-15.77h-2.02c-1.22 7.44-5.52 10.32-6.72 12.86-1.1 2.35-.52.8-.98 3.25l9.15-.34z" fill="#5eba54"/></svg>