<svg xmlns="http://www.w3.org/2000/svg" width="159.999" height="161.601" viewBox="0 0 4233.32 4275.66" shape-rendering="geometricPrecision" image-rendering="optimizeQuality" fill-rule="evenodd"><path d="M3764.75 1198.57c12.54 7.92 73.62 139.14 84.75 165.43 203.02 479.65 220.06 996 28.9 1477.94-131.35 331.13-284.5 518.95-523.62 743.5-20.24 19-47.1 39.53-69.63 57.55-336.88 269.47-776.75 424.54-1234.63 407.26-290.08-10.95-581.05-90.72-802.62-211.82-119.6-65.37-211.3-124.77-307.56-200.9l-197.8-183.63c-43.53-39.2-135.8-159.8-170.06-207.23-33.2-46-68.1-99.43-97.47-152.7-47.4-85.94-136.5-258.46-156.28-353.36-24.43-23.56-75.6-304.78-82.76-359.42-50.78-386.67 24.28-781.73 192.7-1114.97 58.48-115.68 182.2-307.95 270.65-397.6 10.42-10.55 16.25-19.88 26.3-31.25l81.98-82.06c12.67-11.38 15.25-14.27 28.75-28.57l90.37-77.8c72.13-61.53 179.63-132.43 262.87-180.03C1682.2 187.2 2291.1 145.44 2819.05 360.38c219.74 89.47 349.45 178.38 519.83 316.68l87.94 80.2c41.08 37.8 75.5 80.38 108.18 113.35 56.76 57.28 202.75 258.8 229.75 327.96zM0 2104.93c0 199.36 13.03 352.74 57.4 529.03 47.95 190.46 92.1 311.35 176.35 479.82 59 118.04 123.1 217.56 202.12 322.8l58 73.24c6.38 8.13 9.36 10.3 15.23 17.58 6.54 8.1 6.6 9.66 14.76 18.05l193.82 195.78c13.52 10.33 20.27 18.82 35.16 30.46 59.03 46.13 80.52 66.25 147.64 114.8 52.33 37.86 102.55 69.8 159.3 103.16 15.05 8.85 26.76 15.88 42 23.6 96.54 48.97 114.58 60.1 221.7 106.4 31.98 13.83 63.85 23.15 95.47 35.76 177.77 70.88 478.52 118.93 668.47 118.93 224.1 0 426.82-24.6 623.86-85.6 319.98-99.1 509.7-208.58 765.8-415.3 42.88-34.6 56.07-52.24 85.7-78.34l112.8-112.75c12.96-12.9 17.74-21.84 30.72-34.9 75.76-76.17 186.42-245.65 245.32-345.22 17.33-29.3 30-54.75 45.5-85.75 266.98-533.96 309.14-1107.02 118.75-1678.5-72.02-216.16-206.64-463.8-347.98-636.27l-137.5-157.77-150.98-140.2c-25.7-20.1-46.1-39.8-72.03-59.2-82.8-61.95-142.6-104.5-234.93-158.77-95.23-55.98-161.47-85.83-263.68-130.02-31.98-13.82-63.86-23.15-95.48-35.76-54.58-21.76-143.37-45.04-202.6-59.87C2266.36-26.1 1858.45-17.8 1520.97 86.7 1201 185.8 1011.27 295.3 755.16 502c-80.7 65.12-129.86 122.8-198.5 191.1l-45.77 52.65C391.76 898.13 377.24 909.85 280.6 1073.2c-42.15 71.26-95.42 185.37-127.7 266C60.8 1569.3 0 1847.84 0 2104.93z" fill="#4f9c4e"/><path d="M2939.84 2999.56c-2.94 8.7-11.6 14.93-19.28 20.5l-64.74 45.87c-40.66 14.93-47.23 28.74-106.65 49.62l-26.44 10.28c-15.4 8.1-34.57 10.04-65.76 19.72-60 18.62-457.16 9.7-544.95 9.64l-738.18-.02c-61.15.01-190.67 6.2-243.9-2.27-5.23-69.6-.47-367.5-.47-461.54l-.64-1370.15c-.07-23.37-3.92-20.25 11.23-24.66l418.33-1.06c56.5 1 267.6 15.32 322.3 32.17 48.74 15 98.36 16.57 166.37 46.9 15.8 7.05 88.05 41.1 91.78 50.2 33.26.85 69.93-32.06 104.34-41.92l55.1-19.2c24.96-8.74 54.85-19.04 82.5-22.45l93.23-17.57c47.6-9.33 88.82-6.7 136.97-13.48 33.08-4.66 15-5.04 62.9-6.84 19.45-.73 32.17 1.42 47.34-4.55 36.14-14.23 106.34-6.88 157.7-7.1 94.68-.42 198.36-3.67 292.14.6 7.16 43.62 1.97 1090.88 1.8 1210.5-.1 76.86-12.02 143.65-33.3 207.78-26.13 78.78-38.36 102.6-84.66 169.17l-6.4 9.7c-2.98 4.75-1.87 4.03-6.28 9.93-.52.7-1.3 1.6-1.84 2.3-.55.68-1.35 1.6-1.92 2.26-.57.68-1.4 1.55-2 2.22l-96.64 93.47zm-1177.96-1775.2c-5.8-23.2 15.63-75.88 27.9-101.98 5.07-10.75 3.73-8.05 8.8-15.77 19.92-30.32 27.44-50.14 55.5-79.77 1.45-1.53 8.6-8.58 10.42-10.07l31.23-26.47c2.66-2.55 2.86-2.8 6.3-5.95l56.68-37.6c28.73-15.15 9.33-14.35 41.44-20.6l70.26-19.52c54.07-18.3 173.37-6.83 229.24 18.3 37.25 16.77 60.68 23.98 92.1 51.6l6.47 5.67c17.1 15 54.05 44.4 63.74 59.1l13.58 23.44c31.24 43.83 72.92 105.1 67.1 161.6-74.62 3.02-78.97 8.7-139.02 18.38l-167.84 44.7c-9.94 3.5-11.27 4.6-23.42 9.73l-63.17 23.75-129.73-55.45c-21.33-6.45-32.76-2.97-68.9-14.2-61.94-19.27-125.46-27.3-188.7-28.9zM1042.2 2769.3v373.18c-.02 25.2-4.6 50.98 8.1 65.15 39.96 44.6 52.03 32.88 114.4 32.88h1328.73c89.76 0 91.08-1.54 175-10.3 16.55-1.72 18.7-4.28 28.1-6.72 20.08-5.2 20.07-.43 43.9-10.37l69.1-25.68c52.87-23.8 118.3-57 160.97-96.98l95.8-88.65c24.68-25.6 44.7-38.5 66.2-81.6 7.73-15.5 16.93-20.43 35.3-54.95l19.66-37.93c24.84-43.5 18.7-45.57 41.97-105.18 4.88-12.5 3.92-15.84 7.55-29.36 2.1-7.82 5.3-16.38 6.83-29.93 5.1-45 15.77-86.06 16-131.33l1.54-1326.96-509.66.06c-25.23.43-41.35 7.02-59.44 4.54-3.7-38.32-15.1-71.48-25.64-101.7l-24-53.9c-22.35-49.6-5.3-17.92-39.8-66.87l-28.2-37.48c-12.35-16.7-17.1-20.4-28.5-32.95a271.1 271.1 0 0 0-7.97-8.41l-176.5-118.7c-14.35-6.68-32.64-7.65-47.88-14.2-.8-.34-1.82-.9-2.6-1.28-19.88-9.48-6.16-8.4-46.8-11.83-35.33-3-33.52-6.28-50.2-8.3-53.58-6.5-127.87 2.2-178.16 8.72-16.62 2.15-15.94 4.25-24.67 6.56-34.57 9.18-3.5-4.92-47.22 14.88-23.77 10.76-4-4.1-54.8 23.2l-97.1 58.83c-.58.6-1.32 1.57-1.9 2.2l-47.8 46.68c-28.2 26.98-5.2-2.72-35.7 38.17-5.05 6.78-7.66 9.57-13.97 18.73l-25.27 36.4c-4.4 5.65-8.56 10.87-12 16.75l-61.12 155.5c-1.4 5.08-1.73 8.35-3.18 13.44-.33 1.18.65 15.76-2.3 6.6-.18-.58-.7 2.23-1.3 3.22l-565.35 1.17-.04 1564.7z" fill="#424242"/><path d="M2939.84 2999.56l-51.12-92.33c-15.77-24.92-18.8-35.5-41.1-65.54-12.82-17.28-18.76-18.36-48.08-58.63l-13.52-15.2-2-2.06-51.54-46.86c-19.53-18.05-17.33-21.1-39.9-38.14l-45.08-28.8c-24.44-18.3-25.18-23.6-62.56-43.93-17.24-9.37-37.05-19.15-41.7-33.44-23.26-.24-46.92-6.26-67.92-13.62-25.74-9.02-31.25-20.36-58.84-20.22-5.5 13.62.7 1.85-8.12 12.2l-91.72 96.95-34.12 35.6-18.02 18.9-2 2.1c-.58.6-1.45 1.47-2.03 2.07l-26.64 26.97-4.34 4.14-22.24 26.32c-.58.6-1.45 1.46-2.03 2.07l-20.02 21.04-1.97 2.13-19.56 21.52c-10.72 11.04-13.93 9.82-22.04 9.63l9.55 331.64-836.35-1.3c6.27-36.45 30.5-119.9 45.46-147.03 52.86-95.88 22.95-60.72 90.5-159.37 13.1-19.14 19.27-20.54 32.57-41.33.48-.75 1.07-1.8 1.56-2.56l33.27-40.46c.57-.63 1.42-1.5 2-2.1l2-2.13 12.27-12.34c6.1-5.27 2.34-1.77 9.33-7.04l2.4-1.73 2.33-1.8 16.75-16.3c.56-.65 1.3-1.6 1.87-2.27l58.73-51.84c3.54-2.13 5.08-2.48 8.25-4.16 15.92-8.42 21.35-16.53 37.5-27.92.7-.5 1.7-1.2 2.4-1.68l2.47-1.63 51.34-30.82c6.74-5.86 8.03-10.38 10.96-21.77-49.26 1.85-162 4.53-204.03-9.87-70.37-24.13-84.96-31.27-140.5-67.8-12-7.9-21.6-9.18-34.52-18.82l-89.54-86.83c-.53-.67-1.25-1.65-1.78-2.32l-22.8-30.55-1.47-2.6c-.44-.8-1-1.85-1.4-2.7-17.36-34.78-14.55-22.88-26.2-43.63-17.76-31.65-6.75-26.02-17.75-28.05l-13.6 2.03-31.03-62.12c-3.62-14.54-3.7-11.27 2.3-15.8l.03 898.14c.77 65.04 4.78 45.8-16.44 49.2v-1858.2c-15.15 4.4-11.3 1.3-11.23 24.66l1.1 1831.7c53.23 8.48 182.75 2.28 243.9 2.27l738.18.02c87.8.07 484.96 8.98 544.95-9.64 31.2-9.68 50.36-11.62 65.76-19.72l26.44-10.28c59.42-20.88 66-34.7 106.65-49.62l64.74-45.87c7.67-5.58 16.34-11.82 19.28-20.5z" fill="#5eba54"/><path d="M2149.27 2426.77c61.78.43 109 14.5 148.2 50.67l18.83 18.07c16 16.02 29.02 27.87 16.47 43.33a1145.42 1145.42 0 0 1-5.85 6.54l-30.12 31.42c-.6.6-1.48 1.43-2.07 2.02l-2.1 2-125.34 133.1-3.95 4.48-4.25 4.48c-6.6 5.24-2.48 5.2-10.03 4.48-11.1-1.05-4.6 3.08-8.66-6.47l-21.37-24.25-1.98-2.12-111.94-117.78c-7.58-6.14-5.62-3.4-13.74-10.84-6.6-6.04-2.2-1.9-6.13-6.15-24.02-25.96-24.65-29.8-15.07-47.18 10.3-18.7 27.5-30.9 45.7-44.44 6.66-4.94 13.32-8.5 20.57-12.33 45.52-24.05 47.6-28.1 112.8-29.05zm-9.12-145.48c4.25-11.23-1.7-6.02 8.78-9.8 9.52 4.87 4.28 1.73 10.24 12.14l16 32.97c10.73 16.63 20.68 19.75 25.44 45.17l-53.22-1.65-45.74 1.72c2.33-12.3-.6-4.5 4.93-16.25 5.96-12.7 27.5-27.1 33.56-64.3zm905.82-323.98c3.66 35.82 10.38 50.8 11.2 90.2 1.97 94.07-10.83 167.43-63.6 245.93l-9.73 14.88c-6.47 9.76-11.34 14.93-19 26l-72.66 70.98c-40.44 28.84-51.88 35.46-101.65 58.86-44.94 21.13-83.64 25.62-136.94 27.1-82.8 2.3-95.57-.5-168.58-20.7l-93.45-50.16c-11.62-8.85.1-1.43-15.22-9.48-42.07-22.1-67.9-64.95-85.1-83.48-12.88-13.88-10.8-5.1-15.16-24.25-8.52-1.36-10.4-9.06-19.73-26.93l-2.8-5.44-20.24-32.76c-10.18-18-8.5-37.36-14.18-56-23.7-77.7-19.93-167.5-1.8-243.85 8.1-34 32.24-82.22 55.54-111.3l78.23-85.73 2.15-1.95 2.16-1.94 2.14-1.95 6.64-5.7 68-46.64c2.32-1.2 17.8-8.9 19.15-9.44 31.58-12.93 57.65-18.2 94.13-26.18 47.07-10.3 56.95-9.12 112-7.64 39.75 1.08 113.05 18 150.05 32.72l57.5 32.2c17.66 11.16 38.67 34.17 55.77 46.63 3.13 2.28 5.83 3.77 9.63 6.8 6.67 5.32 9.73 9.08 14.6 14.17 4.52 4.75 8.9 8.62 13.86 14.8 10.16 12.63 6.1 14.73 28.4 41.48l43.4 74.93 1.22 2.83c10.36 23.92 8.37 23.3 14.07 51zm-1785-11.04c-1.26-13.33 5.2-32.27 11.87-45.3l2.96-4.87c.6-1.04 2.46-3.9 3.03-4.98 2.87-5.48.68-.88 3.86-8.6 11-26.65 17.1-31.68 31.96-54.02l101.43-107.85 2.17-1.87 16.24-12.43c2.67-1.74 4.6-2.85 7.67-4.63l33.2-20.03c8.25-5.6 10.42-7.43 18.17-10.03 30-10.07 111.96-30.54 138.64-31.53 31.3-1.16 111.78-2.26 142.67 7.24l53.4 20.1c31.92 7.78 51.64 18.6 76.34 37.97l77.04 62.4 2 2.1 1.98 2.1 3.8 4.42c1.88 2.27 3.27 4.23 5.37 6.88l36.5 45.58c15.12 17.78 20.14 26.26 30.05 52.36l16.5 40.74c24.76 46.63 26.7 194.36 9.3 252.45l-28.97 78.1c-4.85 19.3-28.27 54.4-39.23 66.98-33.35 38.3-58.33 71.74-103.92 97.08-16.4 9.1-14.68 12.28-28.38 20.58-34 20.58-88.66 41.07-127.55 49.3-36.83 7.8-133.77 4.94-168.05 1.38l-84.2-24.07a276.3 276.3 0 0 1-5.48-2.55l-80.07-46.9-2.64-1.46-60.4-54.5-2-2.12-34.34-39.13c-1.32-2.1-2.8-5.8-4.05-8.3l-28.55-49.63c-1.78-3.2-7.68-12.66-9.15-15.26l-27.33-69.92c-26.08-127.72-7.57-128.68.7-227.8h7.47zm-62.16 337.05c11 2.03-.01-3.6 17.75 28.05 11.65 20.75 8.84 8.85 26.2 43.63.4.84.96 1.88 1.4 2.7.43.8 1.02 1.82 1.47 2.6l24.6 32.87 89.54 86.83c12.92 9.64 22.52 10.93 34.52 18.82 55.55 36.54 70.14 43.68 140.5 67.8 42.02 14.4 154.77 11.72 204.03 9.87 59.2-3.32 74.66-11.1 120.97-30.63l25.92-5.22 53.65 60.92 8.1 8.3 112.98 120.68c4.55 5.75 2.96 4.03 8 8.93l34.5 34.8c14.1 14.96 32 28.7 38.73 48.18 8.1.2 11.32 1.4 22.04-9.63l19.56-21.52 1.97-2.13 20.02-21.04c.58-.6 1.45-1.46 2.03-2.07l22.24-26.32c1.03-1.05 3.5-3.32 4.34-4.14l28.67-29.04 2-2.1 18.02-18.9 34.12-35.6c.6-.6 1.43-1.5 2.02-2.1l89.7-94.86c8.82-10.36 2.63 1.4 8.12-12.2 27.6-.14 33.1 11.2 58.84 20.22 21 7.36 44.66 13.38 67.92 13.62 121.82 4.4 184.24 12.52 288.94-32.63 49.14-21.2 61.2-36.57 88.72-50.26 32.5-16.16 42.36-30.56 68.1-55.24l8.3-8.1c4.58-4.6 7.22-7.75 12.33-12.42.63-.58 1.56-1.37 2.2-1.94s1.6-1.33 2.24-1.9c.66-.57 1.63-1.3 2.28-1.86.9-.8 3.6-2.9 4.46-3.7 17-16.03 24.15-33.58 37.08-52.88l10-14.54c1.5-2.33 2.97-4.92 4.7-7.65 4.37-6.9.5-.97 4.94-7.58l38.5-76.05c21.16-51.62 9.65-51.56 21.5-94.4 9.18-33.24 15.96-108.16 8.8-148.77-10.95-62.3-24.07-121.83-55.95-176.9l-52.9-82.57c-.5-.65-1.3-1.57-1.83-2.2-.53-.62-1.36-1.5-1.9-2.12l-39.46-42.6c-46.3-46.14-66.73-53.7-116.73-88.43-24.82-17.25-30.92-15.1-51.3-22.13-88.73-30.52-145.53-47.5-254.96-38.45l-109.06 28.37c-63.8 23.98-37.03 7.02-96.72 42.7-6.84 4.1-19.2 12-27.38 17.6l-66.6 52.37-105.3 140.77c-20.97 29.62-1.47 20.45-17.33 27.26-9.4-3.88-4 7.5-9.9-13.97-3-18.3-21.9-47.87-33.88-64.78l-74.46-89.6-2.06-2.05-22.9-18.14c-27-17.46-31.98-25.86-46.73-35.32-56.78-36.45-113.4-60.36-181.23-76.25-35.14-8.23-78.85-10.8-116.85-10.4-38.46.4-130.54 16.08-165.04 31.2-27.4 12-56.5 16.93-87.45 39.77l-51.8 38.3c-14.68 11.93-23.47 12-33.87 23.5l-69.77 77.7c-.6.62-1.48 1.45-2.05 2.1-.57.65-1.4 1.52-1.94 2.2a52.79 52.79 0 0 0-1.79 2.38l-10.95 22.03c-.2.4-5.9 10.28-5.93 10.34l-61.98 129.57c-23.37 79.08-20.34 234.38 12.86 309.2 7.18 16.2 14.47 24.34 17.6 47.18z" fill="#404040"/><path d="M2138.85 1424.75l10.26 4.3 1.18 415.34h-11.26c5.9 21.47.5 10.1 9.9 13.97 15.86-6.8-3.64 2.36 17.33-27.26l105.3-140.77 66.6-52.37c8.2-5.6 20.54-13.5 27.38-17.6 59.7-35.68 32.9-18.72 96.72-42.7l109.06-28.37c109.43-9.06 166.23 7.93 254.96 38.45 20.4 7.02 26.5 4.88 51.3 22.13 50 34.73 70.44 42.3 116.73 88.43l41.36 44.72 1.83 2.2 52.9 82.57c31.88 55.07 45 114.6 55.95 176.9 7.15 40.6.37 115.53-8.8 148.77-11.84 42.84-.33 42.78-21.5 94.4l-38.5 76.05c-4.43 6.6-.57.68-4.94 7.58l-4.7 7.65-10 14.54c-12.93 19.3-20.07 36.85-37.08 52.88-.87.8-3.56 2.92-4.46 3.7-.65.55-1.62 1.3-2.28 1.86l-2.24 1.9-2.2 1.94c-5.1 4.67-7.75 7.83-12.33 12.42l-8.3 8.1c-25.75 24.68-35.6 39.08-68.1 55.24-27.5 13.7-39.58 29.07-88.72 50.26-104.7 45.15-167.12 37.04-288.94 32.63 4.64 14.3 24.45 24.07 41.7 33.44 37.38 20.32 38.12 25.62 62.56 43.93l45.08 28.8c22.56 17.05 20.36 20.1 39.9 38.14l51.54 46.86 2 2.06 13.52 15.2c29.32 40.27 35.26 41.35 48.08 58.63 22.3 30.04 25.33 40.62 41.1 65.54l51.12 92.33 96.64-93.47c.58-.67 1.42-1.54 2-2.22l1.92-2.26 1.84-2.3c4.4-5.9 3.3-5.18 6.28-9.93l6.4-9.7c46.3-66.58 58.53-90.4 84.66-169.17 21.27-64.13 33.2-130.92 33.3-207.78l-1.8-1210.5c-93.78-4.26-197.46-1-292.14-.6-51.35.23-121.55-7.12-157.7 7.1-15.17 5.97-27.9 3.82-47.34 4.55-47.9 1.8-29.8 2.18-62.9 6.84-48.15 6.78-89.37 4.15-136.97 13.48l-93.23 17.57c-27.66 3.4-57.55 13.7-82.5 22.45l-55.1 19.2c-34.4 9.86-71.08 42.77-104.34 41.92z" fill="#4f9c4e"/><path d="M1738.8 2576.5c-2.93 11.4-4.22 15.9-10.96 21.77l-51.34 30.82-2.47 1.63-2.4 1.68c-16.15 11.4-21.58 19.5-37.5 27.92-3.17 1.68-4.7 2.03-8.25 4.16l-58.73 51.84-1.87 2.27-16.75 16.3-2.33 1.8c-.7.53-1.7 1.2-2.4 1.73-7 5.27-3.24 1.77-9.33 7.04l-12.27 12.34-2 2.13-2 2.1-33.27 40.46c-.5.75-1.08 1.8-1.56 2.56-13.3 20.8-19.46 22.2-32.57 41.33-67.56 98.65-37.65 63.5-90.5 159.37-14.97 27.13-39.2 110.58-45.46 147.03l836.35 1.3-9.55-331.64c-6.74-19.48-24.62-33.22-38.73-48.18l-34.5-34.8c-5.03-4.9-3.44-3.18-8-8.93l-112.98-120.68-8.1-8.3-53.65-60.92-25.92 5.22c-46.3 19.54-61.77 27.3-120.97 30.63z" fill="#84c567"/><path d="M1198.8 2283.32c-3.13-22.84-10.42-30.98-17.6-47.18-33.2-74.82-36.23-230.12-12.86-309.2l61.98-129.57c.04-.06 5.73-9.95 5.93-10.34l10.95-22.03a52.79 52.79 0 0 1 1.79-2.38c.54-.68 1.37-1.55 1.94-2.2.57-.64 1.46-1.47 2.05-2.1l69.77-77.7c10.4-11.5 19.2-11.57 33.87-23.5l51.8-38.3c30.94-22.84 60.04-27.77 87.45-39.77 34.5-15.1 126.58-30.78 165.04-31.2 38-.42 81.7 2.16 116.85 10.4 67.84 15.9 124.45 39.8 181.23 76.25 14.75 9.46 19.72 17.86 46.73 35.32l22.9 18.14c.6.58 1.46 1.45 2.06 2.05l74.46 89.6c11.97 16.9 30.87 46.47 33.88 64.78h11.26l-1.18-415.34-10.26-4.3c-3.73-9.1-75.97-43.14-91.78-50.2-68-30.32-117.63-31.88-166.37-46.9-54.72-16.85-265.82-31.17-322.3-32.17l-418.33 1.06v1858.2c21.22-3.4 17.2 15.84 16.44-49.2l-.03-898.14c-6.02 4.53-5.93 1.26-2.3 15.8l31.03 62.12 13.6-2.03z" fill="#60bb55"/><path d="M1260.96 1946.27l1.95 34.46c14.86-.01 3.6-6.45 23.8 34.73l5.5 10.92 27.98 49.97c6.23 9.8 1 2.1 7.08 9.34l126.87 111.06c29.08 21.96 18.5 28.58 38.05 52.07 43.78 52.62 79.05 79.17 145.2 104.8 46 17.82 133.3 18.12 177.16-.98l11.35-5.14c4.6-2 15.6-6.6 19.63-8.8l-.97-14.2c-37.83 10.84-24.04 12.4-41 17.12-48.05 13.36-96.48 10.58-142.54 2l-79.43-28.16-44.92-37.02-2.1-2.02-10.28-10.3-8.05-8.3-13.8-14.74-5.84-6.67c-12.16-14.54-20.7-47.1-33.7-72.84-43.8-86.85 12.94-202.24 16.45-220.5 23.1 4.2 5.47-2.58 20.52 19.72 27.52 40.76 84.68 58.52 132.52 52.43 13.1-1.67 16.43-4.17 28.46-8.82l22.72-9.9c9.85-4.65 6.5-2.22 13.3-7.34l25.27-27.95c51.4-79.57-5.26-151.87-6.16-162.34 50.75-4 93.02 13.22 134.8 30.2 19.65 8 26.48 9.42 42.6 23.06l14.83 13.7 2.08 2 2.1 2 2.14 1.97 2.12 1.98 6.26 6.1 2.07 2.03 32.4 37.33c17.83 20.37 41.7 99.1 43.63 116 14.5 5.6 4.9-1.78 11.05 11.98l5.45 42.32 1.82-3c.6-1.03 3.64-6.66 4.65-8.53l30.3-51.6c3.34-6.75 2.3-4 6.08-14.55l14.8-28.3c9.03 15.6 4.9 16 8.8 35.75l3.5 77.75c-1.1 37.08-37.42 139.24-36.17 155.54l6.88.01 28.97-78.1c17.4-58.1 15.47-205.82-9.3-252.45l-16.5-40.74c-9.9-26.1-14.93-34.58-30.05-52.36l-36.5-45.58c-2.1-2.65-3.5-4.6-5.37-6.88l-3.8-4.42c-.56-.63-1.4-1.5-1.98-2.1-.57-.63-1.43-1.5-2-2.1l-77.04-62.4c-24.7-19.37-44.42-30.2-76.34-37.97l-53.4-20.1c-30.9-9.5-111.37-8.4-142.67-7.24-26.68 1-108.63 21.46-138.64 31.53-7.75 2.6-9.92 4.44-18.17 10.03l-33.2 20.03c-3.06 1.78-5 2.9-7.67 4.63l-16.24 12.43-2.17 1.87-101.43 107.85c-14.87 22.34-20.97 27.37-31.96 54.02-3.18 7.73-1 3.13-3.86 8.6-.57 1.1-2.43 3.94-3.03 4.98l-2.96 4.87c-6.68 13.02-13.13 31.96-11.87 45.3z" fill="#fdfdfd"/><path d="M1761.88 1224.35c63.24 1.6 126.76 9.62 188.7 28.9 36.14 11.24 47.57 7.76 68.9 14.2l129.73 55.45 63.17-23.75c12.15-5.13 13.48-6.23 23.42-9.73l167.84-44.7c60.05-9.68 64.4-15.36 139.02-18.38 5.8-56.5-35.87-117.76-67.1-161.6l-13.58-23.44c-9.7-14.72-46.63-44.1-63.74-59.1l-6.47-5.67c-31.4-27.63-54.84-34.84-92.1-51.6-55.87-25.14-175.17-36.62-229.24-18.3l-70.26 19.52c-32.1 6.24-12.7 5.44-41.44 20.6l-56.68 37.6c-3.44 3.14-3.64 3.4-6.3 5.95l-31.23 26.47c-1.82 1.5-8.97 8.54-10.42 10.07-28.07 29.63-35.6 49.45-55.5 79.77-5.07 7.72-3.73 5.02-8.8 15.77-12.28 26.1-33.72 78.78-27.9 101.98z" fill="#fefefe"/><path d="M2276.07 2303.2l9.7-1.53-26.04-49.3c-36.98-59.82-53.5-170.32-43.76-224.06 1.9-10.58 5.07-26.65 7.2-44.18l65.2 111.9c.06-28.55-5.58-53.1 12.97-60.8 1.6-18.32 12.78-71.74 25.12-84.98 8.15-8.76-.7-3.13 11.12-6.44 14.5 9.08 5.13 16.47 36.08 42.96l9.5 6.96c.8.5 6.52 3.62 7.98 4.4 38.86 21.05 93.27 25 120.17 9.66l34.38-18.63 44.58-69.7c16.13-43.16-.35-73.4-20.43-104.17-.45-.68-1.18-1.65-1.58-2.38-3.72-6.7-3.15.46-4.36-14.7 40.53-1.37 75.7 5.33 111.55 18.47l30.93 13.95c25.38 11.9 27.8 16.37 46.63 31.02l48 50.7c22.98 35.37 49.63 85.55 52.36 126.63 8.15 122.18-25.07 123.5-22.1 155.47 4.53 18.74.43 7.5 6.64 9.8l126.66-107.93c.5-.75 1.08-1.8 1.57-2.56l17.8-23.25c.01-.01 4.67-6.5 5.04-7.07 2.43-3.66 2.96-4.63 6.3-10.24l30.02-56.3c9.26-23.66 6.3-10.2 13.67-24.14l7-15.44c-5.7-27.7-3.7-27.1-14.07-51l-1.22-2.83-43.4-74.93c-22.3-26.75-18.25-28.85-28.4-41.48-4.97-6.18-9.34-10.05-13.86-14.8-4.86-5.1-7.92-8.85-14.6-14.17-3.8-3.03-6.5-4.52-9.63-6.8-17.1-12.46-38.1-35.47-55.77-46.63l-57.5-32.2c-37-14.73-110.3-31.64-150.05-32.72-55.04-1.48-64.92-2.65-112 7.64-36.48 7.98-62.55 13.25-94.13 26.18-1.35.55-16.83 8.25-19.15 9.44l-68 46.64c-1.1.9-6.36 5.47-6.64 5.7l-2.14 1.95-2.16 1.94-2.15 1.95-78.23 85.73c-23.3 29.08-47.45 77.3-55.54 111.3-18.14 76.34-21.92 166.15 1.8 243.85 5.68 18.63 4 37.98 14.18 56l20.24 32.76 2.8 5.44c9.32 17.87 11.2 25.57 19.73 26.93z" fill="#fdfdfd"/><path d="M2301.34 2035.23c-1.33 38.17-5.6 89.16 6.78 123.84 3.63 10.17-3.98-10.96 2.4 5.93l12.54 28.12c4.23 7.1.22-.05 4.5 7.72 8.85 16 13.06 25.86 23.56 38.3l57.13 57.55c59.56 45.2 130.23 58.96 208.52 52.87 24.43-1.9 50.12-14.6 70.9-22.17 23.8-8.66 18.14-2.82 40.68-20.3l82-86.3c17.87-30.97 8.06-21.36 20.9-26.3-2.97-31.96 30.25-33.3 22.1-155.47-2.73-41.08-29.38-91.26-52.36-126.63l-48-50.7c-18.84-14.65-21.25-19.12-46.63-31.02l-30.93-13.95c-35.84-13.14-71.02-19.84-111.55-18.47 1.2 15.16.64 8 4.36 14.7.4.73 1.13 1.7 1.58 2.38 20.08 30.76 36.56 61 20.43 104.17l-44.58 69.7-34.38 18.63c-26.9 15.33-81.3 11.4-120.17-9.66l-7.98-4.4-9.5-6.96c-30.95-26.5-21.6-33.88-36.08-42.96-11.83 3.3-2.97-2.32-11.12 6.44-12.34 13.24-23.52 66.66-25.12 84.98zm-456.78 289.27l30.42-13.73 77.92-73.9c17.93-21.48 17.68-31.73 26.96-55.04 24.6-61.8 23.8-68.42 21.13-146.58-1.92-16.9-25.8-95.64-43.63-116l-32.4-37.33-2.07-2.03-6.26-6.1-2.12-1.98c-.6-.58-1.52-1.4-2.14-1.97l-2.1-2-2.08-2-14.83-13.7c-16.12-13.64-22.95-15.06-42.6-23.06-41.77-17-84.04-34.22-134.8-30.2.9 10.47 57.57 82.77 6.16 162.34l-25.27 27.95c-6.82 5.12-3.46 2.7-13.3 7.34l-22.72 9.9c-12.03 4.65-15.36 7.15-28.46 8.82-47.84 6.1-105-11.67-132.52-52.43-15.05-22.3 2.6-15.52-20.52-19.72-3.5 18.27-60.24 133.66-16.45 220.5 13 25.75 21.54 58.3 33.7 72.84l5.84 6.67 13.8 14.74 8.05 8.3 10.28 10.3 2.1 2.02 44.92 37.02 79.43 28.16c46.06 8.6 94.5 11.37 142.54-2 16.97-4.72 3.18-6.28 41-17.12z" fill="#404040"/><path d="M2831.27 2194.46c-12.84 4.95-3.03-4.66-20.9 26.3l-82 86.3c-22.54 17.5-16.88 11.65-40.68 20.3-20.8 7.56-46.48 20.27-70.9 22.17-78.3 6.1-148.96-7.67-208.52-52.87l-57.13-57.55c-10.5-12.43-14.7-22.3-23.56-38.3-4.3-7.77-.28-.62-4.5-7.72l-12.54-28.12c-6.4-16.9 1.22 4.24-2.4-5.93-12.37-34.68-8.1-85.67-6.78-123.84-18.55 7.7-12.9 32.26-12.97 60.8l-65.2-111.9c-2.14 17.53-5.3 33.6-7.2 44.18-9.75 53.74 6.78 164.24 43.76 224.06l26.04 49.3-9.7 1.53c4.36 19.15 2.28 10.37 15.16 24.25 17.2 18.53 43.04 61.38 85.1 83.48 15.32 8.05 3.6.63 15.22 9.48l93.45 50.16c73 20.2 85.8 23 168.58 20.7 53.3-1.47 92-5.96 136.94-27.1 49.77-23.4 61.2-30.02 101.65-58.86l72.66-70.98c7.66-11.08 12.53-16.25 19-26l9.73-14.88c52.77-78.5 65.57-151.86 63.6-245.93-.82-39.4-7.54-54.38-11.2-90.2l-7 15.44c-7.38 13.94-4.4.48-13.67 24.14l-30.02 56.3c-3.33 5.6-3.86 6.58-6.3 10.24-.37.56-5.03 7.06-5.04 7.07l-17.8 23.25c-.5.76-1.08 1.8-1.57 2.56l-126.66 107.93c-6.2-2.28-2.1 8.95-6.64-9.8zm-773.15 58.12l-6.88-.01c-1.25-16.3 35.08-118.46 36.17-155.54l-3.5-77.75c-3.88-19.75.24-20.14-8.8-35.75l-14.8 28.3c-3.78 10.56-2.74 7.8-6.08 14.55l-30.3 51.6-4.65 8.53-1.82 3-5.45-42.32c-6.15-13.76 3.44-6.37-11.05-11.98 2.68 78.16 3.46 84.8-21.13 146.58-9.28 23.3-9.03 33.56-26.96 55.04l-77.92 73.9-30.42 13.73.97 14.2c-4.04 2.2-15.04 6.8-19.63 8.8l-11.35 5.14c-43.87 19.1-131.17 18.8-177.16.98-66.16-25.63-101.43-52.18-145.2-104.8-19.56-23.5-8.97-30.1-38.05-52.07l-126.87-111.06c-6.1-7.24-.85.46-7.08-9.34l-27.98-49.97c-1.4-2.67-4.8-9.5-5.5-10.92-20.18-41.18-8.93-34.74-23.8-34.73l-1.95-34.46h-7.47c-8.26 99.12-26.77 100.08-.7 227.8l27.33 69.92c1.47 2.6 7.37 12.07 9.15 15.26l28.55 49.63c1.24 2.5 2.73 6.2 4.05 8.3l34.34 39.13 2 2.12 60.4 54.5c.8.46 1.85 1 2.64 1.46l80.07 46.9a276.3 276.3 0 0 0 5.48 2.55l84.2 24.07c34.28 3.56 131.22 6.42 168.05-1.38 38.9-8.24 93.56-28.73 127.55-49.3 13.7-8.3 11.98-11.47 28.38-20.58 45.6-25.34 70.57-58.77 103.92-97.08 10.96-12.6 34.38-47.67 39.23-66.98z" fill="#e7e6e6"/><path d="M2140.4 2720.9c4.05 9.55-2.43 5.42 8.66 6.47 7.55.7 3.44.76 10.03-4.48l4.25-4.48c.86-.9 3.14-3.58 3.95-4.48l125.34-133.1c.6-.6 1.5-1.4 2.1-2l2.07-2.02 30.12-31.42a1145.42 1145.42 0 0 0 5.85-6.54c12.55-15.46-.47-27.3-16.47-43.33l-18.83-18.07c-39.22-36.17-86.43-50.24-148.2-50.67l-.3 227.7c-.01 43.84 8.13 68.46-8.57 66.45z" fill="#ffc969"/><path d="M2140.4 2720.9c16.7 2 8.56-22.6 8.57-66.45l.3-227.7c-65.2.95-67.3 5-112.8 29.05-7.25 3.83-13.9 7.4-20.57 12.33-18.2 13.53-35.42 25.73-45.7 44.44-9.58 17.4-8.95 21.22 15.07 47.18 3.93 4.26-.48.1 6.13 6.15 8.12 7.43 6.16 4.7 13.74 10.84l113.92 119.9 21.37 24.25z" fill="#fcf5ae"/><path d="M2140.15 2281.3h10.12c.4 25.48 1.6 55.02-2.87 78.83l53.22 1.65c-4.76-25.42-14.7-28.54-25.44-45.17l-16-32.97c-5.96-10.4-.72-7.27-10.24-12.14-10.48 3.78-4.53-1.43-8.78 9.8z" fill="#4f9c4e"/><path d="M2147.4 2360.12c4.46-23.8 3.27-53.35 2.87-78.83h-10.12c-6.06 37.2-27.6 51.6-33.56 64.3-5.52 11.75-2.6 3.94-4.93 16.25l45.74-1.72z" fill="#5eba54"/></svg>