<svg xmlns="http://www.w3.org/2000/svg" height="73.446" width="300"><path d="M218.445 22c-1.433 4.643-8.092 7.825-19.966 9.528l-28.354 4.024.7-2.32c2.35-7.635 5.7-12.847 10-15.61 4.308-2.756 11.33-4.147 21.063-4.147 12.8 0 18.3 2.847 16.547 8.524M61.096 58.713c-4.605.718-11.2 1.083-19.823 1.083-14.97 0-21.5-3.026-19.616-9.065 1.358-4.33 5.28-6.933 11.793-7.815l34.05-4.568-6.404 20.365zM298.463 4.195c-1.018-1.5-2.248-2.522-7.322-2.908-1.33-.103-5.737-.244-13.13-.244-19.455 0-32.667 5.905-39.43 17.55C240.44 6.873 229.02 1 204.27 1c-29.04 0-47.168 11.7-54.4 35.1-2.684 8.695-2.953 15.823-.84 21.398l-6.857.456c-5.357.404-12.404.77-16.722.77-10.624 0-17.228-1.786-19.78-5.35-2.278-3.193-2.056-9.133.615-17.8 4.43-14.354 15.414-20.82 32.964-20.82 9.093-.022 17.956.953 17.956.953 1.217-.078 1.76-1.35 1.625-2.404l-.174-1.368-.624-4.827c-.406-3.167-2.764-5.054-7.1-5.64-3.94-.264-6.868-.448-11.184-.448-.083 0-.164.008-.242.008-22.934.05-38.923 7.593-47.952 22.594C94.874 8.54 84.27 1 59.705 1c-13.658 0-23.446.396-29.38 1.17-4.555.567-7.33 2.454-8.334 5.654l-1.95 6.197c-.353 1.137.194 1.704 1.653 1.704l.042-.008c1.08-.14 5.236-.55 12.338-1.116 9.393-.746 16.354-1.124 20.924-1.124 13.522 0 19.226 3.38 17.1 10.144-.464 1.5-1.497 2.433-3.072 2.794L38.592 30.98C17.46 33.672 5.26 40.253 1.962 50.73-2.54 65.137 8.757 72.343 35.85 72.343c13.517 0 24.864-.79 34.032-2.33 5.28-.9 7.96-2.235 9.025-5.64l5.034-16.057c-.522 16.04 10.733 24.13 33.796 24.13 9.982 0 19.447-.335 23.92-1.1 4.728-.817 6.986-1.847 8.03-5.415l1.023-5.062c4.915 7.657 15.696 11.484 32.327 11.484 17.552 0 27.802-.49 30.714-1.47 2.44-.773 3.956-2.028 4.487-3.794.11-.3.156-.643.2-1l2.113-6.815c.353-1.185-.184-1.75-1.633-1.7l-11.23.54c-7.492.402-13.37.62-17.606.62-7.97 0-13.443-.542-16.436-1.63-4.44-1.708-6.543-5.1-6.35-10.23L202.89 42.3c15.94-2.04 26.615-6.95 32.014-14.74l-12.05 42c-.23.788-.136 1.433.264 1.9.45.516 1.222.78 2.356.78h14.73c2.57 0 3.5-1.332 3.807-2.448l13.013-45.317c1.713-5.96 7.2-8.866 16.772-8.866l19.644.24c.804 0 2.278-.3 3.003-2.27l2.288-6.218c.436-1.2.342-2.27-.267-3.164" fill="#83b81a"/></svg>