<svg xmlns="http://www.w3.org/2000/svg" width="327.36" height="175.359" viewBox="0 0 8661.38 4639.72" shape-rendering="geometricPrecision" image-rendering="optimizeQuality" fill-rule="evenodd"><path d="M2074.33 2159l16.5-9.73-16.5 9.73zM0 444.4v-17.66c1.64-6.5 5.48-12.25 12.5-16.56 35.7-21.9 107.88 39.74 151.76 69.03C432.07 658 766.62 840.5 1055.5 984.95c59.67 29.84 586.77 280.1 646.3 285.05l-23.7-18.65c-8.95-6.24-11.33-7.07-20.7-13.15-22.9-14.86-24.53-11.72-35.67-40.53-28.62-74.02-65.95-282.8-72.33-359.47 49.58 13.24 106.38 104.65 152.4 135.46l-66.06-103.27c-85.7-127.75-95.32-133.27-94.84-243.83l.03-169.36c32.53 11.77 33 44.48 67.73 67.73-8.65-37.15-33.57-72.43-48.85-112-14-36.25-14.5-99.52-8.16-148.2 13-99.46 12.3-197.94 57-264.72 44.42 32.54 60.28 125.8 81.44 189.5 122.57 368.92 357.62 874.76 584.96 1176.1 19.53 25.9 44.84 50.64 55.14 84.05l-95 99.75c27.3-7.3 55.74-36.58 81.2-54.27 88.02-61.13 156.28-91.57 257.37-132.1 173.82-69.68 268.1-67.63 428.6-67.63-17.75 15.44-102.57 49.17-133.4 66.3-44.17 24.56-81.35 53.1-112.16 82.88-61 58.96-113.47 146.4-142.47 256.17-131.06-41.7-174.9-73.5-350.33-44.87-2.04 31.83 83.94 141.34 69.55 289.4-18.48 190.3-173.84 347.72-365.8 376.7-96.6 14.57-230.85-15.9-287.33-69.82 6.62-27.03 31.38-58.74 55.2-76.2 62.83 14.63 269.93 76.9 338.67-16.94-32.28.72-61.9 11.47-86.7 14.9-135.13 18.75-288.8-27.28-409.34-77.68-60.83-25.44-113.93-42.34-122.04-72.7 86.6 0 140.84-8.47 228.6-8.47v-8.47c-144.33 0-409.5-136.47-507.53-195.2-76.14-45.62-340.4-230.34-389.93-304.33 86.6 7.2 215.7 42.34 287.86 42.34l-211.68-110.05c-35.9-19.3-62.67-39.03-98.2-62.68-108.2-72.04-351.46-275.83-409.8-386.07 59.78 4.97 118.02 45.82 177.8 50.8-30.56-41.7-276.06-142.2-510.85-547.5C16.4 483.27 3.6 463.12 0 444.4zm1075.26 1105c43.2 0 14.05-.13 25.4 8.46-44.76 0-12.62-.06-25.4-8.46zm677.34-254c24.16 5.78 12.74-1.3 25.4 16.93-24.76-5.93-12.2 1.1-25.4-16.93zm0 0l-16.94-8.47 16.94 8.47zm-16.94-8.47l-16.93-8.47 16.93 8.47zm-16.93-8.47l-16.93-8.46 16.93 8.46zM541.87 1041.4l2.52 2.52c-.17-.16-3.37-1.68-2.52-2.52zm1168.4-59.27h0zm0 0l-8.46-8.47 8.46 8.47zm-84.66-431.8h0zm-8.47-16.93l8.47 16.93-8.47-16.93zm0 0l-8.47-8.47 8.47 8.47z" fill="#c72031"/><path d="M4521.2 3539.06h-364.07v-609.6c168.65 0 405.52-23.38 520.36 55.37 137.5 94.3 147.98 554.23-156.3 554.23zm-618.07-609.6V3683h643.47c194.33 0 396.03-49.1 468.4-217.4 65.55-152.45 56.13-421.1-59.75-546.83C4816.14 2767.82 4488 2794 4301.06 2794l-296.67.34c-46.16-.57-50.52-8.8-92.8-8.8 0 59.13-8.47 82.6-8.47 143.93zm-558.8 431.8h-508c19-35.9 36.23-63.93 56.44-104.42l142.9-272.53c23.15-32.14 92.36-41.27 136.65 49.42l172 327.53zM2946.4 2819.4l-231.3 429.1c-23.1 41.28-216.54 394.4-225.9 434.5h186.27l84.67-169.33h651.93c9.38 40.26 29.78 61.55 47.98 95.95 21.93 41.46 21.77 71.16 78.36 74.04 95.04 4.85 208.27-.66 305.46-.66-2.6-31.38-55.05-113.4-73.6-146.54l-79.25-140.9-160.38-288.35c-24.25-46.95-53.93-91.4-79.1-141.04-103.42-203.95-123.5-146.78-505.16-146.78zm2709.32 143.92c73.92 0 104.74 98.8 146.74 183.46l115.73 214.48h-508c14.06-26.58 187.46-384.93 215.08-393.3 1.83-.55 23.94-4.63 30.45-4.63zM5511.8 2819.4c-10.98 47.1-80.93 161.35-107.2 214.52-47.4 95.86-336.94 594.04-341.53 649.08h186.27c8.2-35.18 74.78-132.3 84.67-169.33h643.46L6070.6 3683h347.13c-8.52-36.57-352.45-647.57-393.07-716.06-115.1-194.07-64.2-147.54-512.86-147.54zm2269.05 143.92c54.82 0 106.44 141.98 132.75 188.98 39.55 70.65 76 139.42 112.78 208.96h-508l198.24-377.5c14.1-14.68 40.85-20.45 64.23-20.45zM7188.18 3683h177.8c21.5-32.1 85.7-137.42 93.14-169.33h643.46c17.04 32.2 35.74 62.8 55.66 96.74 23.95 40.83 22.06 70.34 79.14 73.25 95.05 4.85 208.28-.66 305.47-.66-9.58-41.1-36.82-74.25-56.42-112.9l-383.2-683.6c-24.07-41.1-45.78-67.1-110.72-67.1-381.27 0-335.74-32.63-397.93 93.13-19.62 39.7-40.27 71.4-59.32 110.02l-118.53 220.13c-18.9 38.33-37.1 65.48-56.5 104.38-27.8 55.8-168.18 289.4-172.06 335.94z" fill="#224292"/><path d="M2658.53 2133.6h0zm8.46-8.46l-8.46 8.46 8.46-8.46zm-986.54 127c-30.8 17.06-35.24 34.36-58.5 72.56-67.5 110.87-82.1 124.74-136.68 261.25-37.17 92.98-111.22 310.32-113.68 408.95 17.27-17.16 82.56-152.54 177.44-260.35 59.38-67.47 139.8-141.85 247.1-192.94 238.18-113.4 490.68-98.7 743.84-15.23l125.9-139.87c26.76-33.82 102.23-122.25 110.24-159.77l-92.2-105.5-16.94 3.9 12.06-16.94c-28.5-64.93-52.1-101.03-68.45-180.8-8.65-42.2-16.8-148.2-6.04-193 4.72-19.6 4.84-15.36 8.98-22.7l.82-10.94c-131.06-41.7-174.9-73.5-350.33-44.87-2.04 31.83 83.94 141.34 69.55 289.4-18.48 190.3-173.84 347.72-365.8 376.7-96.6 14.57-230.85-15.9-287.33-69.82z" fill="#2cafe5"/><path d="M1371.6 2994.9c-12.53 60.74-25.4 147.9-25.4 219.75l54.25 8.13c112.12 3.98 215.2-21.02 301.27-64.74 44.03-22.38 82.08-46.42 113.38-72.96 24.6-20.87 82.78-78.52 98.36-86.1-14.57-29.62-24.3-17.52-67.3-19.18-38.46-1.5-40.82-8-85.1-8v-8.47c224.76 0 507.96-183.57 662.45-328.15 45.43-42.5 48.54-33.04 116.48-108.8-253.16-83.47-505.66-98.16-743.84 15.23-107.3 51.1-187.73 125.47-247.1 192.94-94.88 107.8-160.17 243.2-177.44 260.35z" fill="#51b649"/><path d="M6214.52 2844.8c0 96.34-13.66 143.93 25.4 143.93h423.33v685.8h270.93c0-98.9-4.2-400.87 6.16-476.44 35.33-257.8-150.22-209.36 434.1-209.36 0-107.73 15.7-169.33-25.4-169.33H6239.92c-19.5 0-25.4 5.9-25.4 25.4z" fill="#224292"/><path d="M3132.66 1557.86c49.92 0 51.3-6.23 79.32 22.28 120.08 122.2-116.57 133.32-79.32-22.28zm-428.5 193.4c16.92 29.35 32.8 32.97 54 54.1 16.52 16.46 30.05 32.76 48.14 53.4 19.32 22.03 65.27 86.92 79.1 122.46 428.24-202.4 642.58 78.38 870.2 393.03 31.44 43.46 134.8 240.34 163.05 155.88 12.23-36.6-99.98-170.42-131.68-212.65l-101.6-135.47c-167.67-223.38-176.67-193.8-239.36-454.9-15.56-64.8-35.12-118.27-65.07-172-43.97-78.9-156.38-207.84-252.7-225.82-26.14 112.87-92.13 214.97-152.86 274.5-65.75 64.46-153.17 116.68-271.23 147.48z" fill="#a14b9b"/><path d="M1896.53 3581.4h0zm-496.08-358.62c17.65 20.7 47.4 29.3 68.35 41.4 168.7 97.36 260.06 266.6 324.27 452.7 39.28 23.02 52.5 66.44 171.4 68.52 32.43.57 62.7 5.72 61.95-14.96-.04-1.34-63.73-71.84-73.23-84.82-19.17-26.2-49.1-71.75-56.66-104.2 43.7 29.26 38.5 40.18 115.73 70.53 52.65 20.7 93.3 22.6 163.67 22.6-16.34-24.4-33.47-34.85-52.06-58-19.9-24.78-33.76-39.34-53.3-65.24-120.87-160.25-157.1-329.6-157.1-552.3-15.58 7.57-73.75 65.22-98.36 86.1-31.3 26.54-69.35 50.58-113.38 72.96-86.07 43.72-189.15 68.72-301.27 64.74z" fill="#e2df1e"/><path d="M1793.07 3716.86c-64.2-186.1-155.57-355.34-324.27-452.7-20.95-12.08-50.7-20.7-68.35-41.4l-54.25-8.13c0 228.48-8.6 260.2 42.96 493.12 15.84 71.57 39.7 138.88 63.93 207 13.5 37.9 24.47 61.15 39.38 96.08 14.5 33.97 22.2 67.77 48.46 87 0-87.14 44.5-179.36 40.63-217.93-3.93-38.95-38.52-127.77-40.63-222.33 16.5 18.98 19.84 46.94 54.05 98.35 35.14 52.8 100.9 116.17 154.1 150.7 17.5 11.36 30.36 18.83 47.25 28.95 25 14.98 33.8 15.26 57.87 26.8-6.18-26.5-11.54-29.12-21.9-54.3-26.4-64.25-33.1-119.3-39.24-191.22z" fill="#f0662a"/><path d="M2614.36 1700.74l-.82 10.94-.68 49.34 91.3-9.77c118.06-30.8 205.48-83.02 271.23-147.48 60.73-59.54 126.72-161.64 152.86-274.5-5.26-5.55-.9-4.42-18.17-11.5-14.33-5.87-16.5-5-32.82-9.08-29.37-7.34-42.35-12.66-74.9-13.28-17.75 15.44-102.57 49.17-133.4 66.3-44.17 24.56-81.35 53.1-112.16 82.88-61 58.96-113.47 146.4-142.47 256.17z" fill="#972f33"/><path d="M1794.93 4343.4h0zm0 0c47.9 1.06 96.45 14.46 159.95 7.54 43.58-4.74 97.77-20.3 119.45-49.88-75.06-6.24-113.23-35.83-160.87-67.73 21.63-40.87 47.62-102.38 59.27-152.4-49.4 11.5-114.1 68.98-183.38 31.03-52.26-28.63-83.5-84.63-129.9-115.7-16.68 34.76 7.62 146.28 16.94 186.26-23.93 11.48-69.1 22.7-101.6 25.4 23.65 35.33 63.87 71.65 118.53 76.2 8.65 37.1 13.8 77.13 33.43 102.03 16.7 21.2 54.32 43.2 85.1 50.37-9.57-41.1-16.93-38.26-16.93-93.13zm143.93-431.8c27.4 40.93 112.6 100.15 177.8 101.6 0 70.5-9.56 89.53-33.86 135.46 129.8 0 130.64-38.95 186.26-76.2 74.38 19.86 128.4 117.9 152.4 135.47 0-51.98-14.37-99.25-31.14-138.2-18.92-43.94-46.64-71.78-70.46-107.34l84.45-10.03c-46.7-66.37-106.57-32.72-168.2-84.02-36.5-30.4-110.53-80.28-161.78-92.22 38.14 163.7 79.8 135.47-135.47 135.47z" fill="#f0662a"/><path d="M2679.05 2108.2c18.17-6.12 30.16-19.37 48.77-32.23 19-13.15 30.97-20.47 51.88-32.85l105.72-61.92c-13.83-35.54-59.78-100.43-79.1-122.46-18.1-20.63-31.62-36.93-48.14-53.4-21.22-21.12-37.1-24.74-54-54.1l-91.3 9.77.68-49.34c-4.14 7.35-4.26 3.12-8.98 22.7-10.77 44.8-2.6 150.8 6.04 193 16.34 79.77 39.95 115.87 68.45 180.8z" fill="#4764ab"/><path d="M2311.4 4428.05h0zm0 0c67.16 0 83.07 30.6 127 42.34-10.86-46.66-66.56-103.54-101.6-127 4.16-49.97 8.47-89.63 8.47-152.4-22.15 25.48-48.87 48.03-67.73 76.2-52.26-35-50.65-76.2-143.93-76.2 123.1 183.84 5.43 112.37-8.47 279.4 36.17-9.66 39.56-29.4 93.13-33.87 20.53 88.13 91.48 143.93 186.27 143.93-31.1-46.42-87.23-81.44-93.14-152.4z" fill="#f0662a"/><path d="M8500.5 3005.66V2895.6l20.6 55.6c6.43 23.53 13.3 45.33 21.74 62.93 75.46-36.2 35-18.13 68.3-109.5 6.5-17.8 1.1-6.75 7.9-17.5 0 76.8-19.9 112.5 42.33 127v-130.5c-4.13-32.5-15.25-55.75-42.33-55.75-31.33 0-48.28 71.3-50.8 101.6-57.53-42.15 12.9-101.6-101.6-101.6 0 200.92-55 179.78 33.86 177.8z" fill="#224292"/><path d="M2556.93 4495.8c-21.93 14.68-52.6 30.16-67.74 50.8 28.4 13.62 69.8 6.6 93.68 24.85 21.2 16.22 21.4 43.3 58.72 68.28v-59.27c76.28 0 46.82-4.17 101.6-16.93v-16.93c-41.6-9.7-58.15-25.72-93.13-33.87 4.32-51.9 22.4-21.03 21.24-52.15-1.15-30.63-10.6-7.12-55.1-7.12-27.93 0-31.68-32.53-110.06-50.8l50.8 93.14z" fill="#f0662a"/><path d="M2683.93 2121.22l92.2 105.5c1.42-1.5 3.6-5.9 4.2-4.54l53.17-91.42c15.9-31.85 42.1-70.58 45.15-107.24-77.9 18.14-131.75 64.04-194.73 97.7z" fill="#4764ab"/><path d="M8305.78 2870.2h50.8v135.47c22.86 1.9 23.03 3.97 42.33 8.46V2870.2c58.23 0 56.12 4.04 59.27-33.86-29-16.3-91.8-8.47-127-8.47-27.7 0-25.4 15.18-25.4 42.33z" fill="#224292"/></svg>