<svg xmlns="http://www.w3.org/2000/svg" width="372.159" height="88.959" viewBox="0 0 9846.72 2353.72" shape-rendering="geometricPrecision" image-rendering="optimizeQuality" fill-rule="evenodd"><path d="M2540 2201.32h516.47V948.25l266.05 309.7c13.67 17.6 18.7 20.25 32.26 35.47 15.44 17.32 17.78 24.13 34 42.2l35.6 40.6c36.03 42.78 144.06 158.03 165.5 198.56 28.8-.65 37.2-4.4 68.33-7.87 61.6-6.87 40.92-17.43 86.2-66.2l180.3-209.16 3.82-4.64 287.87-338.67V2201.3h524.93V177.8c0-19.5-5.9-25.4-25.4-25.4h-414.86c-19.72 0-37.47 22.7-48.44 36.23l-61.16 74.3c-1.15 1.3-2.87 3.13-4.04 4.42L3715.6 811.53c-16.03 20.02-67.3 82.58-83.4 94.4-6.98-26.14-17.34-30.28-33.75-50.9l-569.5-658.17c-32.9-37.95-24.86-44.45-48.68-44.45H2540v2048.93zm3361.26-381h-245.53c-19.5 0-25.4-5.9-25.4-25.4V567.26c0-19.5 5.9-25.4 25.4-25.4 165.2 0 439.46-18.33 590.1 44.9 222.32 93.34 366.64 278.94 366.64 530.83 0 149 2.37 239.47-61.96 378.3-48.8 105.3-137.47 192.74-237.83 244.77-36.3 18.82-77.68 31.9-115.02 45.84-71.85 26.83-196.32 33.82-296.4 33.82zm-787.4 381h956.73c207.34 0 510.78-77.94 678.72-193.35 235.84-162.1 396.54-437.56 396.54-729.52 0-172.06 10.46-242.83-37.34-411.38-16.45-58-46.94-143.87-74.22-188.25l-47.64-79.36C6910 476.77 6762.2 347.7 6632.46 284.8 6432.15 187.68 6212 152.4 5969 152.4h-855.13v2048.93zm-4004.72-1524l321.73 753.53H829.74c5.74-24.64 23.9-69.34 32.8-94.2l246.6-659.32zM.01 2175.92v25.4h524.93c31.23 0 32.45-42.64 51.8-100.62l81.84-219.1c21.25-64.08 24.83-86.67 69.57-86.67l813.94 5.08c22.48.55 11.27-2.6 41.2-5.08l153.02 363.45c8.03 23.22 4.74 42.95 33.25 42.95h533.4c0-68.57-68.7-190.68-107.72-281.75-18.7-43.62-33.4-81.93-55.04-122.76l-226.7-509.9c-84.6-174.1-194.04-441.6-285.08-637.78L1462 265.24c-25.76-55.24-43.55-112.84-73.43-112.84h-558.8c-38.17 0-91.76 183.05-116.15 239.44-18.82 43.5-35.48 84.77-51.98 125.83-17.7 44.1-30.52 84-49.62 128.17L252.7 1531.16.01 2175.92z" fill="#9d9c9c"/><path d="M8144.93 643.45c99.3 0 1035.47-7.78 1050.8 7.54 15.28 15.28 7.54 953.68 7.54 1050.8 9.3 4.9 10.8 5.26 20.8 13.05l478.66 478.08c.72.68 9.5 9.68 12.45 12.94 36.48 40.35 76.34 89.26 123.08 114 .85-38.3 8.46-33.65 8.46-76.2V25.4c0-19.2-5.7-25.2-24.5-25.4h-2286.9c.88 39.47 25.45 51.6 61.76 90.64L7902.7 394.6c1.24 1.22 2.98 3.03 4.2 4.27l178.53 177.06c9.7 9.73 8.94 9.6 21.24 21.1 23.9 22.3 21.05 20.8 38.23 46.44zM7493 1439.32v914.4h905.94c34.14 0 126.18-107.7 152.46-135.4l415.9-413.84c27.75-27.4 82.95-78 100.5-111.16h-914.4v-838.2c0-.12 27.9-109.86-38.94-48.4l-8.58 9.05c-1.26 1.32-2.9 3.18-4.14 4.5L7970.87 952l-8.62 8.32-35.3 32.44c-16.18 15.2-26.97 26.33-42.48 42.2-9.14 9.36-11.95 12.9-20.28 22.05l-328.3 332.1c-26.42 26.7-42.92 25-42.92 50.22z" fill="#e2392c"/></svg>