<svg xmlns="http://www.w3.org/2000/svg" width="1599.039" height="277.119" viewBox="0 0 42307.92 7332.12" shape-rendering="geometricPrecision" image-rendering="optimizeQuality" fill-rule="evenodd" fill="#84c025"><path d="M1.26 7303.37c59.05 0 74.06 11.47 129.43 14.44 49.5 2.66 107.86-.05 158.35-.07l2087.5-13.33c133.64-5.74 118.24-81.27 262.76-370.05 63.32-126.52 114.22-242.6 177.47-369 237.78-475.16 471.93-1002.07 709.86-1476l177.45-369.02 91.3-181.94 618.4-1294.23c90.64-188.67 466.2-972.07 545.84-1093.6 106.52-162.54 230.22-334.12 421.13-398.7 184.5-62.43 338.12-35.48 534.28-23.57l.22 5603.83h6858.7c539.1-.12 952.82-4.83 1441.98-188.83 97.7-36.76 184.1-88.7 280.33-136.84 151.18-75.64 361.83-249.3 480.64-368 37.06-37.02 75-70.16 106.5-109.25l95.3-120.42c184.65-223.06 331.4-555.28 406.43-844.7 58.37-225.15 79.06-533.12 55.37-760.34-79.23-759.86-626.1-1354.26-1328.06-1634.7-455.73-182.08-832.17-236.17-1461.56-236.17h-2100.84c-275.07.34-420.07-48.78-584.1-264.63-209.62-275.83-145.9-722.02 129.47-937.2 152.8-119.4 291.92-163.97 555.36-163.97h4417.52V14.38h-4590.2c-1032.22 0-1923.93 336.44-2340.7 1169.25-424.88 848.98-279.62 1927.52 401.75 2608.23 269.66 269.4 581.95 489.33 960.33 593.2 498.42 136.8 936.7 100.48 1467.87 100.48 398.87 0 1772.05-21.75 2060.04 26.38 285.94 47.78 501.25 295.1 501.25 548.7 0 171.52-6.46 222.35-103.18 371.34-193.46 298.03-527.26 333.12-875.3 333.12l-4777.25 14.38V4327.4l14.4-1452.05V1408.92l14.4-1078.26c0-137.6 27.97-330.66-43.17-330.66h-2964.2C4467.1 0 4120.7 116.3 3820.47 351.1c-80.72 63.14-126.02 106.55-196.93 177.03-115.14 114.45-244.06 309.62-327.98 448.66-48.92 81.05-87.6 163.14-133.47 254.8l-388.44 762.04c-25.18 46.72-44.1 72.85-67.33 119.63l-527.67 1011.1-66.8 134.53-397.64 752.85c-46.9 80.66-86.5 174.94-129.95 258.33L1454.6 4514.3c-44.07 88.54-87.34 160.08-134.3 253.97L792.7 5779.44c-21.27 42.52-38.28 78.13-63.53 123.42l-329.6 633.92C327.7 6680.42 25.68 7212 1.26 7303.37zM19426.8 2817.83h-1769.88V1739.58h1712.33c320.83 0 791.4 104.15 791.4 488.8 0 434.95-304.23 589.44-733.86 589.44zM15901.44 7274.6h1755.5V4543.04c1257.28 0 2022.9 452.46 2288.1 1552.5 45.16 187.3 64.63 338.74 94.5 552.52 13.1 93.7 21.06 199.8 20.5 295.8-.73 126.73 14.3 204.5 14.3 316.38h2331.07c0-878.57-69-1663.23-373.96-2271.7-179.1-357.36-420.47-611.04-724.1-857.97-132.48-107.74-552.15-364.36-571.1-392.64 94.65-2.1 261.63-54.52 351.58-80.03 125.38-35.56 216.77-68.9 333.04-112.93 109.82-41.58 197.14-82.24 288.2-143.35l189.52-141.32c80.75-70.4 75.67-53.84 172.46-158.36l98.32-117.4c326.4-429.8 434.36-1232.65 207.05-1747.93-85.7-194.26-146.77-300.8-277.4-456.04l-289.3-257.27c-122.72-83.9-195.07-136.94-339.28-207.33-577.5-281.92-900.47-301.6-1525.58-301.6-257.04 0-474.63-14.38-719.47-14.38h-3323.92v7274.6zM35773.06 43.13v7188.35c0 33.13 10 43.13 43.17 43.13h2201.56V4672.43c98.73-8.2 45.52-14.38 201.45-14.38 582.2 0 1145.16 152.06 1490.63 595.3 436.25 559.7 451.93 1239.4 451.93 2021.26h2144c0-660.5 26.04-1367.3-211.5-1973.93-93.06-237.63-209.75-457.75-368.53-652.54l-452.28-453.85-294.54-223.28c-33.92-22.57-47.5-28.6-68.9-60.55 209.37-48.73 718.82-394.34 873.5-579.3 113.1-135.23 218.87-251.45 301.8-417.3 138.26-276.53 207.62-571.36 142.43-895.04-12.1-60.12-32.28-106.52-37.08-164.2h-1813.06c-44.52 190.96-168.87 390.04-267.72 537.6-110.8 165.4-106.28 172.44-237.36 309.17l-136.07 122.83c-433.6 323-842.26 396.18-1402.13 396.18-103.8 0-218.48-9.27-302.17-28.75-3.75-44.97-14.4-51.07-14.4-100.64V0h-2201.56c-33.16 0-43.17 10-43.17 43.13zM24290.4 4571.8c0-509.9 274.52-971.2 667.55-1230.75 91.15-60.2 147.68-89.17 248.46-139.93 278.28-140.2 499.54-153.25 810.7-153.25 236.2 0 554.02 96.13 722.27 198.47 43.12 26.23 74.9 40.14 118.3 68.7 369.95 243.48 699.1 692.6 699.1 1156.13 0 329.3-14.87 480.6-167.72 766.9-101.4 189.94-259.5 373.66-432.37 502.5-113.13 84.3-221.14 149.04-355.66 205.35-528.86 221.36-1136.9 175.3-1614.27-143.4-41.18-27.5-74.6-46.28-109.72-77.26-190.3-167.83-308.36-274.33-435.85-527.78-84.9-168.74-150.78-382.06-150.78-625.7zm-1942.56-28.75c0 1729.5 1927.8 2731.57 3525.38 2731.57 907.5 0 1781.17-226.7 2474.9-718.88 71.1-50.45 145.3-102.2 212.18-161.8l224.98-206.52c387.35-357.83 714.03-1005.84 714.03-1543.73 0-662.32-177-1056.5-534.26-1507.7-161.1-203.47-376.93-399.14-588.14-548.14-482.13-340.1-1000.42-540.07-1598.28-660.26-1099.6-221.05-2431.4 20.7-3320.64 676.78-623.45 459.97-1110.16 1126.02-1110.16 1938.68zm7266.6-43.15c0 465.2 97.43 766.04 339.56 1127.16 207 308.73 474.5 571.2 785.5 782.24 49.64 33.7 89.6 59.62 140.37 89.8 46.2 27.45 95.56 60.23 144.64 85.5l454.35 221.75c359.36 149.98 648.77 235.8 1038.52 313.8 236.62 47.36 369.63 58.66 587.44 88.77 73.37 10.15 134.5 20.73 207.67 22.54 130.7 3.23 284.3 30.08 417 29.05 151.57-1.18 280.02 14.08 446.37 14.08h1366.98V5966.33c-1063.65 0-1931.6 71.82-2776.54-431.9-99.7-59.44-192.35-143.25-284.26-219.16-25.06-20.7-35.13-32.78-55.65-59.42-203.73-264.47-279.42-348.32-279.42-741.56 0-366.12 266.4-681.32 517.9-862.73 283.63-204.6 625.76-351.78 982.5-412.9 613.32-105.08 1262.1-75.78 1895.48-75.78V1854.6H34118.3c-753.48 0-1622.93 116.56-2325.64 350.46-559.9 186.37-1267.03 587-1633.6 1041.9-69.45 86.2-126.05 160.56-193.3 252.54-180.3 246.57-351.32 680-351.32 1000.4zm-4921.14 28.76c0 934.57 989.03 1397.1 1731.1 1082.65 147.92-62.68 161.83-78.6 274.98-156.56 215.1-148.2 454.48-482.58 454.48-825.45 0-246.95-5.35-341.87-114.95-560.86-186.78-373.18-625.8-646.78-1036.2-646.78h-158.28c-578.78 0-1151.14 532.07-1151.14 1107zM41327.33 1293.9c-251.1 0-474.85-198.08-474.85-445.67 0-146.5 24.62-248.62 132.5-356.42 286.53-286.28 802.8-79.76 802.8 313.3 0 264.5-201.83 488.8-460.46 488.8zm-604.35-474.43c0 292.36 256.75 589.45 546.8 589.45 188.48 0 316.54-20.68 464.5-168.5 363.54-363.22 112.8-1010.4-421.32-1010.4-319.97 0-589.96 280.48-589.96 589.44zm589.96-43.13h-100.73V632.58h143.9c38.86 0 39.67 6.86 71.94 14.37 21.64 92.78-4.02 129.4-115.1 129.4zm-244.62-215.65v531.94c0 71.63 99.68 39.05 143.9 28.75v-244.4c97.77 0 98.46 11.8 169.98 117.7 93 137.73 64.17 141.08 189.76 141.08 96.4 0-32.98-153.4-78.18-209.42-32.67-40.5-38.3-29.37-51.33-78.1 162.12-13.48 219.45-330.67-86.33-330.67-183.1 0-287.8-26.66-287.8 43.13z"/></svg>