<svg xmlns="http://www.w3.org/2000/svg" width="400" height="69.875" viewBox="1 1 400 69.875"><path fill="#22448f" d="M56.843 1l-2.094.28-2.344.78-1.813 1.03-1.03 1.03-11.69 15.844h146.97V1.28L113.435 1l-5.97 1.062-3.625 1.53-2.594 1.844-2.875 3.094-2.063 2.875-2.875 5.438V1h-36.59zm242.282 0l-3.906.53-2.844.53-3.125 1.53-2.844 1.844-1.813 2.063-2.875 3.906-1.563 3.625-1.28 4.406v.53h91.655V1.28L299.125 1zm-110.907.28v18.69h21.313V1.28h-21.313zm68.063 0v18.69h21.53V1.28h-21.53zm134.97.25c-5.457 0-9.845 4.397-9.845 9.813 0 5.375 4.387 9.75 9.844 9.75a9.77 9.77 0 0 0 9.75-9.75c0-5.416-4.383-9.813-9.75-9.813zm0 1.625c4.477 0 8.124 3.658 8.124 8.188 0 4.484-3.647 8.063-8.125 8.063-4.472 0-8.156-3.578-8.156-8.063a8.19 8.19 0 0 1 8.156-8.188zm-.533 1.906c-.9 0-2.524.037-3.063.125-.538.044-.688.315-.688.938v10.563c0 .267.166.47.344.47H389c.176 0 .375-.17.375-.44V12.53h1.158c.087 0 .343.1.343.188l2.53 4.156c0 .18.162.28.344.28h1.78c.27 0 .376-.196.375-.375v-.313l-2.594-4.344c1.34-.446 2.22-1.36 2.22-3.094v-.22c0-2.84-1.774-3.75-4.814-3.75zm-1.343 2.125h1.532c1.61 0 2.22.424 2.22 1.625v.22c0 1.1-.6 1.593-2.22 1.593h-1.53V7.187zM36.843 20.75V21L1 70.594h25.97l34.812-48.03-24.938-1.814zm151.375 0l.28 25.438-1.813-4.656-1.313-2.344-2.063-2.594-3.125-2.875-2.594-1.53-3.656-1.314-3.094-.78-77.125-4.907 2.594 6.22 1.563 2.312 2.063 2.344v.25l1.313 1.063h.25l1.313 1.03 7 2.594h.53l1.03.25h.25l2.344.28 52.188 3.375 1.313.5.78.53.5.78.53.78v1.812l-.25.53-.53.78-.25.25-.782.5-.53.28h-.782l-73.22.25v-27.25l-21.03-1.313v47.25l93.468.28 4.688-.53 5.438-1.564 4.156-2.344 3.375-2.844 1.563-1.813 2.094-2.594 1.03-2.344 1.03-3.375.53 2.844.5 1.844 1.844 4.125 2.594 3.125 2.844 2.094 2.344 1.03 3.625 1.28 5.47.78h49.843l6.25-1.28 2.313-1.032 3.125-1.844 2.594-2.594 1.813-2.844 1.063-1.563 1.03-3.625.53-3.125V70.6h74.5l5.72-1.03 3.124-1.032 3.625-1.813 3.125-2.344 3.125-3.125 1.28-2.063 1.313-3.125.53-2.594.25-4.406-.53-3.375-1.032-3.125-1.813-3.375-1.563-2.094-2.844-2.844-1.844-1.03-3.875-2.095-2.875-.78-1.813-.25h-.5l-.53-.25h-.532l-75.03-5.19v.5l.5 2.594 2.593 4.688 2.875 3.625.25.25.25.28 1.063.78 2.313 1.28 6.5 2.344 56.094 3.906 1.313.25.5.53h.28l.5.5v.28l.28.25v.25l.25 1.03v.53l-.25.78v.53l-.28.25v.25h-.25l-.25.28-.282.25h-.25l-.25.25-.78.25h-.532l-.25.28h-73.875l.375-3.375-.5-23.625-20.78-1.063v24.937l-.282.78-.25.78-.25.25-.28.28h-.25v.5l-1.282.78-1.313.25h-36.094l-.53.28h-.782l-.25-.28h-1.28l-.282-.25-1.28-.532h-.282l-.5-.5-.28-.25h-.25v-.28l-.5-.5-.532-.782-.25-.78V21.772l-21.072-1.023zm-94.5 4.437v-.03h-.28l.28.03z"/></svg>