<svg xmlns="http://www.w3.org/2000/svg" height="167.33" width="800" viewBox="0 0 800 167.326" fill="#bf1920"><path d="M130.62 151.03c-37.195 0-67.34-30.16-67.34-67.362s30.144-67.335 67.34-67.335c13.1 0 25.35 3.74 35.7 10.22l-35.7 57.115 67.2-38.796c-7.3-11.63-17.77-21.653-30.43-29.258C151.27 5.97 128.86 0 104.08 0 68.732 0 37.72 12.845 20.427 32.08 7.623 46.3 0 64.198 0 83.667 0 103.15 7.623 121.06 20.427 135.3c17.34 19.26 47.888 32.03 82.653 32.03s65.3-12.78 82.65-32.03c.95-1.06 1.87-2.13 2.74-3.24l-2.62-9.82c-12.2 17.4-32.38 28.8-55.23 28.8m222.76 12.24l-28.2-105.2c-4.53-17-20-29.495-38.44-29.495-4.78 0-9.36.854-13.6 2.4l-60.7 22.076h62.44L285.53 92.9c-10.35-8.908-23.83-14.328-38.6-14.328-29.3 0-53.04 19.64-53.04 43.87s23.73 43.9 53.04 43.9c21.1 0 39.76-10.33 51.27-26.2l6.2 23.13h48.98m-86.02-16.34a24.48 24.48 0 0 1-24.48-24.49c0-13.52 10.96-24.48 24.48-24.48s24.5 10.96 24.5 24.48c0 13.54-10.97 24.5-24.5 24.5zm201-118.337a24.22 24.22 0 0 0-10.32 2.283l-38.98 18.166c-1.93-11.604-12-20.45-24.17-20.45a24.56 24.56 0 0 0-10.35 2.283l-47.6 22.175h33.46v110.22h48.98V65.313c0-6.76 5.47-12.26 12.25-12.26 6.74 0 12.25 5.502 12.25 12.26v97.958h48.96V53.05c0-13.517-10.97-24.457-24.5-24.457m307.16-.001c-3.7 0-7.23.818-10.4 2.283l-38.94 18.166c-1.92-11.604-12-20.45-24.16-20.45-3.68 0-7.2.818-10.36 2.283L644.1 53.05h33.45v110.22h48.97V65.313c0-6.76 5.48-12.26 12.26-12.26 6.76 0 12.23 5.502 12.23 12.26v97.958h49V53.05c0-13.517-10.98-24.457-24.48-24.457"/><path d="M652 97.96c0 38.31-31.05 69.36-69.35 69.36-38.33 0-69.4-31.05-69.4-69.36 0-38.3 31.07-69.366 69.4-69.366 38.3 0 69.35 31.066 69.35 69.366m-66.48-48.314c-2.18-8.162-10.57-13.007-18.73-10.813-8.15 2.185-13.02 10.58-10.83 18.74l23.8 88.697c2.2 8.17 10.57 13 18.73 10.85 8.16-2.2 13-10.6 10.82-18.76l-23.78-88.715z"/></svg>