<svg xmlns="http://www.w3.org/2000/svg" width="347.841" height="270.399" viewBox="0 0 9203.26 7154.32" shape-rendering="geometricPrecision" image-rendering="optimizeQuality" fill-rule="evenodd"><path d="M2243.7 6089.62l-443.38-159.88 578.83-2254.42c80.57.58 476.98-11.54 514.37 8.9 17.86 15.64 391.93 2087.82 457.9 2447.25 20.9 113.87 51.07 244.23 64.13 358.17-68.25-11.5-483.22-157.66-523.86-186.66-13.4-84.6-66.56-490.1-89.28-529.6-28.5-17.28-406.87-114.27-462.92-123.97l-95.78 440.22zM0 4609.33v-142.25l8.47-869.3V2573.3c-.05-478.04 111.27-888.3 486.17-1181.76 26.92-21.08 46.37-34.15 74.3-52.7 54.7-36.32 100.8-62.1 157.54-96.45 345.98-209.6 1881.67-764.74 2195.6-869.35 256.46-85.46 508.4-172.6 782.83-241.63 478.52-120.35 804.63-168.32 1307.85-98.6 233.98 32.4 516 100.3 739.14 166.8 722.97 215.46 2161.84 740.9 2774.04 1069.82 515.67 277.05 677.32 753.7 677.32 1346.22v2006.6c0 591.94-86.85 944-578.5 1207.95-54.58 29.3-97.9 46.7-155.3 73.3l-456.4 204-632.53 256.46c-410.13 164.15-874.7 349.82-1289.78 488.23-460.8 153.65-960 301.6-1476.4 301.6-319.67 0-641.05-56.26-902.6-121.87-323.96-81.27-477.88-141.03-779-245.45-254.5-88.25-496.9-183.73-742.23-282.24-458.7-184.16-1096.54-422.05-1535.85-640.08-33.42-16.58-50.73-28.74-81.72-45.28-83.26-44.4-160.53-90.38-227.92-153.08-71.94-66.92-23.17-11.88-97.58-97.15-121.1-138.75-181.86-292.28-211.1-491.63L0 4609.33zm373.94-933.98l464.45.01 171.16 1135.07 230.13-1133.4 491.14-1.66-1.76 2239.52-365.16-126.63-7.92-1267.97-249.77 1174.3c-41.62-7.35-113.27-34.58-155.77-49.93-77.4-27.94-80.55-18.8-95.74-106.85-20.73-120.18-36.26-241.07-52.48-363.56-20.55-155.14-61.78-604.66-109.07-720.83l-1.4 1093.53c-31.64-1.64-291.53-87.46-320.38-103.45l2.58-1768.15zm7288.75-3.8l270.57-.42c358.88-.57 746.52-38.4 877.73 276.57 76.04 182.56 59.77 423.42-76.8 569.38-66.8 71.4-73 59.25-119.08 92.9-11.7 8.53-9.2 7.14-14 12.26 61.98 58 102.74 47.73 151.3 120.67 131.66 197.78 71.15 469.8 101 576.8 18.38 65.88 42.65 12.54 38.76 89.93-34.92 35.3-305.26 116.78-373.32 100.1-53.2-116.43 7.73-328.15-69.32-489.27-61.56-128.72-141.73-164.58-277.66-142.96-43.58 6.93-97.05 9.36-103.13 32.6l-1.52 794.04-407.45 140.53 2.94-2173.12zM4015.8 5735.6c18.24 134.75 13.7 234.8 84.64 340.44 122.34 182.2 427.6 164.06 341.66-257.3-111.94-548.8-803.48-561.94-939.25-1159.87-57.82-254.65 5.12-499.73 115.44-685.55 234.45-394.9 844.8-448.55 1102.1-66.63 138.9 206.2 156 402.98 146.27 694.7l-515.43-48.3c-14.07-129-22.6-255.42-128.17-301.37-100.6-43.78-219.53 35.22-252.32 150.18-42.08 147.56 39.8 239.24 106.16 308.85 89.74 94.15 130.37 113.8 236.48 186.87 85.06 58.6 177.43 112.3 256.5 175.5 264.45 211.32 429.2 448.6 438.53 844.52 5.15 218.06-46.74 416-178.54 579.78-138.05 171.56-414.86 287.73-695.53 205.3-469.74-137.94-625.95-629.76-622.64-1084.06l504.1 116.93zM6157 4251.48l-240.05 15.8.14 2175.3c-7.13 28.56-520 182.12-538.08 183.63l-2.2-2311.58c-78.1 4.4-276.64 29.64-339.16 18.16-5.86-19.45-13.9-535.3-4.28-625.2 3.48-32.5-3.44-15.27 9.93-29.65 41.12-30.3 993.2-.27 1133.7-6.04 28.3 12.87 19.9 32.38 20.45 69.7l-1.78 398.07c.24 52.37 18.76 108.56-38.66 111.84zm710.6-54.78l-3.45 454 524.26-71.3.55 474.57-464.85 108.4c-33.1 7.16-45.75 4.3-60.3 27.15l.38 457.56 649.22-183.12.22 419.83c-43.27 31.76-703.32 258.4-846.47 308.75-91.94 32.34-193.87 79.6-291.65 100.16l2.2-2618.2 1135.96-3.15-.22 476.77-645.85 48.6zM5037.66 388.92l267.74 87.86c60.05 20.02 232.02 86.43 274.13 89.94v2286c51.1 0 105.2 4.6 160.4 8.94l390.62 32.7c31.06 1.4 58.58-6.94 58.58 26.1v550.34H5037.66V388.92zm-3344.33 1905c0-328.76 58.94-676.53 166.4-900.4 124.32-259 332.16-445.8 646.4-445.8 247.52 0 418.83 224.8 507.9 423.43 217.77 485.62 222.75 1442.27-92.97 1879.57-33.95 47.02-72.28 90.57-119.75 125.8-347.76 258-761.1 104.83-944.32-264.13-119.47-240.58-163.67-532.57-163.67-818.46zm6925.73 228.6c33.5 50.05 86.22 61.63 149.18 155.62 141.64 211.5 41.87 684.05 102.22 744.45 6.67 6.67 27 3.86 28 48.2h-228.6c-49.53 0-105.76 17.64-142.1-18.78-80.5-80.68 48.5-555.7-184.27-730.13-67.07-50.27-162.1-89.3-274.77-89.3v838.2h-406.4v-2159c52.4 1.17 664.22 218.5 753.55 253.98 194.43 77.2 314.9 166.83 397.88 355.65 92.96 211.52 25.66 549.76-194.7 601.1zm-4521.2 982.13c-649.6 0-829.73-939.76-829.73-1481.66v-101.6c0-666.2 244.78-1515.53 880.53-1515.53 515.62 0 700.33 752.53 735.85 1135.3 21.42 230.9 30.35 313.8 17.65 549.53l-17.12 270.75c-35.6 421-259.95 1143.22-787.18 1143.22zM685.8 2514.05c0 206.15 19.7 567.26 287.87 567.26 182.32 0 228.6-300.8 228.6-457.2 59.66-13.9 146.24-22.72 205.74-31.33 66.86-9.67 152.82-27.93 217.6-27.93 0 236.52-51 450.02-161.17 643.16-39.4 69.04-118.38 153.2-189.22 200.24C820.58 3710.2 270.93 3282 270.93 2632.58V2497.1c0-344.84 164.4-756.1 446.97-933.1 208-130.3 570.66-160.47 749.44 83.82 80.2 109.6 118.54 270.86 132.86 442.87l-406.4 84.67c0-227.5-176.07-459.83-352.22-225.22-102.63 136.7-155.78 380.52-155.78 563.9zm6172.2-584.2c171.28 39.9 353.02 70 524.93 110.06v482.6L6858 2446.3v508l566.02 35.1c30.02 3.32 43.46 7.22 85.9 7.22v474.14H6375.4V854.58L6660 951l283.75 97.25 427.53 148.2c56.48 18.8 95.23 27 138.66 56.07v423.34L6858 1498.05v431.8z" fill="#221f20"/><path d="M4015.8 5735.6l-504.1-116.93c-3.3 454.3 152.9 946.12 622.64 1084.06 280.67 82.42 557.48-33.75 695.53-205.3 131.8-163.8 183.7-361.72 178.54-579.78-9.33-395.93-174.08-633.2-438.53-844.52-79.07-63.2-171.44-116.9-256.5-175.5-106.1-73.08-146.74-92.72-236.48-186.87-66.36-69.6-148.24-161.3-106.16-308.85 32.8-114.96 151.7-193.96 252.32-150.18 105.56 45.95 114.1 172.37 128.17 301.37l515.43 48.3c9.73-291.73-7.36-488.52-146.27-694.7-257.3-381.92-867.65-328.26-1102.1 66.63-110.32 185.82-173.26 430.9-115.44 685.55 135.77 597.93 827.3 611.06 939.25 1159.87 85.95 421.36-219.32 439.5-341.66 257.3-70.95-105.65-66.4-205.7-84.64-340.44zM2609.3 4348.94c21.53 46.35 120.68 791.43 131.3 902.42l-317.43-65.94 186.13-836.48zM2339.5 5649.4c56.05 9.7 434.42 106.7 462.92 123.97 22.72 39.5 75.9 445 89.28 529.6 40.64 29 455.6 175.16 523.86 186.66-13.06-113.94-43.23-244.3-64.13-358.17l-457.9-2447.25c-37.4-20.43-433.8-8.3-514.37-8.9l-578.83 2254.42 443.38 159.88 95.78-440.22zM371.36 5443.5c28.85 16 288.74 101.8 320.38 103.45l1.4-1093.53c47.3 116.17 88.52 565.7 109.07 720.83l52.48 363.56c15.2 88.04 18.34 78.9 95.74 106.85 42.5 15.35 114.15 42.58 155.77 49.93l249.77-1174.3 7.92 1267.97 365.16 126.63 1.76-2239.52-491.14 1.66-230.13 1133.4L838.4 3675.36l-464.45-.01-2.58 1768.15zm7142.1-1295.4l.22-476.77-1135.96 3.15-2.2 2618.2c97.78-20.55 199.7-67.82 291.65-100.16 143.15-50.35 803.2-277 846.47-308.75l-.22-419.83-649.22 183.12-.38-457.56c14.55-22.86 27.2-20 60.3-27.15l464.85-108.4-.55-474.57-524.26 71.3 3.45-454 645.85-48.6zM6157 4251.48c28.44-18.68 15.8 6.5 24.12-26.88 1.75-7.03.53-41.46.6-51.1l-4.73-501.63c-140.5 5.77-1092.57-24.27-1133.7 6.04-13.37 14.38-6.45-2.85-9.93 29.65-9.62 89.9-1.58 605.76 4.28 625.2 62.52 11.48 261.07-13.76 339.16-18.16l2.2 2311.58c18.1-1.5 530.95-155.07 538.08-183.63l-.14-2175.3 240.05-15.8zm1915.42-142.68c57.7-17.15 228.7-27.4 288.3-14.67 78.27 16.72 138.46 81.3 126.4 177.4-20.8 165.82-244.7 185.52-418.63 203.5l3.93-366.23zm-409.8-375.56l-2.88 2111.44 407.45-140.53 1.52-794.04c6.08-23.23 59.55-25.66 103.13-32.6 135.93-21.62 216.1 14.24 277.66 142.96 77.05 161.12 16.1 372.84 69.32 489.27 68.06 16.67 338.4-64.82 373.32-100.1 3.9-77.4-20.38-24.05-38.76-89.93-29.84-107 30.67-379.02-101-576.8-48.55-72.94-89.3-62.67-151.3-120.67 4.8-5.12 2.3-3.73 14-12.26 46.1-33.64 52.27-21.5 119.08-92.9 136.57-145.96 152.84-386.82 76.8-569.38-131.2-314.98-518.85-277.14-877.73-276.57l-270.57.42-.06 61.68z" fill="#00a8ad"/><path d="M4072.46 2852.7c76.47 0 123.3-55.75 159.32-111.62C4454.85 2395.14 4378.9 973.1 4080.93 973.1c-76.93 0-143.67 85.02-175.17 138.1-39.94 67.28-67.43 139.62-89.13 224.13-28.56 111.24-58.53 295.6-57.46 416.68.55 63.32-10.5 99.88-9 152.4 6.52 228.64 57.84 948.28 322.3 948.28zM2413 2979.7c114.95 0 177.3-123.4 206.4-216.94 90.52-291.1 66.3-731.1.27-1022.65-20.85-92.03-95.63-301.34-189.73-301.34-81.66 0-119.38 39.33-164.66 114.74-101.37 168.8-113.53 451.23-131.25 656.2-7.06 81.7 31.9 397.6 50.26 473.78 25.07 103.97 97 296.2 228.72 296.2zm10.17 2205.72l317.43 65.94c-10.62-111-109.77-856.07-131.3-902.42l-186.13 836.48zm5645.56-2984.64c129.06 2.87 481.4 180.04 421.27-107.95-11.94-57.2-39.42-96.5-79.74-131.98-9.96-8.76-11.96-11.33-23.3-19.02-48.92-33.13-128.37-54.28-184.44-69.57-38.27-10.44-104.92-21.7-133.78-35.55v364.07zm3.7 1908.02l-3.93 366.23c173.94-17.98 397.83-37.68 418.63-203.5 12.05-96.1-48.14-160.68-126.4-177.4-59.58-12.72-230.58-2.48-288.3 14.67z" fill="#221f20"/><path d="M6157 4251.48c57.42-3.28 38.9-59.47 38.66-111.84l1.78-398.07c-.56-37.3 7.84-56.82-20.45-69.7l4.73 501.63c-.07 9.63 1.15 44.06-.6 51.1-8.33 33.37 4.32 8.2-24.12 26.88z" fill="#115f62"/></svg>