<svg xmlns="http://www.w3.org/2000/svg" width="408.321" height="103.041" viewBox="0 0 10803.46 2726.26" shape-rendering="geometricPrecision" image-rendering="optimizeQuality" fill-rule="evenodd"><path d="M795.87 2209.8l2.53 2.52c-.17-.16-3.37-1.68-2.53-2.52zm609.6-127h0zm0 0c1.08-48.27 60.42-241.47 59.38-423.22-.48-84.14 6.43-262.83-10.2-345.64-6.72-33.48-37.32-44.7-64.42-62.57L804.34 863.6c8.3 35.6 71.24 159.08 101 305.38 65.04 319.6 58.72 583.05-42.82 887.33-10.45 31.3-35.4 118.8-58.2 145l29.2-174c13.3-91.42 25.9-393.32 5.62-487.37-8.84-40.96-17.93-33.94-57.35-52.7L581.26 1383c-76.96-39.06-292.24-166.68-352.65-180.75 110.6 209.05 168.3 544.05 107.98 844.58-40.6 202.38-117.65 370.45-229.9 532.1-19.73 28.4-99.52 120.5-106.68 147.32 122.34-64.74 816.42-318.63 943-360.87 203.02-67.75 473.36-143.4 686.1-185.96 271.3-54.26 727.28-114.64 946.15 45.92 37.57 27.56 87 71.24 91.75 128.38 77.47-56.76 230.54-406.7 86.43-636.76-61.1-97.54-97.48-121.9-142.12-179.6l-327.8-315.65c-25.48-21.42-34.57-28.57-58.8-51.26-108.5-101.55-352.58-280.67-474.72-380.4l-311.9-229.95c-25.54-18.94-37.8-28.45-66.46-43.6 11.9 51.12 211.45 385.9 211.96 761.7.24 178.28-9.72 301.36-45.96 445.68-28.5 113.48-59.68 210.83-109.5 313.84l-22.63 45.1z" fill="#221e20"/><path d="M9652 1244.6v931.33c0 73.3-63.9 112.42-118.53 127v25.4h482.6v-25.4c-44.77-10.43-118.53-49.13-118.53-101.6v-973.66c0-79.65 66.67-59.27 186.26-59.27 97.94 0 194.74 113.83 194.74 211.67 0 118.15 15.4 211.4-73.8 290.27-54.47 48.16-109.58 39.93-205.6 39.93 7.42 31.87 43.9 82.07 62.17 115.63l68.4 117.86c84.17 143.18 178.78 343.95 317.6 427.47 75.25 45.28 178.77 84.1 296.9 84.1 29.2 0 32.8-6.26 59.27-8.47l-43.54-32.66c-116.03-90.4-165.38-176.8-247.82-302.5-42.37-64.6-77.1-133.64-114.66-198.6-24.17-41.82-30.26-77.64-61.93-90.46-29.68-12.03-76.72-10.26-116.25-44.62 178.4-3.97 313.27-151 313.27-304.8v-50.8c0-207.35-146.3-306.6-339.06-321.34-195.57-14.95-457.18-.4-660-.4 18.8 70.38 118.53 28.2 118.53 143.93zm-3970.87-16.94v973.66c0 54.3-74.67 91.38-118.53 101.6v25.4h482.6v-25.4c-62.27-16.63-118.53-53.08-118.53-127V1244.6c0-96.94 41.2-76.2 177.8-76.2 225.85 0 273.27 361.9 137.96 493.57-59.36 57.76-106 48.3-214.16 48.3 42.94 81.15 88.97 158.23 135.93 236.6L6304 2179.6c54.7 91.4 83.98 141.3 178.7 193.84 77.58 43.03 174.67 81.9 290.64 81.9 29.2 0 32.78-6.26 59.27-8.47-20.06-27.37-109.28-56.65-255.64-286.22l-175.4-298.74c-43.82-76.94-85.5-25.07-153.17-83.9 78.3-1.74 135.53-27.35 184.77-60.76 55.82-37.87 83.02-76.47 109.33-144.67 50.4-130.6 15.03-299.34-67.3-376.97-94.4-89.02-224.42-94.93-404.6-94.93h-508c8.44 31.6 3.12 16.62 27.42 31.85 13.75 8.62 23.32 12.95 37.88 21.38 29.02 16.82 53.23 31.35 53.23 73.77zM4555.07 1752.6c0-176.3 9.14-283.7 98.83-434.56 218.1-366.84 637.77-104.98 637.77 341.43 0 182-5.56 285.14-98.85 443-209.24 354.1-637.75 129.28-637.75-349.88zm364.06 609.6c361.4 0 635.4-290.87 643.8-643.7.7-29.47-11.87-115.32-17.73-143.22-9.3-44.3-19.9-82.9-38.9-121.98-106.6-219.46-294.32-386.5-578.7-386.5-317 0-564.52 223.4-624.57 501.5-57.52 266.37 37.94 512.9 253.08 674.32 94.22 70.7 233.6 119.58 363.02 119.58zm3259.67-948.27c21.44 15.7 32.4 59.82 47.17 96.75l130.63 326.58h-347.14l169.34-423.33zm-567.27 889v25.4h372.53v-25.4c-176.4-41.1-88.78-160.4-60.38-229.72 13-31.72 49.33-111.75 51.92-142.8h423.33c32.2 60.88 59.47 139.93 87.24 209.14 15.9 39.6 32.1 72.64 2.6 109.08-10.5 13-81.37 49.8-98.32 54.3v25.4h508v-25.4c-31.93-7.44-47.2-20.42-73.88-36.18-56.2-33.2-73.8-121.4-112.38-217.82l-254-635-127-321.73h-152.4L7736.22 2199c-25.18 65.57-27.68 52.4-83.75 85.6-19.25 11.4-15.33 12.35-40.94 18.32z" fill="#231f1f"/><path d="M3005.67 1676.4c0 218.14 56.93 373.5 201.13 501.6 385.7 342.65 967.27 89.26 967.27 31.8v-296.33c0-26.07-11.73-25.4-33.87-25.4-32.95 0-31.47 47.5-56.7 112.62-45.8 118.2-134.86 228.7-268.55 256.4-119.4 24.74-245.73-10.4-328.7-79.14-19.9-16.5-34.32-23.96-51-42.14-183.98-200.56-221.28-528.62-61.78-768.96 62.73-94.5 195.03-206.92 326.48-206.92 140.1 0 211.75 12.42 310.9 129.35 41.6 49.05 72.62 123.74 92.13 187.27 18.1 59 7.9 55.9 71.1 55.9 0-367.65 32.05-330.5-90.65-383.48-356.92-154.08-814-100.35-1012.85 270.58-32.63 60.87-64.9 166.65-64.9 256.83z" fill="#221e20"/><path d="M6807.2 1430.86c0 390.55 503.14 368.48 568.7 565.84 104.68 315.24-394.75 406.76-518.64 2.17-14.6-47.7 3.4-51.55-58.52-51.55v296.33c0 26.18 6.07 17.44 23.62 27.18 182.14 101.08 490.03 128.72 668.28-21.08 153.48-128.98 185.83-392.4 26.52-538.25-167.08-152.96-431.17-140.02-492.37-311.98-32.94-92.55 2.3-146.2 55.2-195.4 51.5-47.92 123.38-65.28 208.7-51.65 168.62 26.92 198.47 179.24 229.83 252.88 13.2 30.98 8.44 25.52 50.68 25.52 0-316.03 22.6-273.88-66.4-306.12-28.76-10.42-44.4-17.1-82.25-27.82-315.57-89.35-613.34 49.98-613.34 333.94z" fill="#231e20"/><path d="M8957.73 1126.06c76.65 17.86 118.53 50.7 118.53 135.47V2159c0 80.44-44.97 124.3-118.53 143.93v25.4h482.6c-17.3-64.8-118.53-42.9-118.53-127v-973.66c0-84.5 102.63-67.45 118.53-127-34.38-19.3-413.27-8.46-482.6-8.46v33.86z" fill="#221e20"/><path d="M1710.27 651.93c108.95 9.07 437.2 195.74 548.33 315.27 19.9 21.4 47.1 58.86 61.06 82.87 9.74 16.76 17.93 34.36 24.26 51.94 11.86 32.94 2.82 31.92 26.75 49.45 17.68-75.86 33.87-46.23 33.87-169.33 0-399.34-573.88-782.45-872.07-982.13l117.34 297.52c48.33 127.85 60.46 214.1 60.46 354.4z" fill="#231f20"/><path d="M1083.74 939.8l338.66 127c-9.73-20.3-19.08-79.1-27.13-108.34l-67.05-220.8c-9.47-25.6-17.6-46.8-37.82-63.78L922.87 431.8c19.4 83.27 160.87 219.53 160.87 508z" fill="#231f1f"/><path d="M508 1253.06c64.95 15.13 249.63 67.73 304.8 67.73-9.54-19.88-16.8-70.33-24.3-94.22l-61.2-184.33c-20.65-60.1-9.15-45.8-134.5-111.02l-245.64-126.9C448.6 955.84 508 1054.6 508 1253.06z" fill="#231e20"/><path d="M1371.6 516.47V508l-9.87 7.06z" fill="#221c22"/></svg>