<svg xmlns="http://www.w3.org/2000/svg" width="243.519" height="117.12" viewBox="0 0 6443.12 3098.78" shape-rendering="geometricPrecision" image-rendering="optimizeQuality" fill-rule="evenodd"><path d="M2051.73 238.43c49.5 0 114.37-18.68 167-27.72 246.37-42.33 633.9-100.73 874.38-99.3 75 .44 114.43-8.88 186.22-8.5l194.8.03c176.75-.65 564.42 33.74 722.24 56.7 337.57 49.1 789.08 137.32 1097.85 273.74 213.55 94.36 310.8 136.66 509.9 269.03 132.57 88.14 207.7 161.24 309.4 274.8 56.82 63.46 113.07 160.93 145 244.47 33.84 88.55 59.82 211.87 40.17 342.75-25.78 171.7-79.6 219.28-98.32 299.6 78.48-52.56 190.8-295.33 218.54-408 35.25-143.1 24.32-157.43 18.33-277.62-1.64-32.86-9.37-65.56-16.54-93.52-15.57-60.66-34.54-102.3-59.4-152.27C6101.04 409.5 5288.16 165.7 4703.04 67.85c-120.08-20.08-252.48-31.06-376.12-47.22-131.55-17.2-727.08-30.33-823.82-15.7l-189.76 13.44c-69.86 1.8-131 12.24-195.1 16.56-177.57 11.95-560.6 75.64-732.72 113.93l-328.1 86.78c-1.26.54-3.9 1.65-5.68 2.78zm431.8 2861.72c643.17 0 1133.82-36.4 1754.32-193l193-52.52c-56.95 0-566.97 108.03-812.74 118.6-45.54 1.96-130.93 8.98-171.7 14.56l-412.56 10.78c-489.36 0-1147.47-78.36-1605.4-231.87-147.42-49.42-232.22-72.45-384.12-140.8C757.2 2496.7 478.65 2324.8 287 2070.88c-138.9-184.04-196.52-450.45-112.63-670.24 16.07-42.1 53.48-103.8 57-146.2-80.9 54.16-171.73 256.06-201.53 365.74-111.77 411.5 97.26 723.18 413.2 946.56l265.15 158.2 303.32 128.48c414.34 155.2 1022.15 246.75 1471.97 246.75zM1408.27 1313.7H857.94V797.23c26.48-2.2 30.07-8.47 59.26-8.47 112.02 0 397.05-5.35 497.88 10.12 57.3 8.8 77.86 56.66 77.86 125.35v279.4c0 55.7-29.7 110.06-84.67 110.06zM680.14 653.3v795.86c0 35.18 31.08 24.26 64.92 28.2 94.2 10.98 645.53 5.74 710.84-5.98 124.98-22.44 192.06-107.4 205.34-234.92 9.77-93.82 9.18-357.7-5.13-416.14-25.7-104.88-130.13-192.43-256.3-192.43H705.54c-19.5 0-25.4 5.9-25.4 25.4zm3962.4 1667.92h-431.8c-64.3 0-127-21.73-127-84.66v-355.6c0-55 54.36-84.67 110.06-84.67h491.07c65.46 0 101.6 36.14 101.6 101.6v321.73c0 85.4-59.64 101.6-143.93 101.6zm-364.07 160.87h381c357.2 0 304.8-299.8 304.8-550.33 0-241.4-133.23-304.8-372.53-304.8h-389.47c-180.1 0-296.8 103.38-296.63 279.1l.5 93.63c.32 79.16-21.7 125.72 5.7 264.83 13.1 66.5 24.4 91 63.7 131.04 77.38 78.88 182.34 86.53 302.94 86.53zm-1380.06-508c0-146.23 27.38-184.8 220.08-186.9 51.73-.57 65.56 9.3 118.3 9.38 430.77.6 372.83-62.55 372.83 414.58 0 82.4-44.62 110.06-127 110.06-104.66 0-504.02 21.26-552.25-31.95-51.47-56.76-25.95-211.7-25.95-255.9 0-20.62-6-25.9-6-59.27zm-169.34-84.66v313.26c0 313.73 299.03 276.06 542.2 279.06 45.52.56 49.9 7.64 92.57 9.14 40.67 1.42 68.76-2.92 95.73-6.43 149.2-19.45 327.82-26.18 327.82-298.7 0-318.53 52.47-558.8-347.13-558.8H3025.4c-164.86 0-296.34 99.44-296.34 262.47zm8.47-931.34c0 198.55-28.04 360.86 104.9 462.37 92.45 70.6 206.3 54.1 293.04 54.1h440.27V1313.7h-558.8c-113.7 0-101.6-82.62-101.6-177.8h618.07l8.46-160.87h-626.53c0-108.27-10.47-186.27 127-186.27h524.93V627.9c-48.3 0-58.56-8.47-110.06-8.47-434.93 0-719.67-64.77-719.67 338.67zm-956.73-33.87l8.3 136.2c5.54 68.04-46.65 215.67 65.46 331.9 42.22 43.77 115.03 82.23 197.16 82.23H2619V1313.7h-558.8c-113.7 0-101.6-82.62-101.6-177.8h626.53V975.03H1958.6c0-77.72-13.8-186.27 110.07-186.27h541.86V627.9c-64.6 0-94.4-8.47-160.86-8.47-317.83 0-668.87-60.38-668.87 304.8zm1913.46-152.4v702.73h177.8V797.23l448.73-8.47c182.65 0 152.4 94.4 152.4 287.87 0 93.63-33.37 127-127 127h-321.73v127c0 20.68-18.77 33.86 16.93 33.86 318.6 0 609.6 49.24 609.6-313.26 0-126.2 12-245.58-65.47-332.46-47.78-53.58-120.38-90.87-197-90.87h-685.8c0 59.13-8.47 82.62-8.47 143.93zM1772.33 1897.9v321.73c0 157.4 129.15 262.47 287.87 262.47h541.87l8.46-160.87c-764.25 0-658.83 46.92-660.2-287.66-1.13-277.67-33-245.73 482.4-245.73 199.63 0 177.8 60.34 177.8-152.4-84.1-19.6-423.06-8.47-533.4-8.47-175.45 0-304.8 97.5-304.8 270.93zm3310.47-245.54v575.73c0 91.46 44.23 148.78 95.48 192.4 53.56 45.57 130.46 61.6 226.25 61.6h508l8.47-160.87h-558.8c-134.97 0-101.6-137.86-101.6-304.8l.15-304.95c1.35-100.08 22.75-84.5-152.55-84.5-19.5 0-25.4 5.9-25.4 25.4z" fill="#009be0"/><path d="M2051.73 238.43l-18.2 4.66z" fill="#009ade"/></svg>