<svg xmlns="http://www.w3.org/2000/svg" width="381.441" height="91.839" viewBox="0 0 10092.26 2429.92" shape-rendering="geometricPrecision" image-rendering="optimizeQuality" fill-rule="evenodd"><path d="M8238.06 93.5v2243.65c0 19.5 5.9 25.4 25.4 25.4h448.73c0-217.8 11.25-1182.8-7.23-1347.43-4.08-36.3-1.34-88-1.13-125.87.3-53.47-8.57-75.62-8.57-118.42 9.53 10.96 3.94 2.8 14.04 19.82 84.43 142.34 185.33 391.4 309.3 596.65l556.46 933.66c10.48 18.42 16.66 41.6 43.07 41.6h474.13V68.1h-474.13v753.53c0 101.43 8.7 176.8 8.48 270.92-.44 193.88 8.45 362.16 8.45 550.34-9.53-10.96-3.94-2.8-14.04-19.82l-194.67-389.52c-86.42-170.26-364.97-622.54-461.75-782.86-17.73-29.37-210.07-382.6-243.93-382.6h-457.2c-19.5 0-25.4 5.9-25.4 25.4z" fill="#003f97"/><path d="M6934.2 415.24c155.33 0 213.15-4.56 352.1 79.7 399.23 242.04 397.35 1183.5 10.52 1434.4-176.36 114.38-441.75 118.4-613.02 6.3-215.04-140.75-273.7-401.2-291.97-639.36-2.43-31.66-8.15-36.24-8.6-76.65l11.3-158.7c27.13-214.57 100.9-435.68 284.25-562.42 53.05-36.66 167.66-83.26 255.4-83.26zM5901.26 1211.1c0 180.4 38.5 420.47 110.2 584.07 14.5 33.05 26.87 65.54 44.96 98.97 30.93 57.15 75.44 125.58 114.46 173.4 177.27 217.3 459.76 362.75 763.3 362.75 232.13 0 350.18-10.63 556-112.87 253.17-125.77 412.75-343.2 503.47-614.12 97.6-291.4 99.9-676.16 2.15-969.63-118.67-356.28-339.87-592.52-700.4-696.6-253.06-73.05-581.94-40.4-809.96 73.34C6356.93 174.54 6265 253 6174.7 358.47c-39.6 46.24-81.98 114.92-112.2 167.2-70.3 121.57-113.42 279.74-137.14 421.67l-24.1 263.77zm-1955.8-558.8c0 110.15-2.1 192.37 45.03 293.63 30.85 66.28 57.06 100.6 105.23 148.76 129.73 129.7 331.1 206.42 516.78 253.7 166.34 42.35 474.02 110.93 594.2 184.74 199.14 122.3 239.55 465.73-323.3 496.48-24.3 1.33-29.2-4.03-57.36-5.53-56.67-3-64.62-1.98-115.12-12.1-127.83-25.6-253.04-88.4-314-202.47-56.43-105.6-32.78-119.9-53.52-208.94h-474.13c0 160.65 17.15 280 96.57 411.42C4264.63 2506.46 5107 2530.95 5517 2257.7c144.54-96.33 299.62-286.65 299.62-521.65 0-225.57-19.6-330.47-188.22-497.58-171.46-169.93-584.6-244.38-851.44-316.95-76.8-20.9-146.1-44.68-214.76-73.1-219.36-90.83-165.57-370.1 87.48-431.68 243.67-59.3 608.14 6.05 608.14 328.73h482.6c0-245.94-78.3-411.65-256.55-556.26C5243.35-5.94 4771.5-50.5 4456.63 54.34c-27.84 9.27-42.7 13.67-68.07 25.06-23.72 10.66-42.85 16.35-64.92 28.22-55.12 29.65-175.26 109.92-210.23 153.84-87.3 109.63-167.94 228.48-167.94 390.85z" fill="#003f98"/><path d="M.01 2362.56h1718.73V1973.1c0-19.5-5.9-25.4-25.4-25.4H482.6v-558.8h1151.46V982.5H482.6V482.97h1210.73c19.5 0 25.4-5.9 25.4-25.4V68.1H.01v2294.45zM2853.27 1261.9h-457.2V482.97h491.06c118.4 0 254.65 48.58 315.58 107.76 78.2 75.96 132.2 174.57 121.22 295.08-24.42 268-207.92 376.1-470.66 376.1zm-939.8 1100.66h482.6v-685.8c479.83 0 1032.24 52.96 1307.57-402.7 132.52-219.3 131.3-562.08 10.48-788.36-144.97-271.53-489.06-417.6-827-417.6h-973.66v2294.45z" fill="#003f97"/></svg>