<svg xmlns="http://www.w3.org/2000/svg" width="150.399" height="52.161" viewBox="0 0 3979.32 1380.06" shape-rendering="geometricPrecision" image-rendering="optimizeQuality" fill-rule="evenodd"><path d="M1002.16 686.33c-7.76 4.8 7.23 3.3-20.05 9.86L828 694.65c.16 34.62-6.13 266.17 6.84 274.75 71.52-27.2 51.73-130.74 52.32-219.5l97.73 2.1c-.32 44 4.2 160.03-2.63 195.92-5.36 28.14-226.72 292.62-259.84 304.13l2.07-557.8c.07-51.4-16.25-102.03 28.63-107.7 108.34-13.7 232.68 54.62 303.28-103.2l-158.82-1.06c37.5-108.45 86.73-102.44 143.66-100.84 79.8 2.25 157.64-2.12 238.28 1.8-10.68 41.27-135 161.56-170.6 200.5-20.56 22.5-63.24 87.56-106.75 102.6zM661.9 0h94.48c37.15 2.5 73.3 7.96 107.5 16.65 125.96 32 281.08 111.7 346.85 212.26-82.96.14-402.6-14.5-450.68 7.98l-5.87 263.1 92.44 3.72c30.93-55.02 1.47-113.34 19-169.78l421.3-2.02a127.18 127.18 0 0 1 3.88 4.06l21.87 27.63c23.07 35.12 39.58 85.68 50.55 127.37 87.95 333.96-35.85 621.5-316.8 792.54-59.28 36.1-192.77 81.66-268.13 87.47-32.27 2.5-66.4 8.92-92.45 9.1h-2.66c-1.76-.02-3.48-.07-5.15-.16-134.4-6.94-249.37-44.65-356.9-109.32-86.06-51.75-176.45-148.83-225.26-240.4C51.07 946.1 6.72 820.04 0 714.6v-51.35l.15-2.1c6.92-86.53 46.37-295.9 120.16-339.4 38.27 24.68 336.25 5.9 414.06 14.95l1.72 160.9 99.15 3.24 3.5-267.58-460.95 3.9C270.62 97.78 469.83 12.34 661.9 0zm-93.87 692.38c-239.72-9.06-151.8 24.28-279.47-109.1-37.94-39.62-163.28-166.06-176.06-199.84 78.98-4.07 163.52.36 243.28-.02 77.58-.37 78.66-14.65 140 97.7l-158.34 1.2c8.65 28.18 29.02 44.93 47.32 64.13 26.54 27.86 25.55 39.77 64.13 42.72 64.88 4.98 154.04.67 221.6.95l2.55 655.97c-53.4-19.48-68.08-53.27-103.26-97.2l-133.9-153.83c-42.7-47.3-30.37-200.05-21-243l94.56.62c1.33 112.3-23.04 196.5 59.58 221.94l-.98-282.22z" fill="#f80101"/><path d="M568.03 692.38L569 974.6c-82.62-25.44-58.25-109.64-59.58-221.94l-94.56-.62c-9.36 42.96-21.7 195.7 21 243l133.9 153.83c35.18 43.94 49.86 77.73 103.26 97.2l-2.55-655.97c-67.55-.28-156.7 4.03-221.6-.95-38.58-2.95-37.6-14.86-64.13-42.72-18.3-19.2-38.67-35.95-47.32-64.13l158.34-1.2c-61.35-112.34-62.43-98.06-140-97.7-79.76.38-164.3-4.05-243.28.02 12.78 33.78 138.12 160.22 176.06 199.84C416.22 716.64 328.3 683.3 568 692.36zm266.8 277.02l-13.95 12.2L824 686.12l178.16.2c43.5-15.03 86.2-80.08 106.75-102.6 35.6-38.95 159.92-159.24 170.6-200.5-80.64-3.9-158.47.46-238.28-1.8-56.93-1.6-106.17-7.6-143.66 100.84l158.82 1.06c-70.6 157.82-194.94 89.5-303.28 103.2-44.88 5.67-28.56 56.3-28.63 107.7l-2.07 557.8c33.12-11.5 254.48-276 259.84-304.13 6.83-35.9 2.3-151.93 2.63-195.92l-97.73-2.1c-.6 88.76 19.2 192.3-52.32 219.5zm1078.63-402.14V889c98.76 0 84.67 9.67 84.67-143.94H2159c0 166.63-19.2 143.94 84.67 143.94V575.73c0-51.12-124.23-33.87-203.2-33.87-36.65 0-36.65 67.74 0 67.74H2159v76.2h-160.86V541.86c-60.7 0-84.67-8.35-84.67 25.4zM1286.93 331.9c-7.92-32.58-51.65-87.14-76.2-103-82.96.14-402.6-14.5-450.68 7.98l-5.87 263.1 92.44 3.72c30.93-55.02 1.47-113.34 19-169.78l421.3-2.02zM120.3 321.73c38.27 24.68 336.25 5.9 414.06 14.95l1.72 160.9 99.15 3.24 3.5-267.58-460.95 3.9c-22.74 15.1-52.7 55.32-57.5 84.6zm2868.42 228.6c-.85 38.3-8.46 33.65-8.46 76.2 0 97.74-20.95 262.47 33.86 262.47h262.47v-67.74h-211.67V601.13h211.67v-59.27c-54.46 0-247.5-7.2-287.87 8.47zm321.74 67.73l8.46 262.47c38.3.85 33.65 8.47 76.2 8.47h211.67v-67.74h-211.67V601.13h211.67v-59.27c-245.7 0-296.33-29.5-296.33 76.2zM2277.53 889h84.66V702.73c23.64 6.3 101.58 68.7 124.37 87.3 30.86 25.2 90.42 78.77 129.63 82.03 0-107.53-6.65-80.97-140.3-181.42l-91.9-68.96c-33.1-24.88-63.68-52.92-106.44-62.88V889zm-694.27-338.67c-18.35 78.75-8.47 249-8.47 338.67 122.78 0 93.14 44.9 93.14-287.87h203.2v-59.27c-54.46 0-247.5-7.2-287.87 8.47zm1066.8 33.87c0 36.12 32.5 25.4 110.06 25.4V889h76.2V609.6h110.07v-67.74h-296.33v42.34zm990.6 50.8v160.86c0 47 8.47 50.2 8.47 93.14h76.2V745.06h152.4c0-73.66 17.54-59.26-152.4-59.26V541.86h-76.2c0 42.93-8.47 46.13-8.47 93.14zm254 254h84.67V541.86h-84.67zM2531.52 694.26c0 23.27 58.8 56.08 76.2 67.74 0-38.67-2.82-89.37.48-126.6 8.36-94.32 36.92-93.55-76.68-93.55v152.4zm558.8 50.8h152.4V685.8h-152.4zm-1405.46-25.4c0 19.5 5.9 25.4 25.4 25.4h127V685.8h-152.4v33.86z" fill="#060004"/><path d="M834.83 969.4c-12.97-8.58-6.68-240.13-6.84-274.75l154.12 1.54c27.28-6.56 12.3-5.06 20.05-9.86l-178.16-.2-3.12 295.47 13.95-12.2z" fill="#a10102"/></svg>