<svg xmlns="http://www.w3.org/2000/svg" width="2500" height="2500" viewBox="0 0 192.756 192.756" fill-rule="evenodd"><path fill="#fff" d="M0 0h192.756v192.756H0V0z"/><path fill="#2d68ae" d="M172.73 158.797h17.192v3.9H178.02v5.848h10.445v3.687H178.02v6.467h11.902v3.9H172.73v-23.822zm-24.605 0h20.453v3.9h-7.547V182.6h-5.27v-19.893h-7.637v-3.9zm-25.496 0h5.79l5.646 10.057 5.348-10.057h5.867l-8.996 14.488v9.315h-5.328v-10.08l-8.328-13.724zm-17.29 20.433h4.95c.668 0 1.266-.1 1.787-.268a3.632 3.632 0 0 0 1.342-.814c.705-.69 1.062-1.5 1.062-2.422 0-.598-.16-1.15-.48-1.666-.31-.514-.795-.947-1.443-1.297-.64-.35-1.398-.52-2.27-.52h-4.95v6.988zm0-10.675h4.43c1.145 0 2.1-.336 2.87-1.004.717-.688 1.08-1.443 1.08-2.275s-.33-1.553-.986-2.162a3.466 3.466 0 0 0-1.246-.713c-.502-.172-1.074-.254-1.734-.254h-4.412v6.408zm-5.125-9.758h10.916c1.627 0 3.027.297 4.19.896 1.17.6 2.047 1.367 2.64 2.312.592.955.885 1.934.885 2.957a5.273 5.273 0 0 1-1.127 3.293c-.75.98-1.83 1.64-3.234 1.98a5.39 5.39 0 0 1 2.803 1.111 6.54 6.54 0 0 1 1.883 2.32 6.48 6.48 0 0 1 .66 2.824 5.66 5.66 0 0 1-.846 3.025c-.566.928-1.43 1.672-2.594 2.238-1.156.566-2.605.846-4.348.846h-11.826v-23.8zm-20.14 0h6.187l7.496 18.232 2.365 5.57h-5.646l-1.803-5.572H76.86L74.76 182.6h-5.817l8.398-18.164 2.734-5.638zm6.86 14.244l-3.795-10.666-4.38 10.672 8.176-.006zm-54.427-14.244h5.59V182.6h-5.59v-23.803zm-6.596.223v4.098H15.456c-4.067 0-6.864 4.963-7.013 7.416s2.185 7.83 5.114 7.85l6.727.045v-9.256h5.627v12.887l-11.43.496c-7.78.338-11.646-6.045-11.646-11.71s4.4-11.824 13.677-11.824h9.4zm39.97 0v4.098H55.424c-4.066 0-6.864 4.963-7.013 7.416s2.185 7.83 5.114 7.85l6.727.045v-9.256h5.627v12.887l-11.43.496c-7.78.338-11.646-6.045-11.646-11.71s4.4-11.824 13.678-11.824h9.4zm34.354-55.64c-18.267 0-33.167-14.9-33.167-33.167s14.897-33.747 34.098-33.747h51.7v-26.33h-55.97c-35.018 0-62.975 27.957-62.975 62.235 0 29.417 20.907 55.184 49.593 61.02l71.948-71.95h-43.896v41.63l-11.33.307z"/><path fill="#c92230" d="M133.928 84.12h52.13l-52.13 52.13V84.12z"/></svg>