<svg xmlns="http://www.w3.org/2000/svg" width="433.701" height="433.701"><path fill="#4987ce" d="M216.85 432.85a220.89 220.89 0 0 1-6.419-.101l44.143-121.318h60.75c10.663 0 22.368-8.197 26.015-18.212l47.892-131.546c7.835-21.537-4.5-39.157-27.418-39.157h-84.28l-110.83 304.47C71.594 404.375.85 318.878.85 216.85.85 117.765 67.57 34.27 158.533 8.824L48.39 311.432l45.778.004 58.48-160.53h34.404l-58.48 160.53 45.76.008 54.498-149.77c7.84-21.537-4.497-39.157-27.393-39.157h-38.48l44.186-121.44c3.22-.143 6.454-.227 9.708-.227 119.294 0 216 96.706 216 216s-96.706 216-216 216zM347.542 150.8h-34.395L264.98 282.948h34.396L347.542 150.8z"/></svg>