<svg xmlns="http://www.w3.org/2000/svg" width="300" height="198.513" fill="#0071c5"><path d="M88.8 84.354v48.122H73.48V71.99l31.626.03c13.433 0 18.01 9.473 18.01 18.078v42.38h-15.29v-42.3c0-3.604-1.866-5.822-6.366-5.822H88.8zm104.164-.723c-5.236 0-9.288 2.692-10.98 6.346-1.004 2.194-1.348 3.875-1.466 6.56h23.567c-.303-6.56-3.278-12.907-11.12-12.907m-12.446 23.333c0 7.835 4.87 13.602 13.567 13.602 6.766 0 10.13-1.875 14.04-5.767l9.46 9.034c-6.058 5.98-12.415 9.613-23.615 9.613-14.664 0-28.697-7.996-28.697-31.3 0-19.9 12.252-31.183 28.353-31.183 16.32 0 25.748 13.197 25.748 30.483v5.518h-38.858M152.343 132.4c-12.48 0-17.775-8.687-17.775-17.267V55.508h15.295v16.48h11.53v12.366h-11.53v29.82c0 3.514 1.66 5.465 5.308 5.465h6.222v12.76h-9.05M59.85 63.63H44.426V48.978H59.85V63.63zm.04 69.482c-11.55-1.1-15.48-8.116-15.48-16.2l.018-44.923H59.89v61.123zm183.83-1.293c-11.526-1.11-15.437-8.106-15.437-16.18V46.894h15.437v84.927zm53.965-75c-14-68.206-146.386-72.524-231.723-20.573v5.736C151.2-1.82 272.117-1.56 283.133 61.26c3.685 20.772-8.02 42.43-28.925 54.877v16.286c25.162-9.205 50.967-39.055 43.475-75.594M142.56 176.16c-58.897 5.445-120.27-3.104-128.858-49.127-4.204-22.687 6.132-46.737 19.843-61.676V57.37C8.86 79.013-4.535 106.414 3.177 138.792c9.843 41.518 62.517 65.047 142.916 57.233 31.8-3.104 73.444-13.333 102.39-29.22v-22.57c-26.264 15.64-69.726 28.573-105.923 31.924"/><path d="M261.562 51.458c0-.748-.437-.986-1.436-.986h-.965V52.6l.965.026c1 0 1.436-.334 1.436-1.034v-.124zm1.504 5.253h-1.143a.272.272 0 0 1-.238-.152l-1.56-2.643c-.027-.054-.162-.118-.215-.118h-.7v2.62c0 .14-.097.292-.28.292h-1.034c-.13 0-.258-.152-.258-.292v-6.63c0-.384.15-.544.473-.594.365-.048 1.357-.08 1.892-.08 1.9 0 3.048.56 3.048 2.344v.124c0 1.104-.55 1.687-1.402 1.972l1.617 2.734c.01.056.048.13.048.196 0 .107-.064.227-.247.227m-2.714-8.794c-2.813 0-5.088 2.322-5.088 5.12a5.09 5.09 0 0 0 5.088 5.086 5.11 5.11 0 0 0 5.096-5.087c0-2.797-2.297-5.12-5.096-5.12m0 11.26a6.133 6.133 0 0 1-6.145-6.14 6.138 6.138 0 0 1 6.145-6.144c3.38 0 6.16 2.766 6.16 6.143 0 3.383-2.78 6.14-6.16 6.14"/></svg>