<svg xmlns="http://www.w3.org/2000/svg" width="464.001" height="95.361" viewBox="0 0 12276.66 2523.06" shape-rendering="geometricPrecision" image-rendering="optimizeQuality" fill-rule="evenodd"><path d="M1223 2112.33c60.24 42.93 124.7 124.55 171.3 183.17 12.8 16.1 17.1 20.55 28.15 39.45 13.42 22.95 31.3 57.83 43.8 80.96l-309.55-.5 66.3-303.07zm-914.58-978.8c30.66 13.6 42.53 27.84 70 45.22 117.04 74.06 81.28 57.9 116.85 194.77 28.2 108.56 54.56 239.3 75.43 347.96 44.84 233.35 108.48 460.4 151.67 693.3l-653.55.33 239.6-1281.6zm548.85 1282.35l-167.8-703.5 209.92 139.1c12.96 8.8 21.17 13.02 40.64 27 76.5 54.96 114.17 78.3 120.12 159.95l25 377.56-227.88-.12zM1103.4 1520c7.55-33.88 22.72-62.92 45.55-90.95l66.63-67.5c17.75-12.68 38.98-24.86 59.45-33.54 106.14-45 191.94-51 315.94-43.13-6.45 132.4-300.36 287.5-487.57 235.13zm214.35-310c-189.56-34.6-153.77-54.26-220.2-72.92 33.86-43.94 354.22-13.15 433.75 6.96 44.02 11.14 62.24 36.77 63.95 80.42-93.17 4.54-185.82 2.28-277.5-14.46zm434.63-847l.18 41.82c-22.03 10.8-56.28 4-82.8.32 12.4-20.56 17.23-31.65 27.5-55.58l55.12 13.44zM414.66 622.53l-9-31.7c-26.03-32.07-17.24-42.46-46.92-62.4-77.62-52.13-215.6-26.37-230.08 21.9 1.02 45.73 142.57 272.9 170.1 317.33l174.7 297.38c-35.66-9.4-186-103.77-224.54-137.26-5.84-5.08-7.12-6.77-13.3-11.96-99.96-84-116.18-114.66-143.05-296.22-33.73-227.95-21.5-245.97 94.8-284.14 257.47-84.48 254.25 28.33 312.98 49.88-40.2-183.02-158.12-126.46-341.98-92.23-3.67-5.72-3.12-2.76-8.66-17.25-2.03-5.32-4.77-14.88-6.08-20.4-5.65-23.84-17.7-106.76-9.83-121C240.77 144.1 717.1 77.47 887.45 72.6c188.8-5.4 684.1 1.27 825.28 91.44 8.2 35.9 6.1 94.1-9.22 127.75-17 37.3-54.43 40.63-84.7 61.97l50.98 475.97c-43.53 22.54-278.97 35.7-357.06.88-.3-29.9 6.34-53.22 16-74.22l113.44-7.37c-35.54-15.12-120.7-51.33-144.7-9.58-7 12.17-30 75.27-23.46 95.33 5.92 18.14 140.95 111.32 171.72 131.67 28.08 18.58 60 44.55 84 63.46-275.56-26.07-255.05-3.43-483.35 76-135.67 47.2-354.4 52.93-505.44 72.85L414.66 622.53zM100.3 414.87C23 435.5 13.97 505.3 22.47 585.3c14.93 140.5.78 83.67 30.43 224.1 27.72 131.25 41.05 176 151.54 254.86 82.3 58.75 27.92 117.72 8.18 250.35L13.3 2402.5c-10.58 49.4-32.46 69.73 35.03 70.54l1626.77-.78c-3.6-43.08-59.4-149.33-77.4-193.54l-62.98-140.22c-28.82-64.3-177.7-384.6-189.83-436.7 139.9 0 230.12-18.08 286.97-187.17 43.75-130.14 116.9-439.57 119.6-566.2 1.5-69.2 12.3-114.8 8.34-186.48l-8.5-186.23c0-161.1 33.87-25.6 33.87-211.66 0-65.4-14.8-153.67-34.1-219.92-19.2-65.94-219.2-86.66-282.93-98.07-36.7-6.57-74.54-16.15-107.45-19.55-146.26-15.12-513.55-13.27-643.86 5.8-202.16 29.6-361.87 50.73-560.96 133.3-138.8 57.57-59.04 94.1-55.58 249.23z" fill="#353334"/><path d="M2208.5 524.93c6.66 80.05 106.5-21.6 175.57 154.63 33.73 86.07 44.56 169.2 44.56 285.64v1100.66c0 160.34-13.02 339.45-188.07 362.26-40.9 5.32-45.4-7.58-49 35.67h922.86c-4.92-59.18-10.83-17.22-123.93-45.4-51-12.72-77.38-28.93-101.64-67.7-69.67-111.26-45.36-712.18-45.36-877.5 97.8 0 155.12-2.5 230.04 91.7 78.94 99.25 112.1 251.02 142.4 374.06l90.13 485.6c10.05 51.47-8.93 39.24 163.96 39.23h516.47v-25.4c-53.68-12.5-131.97-42.8-166.2-87.8-40.17-52.84-57.74-117.08-78.27-184.2l-83.28-306.2c-8.77-32.46-2.48-21.95-16.32-51.4-38.44-81.8-57.48-126.47-127.78-193.96-57-54.72-171.38-122.04-248.45-141-42.58-10.48-63.02-20.13-107-28.47-53.55-10.17-171.6-30.1-231.05-31.42l234.94-239.18c184.44-184.43 464.3-485.35 719.02-593.32 65.56-27.8 87.43 11.3 87.43-64.96H3216c0 87.1 30.62 23.14 100.56 68.77 168.3 109.77 2.07 346.35-80 451.3-16.43 21-17.07 22.35-35.34 40.87l-69.17 74.76-4.1 4.37-32.5 35.24c-40.33 41.08-200.6 213.68-226.58 213.68h-25.4V939.8c0-120.1 6.96-259 62.35-327.12 37.24-45.8 92.77-49.04 141.76-53.28 24.5-2.1 72.24-15.37 32.34-35.75l-871.45 1.28zm4919.12 601.13c0 152.04-.58 265.47-27.72 412.55-19.53 105.83-78.96 315.6-209.35 315.6-86.3 0-111.92-113.06-127.02-177.78-22.5-96.42-25.96-158.68-25.26-279.54.35-61.36-8.95-84.55-8.8-143.62L6776 681.32c15.8-55.4 44-111.97 98.46-130.87 25.02-8.7 33.27-7.3 58.5-1 49.87 12.44 65.44 23.32 95.32 57.87 85.34 98.66 99.33 380.76 99.33 518.73zm-16.93-474.13h0zm0 0c-9.8-11.25 2.82 5.13-11.45-13.95-294.68-393.84-900.8 82.5-777.3 802.68 33.65 196.23 97.1 367.6 281.77 463.3 77.93 40.38 191.28 44.94 273.25 21.3 30.3-8.73 42.35-18.8 67.32-34.28 26.2-16.23 37.9-29.93 58.64-51.42l68.03-92.84c4.84-8.26 4.38-8.9 8.94-16.47 10.63-17.65 2.75-7.24 13.85-20 0 200.55 81 514.7-138.86 716.27-37.1 34-55 35.26-66.48 69-2.38 7-3.85 16.9-6.32 27.54 232.2-54.1 541.87-197.3 618.17-431.7 37.1-113.96 42.24-181.4 42.23-313.37-.02-133.45-13-960.4 8.2-1050.13 10.5-44.36 17.63-84.8 57-120.8 34.93-31.93 73.28-39.8 138-39.8V533.4l-559.1-.3c-103.47-1.78-75.9 11.36-75.9 118.83zm4199.46 25.4V516.47h-592.67c-19.5 0-25.4 5.9-25.4 25.4 0 39.17 39 21.6 74 27.6 81.34 13.9 120.73 112.2 120.73 192.54v897.46c0 117.22-34.27 228.6-169.34 228.6 2 23.9-.2 33.87 25.4 33.87h685.8c25.6 0 23.4-9.97 25.4-33.87-125.64 0-143.93-129.43-143.93-245.53V795.86c0-4.46 56.9-124.6 64.75-138.44 36.53-64.46 88.26-73.22 163.85-73.22 96.56 0 110.07 135.77 110.07 237.06 0 136.82 13.55 919.72-16.48 999.53-18.58 49.4-43.57 67.27-110.52 67.27 2 23.9-.2 33.87 25.4 33.87h702.73c23.84 0 15.68-3.66 25.4-16.94-22.05-30.1 1.8-10.18-40.78-18.48-50.58-9.87-86.75-20.02-108-78.26-19.93-54.6-29.44-152.76-29.07-224.93.63-120.74 5.97-636.9-7.8-737.26-7.55-54.98-32.32-145.38-60.28-193.73-119.46-206.57-474.17-185.73-588.82-107.03-66.15 45.4-104 114.32-130.44 132.03zm-5884.33 0V516.47h-592.67c-19.5 0-25.4 5.9-25.4 25.4 0 59.44 82.38-15.3 151.08 77.52 30.15 40.72 43.66 115.6 43.66 184.94v795.87c0 140.1-10.54 256.27-129.55 285.3-41.86 10.2-17.8-10.52-39.8 19.48 9.92 14.28 1.22 16.94 25.4 16.94h711.2v-33.87c-147.33 0-143.93-165.6-143.93-321.73V812.8c0-21.2 52.2-228.6 194.73-228.6 42.27 0 72.8-3.1 98.75 28.25 17.77 21.46 24.6 37.8 31.94 69.66 37.4 162.3 21.7 656.8 21.7 850.35 0 174.27 14.78 355.6-135.46 355.6 2 23.9-.2 33.87 25.4 33.87h719.66v-33.87c-135.68 0-160.52-92.3-161.1-202.97-.28-54.25-7.18-73.8-8.52-118.48-7.82-261.54 38.73-749.87-72.36-918.24-17.9-27.15-28.76-45.7-52.16-66.37-133.5-117.92-436.56-126.87-564.2-9.46l-4.38 4.1-61 64.92c-11.88 14.1-19.35 25.74-33.04 35.77z" fill="#363334"/><path d="M863.62 474.13c63.8-47.76 157.7-81.6 245.76-100.5 79.77-17.1 183.2-53 217.45 100.5-76.34 66.6-387.86 55.05-463.2 0zm633.67-87.3c28.86 17.1 63.62 270.92 68.98 333.3l-2.52 39.64c-.7 2.27-2.64 4.97-3.34 6.75s-2.32 4.48-3.85 6.47c-39.74-15.66-33.74-99.82-43.8-187.82-4.25-37.2-30.23-177.37-15.46-198.33zM405.66 590.82c-.9-59.33 20.07-79.57 75.66-89.37 57.95-10.2 97.76-14.48 156.37-18.4l57.17-66.25c10.53-10.43 20.12-15 34.12-25.45 18.48-13.8 15.54-14.62 31.66-27.72 23.84-19.38 126.18-83.22 138.8-104.1-3.76-21.24-26.67-66.62-36.63-89.9-24.7-57.74-40.2-71.6-25.92-97.68 15.7 11.2 5.76.2 19.4 18.5L893.65 154c18.3 31.24 36.66 55.93 49.6 91.34 81.74-73.7 267.28-15.7 379.68 12.8 61.34 15.55 96.96 23.16 106.23 55.1-43.12 27-308.26-100.72-427.5-46.26-103.18 47.13-223.58 142.27-311.48 215.66l25.9 3.87c-139.9 44.37-248.52 20.94-301.42 136l126.28 556.23c151.05-19.92 369.77-25.64 505.44-72.85 228.3-79.44 207.8-102.08 483.35-76-24-18.9-55.92-44.88-84-63.46-30.77-20.35-165.8-113.53-171.72-131.67-6.54-20.06 16.47-83.16 23.46-95.33 23.98-41.75 109.15-5.54 144.7 9.58l-113.44 7.37c-9.66 21-16.3 44.33-16 74.22 78.1 34.8 313.53 21.66 357.06-.88l-50.98-475.97c30.28-21.34 67.72-24.68 84.7-61.97 15.33-33.66 17.43-91.85 9.22-127.75-141.2-90.17-636.5-96.84-825.28-91.44-170.36 4.87-646.68 71.5-753.62 161.84-7.86 14.25 4.18 97.17 9.83 121 1.3 5.53 4.05 15.1 6.08 20.4 5.54 14.5 5 11.53 8.66 17.25 183.86-34.23 301.77-90.8 341.98 92.23-58.73-21.55-55.5-134.36-312.98-49.88-116.32 38.17-128.54 56.2-94.8 284.14 26.87 181.56 43.1 212.23 143.05 296.22 6.17 5.2 7.45 6.88 13.3 11.96 38.53 33.5 188.88 127.87 224.54 137.26l-174.7-297.38c-27.54-44.44-169.1-271.6-170.1-317.33 14.48-48.27 152.46-74.03 230.08-21.9 29.68 19.93 20.9 30.32 46.92 62.4z" fill="#ec323c"/><path d="M9913.15 1413.93c0-191.56-35-734.75 102.6-845.66 74.55-60.1 223.7-54.27 283.6 53.06 100.7 180.42 81.3 868.4 40.8 1092.6-10.46 57.9-27.3 99.57-59.38 135.36l-58.8 42.8c-123.55 48.4-247.86-11.65-275.3-164.55-21.78-121.3-24.53-119.32-27.37-236.43-.9-36.76-6.16-38.58-6.16-77.18zm-448.73-228.6c0 200.65 23.14 291.43 124.3 451.44l92.16 111.04 4.3 4.17 4.34 4.12c6.04 5.68 7.78 7.06 13.3 12.1 197.08 179.58 463.5 229.42 702.97 96.04 204.8-114.08 387.9-378.25 387.9-602.7 0-149.07-4.88-217.53-76-364.27l-60.94-99.93c-13.1-20.4-22.72-28-38.24-46.42-197.08-233.72-465.9-342.16-750.7-186.67-131 71.52-185.74 142.5-261.93 246.08-64.53 87.72-141.45 270.66-141.45 375zm-1794.92-254c0 84.14-3.07 118.1 30.86 189.27 64.7 135.68 146.08 186.55 290.88 251l90.9 36.1c112.17 42.62 323.97 110.66 323.97 268.7 0 86.6-56.57 155.4-123.96 189.3-85.7 43.1-74.14 30.83-197.78 30.83-58.14 0-154.38-47.74-194.98-101.36-83.4-110.17-75.95-193.9-75.95-330.44h-211.67c1.44 64.67 30.12 144.38 62.8 199.67 141.7 239.74 375.2 290.1 630.24 264.77 66.98-6.65 139.04-36.93 196.1-66.38 238.73-123.2 328.58-445 190.1-630.6-76.08-101.97-169.7-140.93-283.1-191.03l-202.4-77c-61-22.07-132.64-55.64-181.12-98.27-67.62-59.46-84.5-157.3-46.17-236.97 14.33-29.8 20.77-35.3 44.64-56.96 96.28-87.3 350.25-60.6 419.78 104.28 39.54 93.78 32.75 99.86 32.75 195.84 58.48 0 177.8 12.63 177.8-16.93 0-47.64-26.72-122.94-46.85-156.35-27.28-45.26-57.8-76.7-96.8-106.4-118.1-89.94-254.37-92.84-398.22-92.84-234.28 0-431.8 196.63-431.8 431.8zm948.25-330.2v25.4h237.07v999.07c0 87.9 74.9 178.3 124.74 222.4 64.76 57.28 184.66 73.94 298.6 73.94 95.42 0 195.52-43.97 271.73-92.34 24.85-15.78 50.85-35.15 75.4-51.6-7.65-15.45-6.52-10.6-8.46-33.87-46.76 24.74-110.47 81.16-196.08 52.14-100-33.9-142.6-158-142.6-246.87V626.53c230.06 0 221.47 20.72 252.2-44.14 14.3-30.17 18.43-28.3 27.2-65.92h-279.4V93.13c-52.96 0-26.6-9.88-80.9 63.03l-140.66 147.2c-94.45 85.56-121.2 116.84-242.37 197.9-37.95 25.38-148.44 95.9-196.46 99.88zm-4614.33-33.86c55.5 0 121.7-.92 159.52 69.08 14.5 26.8 35.2 102.5 35.2 142.58v863.6c0 105.73-34.72 245.53-169.33 245.53 2 23.9-.2 33.87 25.4 33.87h736.6c25.6 0 23.4-9.97 25.4-33.87-138.25 0-191.58-66.43-195.04-202.9-7.44-293.65.3-682.77.3-990.9l.3-101.9c.62-37.7 10-75.9-25.7-75.9H4003.4v50.8z" fill="#363334"/><path d="M68.8 2415.1l653.55-.33c-43.2-232.9-106.83-459.96-151.67-693.3-20.87-108.65-47.22-239.4-75.43-347.96-35.57-136.87.2-120.7-116.85-194.77-27.47-17.38-39.34-31.63-70-45.22L68.8 2415.1zm788.46.77l227.88.12-25-377.56c-5.95-81.64-43.63-105-120.12-159.95-19.47-14-27.68-18.2-40.64-27l-209.92-139.1 167.8 703.5z" fill="#ec323c"/><path d="M4181.22 194.73c0 70.64 4.8 124.9 58.76 178.3 74.58 73.83 169.6 89.02 264.33 43.18 23.17-11.2 11.28-3.52 31-19.8.38-.3 11.35-10.03 13.43-11.97l8.66-8.27C4705.97 226.6 4577.9 17.24 4417.8 0h-42.15c-42.32 4.62-85.37 23.5-124.92 61.05-31.63 30.03-69.5 95.58-69.5 133.68z" fill="#363334"/><path d="M10971.48 2226.73c0 44.05-2.56 80.98 14.57 120.9l11.6 22.26c35.08 65.6 87.46 102.37 177.03 102.37 76.85 0 99-29.18 143.94-59.27l9.75 50.52c66.83.67 49.5 7.78 49.5-219.85 0-43.6-83.6-25.4-203.2-25.4v59.27h135.47c0 179.57-270.93 202.2-270.93-42.34 0-41.66 10.5-76.28 24.8-102.2 12.37-22.43 10.74-19.86 31.42-36.32 41.82-33.3 99.94-37.15 149.7-16.6 31.54 13.02 48.7 45.28 56.55 78.93h67.74c-12.28-147.56-186.1-174.9-273.46-137.98-68.87 29.1-124.48 119.53-124.48 205.72zm-3420.53-186.27v423.33c86.1 0 67.74 14.8 67.74-152.4v-177.8c20.94 15.35 204.36 302.86 211.66 330.2h76.2v-423.33c0-28.74-14.86-25.4-42.33-25.4-40.87 0-25.4 74.54-25.4 152.4v186.27c-10.92-12.56-3.6-3.68-14.15-19.72l-174.35-282.85c-23.08-39.93-17.15-36.1-73.97-36.1-19.5 0-25.4 5.9-25.4 25.4z" fill="#353233"/><path d="M10285.68 2413c-44.57 0-87.4-11.2-116.57-44.3-59.88-67.98-67-296.65 108.9-301.6 197.5-5.57 186.66 345.9 7.67 345.9zm-220.13-211.66V2286c0 95.26 91 186.27 186.27 186.27 70.64 0 114.42 3.06 180.3-65.22 95.3-98.77 99.1-400.45-154.9-400.45-134.05 0-211.67 103.1-211.67 194.74zm-1600.2 33.86c0-170.88 196.75-224.32 268.43-107.56 3.82 6.23 10.78 21.1 13.88 28.46 35.35 83.97 14.27 256.9-138.37 256.9-93.4 0-143.94-85.1-143.94-177.8zm-59.26-42.33c0 87-12.13 153.98 56.64 222.76 82.35 82.35 232.93 73.58 305.76-4.3 84.83-90.7 80.66-277.98-.46-351.8-71.58-65.16-216.82-75.67-295.04-2.96-8.47 7.88-.52-1.04-12.6 12.8l-30.9 45.32c-13.92 23.44-23.42 43.08-23.42 78.17z" fill="#363334"/><path d="M4867.02 2040.46v397.93c0 19.5 5.9 25.4 25.4 25.4h304.8v-67.73h-237.07c-32.37 0-3.08-2.6-25.4 8.47V2260.6h237.07v-59.26h-237.07v-127c32.34 18.17 211.2 9.13 230.23 6.83 37.02-4.48 32.24 3.3 32.24-40.7 0-19.5-5.9-25.4-25.4-25.4h-279.4c-19.5 0-25.4 5.9-25.4 25.4z" fill="#333131"/><path d="M6475.7 2040.46v423.33h67.73v-203.2h220.13v203.2h67.74v-423.33c0-32.05-19.75-25.4-67.74-25.4v186.27h-220.13v-186.27c-47.98 0-67.73-6.65-67.73 25.4z" fill="#353233"/><path d="M1103.4 1520c187.2 52.37 481.12-102.72 487.57-235.13-124-7.88-209.8-1.86-315.94 43.13-20.47 8.68-41.7 20.86-59.45 33.54l-66.63 67.5c-22.83 28.03-38 57.07-45.55 90.95z" fill="#ec323c"/><path d="M5637.5 2218.26c0 144.98 45.5 254 211.66 254 98 0 170-83.98 177.8-177.8h-67.73c-3.42 153.7-254 180.85-254-50.8 0-225.7 221.67-223.42 254-84.67h59.27c0-218.18-381-205.8-381 59.27z" fill="#363334"/><path d="M1156.68 2415.4l309.55.5-43.8-80.96c-11.04-18.9-15.35-23.35-28.15-39.45-46.6-58.62-111.06-140.24-171.3-183.17l-66.3 303.07z" fill="#ec323c"/><path d="M863.62 474.13c75.35 55.05 386.87 66.6 463.2 0-34.24-153.48-137.68-117.6-217.45-100.5-88.05 18.88-181.96 52.73-245.76 100.5z" fill="#353334"/><path d="M12029.82 2463.8c65.47 0 51.38 2 50.38-135.88-.44-62.26 1.87-57.54 46.1-123.24l94.68-152.32c25.65-36.98 30.63-37.3-38.75-37.3-25.66 0-46.5 53.35-72.53 96.8-13.47 22.48-19.3 30.78-32.48 52.18-14.04 22.78-16.75 33.74-30.46 54.2-24.64-18.05-102.95-167.3-127-203.2h-67.73c3.4 41.06 72.8 132.03 97.72 173.2l47.5 71.03c10.9 22.1 7.8 38.03 7.44 68.76l-1 77.2c-.24 31.56-6.53 58.53 26.14 58.53z" fill="#343133"/><path d="M4079.62 2074.33h143.93v389.46h67.74v-389.46h143.93v-59.27h-355.6z" fill="#353233"/><path d="M9328.95 2463.8h262.47c36.65 0 36.65-67.73 0-67.73h-194.74v-355.6c0-32.05-19.74-25.4-67.73-25.4v448.73z" fill="#343233"/><path d="M1097.56 1137.06c66.43 18.66 30.64 38.3 220.2 72.92 91.68 16.74 184.33 19 277.5 14.46-1.7-43.65-19.93-69.28-63.95-80.42-79.53-20.1-399.9-50.9-433.75-6.96z" fill="#ec323c"/><path d="M943.24 245.35l-43.8 14.17c-12.62 20.88-114.96 84.72-138.8 104.1-16.12 13.1-13.18 13.9-31.66 27.72-14 10.45-23.6 15.02-34.12 25.45l-57.17 66.25 52.5-.37c87.9-73.4 208.3-168.53 311.48-215.66 119.23-54.46 384.37 73.25 427.5 46.26-9.27-31.95-44.9-39.56-106.23-55.1-112.4-28.5-297.94-86.5-379.68-12.8z" fill="#303435"/><path d="M11979.02 414.87c0-172.55 237.06-168.08 237.06 0 0 113.2-151.9 140.8-204.88 77.88-11.53-13.7-32.18-54.83-32.18-77.88zm-33.87-8.47c0 104.38 141.87 209.74 248 112.53 103.9-95.18 26.87-256.46-70.2-256.46h-50.8c-62.1 0-127 81.3-127 143.93z" fill="#343133"/><path d="M12122.95 389.47h-59.27v-42.34h59.27c23.84 0 15.68 3.66 25.4 16.94-5.04 18.86-1.98 25.4-25.4 25.4zm-84.67 101.6h25.4v-76.2c84.24 1.87 26.97 74.34 110.07 76.2l-50.8-76.2c67.45-1.5 53.52-36.66 42.33-84.67-59.04-13.76-56.25-8.47-127-8.47v169.34z" fill="#333031"/><path d="M1563.75 759.77l2.52-39.64c-5.36-62.37-40.12-316.18-68.98-333.3-14.77 20.96 11.2 161.14 15.46 198.33 10.07 88 4.07 172.16 43.8 187.82 1.53-2 3.15-4.7 3.85-6.47s2.63-4.48 3.34-6.75z" fill="#fefdfd"/><path d="M405.66 590.82l9 31.7c52.9-115.05 161.52-91.62 301.42-136l-25.9-3.87-52.5.37c-58.6 3.93-98.42 8.2-156.37 18.4-55.6 9.8-76.55 30.04-75.66 89.37z" fill="#fef8f8"/><path d="M899.44 259.52l43.8-14.17c-12.93-35.4-31.3-60.1-49.6-91.34l-37.37-63.57c-13.63-18.3-3.68-7.3-19.4-18.5-14.28 26.08 1.23 39.94 25.92 97.68 9.96 23.3 32.87 68.67 36.63 89.9z" fill="#fefdfd"/><path d="M1697.27 349.54c-10.26 23.93-15.1 35.02-27.5 55.58 26.5 3.67 60.76 10.47 82.8-.32l-.18-41.82-55.12-13.44z" fill="#ec323c"/></svg>