<svg xmlns="http://www.w3.org/2000/svg" width="159.999" height="32.961" viewBox="0 0 4233.32 872.06" shape-rendering="geometricPrecision" image-rendering="optimizeQuality" fill-rule="evenodd"><path d="M421.36 729.47c20.77 14.8 43 42.96 59.08 63.18 4.4 5.55 5.9 7.1 9.7 13.6 4.63 7.9 10.8 19.94 15.1 27.92L398.5 834l22.87-104.54zM105.9 391.88c10.58 4.7 14.67 9.6 24.15 15.6 40.36 25.54 28.03 19.97 40.3 67.18 9.72 37.44 18.82 82.53 26 120 15.47 80.48 37.42 158.8 52.32 239.12l-225.4.1 82.63-442.02zm189.3 442.3l-57.88-242.64 72.4 47.98c4.47 3.03 7.3 4.5 14.02 9.3 26.38 18.95 39.38 27 41.43 55.16l8.62 130.23-78.6-.04zm84.9-309c2.6-11.7 7.83-21.7 15.7-31.37l22.98-23.28c6.12-4.38 13.44-8.58 20.5-11.57 36.6-15.52 66.2-17.6 108.97-14.88-2.23 45.67-103.6 99.16-168.16 81.1h0zm73.93-106.92c-65.38-11.94-53.04-18.72-75.95-25.15 11.68-15.16 122.17-4.54 149.6 2.4 15.18 3.84 21.47 12.68 22.06 27.73-32.14 1.57-64.1.8-95.7-4.98zm149.9-292.14l.06 14.43c-7.6 3.72-19.4 1.38-28.56.1 4.28-7.1 5.95-10.92 9.5-19.17l19 4.63zm-461.38 89.52l-3.1-10.94c-8.98-11.06-5.94-14.64-16.18-21.52-26.77-17.98-74.36-9.1-79.36 7.56.36 15.77 49.18 94.12 58.67 109.44l60.26 102.57c-12.3-3.24-64.16-35.8-77.45-47.34-2-1.75-2.45-2.34-4.58-4.13-34.48-28.97-40.08-39.54-49.34-102.16-11.64-78.62-7.42-84.84 32.7-98 88.8-29.14 87.7 9.77 107.95 17.2-13.86-63.12-54.53-43.62-117.95-31.8-1.26-1.97-1.07-.95-3-5.95-.7-1.83-1.64-5.13-2.1-7.04-1.95-8.22-6.1-36.82-3.4-41.73 36.9-31.16 201.18-54.15 259.94-55.83 65.1-1.86 235.94.44 284.63 31.54 2.83 12.38 2.1 32.46-3.18 44.06-5.86 12.87-18.77 14.02-29.2 21.38l17.58 164.16c-15 7.78-96.2 12.3-123.15.3-.1-10.3 2.2-18.35 5.52-25.6l39.13-2.55c-12.26-5.2-41.63-17.7-49.9-3.3-2.4 4.2-10.35 25.96-8.1 32.88 2.04 6.26 48.6 38.4 59.23 45.4 9.68 6.4 20.7 15.37 28.97 21.9-95.04-9-87.97-1.18-166.7 26.2-46.8 16.28-122.23 18.26-174.33 25.13l-43.55-191.84zM34.13 144C7.47 151.13 4.36 175.2 7.3 202.8c5.15 48.46.27 28.85 10.5 77.3 9.57 45.27 14.16 60.7 52.27 87.9 28.4 20.26 9.63 40.6 2.82 86.35L4.13 829.55C.48 846.6-7.07 853.6 16.2 853.88l561.07-.27c-1.24-14.85-20.48-51.5-26.7-66.75l-21.72-48.36c-9.94-22.18-61.3-132.65-65.48-150.62 48.25 0 79.37-6.24 98.98-64.56 15.1-44.88 40.32-151.6 41.25-195.28.52-23.87 4.24-39.6 2.88-64.32l-2.94-64.23c0-55.56 11.7-8.83 11.7-73 0-22.56-5.1-53-11.77-75.85-6.62-22.74-75.6-29.9-97.58-33.83-12.66-2.26-25.7-5.57-37.06-6.74-50.44-5.2-177.12-4.58-222.07 2-69.72 10.2-124.8 17.5-193.47 45.98C5.43 77.9 32.94 90.5 34.13 144h0z" fill="#353334"/><path d="M761.26 181.97c2.3 27.6 36.73-7.45 60.55 53.34 11.63 29.68 15.37 58.35 15.37 98.52v379.62c0 55.3-4.5 117.07-64.87 124.94-14.1 1.83-15.65-2.6-16.9 12.3h318.3c-1.7-20.4-3.74-5.94-42.75-15.66-17.6-4.38-26.68-9.97-35.05-23.35-24.03-38.37-15.65-245.63-15.65-302.65 33.74 0 53.5-.86 79.35 31.63 27.22 34.23 38.66 86.58 49.1 129l31.1 167.5c3.46 17.75-3.08 13.53 56.54 13.53h178.14v-8.76c-18.52-4.3-45.52-14.76-57.33-30.28-13.85-18.23-19.9-40.4-27-63.53l-28.73-105.6c-3.02-11.2-.85-7.57-5.62-17.73-13.26-28.22-19.83-43.62-44.08-66.9-19.65-18.87-59.1-42.1-85.7-48.63-14.68-3.62-21.73-6.94-36.9-9.82-18.47-3.5-59.2-10.38-79.7-10.84l81.03-82.5c63.6-63.6 160.14-167.4 248-204.64 22.6-9.6 30.16 3.9 30.16-22.4h-259.9c0 30.04 10.56 7.98 34.7 23.72 58.04 37.86.7 119.45-27.6 155.65-5.66 7.24-5.88 7.7-12.18 14.1l-25.28 27.3-11.2 12.15c-13.9 14.17-69.2 73.7-78.15 73.7h-8.76v-160.6c0-41.42 2.4-89.33 21.5-112.82 12.85-15.8 32-16.9 48.9-18.38 8.45-.72 24.9-5.3 11.15-12.33l-300.55.44zm1696.6 207.34c0 52.44-.2 91.56-9.56 142.3-6.74 36.5-27.24 108.85-72.2 108.85-29.76 0-38.6-39-43.8-61.32-7.76-33.26-8.95-54.73-8.7-96.4.12-21.17-3.1-29.17-3.04-49.54l16.05-197.27c5.45-19.1 15.18-38.6 33.96-45.13 8.63-3 11.48-2.52 20.18-.35 17.2 4.3 22.57 8.04 32.87 19.96 29.44 34.03 34.26 131.33 34.26 178.9h.01zm-5.84-163.53h0zm0 0c-3.38-3.88.97 1.77-3.95-4.8-101.64-135.84-310.7 28.45-268.1 276.84 11.6 67.68 33.5 126.8 97.18 159.8 26.88 13.92 65.97 15.5 94.24 7.34 10.45-3 14.6-6.48 23.22-11.82 9.04-5.6 13.07-10.32 20.23-17.74l23.46-32.02c1.67-2.85 1.5-3.07 3.08-5.68 3.67-6.08.95-2.5 4.78-6.9 0 69.17 27.94 177.53-47.9 247.05-12.8 11.72-18.97 12.16-22.93 23.8-.82 2.4-1.33 5.83-2.18 9.5 80.1-18.65 186.9-68.04 213.2-148.9 12.8-39.3 14.57-62.56 14.56-108.08 0-46.03-4.48-331.25 2.83-362.2 3.62-15.3 6.08-29.25 19.66-41.67 12.05-11 25.27-13.73 47.6-13.73V184.9l-192.84-.1c-35.68-.6-26.18 3.92-26.18 41h.01zm1448.4 8.76v-55.48H3696c-6.72 0-8.76 2.03-8.76 8.76 0 13.5 13.46 7.45 25.53 9.52 28.05 4.8 41.64 38.7 41.64 66.4v309.54c0 40.43-11.82 78.85-58.4 78.85.7 8.24-.07 11.68 8.76 11.68h236.53c8.83 0 8.08-3.44 8.77-11.68-43.34 0-49.65-44.65-49.65-84.7V275.42c0-1.54 19.63-42.98 22.34-47.75 12.6-22.23 30.44-25.25 56.5-25.25 33.3 0 37.96 46.82 37.96 81.76 0 47.2 4.67 317.2-5.68 344.74-6.4 17.04-15.03 23.2-38.12 23.2.7 8.25-.07 11.68 8.76 11.68h242.37c8.23 0 5.4-1.26 8.77-5.84-7.6-10.38.62-3.5-14.07-6.37-17.45-3.4-29.92-6.9-37.25-27-6.87-18.84-10.15-52.7-10.03-77.58.22-41.65 2.06-219.67-2.7-254.3-2.6-18.96-11.14-50.14-20.8-66.8-41.2-71.25-163.54-64.06-203.08-36.92-22.82 15.66-35.87 39.43-45 45.54h0zm-2029.52 0v-55.48h-204.4c-6.72 0-8.76 2.03-8.76 8.76 0 20.5 28.42-5.28 52.1 26.73 10.4 14.05 15.06 39.87 15.06 63.8v274.5c0 48.32-3.64 88.4-44.68 98.4-14.44 3.52-6.14-3.63-13.73 6.72 3.42 4.92.42 5.84 8.76 5.84h245.3v-11.68c-50.8 0-49.64-57.12-49.64-110.97v-259.9c0-7.3 18-78.84 67.16-78.84 14.58 0 25.1-1.07 34.06 9.74 6.13 7.4 8.5 13.04 11.02 24.03 12.9 55.97 7.48 226.53 7.48 293.28 0 60.1 5.1 122.65-46.72 122.65.7 8.25-.07 11.68 8.76 11.68h248.2v-11.68c-46.8 0-55.36-31.83-55.56-70-.1-18.7-2.48-25.46-2.94-40.87-2.7-90.2 13.36-258.63-24.95-316.7-6.18-9.36-9.92-15.76-18-22.9-46.05-40.67-150.57-43.76-194.6-3.26l-1.5 1.4-21.04 22.4c-4.1 4.86-6.67 8.88-11.4 12.34h.01z" fill="#363334"/><path d="M297.4 164.45c22-16.47 54.4-28.14 84.76-34.66 27.5-5.9 63.18-18.28 75 34.66-26.33 22.97-133.78 19-159.76 0h0zm218.55-30.1c9.95 5.9 21.94 93.44 23.8 114.96l-.87 13.67c-.24.78-.9 1.72-1.15 2.33s-.8 1.54-1.33 2.23c-13.7-5.4-11.64-34.43-15.1-64.78-1.46-12.83-10.42-61.17-5.33-68.4v-.01zm-376.5 70.36c-.3-20.46 6.92-27.44 26.1-30.82 19.98-3.52 33.7-5 53.93-6.35l19.72-22.85c3.63-3.6 6.94-5.17 11.77-8.78 6.37-4.76 5.36-5.04 10.9-9.56 8.23-6.68 43.52-28.7 47.88-35.9-1.3-7.33-9.2-22.98-12.64-31-8.52-19.9-13.86-24.7-8.94-33.7 5.42 3.86 2 .07 6.7 6.38l12.9 21.92c6.32 10.77 12.65 19.3 17.1 31.5 28.2-25.42 92.2-5.4 130.95 4.42 21.16 5.36 33.44 8 36.64 19-14.87 9.3-106.32-34.74-147.44-15.95-35.6 16.25-77.12 49.07-107.43 74.38l8.93 1.33c-48.25 15.3-85.72 7.23-103.96 46.9l43.55 191.85c52.1-6.87 127.54-8.85 174.33-25.13 78.74-27.4 71.67-35.2 166.7-26.2-8.28-6.52-19.3-15.48-28.97-21.9-10.62-7.02-57.2-39.16-59.23-45.4-2.26-6.92 5.68-28.7 8.1-32.88 8.27-14.4 37.65-1.9 49.9 3.3l-39.13 2.54c-3.33 7.25-5.62 15.3-5.52 25.6 26.94 12 108.14 7.47 123.15-.3l-17.58-164.17c10.45-7.36 23.36-8.5 29.2-21.37 5.3-11.6 6.02-31.68 3.18-44.06-48.7-31.1-219.52-33.4-284.63-31.54C246.87 27.64 82.58 50.62 45.7 81.78c-2.7 4.92 1.44 33.5 3.4 41.73.45 1.9 1.4 5.2 2.1 7.04 1.9 5 1.72 3.98 3 5.95 63.4-11.8 104.08-31.32 117.94 31.8-20.25-7.43-19.14-46.34-107.94-17.2-40.12 13.16-44.34 19.38-32.7 98 9.27 62.62 14.87 73.2 49.34 102.16 2.13 1.8 2.57 2.38 4.6 4.13 13.3 11.55 65.14 44.1 77.44 47.34L102.6 300.17c-9.5-15.32-58.33-93.67-58.67-109.45 5-16.64 52.58-25.53 79.35-7.55 10.24 6.88 7.2 10.46 16.2 21.52h-.02z" fill="#ec323c"/><path d="M3418.6 488.6c0-66.07-12.07-253.4 35.4-291.67 25.7-20.73 77.15-18.72 97.8 18.3 34.73 62.23 28.04 299.52 14.07 376.84-3.6 19.97-9.4 34.35-20.48 46.7l-20.28 14.76c-42.6 16.7-85.48-4.02-94.95-56.75-7.5-41.84-8.46-41.16-9.44-81.55-.3-12.68-2.12-13.3-2.12-26.62h0zm-154.77-78.84c0 69.2 7.98 100.5 42.87 155.7l31.8 38.3 1.48 1.44 1.5 1.42c2.08 1.96 2.68 2.43 4.6 4.17 67.97 61.94 159.86 79.13 242.45 33.13 70.64-39.35 133.8-130.46 133.8-207.88 0-51.4-1.68-75.02-26.2-125.63l-21.02-34.47c-4.52-7.04-7.84-9.66-13.2-16-67.97-80.6-160.7-118-258.92-64.38-45.18 24.66-64.06 49.14-90.34 84.87-22.25 30.25-48.78 93.35-48.78 129.34h-.01zm-619.07-87.6c0 29.02-1.06 40.74 10.65 65.28 22.3 46.8 50.38 64.34 100.32 86.57l31.35 12.45c38.7 14.7 111.74 38.17 111.74 92.68 0 29.87-19.5 53.6-42.76 65.3-29.55 14.87-25.57 10.63-68.2 10.63-20.05 0-53.25-16.46-67.25-34.96-28.76-38-26.2-66.87-26.2-113.97h-73c.5 22.3 10.4 49.8 21.66 68.87 48.87 82.7 129.4 100.06 217.37 91.32 23.1-2.3 47.96-12.74 67.64-22.9 82.33-42.5 113.32-153.5 65.56-217.5-26.24-35.17-58.53-48.6-97.64-65.9l-69.8-26.55c-21.04-7.62-45.75-19.2-62.47-33.9-23.32-20.5-29.14-54.25-15.92-81.73 4.94-10.28 7.16-12.17 15.4-19.64 33.2-30.1 120.8-20.9 144.78 35.96 13.64 32.35 11.3 34.44 11.3 67.55 20.17 0 61.33 4.35 61.33-5.84 0-16.43-9.22-42.4-16.16-53.93-9.4-15.6-19.94-26.45-33.4-36.7-40.73-31.03-87.73-32.03-137.34-32.03-80.8 0-148.93 67.82-148.93 148.93l-.01-.01zm327.06-113.88v8.76h81.76V561.6c0 30.32 25.84 61.5 43.03 76.7 22.33 19.75 63.68 25.5 102.98 25.5 32.9 0 67.44-15.17 93.72-31.85 8.57-5.44 17.54-12.12 26-17.8-2.64-5.33-2.25-3.65-2.92-11.68-16.13 8.53-38.1 28-67.63 17.98-34.5-11.7-49.18-54.5-49.18-85.14v-318.3c79.35 0 76.38 7.14 86.98-15.23 4.94-10.4 6.36-9.76 9.38-22.73h-96.36v-146c-18.27 0-9.18-3.4-27.9 21.74l-48.52 50.76c-32.57 29.5-41.8 40.3-83.6 68.26-13.1 8.75-51.2 33.08-67.76 34.45h0zm-1591.5-11.68c19.15 0 41.98-.32 55.02 23.82 5 9.25 12.14 35.36 12.14 49.18v297.86c0 36.46-11.97 84.68-58.4 84.68.7 8.25-.07 11.68 8.76 11.68h254.06c8.83 0 8.07-3.43 8.76-11.68-47.68 0-66.08-22.9-67.27-69.98-2.57-101.28.1-235.5.1-341.76l.1-35.15c.2-13 3.45-26.18-8.87-26.18h-204.4v17.53z" fill="#363334"/><path d="M23.27 833.9l225.4-.1c-14.9-80.33-36.85-158.65-52.3-239.13-7.2-37.47-16.3-82.57-26.02-120-12.27-47.2.07-41.63-40.3-67.17-9.47-6-13.57-10.9-24.14-15.6L23.27 833.9zm271.94.26l78.6.05-8.62-130.23c-2.06-28.15-15.05-36.2-41.43-55.16-6.72-4.83-9.55-6.28-14.02-9.3l-72.4-47.98 57.87 242.63z" fill="#ec323c"/><path d="M1441.65 68.1c0 24.36 1.65 43.08 20.26 61.5 25.73 25.47 58.5 30.7 91.17 14.9 8-3.87 3.9-1.22 10.7-6.83.14-.1 3.92-3.46 4.64-4.13l2.98-2.85c51.25-51.6 7.08-123.8-48.14-129.74h-14.54c-14.6 1.6-29.44 8.1-43.08 21.05-10.9 10.36-23.97 32.97-23.97 46.1h-.01z" fill="#363334"/><path d="M3783.62 768.93c0 15.2-.88 27.93 5.02 41.7l4 7.68c12.1 22.62 30.16 35.3 61.05 35.3 26.5 0 34.15-10.06 49.65-20.44l3.36 17.43c23.05.23 17.07 2.68 17.07-75.83 0-15.04-28.83-8.76-70.08-8.76v20.44h46.72c0 61.94-93.44 69.74-93.44-14.6 0-14.37 3.62-26.3 8.55-35.25 4.27-7.74 3.7-6.85 10.84-12.53 14.42-11.48 34.47-12.8 51.63-5.72 10.88 4.5 16.8 15.6 19.5 27.22h23.36c-4.24-50.9-64.2-60.32-94.32-47.6-23.75 10.04-42.93 41.23-42.93 70.95h0zm-1179.75-64.25v146c29.7 0 23.37 5.1 23.37-52.56V736.8c7.22 5.3 70.48 104.45 73 113.88h26.28v-146c0-9.9-5.13-8.76-14.6-8.76-14.1 0-8.76 25.7-8.76 52.57v64.24c-3.77-4.33-1.24-1.27-4.88-6.8l-60.13-97.55c-7.96-13.78-5.92-12.46-25.52-12.46-6.72 0-8.76 2.04-8.76 8.76z" fill="#353233"/><path d="M3547.1 833.18c-15.38 0-30.15-3.87-40.2-15.28-20.65-23.45-23.1-102.32 37.56-104.03 68.12-1.92 64.38 119.3 2.65 119.3zm-75.93-73v29.2c0 32.86 31.4 64.25 64.25 64.25 24.36 0 39.46 1.05 62.18-22.5 32.87-34.06 34.18-138.1-53.42-138.1-46.24 0-73 35.56-73 67.16zm-551.9 11.68c0-58.94 67.86-77.37 92.6-37.1 1.3 2.15 3.7 7.28 4.78 9.82 12.2 28.96 4.92 88.6-47.72 88.6-32.2 0-49.65-29.36-49.65-61.33zm-20.43-14.6c0 30-4.2 53.1 19.53 76.83 28.4 28.4 80.34 25.38 105.46-1.48 29.25-31.28 27.82-95.88-.16-121.34-24.7-22.47-74.78-26.1-101.76-1.02-2.92 2.72-.18-.36-4.35 4.42l-10.65 15.63c-4.8 8.08-8.08 14.86-8.08 26.96h.01z" fill="#363334"/><path d="M1678.18 704.68v137.25c0 6.73 2.04 8.76 8.76 8.76h105.13v-23.36h-81.76c-11.17 0-1.07-.9-8.77 2.92V780.6h81.77v-20.44h-81.77v-43.8c11.16 6.27 72.85 3.15 79.4 2.36 12.77-1.55 11.12 1.13 11.12-14.04 0-6.73-2.03-8.76-8.76-8.76h-96.37c-6.72 0-8.76 2.03-8.76 8.76v-.01z" fill="#333131"/><path d="M2233.02 704.68v146h23.36V780.6h75.92v70.08h23.37v-146c0-11.05-6.82-8.76-23.37-8.76v64.25h-75.92v-64.25c-16.55 0-23.36-2.3-23.36 8.76z" fill="#353233"/><path d="M380.1 525.18c64.56 18.06 165.93-35.43 168.16-81.1-42.77-2.72-72.36-.64-108.97 14.88-7.06 3-14.38 7.2-20.5 11.56l-22.98 23.28c-7.88 9.67-13.1 19.7-15.7 31.37v.01z" fill="#ec323c"/><path d="M1943.92 766c0 50 15.7 87.6 73 87.6 33.8 0 58.63-28.96 61.32-61.32h-23.36c-1.18 53-87.6 62.38-87.6-17.52 0-77.85 76.46-77.06 87.6-29.2h20.44c0-75.25-131.4-70.98-131.4 20.44z" fill="#363334"/><path d="M398.48 834l106.77.18-15.1-27.93c-3.8-6.52-5.3-8.05-9.7-13.6-16.07-20.22-38.3-48.37-59.08-63.18L398.48 834z" fill="#ec323c"/><path d="M297.4 164.45c25.98 19 133.43 22.97 159.75 0-11.8-52.93-47.48-40.56-75-34.66-30.37 6.5-62.76 18.2-84.77 34.66h.01z" fill="#353334"/><path d="M4148.65 850.7c22.58 0 17.72.7 17.37-46.87-.15-21.47.65-19.85 15.9-42.5l32.66-52.53c8.84-12.76 10.56-12.87-13.37-12.87-8.85 0-16.04 18.4-25 33.4-4.65 7.75-6.66 10.62-11.2 18-4.84 7.85-5.77 11.64-10.5 18.7-8.5-6.22-35.5-57.7-43.8-70.08h-23.36c1.17 14.16 25.1 45.54 33.7 59.73l16.38 24.5c3.76 7.63 2.7 13.12 2.57 23.72l-.35 26.63c-.08 10.88-2.25 20.18 9.02 20.18v.02z" fill="#343133"/><path d="M1406.6 716.37h49.64V850.7h23.36V716.37h49.65v-20.45H1406.6z" fill="#353233"/><path d="M3217.1 850.7h90.53c12.64 0 12.64-23.36 0-23.36h-67.17V704.7c0-11.06-6.8-8.76-23.36-8.76V850.7z" fill="#343233"/><path d="M378.1 393.1c22.9 6.44 10.57 13.2 75.95 25.15 31.62 5.77 63.57 6.55 95.7 5-.6-15.06-6.87-23.9-22.06-27.74-27.43-6.93-137.92-17.56-149.6-2.4z" fill="#ec323c"/><path d="M324.87 85.55l-15.1 4.88c-4.35 7.2-39.65 29.22-47.87 35.9-5.56 4.52-4.55 4.8-10.92 9.56-4.83 3.6-8.14 5.18-11.77 8.78l-19.72 22.85 18.1-.13c30.32-25.32 71.84-58.13 107.43-74.38 41.12-18.8 132.57 25.26 147.44 15.95-3.2-11.02-15.48-13.64-36.63-19-38.77-9.83-102.76-29.84-130.96-4.42h0z" fill="#303435"/><path d="M4131.12 144c0-59.5 81.77-57.97 81.77 0 0 39.05-52.4 48.57-70.67 26.87-3.97-4.73-11.1-18.92-11.1-26.87zm-11.68-2.92c0 36 48.93 72.34 85.54 38.82 35.83-32.83 9.27-88.46-24.2-88.46h-17.53c-21.4 0-43.8 28.04-43.8 49.64z" fill="#343133"/><path d="M4180.77 135.25h-20.45v-14.6h20.45c8.22 0 5.4 1.26 8.76 5.84-1.74 6.5-.7 8.76-8.76 8.76zm-29.2 35.05h8.76V144c29.06.65 9.3 25.64 37.97 26.3l-17.52-26.3c23.26-.5 18.45-12.64 14.6-29.2-20.37-4.74-19.4-2.92-43.8-2.92v58.4z" fill="#333031"/><path d="M538.88 262.97l.87-13.67c-1.85-21.5-13.84-109.05-23.8-114.96-5.1 7.23 3.86 55.58 5.33 68.4 3.47 30.35 1.4 59.38 15.1 64.78.53-.7 1.08-1.62 1.33-2.23.24-.6.9-1.55 1.15-2.33h0z" fill="#fefdfd"/><path d="M139.45 204.7l3.1 10.93c18.24-39.68 55.7-31.6 103.96-46.9l-8.94-1.34-18.1.13c-20.22 1.36-33.95 2.83-53.94 6.35-19.17 3.38-26.4 10.36-26.1 30.82h0z" fill="#fef8f8"/><path d="M309.76 90.43l15.1-4.88c-4.46-12.2-10.8-20.73-17.1-31.5l-12.9-21.92c-4.7-6.3-1.27-2.52-6.7-6.38-4.93 9 .42 13.77 8.94 33.7 3.44 8.03 11.34 23.68 12.63 31h.01z" fill="#fefdfd"/><path d="M584.93 121.48c-3.54 8.26-5.2 12.08-9.48 19.17 9.14 1.27 20.95 3.6 28.56-.1l-.07-14.42-19-4.64z" fill="#ec323c"/></svg>