<svg xmlns="http://www.w3.org/2000/svg" width="499.588" height="236.827" viewBox="0 -0.987 499.588 236.827"><path fill="#c8135c" d="M117.9 235.84c65.12 0 117.914-52.876 117.914-117.9C235.812 52.797 183.02.013 117.9.013S.013 52.797.013 117.94c0 65.024 52.768 117.9 117.886 117.9"/><path d="M113.148 66.124V169.6h32.837v-9.297H122.64v-94.19h-9.493m-32.92 28.3c7.785 0 14.194-6.324 14.194-14.132 0-7.85-6.4-14.187-14.194-14.187s-14.153 6.338-14.153 14.187c0 7.8 6.367 14.132 14.153 14.132m42.413-75.112l-4.743-.035c-54.43 0-98.708 44.187-98.708 98.643 0 26.335 10.3 51.146 28.876 69.76 18.676 18.655 43.404 29.024 69.832 29.024 26.37 0 51.133-10.37 69.796-29.024 18.585-18.613 28.82-43.425 28.82-69.76v-4.5h-70.437v9.16h61.092c0 .185-.042 1.192-.042 1.398-3.007 46.594-41.984 83.37-89.228 83.37-23.858 0-46.417-9.26-63.28-26.1-16.885-16.885-26.235-39.4-26.235-63.316 0-23.887 9.352-46.367 26.235-63.245C71.482 37.747 94.042 28.43 117.9 28.43c1.06 0 3.57.056 4.743.08l-.002-9.198" fill="#fff"/><path fill="#595959" d="M294.813 58.973h34.78v88.454h51.77v29.46H294.8l.003-117.913m175.43 106.173c-6.135 9.382-17.458 14.74-31.767 14.74-30.7 0-50.672-24.47-50.672-62.088 0-38.27 22.632-61.813 59.63-61.813 14.952 0 27.616 3.933 37.302 11.442 9.91 7.863 13.688 15.545 15.265 31.075h-36.514c-.943-9.128-7.708-14.924-16.836-14.924-13.992 0-22.202 13.04-22.202 34.688 0 21.94 8.528 35.1 22.823 35.1 11.5 0 17.938-6.248 20.613-20.4h-22.49v-24.77H500v68.688h-29.758v-11.737"/></svg>