<svg xmlns="http://www.w3.org/2000/svg" width="1119.999" height="286.719" viewBox="0 0 29633.32 7586.12" shape-rendering="geometricPrecision" image-rendering="optimizeQuality" fill-rule="evenodd" fill="#00b7fa"><path d="M22536.1 3669.9c0 340.4 27.77 600 95.98 889.28 232.02 984.07 879.96 1849.4 1751.6 2350.24 270.12 155.2 347.18 183.4 621.92 289.72 56.97 22.05 110.58 38.93 167.3 54.46 402.93 110.36 627.6 160.1 1096.62 160.1V5898.95c0-50.6-46.04-38-98.28-37.25-241.28 3.5-558.6-88.63-771.44-177.22-216.03-89.9-485.65-270.94-655.1-441.28-214.02-215.14-366.9-450.62-487.34-732.12-14.6-34.14-23.2-65.8-34.8-100.7-341.93-1029.45 57.33-2047.3 980.12-2594.92 148.26-87.98 432.4-187.96 593.34-219.77 88.16-17.43 139.73-22.72 235.72-35.33 147.35-19.36 237.77 18.16 237.77-45.6V0c-563.45 0-1120.96 108.62-1622.36 361.22l-148 73.77c-319.82 159.67-651.9 428.15-906.5 682.6-547.27 546.96-1056.57 1461.1-1056.57 2552.3zm3770.4 886.7h1798.95v1798h1527.87V3029.5H26306.5zm-8723.65-3078.78v4261.03c0 28.38 8.57 36.95 36.96 36.95h726.97V4051.68c0-92.76 34.3-212.27 65.54-279.33 31.82-68.33 89-158.4 140.74-204.15 265.06-234.45 778.5-258.06 1034.77 43.56 114.93 135.26 151.3 353.74 151.3 600V5775.8h751.6V3866.95c0-301.35-119.98-658.3-329.54-865.2-273.8-270.3-543.76-366.32-951.9-366.32-271.7 0-500.43 90.13-700.12 223.87-67.67 45.32-102.3 105.37-162.4 145.58v-1564h-726.97c-28.4 0-36.96 8.57-36.96 36.95zM12518.7 3325.1c306.75 0 536.94 130.15 675.5 359.3 24.96 41.3 38.44 64.47 56.33 116.1 14.74 42.52 29.14 108.5 44.42 140.33H11730.1c85.83-368.2 397.6-615.75 788.58-615.75zm-1577.16 849.74c0 301.84 17.37 524.55 135.68 788.03 107.7 239.9 224.8 380.58 410.23 538.25 309.8 263.4 708.44 336.26 1129.82 336.26 304.12 0 550.6-88.36 767.5-181.16 153.05-65.5 469.67-276.4 550.9-397.65l-526.85-520.2-182.34 156.22c-243.3 183.4-563.1 294.4-887.93 211.53-219.85-56.1-368.42-161.2-490.38-347.3-25.34-38.66-41.6-68.17-60.22-112.23-18.66-44.18-26.7-87.7-45.52-126.92h2365.74c0-361.56 7.35-573.1-130.13-916.72-95.1-237.75-175.53-331.34-325.6-512l-63.48-59.7c-222.24-177.92-316.56-260.33-638.92-346.62-363.15-97.2-745.5-47.5-1079.3 91.42-179.4 74.67-334.82 192.75-461.26 314.84-94.86 91.6-186.22 210.46-250.42 328.52-25.92 47.68-47.78 78.73-69.56 127.5-67.82 151.92-148 411.27-148 627.95zm-4719.16-800.5c276.52 0 485.17 108.43 625.35 249.35 392.82 394.9 323.9 1024.17-105.87 1341.27-252.83 186.56-564.84 214.25-854.15 98.54-197.6-79.04-353.7-238.6-441.46-433.15-83.3-184.72-97.64-345.55-65.6-545.6 10.98-68.5 25-116.56 47.57-174.12 123.78-315.8 449.8-536.3 794.15-536.3zm-1626.44 825.1c0 394.05 75.6 719.54 299.05 1018.82 58.98 79 116.02 140.54 184.54 209.64 41.4 41.76 59.44 56.25 106.14 90.96 318.27 236.66 610.7 355.44 1061.35 355.44 240.17 0 484.5-69.87 656.66-144.18 49.33-21.3 86.2-41.34 129.57-67.54 135.4-81.75 225.9-140.7 344.28-259.33 192.82-193.2 288-362.6 383.3-614.4 146.9-388.18 107-910.04-111.42-1264.47-17.6-28.55-38.4-56.16-47.03-88.47 47.46-25.1 165.17-73.02 221.8-86.2v-615.76h-1035c-55.14 0-531.68-253.4-1239.37 42.05-341.48 142.56-646.64 441.06-801.97 774.78-78.03 167.64-151.9 409.48-151.9 648.67zm-1922.16-825.1c362.05 0 652.77 186 805.22 500.6 199.68 412.07 32.44 967.27-427.2 1182.62-269.4 126.23-619.8 90.2-863.86-76.95-31.06-21.27-32.92-26.8-61.7-49.2-199.04-154.84-298.26-413.8-308-673.78-18.2-486.23 388.34-883.3 855.53-883.3zM1059.65 4224.1c0 1309.2 1329.56 1962.88 2300.1 1510.73 1188.7-553.8 1259.42-2092.85 270-2811.04-40.15-29.15-78.48-49.77-121.86-75.24-47.07-27.64-82.43-43.9-131.3-65.8-444.08-199.06-926.5-193.84-1375.4-6.74-89.4 37.27-292.78 162.47-365.2 226.12-356.17 313.08-576.35 718.3-576.35 1221.97zm13282.63 0c0 388.26 82.87 651.1 290.75 965.54 147.7 223.4 405.58 433.1 654.4 540.5 484.3 209.07 984.25 188.65 1453.72-44.38 131.34-65.2 446.85-285.32 533.66-414.88-1.42-2.67-3.63-9.84-4.37-7.94-.74 1.88-3.52-6.24-4.57-7.76l-508.57-513.85c-39.42 10.52-125.25 106.2-194.2 163.03-374.82 309-915.18 318.83-1244.64-79.6-148.4-179.45-187.6-379.97-187.6-637.62 0-227.77 91.45-378.05 195.28-506.78 104.56-129.62 271.4-221.16 438.48-263.7 303.77-77.34 574.6 23.52 795.8 191.43 67.72 51.4 114.08 125.5 184.57 172.66 55.8-14.9 508.3-485.1 529.83-517.23-28.92-54.62-100.4-123.74-150.6-169.68l-173.12-147.16c-409.24-307.83-1041.25-368.34-1529.17-205.05-219.8 73.55-394.68 171.35-552.95 321.7-9.1 8.65-11.18 10.23-19.47 17.5l-13.33 11.3-6.6 5.7c-265.96 235.14-487.3 694.1-487.3 1126.25zM9684.74 2733.96h-394.3v677.33h394.3v2364.5h751.6V3411.3h431.25v-677.33h-431.25V1798h-751.6zM0 5788.1h751.6V1490.13c0-28.38-8.57-36.94-36.96-36.94H0v4334.9zm4595.94 258.63c0 430.27 187.07 778.72 454.15 1073.15l97.35 87.43c237.2 211.35 645.6 378.8 976.37 378.8 313.75 0 529.6-14 825.73-159.9 392.2-193.24 697.35-522.9 833.22-940.6 17.32-53.25 29-103 41.7-155.37 24.82-102.33 36.7-229.62 36.7-357.4h-751.62c-10.55 126.78-35.4 245.33-75.5 343.26-38.23 93.4-57.58 128.56-117.74 202.5-19.77 24.3-28.6 38.88-49.87 61-270.76 281.4-649.98 338.4-1008.74 188.76-295.3-123.18-497.82-469.1-497.82-795.53h-763.93v73.9zm3560.92-258.63h751.62V2733.96h-751.62zm-98.56-3903.9c0 473.13 567.9 659.64 878.37 360.68 351.27-338.25 13.93-877.9-348.54-877.9h-61.6c-258.98 0-468.22 254.08-468.22 517.23z"/></svg>