<svg xmlns="http://www.w3.org/2000/svg" width="1310.74" height="422.74" viewBox="0 0 34679.46 11184.46" shape-rendering="geometricPrecision" image-rendering="optimizeQuality" fill-rule="evenodd"><style><![CDATA[.K{fill:#fffefe}.L{fill:#020202}.M{fill:#020000}.N{fill:#fffdfd}.O{fill:#050101}.P{fill:#ed1c24}]]></style><path d="M3223.9 8477.54l-72.87 64.35c15.64-131.72 80.92-225.98 150.53-293.4 92.42-89.5 117.34-161.46 292.05-102.86l11 74.03c57.22 22.87 37.15 106.9 25.58 169-135.62 71.33-370.42 128.82-446.42 242.4-5.92-64.36 15.08-100.52 40.12-153.5zm-529.54-780.28l-71.15 67.44c14.52-199.1 192.46-481.43 323.3-524.17 96.53-31.53 157.26 44.64 172 122.25 40.36 41.94 56.57 108.87 20.1 177.2-56.83 106.44-255.42 74.03-473.92 299.87l29.66-142.58zM4426.8 6746l167.3-45.47c-1.8 8.9-6.55 9.1-8.38 14.95l-145.6 104.2 120.1 20.7 2.2 77.85 39.13 8.55c8.37 121.34-41.08 173.48-72.9 260.58 82.3-40.5 189-150.6 224.35-226.5-41.55-54.73-32.06-4-52.14-73.58 67.4-116.5 399.2-186.57 495.62-45.07-117.98-22.37-218.45-99.1-249.24 11.07 109.72-34.33 230.85.67 286.88 64.6-107.3-16.42-123.52-57-238.53-32.35-64 188.6-1.14 204.73-155.63 356.42-48.13 47.27-97.4 72.1-163.06 101.5-183.65 82.25-69.95 91.06-172.5 90.7 395.16 131.74 343.07-258.24 731.62-105.78 36.4 14.3 68.62 33.23 93.76 54 101.77 84.03 54 72.84 49.7 77 23.88 33.97 29.7 30.27 53.77 75.52-115.38-38.23-211.92-144.6-340.57-25.56-40.96 37.9-73.03 103.73-104.92 131.45-55.4 48.17-85.2-10.94-173.15 1.9-161.63 23.6-159.1 93.8-367.23 48.4-68.67-14.97-139.84-36.12-212.57-28.6-44.9 4.64-61.9 16.75-79.66 41.54-20.22 28.2-9.6 17.55-20.02 40l-15.56 34.13c-1.33 2.85-3.3 7.97-5.6 11.58l-108.63-361.28c-12.14-95.52-29.66-274.33-19.38-365.45 65.44 72.76 11.3 148.92 102.62 225.4 88.52 35.76 219.76-155.94 203.37-299.34-23.52-17.98-221.9-78.32-22.5-244.77 75.93-63.38 188.16-118 317.88-116.77-76.9 30.66-122.85 58.1-160.54 118.48zm3054.63-200.82l108.35 1.44c-44.15 57.72-126.43 118.23-209.6 82.24-7.4-49.43-11.4-27.27 5.7-62.8l-34.9-11.24 2.53-63.42c58.43-24.34 136.47-23.92 212.58-23-21.63 40.68 12.68 7.66-39.3 48.38-16.5 12.9-33.34 20.35-45.38 28.38zm-83.17-557.48c-7.22-74.93 51.36-87.18 116.66-105.5-20.23 67.25-41.32 98.93-116.66 105.5zm-24.47-77.76c-9.57-73.62 67.9-84.5 123.74-107.95-18.05 62.25-47.46 108.8-123.74 107.95zM4552.95 5574.6l380.25 26.78c-3.67 2.8-9.5 1.35-11.73 6.82l-35.5 15.7a3985.1 3985.1 0 0 1-50.27 9.14c-39.04 5.26-79.63 9.08-117.48 12.13-87.67 7.05-174.54 8.4-262.4 4.62-159.44-6.86-309.06-30.68-453.53-74.67-138.2-42.07-260.12-98-362.2-166.98-61.77-41.74-255.2-195.47-228.77-267.13-22.54-51.7-41.66-40-19.13-98.1 112.33-12.7 75.8 48.6 298.38 197.07 464.23 309.67 811.02 225.53 1272.25 288.48-27.1-1.14-135.42 26.7-185.86 32.37-76.04 8.54-148 8.85-224.03 13.77zm2051.82-46.63l26.85 78.16c-120.4-47.84-343.16-134.64-457.3-46.3-25.9 26.33 12.1 5.34-30.64 18.3-20.78 6.3-16.75 5.26-39.58 6.67-21.13 1.3-59.25-3.65-81.57-5.57l152.38 10.5 16.6 68.76-175 6.26c-40.42-23.32-279.4-60.88-341.37-205.92l57.5 20.66c-16.87-22.7-65.88-70.8-80.03-101.8 88.8 33.16 153.43 86.3 274.65 71 110.43-13.9 195.02-61.4 212.23-152.43-48.56-23.2-68.55-49.8-117.72-78.7-163.03-95.86-327.4-107.22-415.32-168.27l145.75-4.2c-57.62-32.54-112.2-38.24-171.97-77.32 238.5-14.77 474.07 45.28 654.38 139.8 162 84.93 396.8 334.95 370.15 420.36zM5985.1 4274.75l214.8-160.4c-60.2 129.03-279.82 302.1-415.92 393.17-487.35 326.1-1510.63 590.17-1947.06 322.56 15.14-48.6-3.65-10.74 17.87-46.5-45.2-45.65-20.25-3.77-39.02-66.95 337.85-76.78 1130 79.23 1925.64-369.44 179.9-101.45 298.92-207.9 442.6-308.05-122.32 166.78-132.92 151.97-198.9 235.63zm-2327.25-724.8l94.9-33.7c-96.25 145.96-276.13 320.05-418.57 526.38-44.8 64.92-78.9 156.28-118.46 208.8 95.14 86.78 203.4-123.86 256.8-163.3 73.7 192.97 345.3 270.15 601.1 286.48 554.45 35.4 1277.35-164.84 1712-498.7 93.84-72.08 110.45-144.28 272.5-182.75-36.2 50.22-73.62 66.62-101.92 122.54l120.5-47.5c-55.54 89.02-345.23 353.68-438.9 416.26-186.74 124.74-341.76 202.52-580 287.15-334.07 118.66-737.88 166.86-1102.06 182.8-106.5 4.67-278.2-8.2-353.5 82.5 82.7 86.6 314.7 183.12 459.36 219.28 199.4 49.85 418.6 58.35 629.8 33.25 198.17-23.55 384.24-71.73 559.44-132.8 174-60.67 329.3-144.97 479.65-199.9l-247.28 189.43 253.12-105.44c-77.33 97.36-338.7 235.55-497.6 295.26-540.83 203.17-1174.93 191.15-1723.73 11.77-177.63-58.06-210.22-88.5-307.8 10.28 53.9 157.72 259.45 455.42 361.46 583.7 60.77 76.43 160.3 152.92 255.93 214.9 100.05 64.84 239.06 105.43 327.53 161.16l-196.63-31.36c50.42 51 150.7 64.57 208.82 106.96-505.1-8.3-1048.8-627-1071.87-858.1l-86.6-208.13c-29.5 228.45 151.06 538.46 244.98 667.62 62.1 85.4 146.35 189.75 211.78 259.25 85.67 91 136.27 119.54 224.63 240.75l-119.07 16.83 95.27-3.94 42.34 66.2c-46.73 8.4-93.54 2.8-138.8 25.63 219.95 14.77 296.5 46.5 355.93 234.43 25.4 25.92 30.73 32.3 40.6 82.34 6.7 34.05 7.74 82.42 4.38 119.9-6.72 75.04-29.35 137.43-59.35 194.26l34.47-6.06c13.4 339.33-23.86 498.7 69.7 832.5 75.22 268.36 166.72 433.05 348.62 549.84 393.78 252.8 1059.65 138.82 1496.2-17.46 557.65-199.63 676.88-386.6 947.9-846.9 132.07-224.3 522.45-1091 287-1366.6-101.5-36.95-105.72-127.43-459.42-131.24-97.7-1.05-196.4 4.12-294.23 5.6-147.14 2.2-185.88-42.8-209.08 96.65 106.9 92.9 257.33 73.48 416.22 93.64l-146.94 55.5 186.08 20.3c-164.92 103.95-505.4 115.94-710.57 61.75-192.66-50.88-448.44-230.18-488.05-364.62-46.06-76.34-115.65-159.57-136.82-264.8 58.4 46.7 154.13 191.42 273.13 289.35 110.73 91.1 286.1 156.46 428.16 47.84 15.82-121.6-51.57-140.14-133.3-181.8-210.56-107.32-404.47-337.6-350.3-612.88-2.6 74.1 122.8 288.8 162.45 330.82 57.23 60.67 249.63 165.77 386.78 142.96 62.05 34.55 366.7-1.53 432.3-8.25 962.54-98.6 745.66 149.16 951.1 459.14 37 17.5 40.6 129.74 29.57 186.36-17.03 87.38-58.76 116.3-75.97 189.4-64.05 93.13-72.03 424.67-110.44 564.52-27.28 99.35-61.17 166-117.2 221.5-60.76 60.2-103.2 122.77-162.74 193.3l255.5 87.2-94.6 44.67 115.24 35.02c-145.2 53.22-227.85 114.67-340.37-18-33 114.36-71.84 216.57-96.3 333.5-30.03 143.6-28.04 225.73-114.5 313.88-169.14 172.43-468.08 137.12-614.84 241.22 24.68 46.46 54.08 100.5 65.5 183.46 6.6 47.82 44.1 165.4 41.34 174.18l27.24 77.88c-94.56-27.2-245.28-163.52-249.8-262.43l-30.5-93.9c-148.25 71.9-258.83 221.82-414.93 284-218.23 86.92-417.8-89.43-590-30.2 87.88-3.34 144.62 43.82 109.33 130.85 144.27 3.93-146.08 245.98-165.58 267.66-29.1 32.33-39.53 70.1-72.47 105.22l-1.7-85.76c-23.82 7.95-104-192.27 110.04-416.64-249.32 14.3-390.47 191.06-514.48-100.9l-31.76-45.04c-47.97-20.82-18.4-13.53-62.7-41.2-24.78-15.48-46.22-22.56-77.7-31.13l19.92 71.6c112.86 108.4-27 190.25-103.26 236.16-46.47 27.97-81.9 48.44-123.46 82.33l-89.75 89c-2.65 2.63-6.22 5.92-8.7 8.32-2.57 2.48-7.08 6.38-9.23 8.4a251.4 251.4 0 0 1-9.49 8.47l5.62-113.04c-16.43 15.77-1.16-1.82-23.52 24.76-3.7 4.4-14.87 19.62-17.52 23.02-21.02-217.7 105.5-394.88 217.55-480.06-125.5 1.12-321.23-17.1-313.34-120.28-88.13-98.1-68.67-223.97-134.3-332.13-51.44-84.78-167.84-148.67-265.2-206.4-401.03-237.75-37.84-449.42-151.93-638.1-116.28-52.24-129.77-71.84-294.35-89.16 19.2-40.6 19.57-62.56 76.6-60.03l-116.02-18.6c203.65-357.75 216.08-668.07 355.94-736.52 84.72-41.47 222.8-40.6 296.47-87.75-196.88 1.5-389 86.6-460.64 203.12-72.24 117.5-102.38 396.7-198.62 477.18-37.08-45.75-120.5-217.54-128.34-278.8-14.52-62.6-58.88-147.4-85.1-212.75-29.54-73.7-56.04-151.4-80.07-228.87-162.37-523.58-208.52-1046.12-18.2-1562.13 163.25-442.64 401.35-783.93 792.4-1047.03 103.37-69.55 291.76-175.7 393.87-208.18-14.53 14.42-22.8 29.2-37.54 47.95l-20.53 25.63c-29.47 39.66-5.1-.92-26.53 39.55zm1281.12-1445.8c-73.7 50.3-120.3 113.5-214.1 69.8-138.37-64.46-222.43-185.4-256.12-214.23-42.33-36.25-41.38-25.83-75.82-71.3-39.1-51.62-100.95-115.55-126.73-180.18l672.77 395.92zm2571.18 970.18c13.03 23.38 24.9 38.7 32.2 68.82-16.67-20.05-75.03-73.37-103.04-93.98-36.2-26.63-75.37-51.56-124.32-57.3-3.58 172.16-1.8 351.66-115.25 427.64l-3.7-91c-45.4 13.1-31.3 8.28-57.03-181.1-106.87 39.7-156.3 144.24-279.04 156.82 25.83-34.15 69.87-75.5 91.52-124.1l-126.23 44.47 92.1-128.18c-224.22-32.4-289.03 66.52-436 131.87l-22.15-79.72-49.7-69.85c-216.36 87.93-77.7 31.74-193.42 117.6 120.46 126.45 314.05-34.46 389.1 148.12l30.88-60.96c1.12-2.04 4.92-4.14 5.74-9.2.83-5.08 3.48-6.44 5.88-9.16 74.66 74.03 172.5 196.48 218.32 312.1 45.1-14.42 80.72-37.13 102.97-77 16.75-30 11.77-33.58 22.54-64.43 6.2-17.74 6.42-17.42 13.75-33.6l42.73 156.2c40.6-26.12 23.12-22.36 60.33-59.72l2.4 171.18 18.02-95.62c12.93 16.42 5.85-12.72 17.6 33.3 36.12 141.56-30.27 407.95-249.7 467.9l17.03-92.46-55.62 15.5 20.2-116.03c-149.15-35.45-282.97 20.54-428.77 33.7 45.9-54.28 60.02-36.68 124.52-103.94l-173.86 26.4c77.33-59.2 133.96-72.32 179.8-159.3-118.4-12.25-217.94-95.15-322-66.7-109.33 29.9-35.68 22.08-143.82-3.15-186.6-43.52-278.7 126.95-503.4 47.74-102.96-36.3-184.96-98-210.7-186.2-1.65-3.18-4.45-7.26-5.63-9.16l-38.94-63.92c-12.54-24.16-26.74-59.5-31.16-88-14.4-92.96 11.77-125.23 51.05-188.58-95.24 70.88-77.87 135.82-124.2 244.15-497.5-92.08-794.4-161.88-1326.48-56.47-1149.95 227.84-1768.5 1347.43-1664.53 2446.08 7.8 82.33 58.04 256.3 38.8 309.16 127.4 392.87 271.5 531.35 352.03 736.44-36.1-20.6-3.68.92-36.47-27.7-322.57-281.7-535.6-637.62-682.93-1049.74-18.1 12.7-38.52 7.6-51.6 89.62-6.1 38.12-5.18 62.36-13.2 103.22-240.66-277.64 76.33-1169.9 208.05-1440.98-94.4 50.43-131.5 154.65-206.7 191.15l4.82-98.88-43.48 21.67c-3.1-259.72 75.24-375.26 163.2-570.6l-9.3-78.5-35.5 45.5-4.12-110.66-8.76 24.2c-124.38-93.67-300.9-70.78-360.5-234.54-28.23-12.3-3.73 3.56-28.66-15.97-3.25-2.55-11.64-11.9-14.8-14.8-67.9-62.5-68.23-33.5-149.66-71.1l2.77-58.6c-82.65-26.16-26.78-123.14-85.98-253.7-40.67-89.7-155.06-85.8-260.15-95.52 40.67-4.72 235.47-113.94 419.84 95.98 61.1 69.57 36.72 129.88 118.25 190.67 44.07 32.86 157.23 89.88 218.77 97.52 8.36-200.87-72.44-94.46-137.26-326.64-73.62-263.67 38-223.9 42.72-370.3-60.5-58.84-135.87-38.94-215.43-71.5 192.5-21.5 340.93 93.28 368.84 246.45-36.15 44.5-71.16 22.4-81.77 88.53-6.33 39.46 15.38 101.77 28.57 140.37 21.7 63.53 65.84 188.96 124.58 211.08 11.57-98.55-5.35-198.55 19.57-289.04 39.26-142.62 89.5-51.42 193.32-73.53 26.02-96.5-57.92-176.87-103.48-219.26 81.8 47.17 208.72 142.23 228 257.52 27.85 22.22 34.07 17.7 38.9 75.4 5.3 62.93-14.6 113.45-77.9 133.95-90.42 29.3-121.44-.1-120.26 218.57 65.45 44.9 156.8-48.57 214.66-66.18-39.35 53.36-91.9 105.08-121.5 159.87l98.58-47.02c45.6-33.64 69.2-80.53 115.45-121.04 29.4-25.76 41.64-31.65 63.66-53.26 35.88-35.22 27.3-22.4 47.53-65.83l-133.26 43.86c21.54-22.05 36.63-42.38 66.06-71.84 35.7-35.72 45.94-22.75 81.33-75.52l-189.5 71.35c27.3-21.7 44.08-52.06 81.2-81.56 248.07-197.14 398.96-289.07 718.1-414.9 555.78-219.14 731.54-145.67 1069.1-225.02-143.77-53.04-391.45-42.06-495.8-94.9 334.34-77.2 683-97.45 1002.4-222.7 171.5-67.27 193.36-102.68 264.53-134.7 139.2 61.2 266.47 206.45 474.12 192.95-16.25-35.9-92.36-94.14-129.96-122.96-153.16-117.4-363.12-348.8-497.12-502.97-79.34-91.28-265.05-346.93-277.5-458.67l216.67 239.73c255.78 250.9 449.8 418.3 792.7 590.05 477.2 239 517.58 61.5 733.16 103.74 206.66 40.5 176.7 76.8 233.5 237.46 43.1 121.88 132.9 182.72 292.8 163.37 34.84 40.1 45.47 89.27 106.1 104.88 73.77 19 99.5-21.72 173.34-35.26 52.53 37.55 41.82 65.33 104.56 106.43 115.8 75.85 219.6 98.44 302.03 294.52zM329.16 2080.4C273.6 3885.64 696.84 6186.92 1389.73 7601.1c545.03 1112.4 1225.12 2083.86 2209.87 2733.52 163.75 108.02 326.98 210.45 516.54 307.3 87.88 44.9 503.17 240.27 592 245.87 76 4.8 502.58-194.06 583.98-235.58 2046.6-1043.92 3101.32-3364.93 3536-5541.62 184.37-923.2 299.54-2060.65 274.1-3035.08-148.64-70.92-668.97-408-971.86-557.02-790.16-388.7-1294.6-648.07-2166.08-922.68-198.96-62.7-390.52-119.28-595.62-170.94-667.8-168.18-647.33-165.16-1287.15-5.78-1151.54 286.85-2247.62 784.44-3266.76 1367.5-146.24 83.66-355.74 197.02-485.6 293.82z" class="P"/><path d="M10662.68 8550.23h2367.86c49.28-102.8 88.64-242.84 132.37-353.2l656.15-1801.07c85.52-246.76 181.47-473.06 264.97-720.86 112.24-333.06 220.45-531.88 416.96-789.53 21.55-28.25 30.9-35.03 54.54-63.16 121-144 174.55-192 316.67-315.93 290.42-253.26 847.26-591.93 1379.2-591.93 342.66 0 558.87 146.82 558.87 500.36 0 182.9-94.88 406.25-145.2 546.36l-551.4 1523.28c-192.6 567.14-447.97 1204.9-647.4 1780.4-26.38 76.13-80.84 192.23-82.58 270.56h2367.85l905.58-2493.34c154.7-403.33 202.18-646.8 450.4-1020.96 33-49.75 60.92-92.5 97.74-137.66 20.86-25.58 34.9-35.16 56.7-60.98 27.06-32 28-40.64 59.26-73.15l386.35-349.23c108.96-81.92 335.26-225.95 456.1-279.42 285.12-126.15 888.98-346 1208.45-91.12 337.7 269.4 38.86 811.18-78 1163.42-15.4 46.4-29.95 76.9-48 128.58-17.65 50.55-25.46 82.35-44.65 131.92-192.4 497.15-372.46 1065.57-556.97 1532.4-121.27 306.8-247.06 702.9-371.87 1025.95-64.45 166.82-182.7 448.47-182.7 582.44h2338.43c4.7-56.64 356.08-994.35 406.14-1138.82 101.78-293.67 215.17-566.9 308.94-853.47l518.2-1424.04c121.46-325.28 355.1-887.07 355.1-1204.6 0-537.12-120.75-808.96-541.03-1092.16-807.03-543.8-2304.4-270-3091.42 76.95l-486.2 234.58c-99 57.57-207.35 105.34-307.53 163.2l-309.52 175.93c-6.27-281.8-346.6-580.2-567.04-712.92-429.06-258.3-811.8-258.36-1330.18-258.36-635.53 0-1562 271.22-2115.88 575.9l-531.4 292.38c-49.67 26.84-101.17 57.54-147.07 88.3-23.76-285.8-367.84-619.7-622.47-745.76-111.72-55.3-97.76-61.16-232.25-106.08-290.42-97.02-566.65-134.16-895.43-134.16l-2176.66 6019zM23649.1 7461.2c-24 103.03-284.7 749.88-308.85 853.55 101.2 48.6 925.5 162.94 1074.9 175.33 1110.82 92.15 1938.07 134.5 3051.52-49.18 333.16-54.97 821.3-186 1114.25-327.25 215.46-103.9 494.68-242.5 668.07-405.82 252.1-237.45 287.03-254.67 482.74-605.96 41.18-73.9 71.15-166.2 100.2-252.94 143.06-427.22-11.15-911.03-343.95-1168.54l-362.75-240.4c-135.54-73.72-252.46-140.8-392.35-210.77-300.82-150.5-1421.7-640.2-1421.7-990.9 0-1114.62 2549.62-758.38 3227.07-653.73l493.84 79.8c15.83-68 38.42-112.76 60.68-174.74l223.1-604.25c23.5-82.46 32.32-58.74-221.1-107.84-1119.86-216.95-2402-265.22-3560.44-126.06-635.74 76.38-1479.52 308.62-1985.93 691.2-382.75 289.16-696.04 681.68-753.5 1188.63-34.12 301 71.5 562 207.04 737.38 30.86 39.93 69.85 92.68 106.27 129.12 185.34 185.4 713.15 477.47 963.75 595.58 314.03 148 1144.37 536.54 1264.53 809.72 91.28 207.5-58.63 499.82-266.27 637.72-96.45 64.05-210.04 115.27-338.24 147.2-233.73 58.2-196.54 39.56-414.48 70.9l-462.66 23.37c-97.5.35-126.85-15.43-219.76-15.56-80.4-.1-171.56 4.84-250.6.57l-454.98-30.37c-141.1-10.8-292.02-29.75-439.48-45.9l-840.9-129.84zm8015.4-3208.16c-5.1 61.28-244.52 686.66-285.1 803.74l-874.65 2406.56c-35.2 94.36-59.37 174.98-96.57 271.27-35.68 92.35-68.16 177.66-98.56 269.3-26.5 79.9-183.83 479.63-189.38 546.33h2382.56l821.48-2268.46c71.03-190.25 127.98-372.2 201.8-563.3 38.7-100.17 61.97-181.74 100.66-281.9 39.4-102 69.5-186.76 105.8-291.48 34.03-98.2 70-180.83 103.2-279.37l202.18-562.94c28.07-85.77 90.5-217.08 97.38-299.9-654.15 0-1824.7 99.56-2470.8 250.18z"/><path d="M329.16 2080.4c129.86-96.8 339.36-210.16 485.6-293.82C1833.9 1203.52 2929.98 705.93 4081.52 419.08c639.82-159.38 619.35-162.4 1287.15 5.78 205.1 51.66 396.66 108.24 595.62 170.94 871.47 274.6 1375.92 533.97 2166.08 922.68 302.9 149 823.22 486.1 971.86 557.02 25.44 974.43-89.73 2111.87-274.1 3035.08-434.68 2176.7-1489.4 4497.7-3536 5541.62-81.4 41.52-507.97 240.37-583.98 235.58-88.84-5.6-504.13-200.97-592-245.87-189.56-96.85-352.8-199.28-516.54-307.3-984.75-649.66-1664.84-1621.1-2209.87-2733.52C696.84 6186.92 273.6 3885.64 329.16 2080.4zM0 2771.66V1898.4c99.27-23.14 1029.83-578.43 1191.1-662.42 862.42-449.23 1858.63-876.97 2806-1106.8 107.8-26.15 218.3-50.12 337.83-74C4437.44 34.7 4566.16 0 4691.58 0c156 0 560.34 89.04 707.8 130.58 223.26 62.87 423.68 112.32 639.54 184.18 469.96 156.44 723.17 243.2 1196.58 450.9l563.53 260.24c86.08 36.76 195.62 92.8 272.34 139.54l402.8 215.05 130.27 75.67 261.2 150.7c89.27 53.93 168.74 100 255.67 156.23 91.43 59.14 232.44 115.53 232.44 164.76 0 1327.6-51.56 2301.48-344 3585.05-194.18 852.24-319.78 1162.06-611.96 1904.16l-264.73 559.23c-329.44 659.3-571.5 978.27-1002.24 1513.63l-509.03 535.5-691.66 544.08c-156 105.2-499.82 305.73-665.15 379.3-75.33 33.5-537.26 235.65-588.1 235.65-61.1 0-668.25-260.56-776.63-326.6-50.06-30.5-91.82-45.96-143.7-76.95-315.7-188.53-749.08-477.2-1009.98-740.64-75.4-76.15-143.73-129.06-220.8-205.82l-412.53-470.2c-150.98-186.6-332.33-425.77-457.5-631.22-498.3-817.83-736.17-1314.64-1039.87-2226.5-70.06-210.34-137.4-442.2-195.37-672.77C268.1 5227.6 158.98 4599.07 88.24 3973.43L0 2771.66z" fill="#c7c6c6"/><path d="M6481.46 2616.87c-89.9 1.13-133.62-10.9-182.7-60.02-37.82-37.84-73.87-68.36-106.28-124.2l245.1 59.8 43.88 124.4zM2535.68 3263.5l139.82-48.4c-18.3 38.33-116.57 132.34-153.95 151.9-20.23 43.42-11.65 30.6-47.53 65.83-22.02 21.6-34.26 27.5-63.66 53.26-46.25 40.5-69.84 87.4-115.45 121.04-18.44 36.5-50.06 62.82-78.16 97.36-31.4 38.6-51.57 63.7-77.4 99.16-50.6 69.42-102.6 139.44-146.78 214.73-87.96 195.34-166.3 310.88-163.2 570.6l43.48-21.67c37.44-63.4 161.2-200.4 255.9-226.46l-54 134.2C1943 4746.13 1626 5638.38 1866.67 5916.02c8.03-40.86 7.12-65.1 13.2-103.22 13.1-82 33.52-76.93 51.6-89.62 147.34 412.12 360.36 768.03 682.93 1049.74 32.8 28.63.38 7.1 36.47 27.7-80.54-205.1-224.64-343.57-352.03-736.44-104.12-467.47-133-852.96 14.43-1336.08 229.96-753.55 746.9-1312.94 1540.33-1488.65 541.66-119.96 855.45-45.03 1352.7 46.88l28.54-64.6c10.03-28.65 15.5-49.2 26.72-76 67.2-160.37 199.97-209.75 380.34-180.74-99.2 37.22-217.45 94.65-266.65 156.27-39.28 63.35-65.44 95.62-51.05 188.58 4.42 28.5 18.62 63.85 31.16 88l38.94 63.92c1.18 1.9 3.98 5.98 5.63 9.16 77.23 51.1 122.16 118.52 264.22 129.77 151 11.97 210.26-72.12 336.2-75.83 70.5-2.08 122.73 29.87 160.12 28.02 69.17-3.42 55.84-49.06 170.46-14.25 127.57 38.76 262.43 68.42 248.94 140.6-45.85 86.97-102.48 100.08-179.8 159.3l173.86-26.4c126.76-18.53 287.1-62.33 304.25 70.23L6858 3998.4l55.62-15.5c52.4-42.24 84.38-52.6 126.97-116.63 36.83-55.4 57.54-117.5 70.08-196.47l-2.4-171.18c-37.2 37.36-19.74 33.6-60.33 59.72l-42.73-156.2c-7.33 16.2-7.56 15.87-13.75 33.6-10.77 30.85-5.8 34.43-22.54 64.43-22.25 39.86-57.86 62.57-102.97 77-45.8-115.62-143.66-238.07-218.32-312.1-2.4 2.72-5.05 4.08-5.88 9.16-.82 5.07-4.62 7.17-5.74 9.2l-30.88 60.96c-75.04-182.58-268.63-21.67-389.1-148.12-88-104.2 70.7-188.16 176.58-188.5l16.84 70.92 49.7 69.85c55.8-38.1 447.74-269.28 458.16-52.15l-92.1 128.18 126.23-44.47c23.24-34.33 108.62-96.06 150.18-114.94l37.34 82.2c25.73 189.4 11.62 194.2 57.03 181.1 66.45-173.13 77.58-175.97 78.77-407.28 87.14-12.44 200.84 115.23 235.35 153.1-82.44-196.08-186.24-218.67-302.03-294.52-62.74-41.1-52.03-68.88-104.56-106.43-73.85 13.54-99.57 54.26-173.34 35.26-60.62-15.6-71.25-64.77-106.1-104.88-159.9 19.35-249.7-41.5-292.8-163.37-56.82-160.65-26.85-196.97-233.5-237.46-215.58-42.24-255.97 135.26-733.16-103.74-342.9-171.74-536.92-339.14-792.7-590.05l-216.67-239.73c12.44 111.74 198.15 367.4 277.5 458.67 134 154.16 343.96 385.58 497.12 502.97 37.6 28.82 113.7 87.05 129.96 122.96-207.65 13.5-334.9-131.74-474.12-192.95-71.17 32-93.02 67.42-264.53 134.7-319.38 125.26-668.05 145.5-1002.4 222.7 104.34 52.85 352.02 41.87 495.8 94.9-337.55 79.35-513.3 5.88-1069.1 225.02-319.15 125.84-470.04 217.77-718.1 414.9-37.13 29.5-53.9 59.87-81.2 81.56l189.5-71.35zm2850.74 2649.8c63.34 55 98.78 107.03 185.44 166.68 64.94 44.7 139.24 80.75 228.95 110.15 191.83 62.88 399.5 55 598.15 5.73l146.94-55.5c-158.9-20.16-309.33-.75-416.22-93.64-63.53-51.6-38.77-96.16-10.43-173.35 349.93-6.16 842.86-68.23 973.16 202.35 235.45 275.6-154.93 1142.3-287 1366.6-271.03 460.3-390.26 647.26-947.9 846.9-436.56 156.28-1102.43 270.27-1496.2 17.46-181.9-116.8-273.4-281.48-348.62-549.84-93.56-333.8-56.3-493.18-69.7-832.5l-34.47 6.06c-36.2 46.83-185.86 147.6-260.18 165.3-139.14 89.43-371.87 63.13-462.03-57.03-162.8-213.45 284.2-545.62 419.4-267.06 22.62 53.87-46.73 111.92-105.97 113.6-70.8 2-115.7-51.85-147.88-96.35-39.8-4.44-15.45-7.33-24.12 17.12-7.37 110.08 30.8 117.62 56.76 164.37 311.38 168.24 590.22-90.23 538.4-436.44-59.44-187.94-135.98-219.66-355.93-234.43l-39.8-5.2c-73.68 47.15-211.75 46.28-296.47 87.75-139.86 68.45-152.3 378.77-355.94 736.52l116.02 18.6c118.3 16.16 182.43 61.42 217.76 149.2 114.1 188.67-249.1 400.34 151.93 638.1 97.37 57.72 213.77 121.6 265.2 206.4 65.63 108.16 46.17 234.03 134.3 332.13 250.2 100.06 461.38-17.12 595.58 233.63l31.76 45.04c144 190.38 316.16 11.02 569.07 15.05 249.96 3.98 353.28 154.37 607.4-10.52 142.5-92.46 262.9-221.52 431.56-304.07 166.5-81.5 407.2-94.9 566.2-183.92 205.2-114.88 153.62-259.16 232.85-502.86 85.95-264.36 93.76-320.88 246.68-503.75 179.68-214.86 160.56-214.9 204.9-530.7 67.67-481.96 141.13-332.1 153.97-605.18-205.43-309.98 11.45-557.75-951.1-459.14-65.6 6.72-370.26 42.8-432.3 8.25-137.15 22.8-329.55-82.3-386.78-142.96-39.64-42-165.04-256.72-162.45-330.82-54.18 275.28 139.73 505.56 350.3 612.88 81.74 41.67 149.13 60.2 133.3 181.8-142.06 108.62-317.43 43.27-428.16-47.84-119-97.93-214.74-242.66-273.13-289.35 21.17 105.24 90.76 188.47 136.82 264.8zm-2646.87 782.47c37.28 62.94 61.48 158.07 116.33 206 195.9-361.6 74.27-668.93 712.24-690.2l119.07-16.83c-88.36-121.2-138.96-149.74-224.63-240.75-65.43-69.5-149.68-173.84-211.78-259.25-93.92-129.16-274.5-439.17-244.98-667.62l86.6 208.13c53.05 68.92 101.3 168.95 156.42 240.73 57.16 74.44 133.35 159.93 197.63 214.45 153.97 130.57 268.76 218.7 509 295.96l196.63 31.36c-88.47-55.73-227.48-96.32-327.53-161.16-95.63-61.97-195.16-138.46-255.93-214.9-102-128.27-307.56-425.97-361.46-583.7-62.64-121.55 62.48-153.66 161.5-129.02 89.8 22.34 183.6 61.05 280.8 86.9 204.92 54.5 421.83 86.22 644.8 91.8 311.72 7.78 650.4-39.37 936.3-153.15 86.32-34.36 178.8-83.54 252.6-108.4l247.28-189.43c-150.35 54.94-305.64 139.24-479.65 199.9-175.2 61.08-361.27 109.26-559.44 132.8-211.2 25.1-430.4 16.6-629.8-33.25-144.65-36.16-376.67-132.67-459.36-219.28-185.22-179.52 506.55-168.4 603.92-177.12 535.65-48.02 1132.04-195.7 1537.53-548.95l212.5-195.14c28.3-55.92 65.7-72.32 101.92-122.54-162.05 38.47-178.66 110.67-272.5 182.75-434.64 333.85-1157.54 534.1-1712 498.7-255.8-16.33-527.4-93.5-601.1-286.48-53.4 39.44-161.67 250.08-256.8 163.3-51.7-102.7 125.4-323.8 174.2-388.37 64.1-84.8 194.6-256.65 267.95-313.1 21.44-40.47-2.94.1 26.53-39.55.47-.63 16.43-20.4 20.53-25.63 14.74-18.76 23-33.53 37.54-47.95-102.1 32.5-290.5 138.63-393.87 208.18-391.04 263.1-629.14 604.4-792.4 1047.03-190.3 516-144.16 1038.55 18.2 1562.13 24.03 77.47 50.53 155.17 80.07 228.87 26.2 65.36 70.57 150.15 85.1 212.75z" class="K"/><path d="M31899.8 3634.95c81.58 0 458.12-73.02 585.73-90.85 197.14-27.54 385.92-50.82 603.07-73.5 410.78-42.92 817.15-71.1 1282-71.1l308.85-883-793.37 44.97c-55.37 4.34-50.94 12.3-118.34 14.04-140.72 3.6-310.37 16.27-449.85 35.5-222.37 30.67-876.4 98.25-1059.98 146.1-70.98 18.5-55 33.96-95.1 155.03l-263 722.82z"/><path d="M4094.38 7724.4c-14.4-217.75 225.08-121.9 362.7-100.7 95.95 14.77 160.22-7.57 243.65-35.5 150.62-50.43 120.83.35 243.57-9.37 115.06-192.9 196.78-257.37 435.2-119.44 4.3-4.15 52.07 7.04-49.7-77-25.14-20.76-57.35-39.7-93.76-54-388.55-152.46-336.46 237.52-731.62 105.78-17.72-22.42-25.7 32.8-10.34-52.4 8.7-48.17 58.37-75.06 97.57-94.2 68.9-33.62 116.57-49.72 172.43-92.1 93.56-70.98 167.15-168.27 183.18-342.23 30.8-110.16 131.26-33.44 249.24-11.07-96.42-141.5-428.23-71.43-495.62 45.07 20.08 69.6 10.6 18.85 52.14 73.58-35.36 75.9-142.06 185.98-224.35 226.5-45.53 35.86-45.8 45.8-119.56 67.63 16.28-102.73 126.1-182.12 153.32-336.76l-2.2-77.85-120.1-20.7-34.07-35.4c15.63-50.56-4.5-17.1 20.73-38.26 37.7-60.38 83.64-87.82 160.54-118.48-129.72-1.24-241.95 53.4-317.88 116.77-199.4 166.45-1.02 226.8 22.5 244.77 16.4 143.4-114.85 335.1-203.37 299.34-91.3-76.47-37.18-152.63-102.62-225.4-10.28 91.12 7.24 269.93 19.38 365.45l89.03 295.93zM1384.04 3503.9c114.46 37.77 147.15 68.78 190.36 160.47 70.5 37.38 94.74 60.26 195.6 98.02 82.92 31.06 143.57 48.06 173.67 112.33l4.12 110.66 35.5-45.5c29.06-74.28 157.3-250.77 213.06-285.73 29.6-54.8 82.15-106.5 121.5-159.87-57.86 17.6-149.2 111.08-214.66 66.18-42.28-50.5-62.24-193.17-9.92-259 63.4-79.8 162.98 18.5 169.17-168.92-19.27-115.3-146.2-210.35-228-257.52 45.56 42.4 129.5 122.77 103.48 219.26-103.8 22.1-154.06-69.1-193.32 73.53-24.92 90.5-8 190.5-19.57 289.04-58.74-22.12-102.87-147.55-124.58-211.08-13.2-38.6-34.9-100.9-28.57-140.37 10.6-66.14 45.62-44.02 81.77-88.53-27.9-153.17-176.35-267.96-368.84-246.45 79.56 32.56 154.94 12.66 215.43 71.5-4.73 146.42-116.34 106.64-42.72 370.3 64.82 232.18 145.62 125.77 137.26 326.64-61.54-7.64-174.7-64.66-218.77-97.52-81.53-60.8-57.14-121.1-118.25-190.67-184.37-209.92-379.17-100.7-419.84-95.98 105.1 9.73 219.48 5.8 260.15 95.52 59.2 130.55 3.33 227.53 85.98 253.7z" class="K"/><path d="M2298.86 6064.2c19.24-52.87-31-226.83-38.8-309.16-103.96-1098.66 514.58-2218.24 1664.54-2446.1 532.07-105.4 828.98-35.6 1326.48 56.47 46.34-108.33 28.97-173.27 124.2-244.15 49.2-61.62 167.44-119.05 266.65-156.27-180.37-29-313.13 20.37-380.34 180.74-11.22 26.78-16.7 47.34-26.72 76l-28.54 64.6c-497.26-91.9-811.05-166.84-1352.7-46.88-793.42 175.7-1310.37 735.1-1540.33 1488.65-147.44 483.12-118.55 868.6-14.43 1336.08zM4387.3 8741.62c124 291.97 265.16 115.22 514.48 100.9l20.38-1.33c172.2-59.23 371.77 117.12 590 30.2 156.1-62.18 266.68-212.1 414.93-284 20.65-72.3 62.28-88.36 146.22-79.18 146.76-104.1 445.7-68.8 614.84-241.22 86.46-88.15 84.47-170.28 114.5-313.88 24.45-116.92 63.3-219.13 96.3-333.5 112.52 132.66 195.18 71.2 340.37 18l-115.24-35.02c-109.97 23.7-247.05 57.85-227.62-103.3l66.7-28.57c59.53-70.52 101.98-133.1 162.74-193.3 56.02-55.5 89.9-122.15 117.2-221.5 38.4-139.85 46.4-471.4 110.44-564.52 17.2-73.1 58.94-102 75.97-189.4 11.04-56.62 7.42-168.85-29.57-186.36-12.84 273.1-86.3 123.22-153.97 605.18-44.35 315.82-25.23 315.85-204.9 530.7-152.92 182.87-160.73 239.4-246.68 503.75-79.23 243.7-27.65 387.98-232.85 502.86-159 89-399.7 102.42-566.2 183.92-168.65 82.55-289.05 211.6-431.56 304.07-254.1 164.9-357.43 14.5-607.4 10.52-252.9-4.03-425.07 175.33-569.07-15.05z"/><path d="M3854.77 4783.56c236.7 64.97 333.33 86.87 606.65 66.32 478.13-35.95 930.75-172.08 1322.68-430.88 71.78-47.4 132.4-103.7 201-144.25 66-83.66 76.6-68.85 198.9-235.63-143.7 100.16-262.7 206.6-442.6 308.05-795.64 448.67-1587.8 292.66-1925.64 369.44 18.77 63.18-6.18 21.3 39.02 66.95zm1897.43 261.56c159.33 31.55 355.67 115.2 387.3 251.18-17.2 91.02-101.8 138.52-212.23 152.43-121.22 15.28-185.85-37.85-274.65-71 14.15 31 63.16 79.1 80.03 101.8 104.1 40.35 137.22 84.97 289.9 99.74 22.32 1.92 60.44 6.87 81.57 5.57 22.83-1.4 18.8-.36 39.58-6.67 42.75-12.97 4.75 8.02 30.64-18.3-137.7-223.7 379.05-55.76 430.44-31.87 26.65-85.4-208.16-335.43-370.15-420.36-180.3-94.53-415.88-154.58-654.38-139.8 59.76 39.08 114.35 44.78 171.97 77.32z" class="K"/><path d="M5956.17 3815.7l-212.5 195.14c-405.5 353.26-1001.88 500.93-1537.53 548.95-97.37 8.73-789.14-2.4-603.92 177.12 75.3-90.7 247-77.83 353.5-82.5 364.18-15.94 768-64.14 1102.06-182.8 238.24-84.63 393.26-162.4 580-287.15 93.68-62.58 383.37-327.24 438.9-416.26l-120.5 47.5zm-473 1030.44c-73.8 24.86-166.28 74.04-252.6 108.4-285.92 113.78-624.6 160.93-936.3 153.15-222.98-5.57-439.9-37.28-644.8-91.8-97.2-25.86-191-64.57-280.8-86.9-99-24.64-224.13 7.47-161.5 129.02 97.57-98.77 130.16-68.34 307.8-10.28 548.8 179.38 1182.9 191.4 1723.73-11.77 158.92-59.7 420.28-197.9 497.6-295.26l-253.12 105.44zm501.92-571.4c-68.6 40.54-129.2 96.86-201 144.25-391.93 258.8-844.55 394.93-1322.68 430.88-273.32 20.55-369.95-1.35-606.65-66.32-21.52 35.77-2.73-2.1-17.87 46.5 436.43 267.6 1459.7 3.55 1947.06-322.56 136.1-91.08 355.73-264.14 415.92-393.17l-214.8 160.4z"/><path d="M3411.34 5141.02c41.16 34.7 58.2 85.07 196.65 181.44 253.67 176.55 624.08 263.52 944.96 252.14 76.02-4.92 148-5.23 224.03-13.77 50.44-5.66 158.75-33.5 185.86-32.37-461.23-62.95-808.02 21.2-1272.25-288.48-222.6-148.48-186.05-209.76-298.38-197.07-22.53 58.12-3.4 46.4 19.13 98.1z" class="N"/><path d="M2694.36 7697.26c70.16-62.82 147.2-93.16 244.77-135.4 115.1-49.83 172-48.05 179.4-199.08-14.75-77.6-75.48-153.78-172-122.25-130.85 42.74-308.8 325.06-323.3 524.17l71.15-67.44z" class="K"/><path d="M4094.38 7724.4l19.6 65.35c2.32-3.6 4.28-8.73 5.6-11.58l15.56-34.13c10.4-22.45-.2-11.8 20.02-40 17.77-24.8 34.75-36.9 79.66-41.54 72.73-7.52 143.9 13.63 212.57 28.6 208.14 45.38 205.6-24.82 367.23-48.4 87.94-12.84 117.75 46.27 173.15-1.9 31.9-27.72 63.96-93.55 104.92-131.45 128.65-119.04 225.2-12.67 340.57 25.56-24.06-45.25-29.9-41.55-53.77-75.52-238.4-137.93-320.13-73.47-435.2 119.44-122.74 9.72-92.95-41.06-243.57 9.37-83.43 27.93-147.7 50.27-243.65 35.5-137.63-21.2-377.12-117.04-362.7 100.7zm458.57-2149.8c-320.88 11.38-691.3-75.6-944.96-252.14-138.46-96.37-155.5-146.75-196.65-181.44-26.43 71.66 167 225.4 228.77 267.13 102.07 68.97 224 124.9 362.2 166.98 144.47 44 294.1 67.8 453.53 74.67 87.86 3.78 174.73 2.43 262.4-4.62 37.85-3.05 78.44-6.87 117.48-12.13a3985.1 3985.1 0 0 0 50.27-9.14l35.5-15.7c2.23-5.47 8.06-4.02 11.73-6.82l-380.25-26.78z"/><path d="M4938.96 2104.14l-672.77-395.92c25.78 64.63 87.64 128.56 126.73 180.18 34.44 45.48 33.5 35.06 75.82 71.3 33.7 28.84 117.75 149.77 256.12 214.23 93.8 43.7 140.4-19.5 214.1-69.8zM3223.9 8477.54l367.3-160.06 13.4-97.82-11-74.03c-174.7-58.6-199.63 13.35-292.05 102.86-69.6 67.42-134.9 161.68-150.53 293.4l72.87-64.35zm672.9 537.96c88.2-138.64 319.64-172.13 338.27-319.65l-19.92-71.6c-46.5-44.9-52.33-53.27-141.84-41.02-112.04 85.18-238.57 262.36-217.55 480.06l17.52-23.02c22.36-26.58 7.1-9 23.52-24.76z" class="K"/><path d="M6579.9 3679.25c13.5-72.18-121.37-101.84-248.94-140.6-114.62-34.8-101.3 10.83-170.46 14.25-37.4 1.85-89.6-30.1-160.12-28.02-125.93 3.7-185.18 87.8-336.2 75.83-142.06-11.25-187-78.66-264.22-129.77 25.75 88.2 107.75 149.9 210.7 186.2 224.7 79.2 316.8-91.26 503.4-47.74 108.14 25.23 34.5 33.05 143.82 3.15 104.07-28.45 203.6 54.45 322 66.7z"/><path d="M2739.55 6695.77c7.83 61.26 91.26 233.05 128.34 278.8 96.24-80.47 126.38-359.7 198.62-477.18 71.64-116.53 263.76-201.63 460.64-203.12l39.8 5.2c45.25-22.84 92.06-17.23 138.8-25.63l-42.34-66.2-95.27 3.94c-637.97 21.28-516.33 328.6-712.24 690.2-54.85-47.94-79.05-143.07-116.33-206z" class="L"/><path d="M6129.68 6046.73c23.2-139.45 61.94-94.44 209.08-96.65l294.23-5.6c353.7 3.8 357.9 94.3 459.42 131.24-130.3-270.58-623.23-208.5-973.16-202.35-28.34 77.2-53.1 121.75 10.43 173.35z"/><path d="M6398.96 6195.86c-198.64 49.27-406.32 57.15-598.15-5.73-89.7-29.4-164-65.44-228.95-110.15-86.66-59.65-122.1-111.68-185.44-166.68 39.6 134.44 295.4 313.74 488.05 364.62 205.16 54.2 545.65 42.2 710.57-61.75l-186.08-20.3z" class="L"/><path d="M4504.42 7434.17c102.55.35-11.15-8.46 172.5-90.7 65.66-29.4 114.93-54.24 163.06-101.5 154.5-151.7 91.63-167.83 155.63-356.42 115-24.65 131.23 15.93 238.53 32.35-56.03-63.94-177.16-98.94-286.88-64.6-16.03 173.96-89.62 271.25-183.18 342.23-55.86 42.37-103.54 58.47-172.43 92.1-39.2 19.13-88.88 46.02-97.57 94.2-15.35 85.2-7.38 29.97 10.34 52.4z"/><path d="M4791.74 9259.17c43.35-93.2 50.34-85.02 113.88-141.85 28.56-25.56 35.9-42.26 63.15-68.77 44.23-43 34.12-24.35 62.72-76.5 35.3-87.03-21.45-134.2-109.33-130.85l-20.38 1.33c-214.03 224.37-133.86 424.6-110.04 416.64z" class="K"/><path d="M3955.46 5986.4c-240.24-77.26-355.03-165.4-509-295.96-64.28-54.52-140.47-140-197.63-214.45-55.12-71.78-103.37-171.8-156.42-240.73 23.07 231.1 566.76 849.8 1071.87 858.1-58.12-42.4-158.4-55.95-208.82-106.96z" class="O"/><path d="M3186.3 7038.66c90.16 120.16 322.9 146.46 462.03 57.03-132.3 7.32-246.98-17.7-263.84-125.36-25.95-46.75-64.13-54.3-56.76-164.37-68.44 45.37-124.98 111.6-141.43 232.7z" class="P"/><path d="M3384.48 6970.33c16.86 107.65 131.54 132.68 263.84 125.36 74.32-17.68 223.98-118.46 260.18-165.3 30-56.83 52.63-119.22 59.35-194.26 3.36-37.5 2.33-85.86-4.38-119.9-9.87-50.04-15.2-56.42-40.6-82.34 51.83 346.2-227 604.68-538.4 436.44zm273.36-3420.4c-73.35 56.45-203.86 228.3-267.95 313.1-48.8 64.56-225.9 285.66-174.2 388.37 39.56-52.52 73.65-143.88 118.46-208.8 142.44-206.33 322.32-380.42 418.57-526.38l-94.9 33.7zm-963.48 4147.32l-29.66 142.58c218.5-225.84 417.1-193.43 473.92-299.87 36.48-68.32 20.27-135.25-20.1-177.2-7.4 151.03-64.3 149.25-179.4 199.08-97.58 42.24-174.6 72.58-244.77 135.4z"/><path d="M5927.1 8587.4l30.5 93.9c67.27 67.33 109.16 143.46 222.55 184.55 2.75-8.77-34.75-126.36-41.34-174.18-11.42-82.96-40.82-137-65.5-183.46-83.94-9.18-125.57 6.88-146.22 79.18z" class="N"/><path d="M3186.3 7038.66c16.45-121.1 73-187.33 141.43-232.7 8.67-24.45-15.7-21.56 24.12-17.12 123.78-100.64 173.2-20.3 237.72-15l16.13-2.25c-135.2-278.56-582.2 53.6-419.4 267.06zm37.6 1438.88c-25.04 53-46.04 89.15-40.12 153.5 76-113.58 310.8-171.07 446.42-242.4 11.57-62.08 31.64-146.12-25.58-169l-13.4 97.82-367.3 160.06zm672.9 537.96l-5.62 113.04a251.4 251.4 0 0 0 9.49-8.47l9.23-8.4 8.7-8.32 89.75-89c41.55-33.9 77-54.36 123.46-82.33 76.26-45.9 216.12-127.75 103.26-236.16-18.63 147.52-250.07 181-338.27 319.65zm2562.37-5866.95l22.15 79.72c146.98-65.35 211.8-164.28 436-131.87-10.42-217.13-402.36 14.06-458.16 52.15z"/><path d="M7196.02 3328.5l3.7 91c113.45-75.98 111.67-255.48 115.25-427.64 48.95 5.75 88.13 30.68 124.32 57.3 28 20.6 86.37 73.93 103.04 93.98-7.3-30.1-19.16-45.44-32.2-68.82-34.5-37.88-148.2-165.55-235.35-153.1-1.2 231.3-12.32 234.15-78.77 407.28z" class="O"/><path d="M6016.52 5664.77l175-6.26-16.6-68.76-152.38-10.5c-152.67-14.77-185.78-59.4-289.9-99.74l-57.5-20.66c61.97 145.04 300.95 182.6 341.37 205.92z" class="M"/><path d="M4073.3 8583.23c89.5-12.25 95.34-3.9 141.84 41.02 31.47 8.57 52.9 15.65 77.7 31.13 44.32 27.67 14.74 20.38 62.7 41.2-134.2-250.75-345.37-133.57-595.58-233.63-7.9 103.18 187.84 121.4 313.34 120.28z" class="L"/><path d="M7110.67 3669.82c-12.54 78.97-33.25 141.08-70.08 196.47-42.6 64.04-74.58 74.4-126.97 116.63l-17.03 92.46c219.42-59.94 285.8-326.33 249.7-467.9-11.74-46-4.66-16.87-17.6-33.3l-18.02 95.62z" class="M"/><path d="M6174.33 5559.84c114.13-88.35 336.88-1.55 457.3 46.3l-26.85-78.16c-51.4-23.9-568.15-191.83-430.44 31.87zm-34.83-263.54c-31.62-136-227.96-219.63-387.3-251.18l-145.75 4.2c87.9 61.05 252.3 72.4 415.32 168.27 49.17 28.9 69.16 55.5 117.72 78.7z"/><path d="M7124.07 7602.6l94.6-44.67-255.5-87.2-66.7 28.57c-19.43 161.16 117.65 127.02 227.62 103.3z" class="N"/><path d="M2103.17 3560.46c-1.18-218.66 29.84-189.28 120.26-218.57 63.3-20.5 83.2-71.02 77.9-133.95-4.84-57.72-11.06-53.2-38.9-75.4-6.2 187.42-105.76 89.12-169.17 168.92-52.32 65.84-32.36 208.5 9.92 259z" class="L"/><path d="M6573.94 3812.15c-64.5 67.26-78.63 49.66-124.52 103.94 145.8-13.17 279.62-69.16 428.77-33.7-17.15-132.56-177.5-88.76-304.25-70.23zm-4701.1 755.15l-4.82 98.88c75.2-36.5 112.3-140.72 206.7-191.15l54-134.2c-94.68 26.07-218.45 163.07-255.9 226.46z"/><path d="M3351.84 6788.84c32.2 44.5 77.07 98.36 147.88 96.35 59.24-1.67 128.6-59.72 105.97-113.6l-16.13 2.25c-64.5-5.32-113.94-85.65-237.72 15z" class="P"/><path d="M6481.46 2616.87l-43.88-124.4-245.1-59.8c32.4 55.84 68.46 86.36 106.28 124.2 49.07 49.1 92.8 61.15 182.7 60.02z" fill="#44080a"/><path d="M4791.74 9259.17l1.7 85.76c32.94-35.12 43.37-72.9 72.47-105.22 19.5-21.68 309.85-263.73 165.58-267.66-28.6 52.15-18.5 33.5-62.72 76.5-27.26 26.5-34.6 43.2-63.15 68.77-63.54 56.83-70.53 48.65-113.88 141.85z"/><path d="M2196.33 3654.15c-55.75 34.96-184 211.45-213.06 285.73l9.3 78.5c44.17-75.3 96.18-145.3 146.78-214.73 25.84-35.45 46.02-60.57 77.4-99.16 28.1-34.54 59.72-60.87 78.16-97.36l-98.58 47.02z" class="L"/><path d="M4528.67 7187.34c31.8-87.1 81.26-139.24 72.9-260.58l-39.13-8.55c-27.23 154.64-137.04 234.03-153.32 336.76 73.77-21.83 74.03-31.77 119.56-67.63z"/><path d="M6951.47 3180.1c-21.65 48.58-65.7 89.94-91.52 124.1 122.73-12.58 172.17-117.12 279.04-156.82l-37.34-82.2c-41.56 18.88-126.94 80.6-150.18 114.94z" class="M"/><path d="M6216.04 3196.3c115.7-85.85-22.94-29.66 193.42-117.6l-16.84-70.92c-105.87.35-264.57 84.3-176.58 188.5z"/><path d="M1943.66 3874.72c-30.1-64.27-90.75-81.27-173.67-112.33-100.85-37.76-125.1-60.64-195.6-98.02 59.6 163.76 236.12 140.87 360.5 234.54l8.76-24.2z" class="L"/><path d="M3208.52 7286.34c-35.33-87.77-99.46-133.03-217.76-149.2-57.02-2.53-57.4 19.43-76.6 60.03 164.58 17.32 178.07 36.92 294.35 89.16z"/><path d="M2535.68 3263.5c-35.4 52.77-45.64 39.8-81.33 75.52-29.43 29.46-44.52 49.8-66.06 71.84l133.26-43.86c37.38-19.56 135.65-113.57 153.95-151.9l-139.82 48.4z" class="O"/><path d="M7353.52 6491.4l-2.53 63.42 34.9 11.24 95.53-20.9c12.04-8.03 28.9-15.47 45.38-28.38 51.97-40.72 17.66-7.7 39.3-48.38-76.1-.93-154.15-1.35-212.58 23z" class="N"/><path d="M7385.9 6566.07c-17.1 35.52-13.1 13.36-5.7 62.8 83.16 36 165.44-24.52 209.6-82.24l-108.35-1.44-95.53 20.9z" class="M"/><path d="M6180.15 8865.86c-113.4-41.1-155.28-117.22-222.55-184.55 4.5 98.9 155.23 235.23 249.8 262.43l-27.24-77.88zM1574.4 3664.37c-43.2-91.7-75.9-122.7-190.36-160.47l-2.77 58.6c81.43 37.6 81.77 8.58 149.66 71.1 3.17 2.92 11.56 12.26 14.8 14.8 24.93 19.53.43 3.66 28.66 15.97zM4426.8 6746c-25.23 21.17-5.1-12.3-20.73 38.26l34.07 35.4 145.6-104.2c1.83-5.86 6.6-6.04 8.38-14.95L4426.8 6746z" class="O"/><path d="M7373.8 5909.94c76.28.85 105.7-45.7 123.74-107.95-55.84 23.44-133.3 34.33-123.74 107.95z" fill="snow"/><path d="M7398.26 5987.7c75.34-6.58 96.43-38.26 116.66-105.5-65.3 18.33-123.88 30.58-116.66 105.5z" class="M"/></svg>