<svg xmlns="http://www.w3.org/2000/svg" width="159.999" height="56.961" viewBox="0 0 4233.32 1507.06" shape-rendering="geometricPrecision" image-rendering="optimizeQuality" fill-rule="evenodd"><style><![CDATA[.K{fill:#fffefe}.L{fill:#020202}.M{fill:#020000}.N{fill:#fffdfd}.O{fill:#050101}.P{fill:#ed1c24}]]></style><path d="M393.54 1033.33l-8.9 7.85c1.9-16.08 9.88-27.58 18.38-35.8 11.28-10.93 14.32-19.7 35.65-12.56l1.34 9.04c6.98 2.8 4.53 13.05 3.12 20.63-16.55 8.7-45.22 15.72-54.5 29.6-.73-7.86 1.84-12.28 4.9-18.74h.01zm-64.64-95.25l-8.7 8.23c1.77-24.3 23.5-58.77 39.47-64 11.78-3.85 19.2 5.45 21 14.93 4.93 5.12 6.9 13.3 2.45 21.63-6.93 13-31.17 9.03-57.85 36.6l3.62-17.4h.01zm211.48-116.12l20.42-5.55c-.22 1.08-.8 1.1-1.02 1.82L542 830.95l14.66 2.53.27 9.5 4.78 1.04c1.02 14.82-5.02 21.18-8.9 31.8 10.04-4.94 23.07-18.38 27.38-27.65-5.07-6.68-3.9-.48-6.36-8.98 8.23-14.22 48.73-22.77 60.5-5.5-14.4-2.73-26.67-12.1-30.42 1.35 13.4-4.2 28.18.08 35.02 7.9-13.1-2-15.08-6.96-29.12-3.95-7.8 23.02-.14 25-19 43.5-5.87 5.77-11.9 8.8-19.9 12.4-22.42 10.04-8.54 11.1-21.06 11.07 48.24 16.08 41.88-31.52 89.3-12.9 4.44 1.74 8.37 4.05 11.44 6.6 12.43 10.26 6.6 8.9 6.07 9.4 2.92 4.14 3.63 3.7 6.56 9.22-14.08-4.67-25.86-17.65-41.57-3.12-5 4.62-8.9 12.66-12.8 16.04-6.76 5.88-10.4-1.33-21.13.23-19.73 2.88-19.42 11.45-44.83 5.9-8.38-1.83-17.07-4.4-25.95-3.5-5.48.57-7.56 2.05-9.72 5.07-2.47 3.44-1.18 2.14-2.45 4.88l-1.9 4.17c-.16.35-.4.97-.68 1.4l-13.26-44.1c-1.48-11.66-3.62-33.48-2.37-44.6 8 8.88 1.38 18.18 12.53 27.52 10.8 4.36 26.83-19.04 24.83-36.54-2.88-2.2-27.1-9.57-2.75-29.88 9.27-7.74 22.97-14.4 38.8-14.26-9.4 3.75-15 7.1-19.6 14.47h.01zm372.88-24.52l13.22.18c-5.4 7.04-15.43 14.43-25.58 10.04-.9-6.04-1.4-3.33.7-7.67l-4.26-1.37.3-7.74c7.13-2.97 16.66-2.92 25.95-2.8-2.64 4.96 1.55.93-4.8 5.9-2 1.58-4.07 2.5-5.54 3.47h.01zM903.1 729.4c-.88-9.15 6.27-10.64 14.24-12.88-2.47 8.2-5.04 12.08-14.24 12.88zm-2.98-9.5c-1.17-9 8.28-10.32 15.1-13.18-2.2 7.6-5.8 13.28-15.1 13.18zm-344.35-40.94l46.42 3.27c-.45.34-1.16.17-1.43.83l-4.33 1.92-6.1 1.1c-4.77.64-9.72 1.1-14.34 1.48-10.7.86-21.3 1.02-32.03.56-19.46-.83-37.73-3.74-55.37-9.1-16.87-5.14-31.75-11.96-44.2-20.38-7.54-5.1-31.15-23.87-27.93-32.6-2.75-6.3-5.08-4.9-2.33-11.98 13.7-1.55 9.25 5.93 36.42 24.06 56.67 37.8 99 27.53 155.3 35.2-3.3-.14-16.53 3.26-22.7 3.95-9.28 1.05-18.07 1.08-27.35 1.68l-.03.01zm291.12.33l3.28 9.54c-14.7-5.84-41.9-16.44-55.82-5.65-3.16 3.2 1.47.65-3.74 2.23-2.54.77-2.05.64-4.83.82-2.58.16-7.24-.45-9.96-.68l18.6 1.28 2.03 8.4-21.37.77c-4.93-2.85-34.1-7.44-41.67-25.14l7.02 2.52c-2.06-2.77-8.04-8.64-9.77-12.43 10.84 4.05 18.73 10.54 33.53 8.67 13.48-1.7 23.8-7.5 25.9-18.6-5.92-2.83-8.36-6.07-14.36-9.6-19.9-11.7-39.97-13.1-50.7-20.54l17.8-.52c-7.04-3.97-13.7-4.66-21-9.43 29.1-1.8 57.87 5.52 79.88 17.06 19.77 10.37 48.43 40.9 45.18 51.32h0zm-116.3-159l26.22-19.58c-7.35 15.75-34.16 36.88-50.77 48-59.5 39.8-184.4 72.04-237.68 39.37 1.85-5.93-.45-1.3 2.18-5.68-5.52-5.57-2.47-.46-4.76-8.17 41.24-9.37 137.94 9.67 235.06-45.1 21.96-12.38 36.5-25.38 54.03-37.6-14.93 20.36-16.23 18.55-24.28 28.76h0zM446.5 431.8l11.58-4.1c-11.74 17.82-33.7 39.07-51.1 64.26-5.47 7.92-9.63 19.07-14.46 25.48 11.6 10.6 24.83-15.12 31.35-19.93 9 23.56 42.15 32.98 73.37 34.97 67.68 4.32 155.93-20.12 209-60.88 11.45-8.8 13.48-17.6 33.26-22.3-4.42 6.13-9 8.13-12.44 14.95l14.7-5.8c-6.78 10.86-42.14 43.17-53.58 50.8-22.8 15.23-41.72 24.72-70.8 35.05-40.78 14.5-90.07 20.37-134.53 22.3-13 .57-33.96-1-43.15 10.08 10.1 10.57 38.4 22.35 56.07 26.76 24.34 6.1 51.1 7.13 76.88 4.06 24.2-2.87 46.9-8.75 68.3-16.2 21.24-7.4 40.2-17.7 58.55-24.4l-30.2 23.12 30.9-12.87c-9.44 11.9-41.35 28.75-60.74 36.04-66.02 24.8-143.43 23.34-210.42 1.44-21.68-7.1-25.66-10.8-37.57 1.26 6.58 19.25 31.67 55.6 44.12 71.25 7.42 9.33 19.57 18.66 31.24 26.23 12.22 7.92 29.18 12.87 39.98 19.67l-24-3.83c6.16 6.23 18.4 7.9 25.5 13.06-61.65-1-128.02-76.54-130.84-104.75l-10.57-25.4c-3.6 27.88 18.44 65.73 29.9 81.5 7.58 10.43 17.87 23.17 25.85 31.65 10.46 11.1 16.64 14.6 27.42 29.4l-14.53 2.05 11.63-.48 5.17 8.08c-5.7 1.03-11.42.34-16.95 3.13 26.85 1.8 36.2 5.68 43.45 28.62 3.1 3.16 3.75 3.94 4.96 10.05.82 4.15.94 10.06.53 14.63-.82 9.16-3.58 16.78-7.24 23.72l4.2-.74c1.63 41.42-2.92 60.87 8.5 101.62 9.2 32.76 20.36 52.86 42.56 67.12 48.07 30.86 129.35 16.95 182.64-2.13 68.08-24.37 82.63-47.2 115.7-103.38 16.12-27.38 63.78-133.18 35.04-166.82-12.4-4.5-12.9-15.56-56.1-16.02-11.92-.13-23.97.5-35.9.68-17.96.27-22.7-5.22-25.52 11.8 13.05 11.34 31.4 8.97 50.8 11.43l-17.93 6.77 22.7 2.48c-20.13 12.7-61.7 14.15-86.74 7.54-23.5-6.2-54.74-28.1-59.57-44.5-5.63-9.32-14.12-19.48-16.7-32.32 7.12 5.7 18.8 23.36 33.34 35.32 13.5 11.12 34.92 19.1 52.26 5.84 1.93-14.85-6.3-17.1-16.27-22.2-25.7-13.1-49.37-41.2-42.76-74.8-.32 9.04 15 35.25 19.83 40.38 6.98 7.4 30.47 20.24 47.2 17.45 7.58 4.22 44.77-.18 52.77-1 117.5-12.04 91.03 18.2 116.1 56.04 4.52 2.14 4.96 15.84 3.6 22.75-2.07 10.67-7.17 14.2-9.27 23.12-7.82 11.37-8.8 51.84-13.48 68.9-3.33 12.13-7.47 20.27-14.3 27.04-7.4 7.35-12.6 15-19.86 23.6l31.2 10.64-11.55 5.46 14.07 4.27c-17.73 6.5-27.82 14-41.55-2.2-4.03 13.96-8.77 26.44-11.76 40.7-3.66 17.53-3.42 27.56-13.98 38.32-20.64 21.05-57.13 16.74-75.05 29.44 3 5.68 6.6 12.27 8 22.4.8 5.84 5.38 20.2 5.04 21.26l3.33 9.5c-11.55-3.32-29.94-19.96-30.5-32.04l-3.72-11.46c-18.1 8.78-31.6 27.08-50.65 34.67-26.64 10.6-51-10.92-72.02-3.7 10.73-.4 17.65 5.35 13.34 15.97 17.62.48-17.83 30.03-20.2 32.68-3.55 3.94-4.82 8.55-8.84 12.84l-.2-10.47c-2.9.97-12.7-23.47 13.43-50.86-30.43 1.75-47.66 23.33-62.8-12.3l-3.88-5.5c-5.85-2.54-2.24-1.65-7.65-5.03-3.03-1.9-5.64-2.75-9.5-3.8l2.43 8.74c13.78 13.23-3.3 23.22-12.6 28.83-5.67 3.4-10 5.9-15.07 10.05l-10.96 10.86c-.32.32-.76.72-1.06 1.02-.3.3-.86.78-1.13 1.02-.37.36-.76.7-1.15 1.04l.7-13.8c-2 1.93-.14-.22-2.87 3.02-.46.54-1.82 2.4-2.14 2.8-2.57-26.57 12.88-48.2 26.55-58.6-15.32.14-39.2-2.08-38.25-14.68-10.75-11.97-8.38-27.34-16.4-40.54-6.28-10.35-20.5-18.15-32.37-25.2-48.96-29.02-4.62-54.86-18.55-77.9-14.2-6.38-15.84-8.77-35.93-10.88 2.35-4.96 2.4-7.64 9.35-7.33l-14.16-2.27c24.86-43.67 26.38-81.55 43.45-89.9 10.34-5.06 27.2-4.96 36.2-10.7-24.03.18-47.5 10.57-56.23 24.8-8.82 14.35-12.5 48.43-24.25 58.25-4.52-5.58-14.7-26.55-15.66-34.03-1.78-7.64-7.2-18-10.4-25.97-3.6-9-6.84-18.48-9.77-27.94-19.83-63.9-25.46-127.7-2.23-190.7 19.93-54.03 49-95.7 96.73-127.8 12.62-8.5 35.62-21.45 48.08-25.4-1.77 1.76-2.78 3.56-4.58 5.85l-2.5 3.13c-3.6 4.84-.62-.1-3.23 4.83l-.01-.01zm186.02 503.47c-9 6.14-14.68 13.85-26.13 8.52-16.9-7.87-27.15-22.63-31.27-26.15-5.16-4.43-5.05-3.15-9.25-8.7-4.77-6.3-12.32-14.1-15.47-22l82.12 48.33zM946.4 1053.7c1.6 2.85 3.04 4.72 3.93 8.4-2.04-2.45-9.16-8.95-12.58-11.47-4.42-3.25-9.2-6.3-15.18-7-.43 21-.22 42.92-14.06 52.2l-.46-11.1c-5.54 1.6-3.82 1-6.96-22.1-13.04 4.85-19.08 17.6-34.06 19.15 3.15-4.17 8.53-9.22 11.17-15.15l-15.4 5.43 11.25-15.65c-27.37-3.96-35.28 8.12-53.23 16.1l-2.7-9.74-6.07-8.52c-26.4 10.73-9.48 3.87-23.6 14.35 14.7 15.44 38.34-4.2 47.5 18.08l3.77-7.44c.14-.25.6-.5.7-1.12s.43-.8.72-1.12c9.1 9.04 21.06 24 26.65 38.1 5.5-1.76 9.85-4.53 12.57-9.4 2.04-3.66 1.43-4.1 2.75-7.87.76-2.16.78-2.12 1.68-4.1l5.2 19.07c4.96-3.2 2.83-2.73 7.37-7.3l.3 20.9 2.2-11.68c1.58 2 .7-1.55 2.15 4.07 4.4 17.28-3.7 49.8-30.48 57.12l2.08-11.3-6.8 1.9 2.46-14.16c-18.2-4.33-34.54 2.5-52.34 4.1 5.6-6.62 7.33-4.48 15.2-12.7L810.9 1147c9.44-7.23 16.35-8.83 21.95-19.45-14.45-1.5-26.6-11.6-39.3-8.14-13.34 3.65-4.35 2.7-17.55-.4-22.78-5.3-34.02 15.5-61.45 5.83-12.57-4.43-22.58-11.96-25.72-22.73-.2-.4-.55-.88-.7-1.12l-4.75-7.8c-1.54-2.95-3.27-7.26-3.8-10.74-1.76-11.35 1.44-15.3 6.23-23.02-11.62 8.65-9.5 16.58-15.16 29.8-60.73-11.24-96.97-19.76-161.92-6.9-140.38 27.8-215.88 164.48-203.2 298.6.95 10.05 7.08 31.3 4.73 37.74 15.56 47.96 33.15 64.86 42.98 89.9-4.4-2.5-.45.1-4.45-3.38-39.38-34.4-65.4-77.84-83.37-128.14-2.2 1.55-4.7.92-6.3 10.94-.74 4.65-.63 7.6-1.6 12.6-29.38-33.9 9.32-142.8 25.4-175.9-11.53 6.15-16.06 18.87-25.23 23.33l.58-12.07-5.3 2.64c-.38-31.7 9.18-45.8 19.92-69.65l-1.14-9.58-4.33 5.55-.5-13.5-1.07 2.96c-15.2-11.44-36.73-8.64-44-28.63-3.45-1.5-.46.43-3.5-1.95-.4-.3-1.42-1.45-1.8-1.8-8.28-7.63-8.32-4.1-18.26-8.68l.33-7.15c-10.08-3.2-3.26-15.03-10.5-30.97-4.97-10.95-18.93-10.47-31.76-11.66 4.97-.57 28.75-13.9 51.25 11.72 7.46 8.5 4.5 15.85 14.44 23.27 5.38 4 19.2 10.97 26.7 11.9 1.02-24.52-8.84-11.53-16.75-39.88-9-32.18 4.64-27.33 5.2-45.2-7.38-7.18-16.58-4.75-26.3-8.73 23.5-2.62 41.62 11.4 45.03 30.1-4.4 5.43-8.7 2.73-9.98 10.8-.77 4.82 1.88 12.42 3.5 17.14 2.64 7.75 8.03 23.06 15.2 25.76 1.42-12.03-.65-24.23 2.4-35.28 4.8-17.4 10.93-6.28 23.6-8.98 3.18-11.78-7.07-21.6-12.63-26.76 9.98 5.76 25.48 17.36 27.83 31.43 3.4 2.72 4.16 2.17 4.75 9.2.65 7.68-1.78 13.85-9.5 16.35-11.04 3.58-14.82-.01-14.68 26.68 8 5.48 19.14-5.93 26.2-8.08-4.8 6.52-11.22 12.83-14.83 19.52l12.04-5.74c5.56-4.1 8.44-9.83 14.1-14.78 3.6-3.14 5.08-3.86 7.77-6.5 4.38-4.3 3.33-2.73 5.8-8.03l-16.27 5.35c2.63-2.7 4.48-5.17 8.07-8.77 4.36-4.36 5.6-2.78 9.93-9.22l-23.14 8.7c3.34-2.65 5.38-6.35 9.92-9.96 30.28-24.06 48.7-35.28 87.65-50.64 67.85-26.75 89.3-17.78 130.5-27.47-17.55-6.48-47.8-5.13-60.52-11.58 40.8-9.43 83.37-11.9 122.36-27.2 20.94-8.2 23.6-12.53 32.3-16.44 17 7.47 32.53 25.2 57.88 23.55-2-4.38-11.28-11.5-15.87-15-18.7-14.33-44.32-42.58-60.68-61.4-9.68-11.14-32.35-42.35-33.87-56l26.44 29.27c31.23 30.62 54.9 51.06 96.77 72.02 58.25 29.18 63.18 7.5 89.5 12.67 25.22 4.94 21.57 9.37 28.5 28.98 5.26 14.88 16.22 22.3 35.74 19.95 4.25 4.9 5.55 10.9 12.95 12.8 9 2.32 12.15-2.65 21.16-4.3 6.4 4.6 5.1 7.98 12.77 13 14.13 9.26 26.8 12 36.86 35.95v-.01zM40.18 252.43C33.4 472.8 85.06 753.7 169.64 926.34c66.53 135.8 149.55 254.38 269.76 333.68 20 13.2 39.9 25.7 63.05 37.5 10.73 5.48 61.43 29.33 72.27 30 9.28.6 61.35-23.68 71.3-28.75 249.82-127.43 378.57-410.76 431.64-676.47 22.5-112.7 36.56-251.54 33.45-370.5-18.14-8.66-81.66-49.8-118.63-68-96.46-47.45-158.03-79.1-264.4-112.63-24.3-7.65-47.68-14.56-72.7-20.87-81.52-20.53-79.02-20.16-157.12-.7-140.57 35-274.37 95.75-398.78 166.93-17.85 10.2-43.42 24.05-59.28 35.86l.01.01z" class="P"/><path d="M1301.6 1042.2h289.05c6-12.55 10.82-29.64 16.15-43.12l80.1-219.85c10.44-30.12 22.15-57.75 32.35-88 13.7-40.66 26.9-64.93 50.9-96.38 2.64-3.45 3.78-4.27 6.66-7.7 14.77-17.57 21.3-23.43 38.66-38.56 35.45-30.92 103.42-72.26 168.36-72.26 41.83 0 68.22 17.92 68.22 61.08 0 22.33-11.58 49.6-17.73 66.7L1967 790.04c-23.5 69.23-54.68 147.08-79.02 217.34-3.22 9.3-9.87 23.46-10.08 33.02h289.04l110.55-304.36c18.88-49.24 24.68-78.95 54.98-124.63 4.02-6.07 7.43-11.3 11.93-16.8 2.54-3.13 4.26-4.3 6.92-7.45 3.3-3.9 3.42-4.96 7.23-8.93l47.16-42.63c13.3-10 40.93-27.58 55.68-34.1 34.8-15.4 108.52-42.23 147.52-11.12 41.22 32.9 4.74 99.02-9.52 142.02-1.88 5.66-3.66 9.4-5.86 15.7-2.16 6.17-3.1 10.05-5.45 16.1-23.5 60.7-45.47 130.07-68 187.06-14.8 37.45-30.16 85.8-45.4 125.24-7.87 20.36-22.3 54.74-22.3 71.1h285.45c.58-6.92 43.47-121.38 49.58-139.02 12.42-35.85 26.27-69.2 37.7-104.18l63.26-173.84c14.83-39.7 43.35-108.28 43.35-147.04 0-65.57-14.74-98.75-66.05-133.32-98.5-66.38-281.3-32.96-377.37 9.4l-59.35 28.64c-12.08 7.02-25.3 12.85-37.54 19.92l-37.78 21.47c-.77-34.4-42.3-70.82-69.22-87.02-52.38-31.53-99.1-31.54-162.38-31.54-77.57 0-190.67 33.1-258.28 70.3l-64.87 35.7c-6.06 3.28-12.35 7.02-17.95 10.78-2.9-34.9-44.9-75.65-76-91.04-13.63-6.75-11.93-7.46-28.35-12.95-35.45-11.84-69.17-16.37-109.3-16.37l-265.7 734.74zm1585.26-132.94c-2.93 12.58-34.75 91.54-37.7 104.2 12.35 5.94 112.97 19.9 131.2 21.4 135.6 11.24 236.58 16.4 372.5-6 40.67-6.7 100.26-22.7 136.02-39.95 26.3-12.68 60.38-29.6 81.55-49.53 30.77-29 35.04-31.1 58.93-73.97 5.03-9.02 8.68-20.3 12.23-30.88 17.46-52.15-1.36-111.2-42-142.64l-44.28-29.35c-16.54-9-30.82-17.2-47.9-25.73-36.72-18.37-173.55-78.15-173.55-120.96 0-136.06 311.23-92.57 393.93-79.8l60.28 9.74c1.94-8.3 4.7-13.76 7.4-21.33l27.23-73.76c2.87-10.06 3.95-7.17-27-13.16-136.7-26.5-293.2-32.38-434.62-15.4-77.6 9.32-180.6 37.67-242.42 84.37-46.73 35.3-84.97 83.22-91.98 145.1-4.17 36.74 8.73 68.6 25.27 90 3.77 4.88 8.53 11.32 12.97 15.76 22.63 22.64 87.06 58.3 117.65 72.7 38.33 18.06 139.7 65.5 154.36 98.84 11.14 25.33-7.16 61-32.5 77.85-11.78 7.8-25.64 14.07-41.3 17.96-28.53 7.1-24 4.83-50.6 8.66l-56.48 2.85c-11.9.04-15.48-1.88-26.82-1.9-9.82-.01-20.94.6-30.6.07l-55.54-3.7c-17.23-1.3-35.65-3.63-53.65-5.6l-102.65-15.85zm978.44-391.62c-.62 7.48-29.85 83.82-34.8 98.1l-106.77 293.77c-4.3 11.52-7.25 21.36-11.8 33.12-4.35 11.27-8.32 21.68-12.03 32.87-3.23 9.75-22.44 58.55-23.12 66.7h290.84l100.28-276.9 24.63-68.76c4.73-12.23 7.57-22.2 12.3-34.4 4.8-12.45 8.48-22.8 12.9-35.58 4.16-12 8.55-22.08 12.6-34.1l24.68-68.7c3.43-10.47 11.05-26.5 11.9-36.6-79.85 0-222.74 12.15-301.6 30.54v-.01z"/><path d="M40.18 252.43c15.85-11.82 41.42-25.66 59.27-35.87 124.4-71.18 258.2-131.92 398.78-166.93 78.1-19.46 75.6-19.83 157.12.7 25.04 6.3 48.42 13.22 72.7 20.87 106.38 33.52 167.96 65.18 264.4 112.63 36.98 18.2 100.5 59.34 118.64 68 3.1 118.95-10.96 257.8-33.46 370.5-53.06 265.7-181.8 549.04-431.64 676.47-9.94 5.07-62 29.34-71.3 28.75-10.84-.68-61.54-24.53-72.26-30-23.14-11.82-43.07-24.32-63.06-37.5-120.2-79.3-203.23-197.9-269.76-333.68C85.06 753.7 33.4 472.8 40.18 252.43zM-.01 336.8V230.2c12.12-2.83 125.72-70.6 145.4-80.86C250.67 94.5 372.28 42.3 487.92 14.24c13.16-3.2 26.65-6.12 41.24-9.03 12.5-2.5 28.23-6.74 43.54-6.74 19.04 0 68.4 10.87 86.4 15.94 27.25 7.67 51.72 13.7 78.07 22.48 57.37 19.1 88.27 29.7 146.06 55.04l68.8 31.77c10.5 4.5 23.88 11.33 33.25 17.03l49.17 26.26 15.9 9.23 31.9 18.4 31.2 19.07c11.17 7.22 28.38 14.1 28.38 20.1 0 162.06-6.3 280.94-42 437.63-23.7 104.03-39.04 141.85-74.7 232.44l-32.3 68.27c-40.22 80.48-69.77 119.4-122.35 184.76l-62.13 65.37-84.43 66.42c-19.05 12.84-61.02 37.32-81.2 46.3-9.2 4.1-65.58 28.77-71.8 28.77-7.46 0-81.57-31.8-94.8-39.87-6.1-3.72-11.2-5.6-17.54-9.4-38.54-23.02-91.44-58.26-123.3-90.4-9.2-9.3-17.55-15.76-26.96-25.13l-50.35-57.4c-18.43-22.77-40.57-51.97-55.85-77.05-60.83-99.83-89.87-160.48-126.94-271.8-8.55-25.67-16.77-53.98-23.85-82.12-18.6-74-31.92-150.72-40.55-227.1L-.01 336.8z" fill="#c7c6c6"/><path d="M791.2 317.9c-10.98.14-16.3-1.33-22.3-7.32-4.62-4.62-9.02-8.35-12.98-15.17l29.92 7.3 5.36 15.2zm-481.66 78.94l17.06-5.9c-2.23 4.68-14.23 16.15-18.8 18.54-2.47 5.3-1.42 3.74-5.8 8.04-2.7 2.63-4.18 3.35-7.77 6.5-5.65 4.94-8.53 10.67-14.1 14.77-2.26 4.46-6.1 7.67-9.55 11.9-3.83 4.7-6.3 7.77-9.44 12.1-6.18 8.48-12.53 17.02-17.92 26.2-10.74 23.85-20.3 37.95-19.92 69.66l5.3-2.65c4.57-7.74 19.67-24.46 31.23-27.64l-6.6 16.38c-16.08 33.1-54.78 142-25.4 175.9.98-5 .87-7.95 1.6-12.6 1.6-10 4.1-9.4 6.3-10.94 18 50.3 44 93.75 83.37 128.14 4 3.5.04.87 4.45 3.4-9.83-25.04-27.42-41.95-42.98-89.9-12.7-57.07-16.23-104.12 1.77-163.1 28.07-91.98 91.17-160.27 188.02-181.72 66.12-14.64 104.43-5.5 165.13 5.73l3.48-7.9c1.23-3.5 1.9-6 3.26-9.28 8.2-19.57 24.4-25.6 46.43-22.06-12.1 4.54-26.54 11.55-32.55 19.08-4.8 7.73-8 11.67-6.23 23.02.54 3.47 2.27 7.8 3.8 10.74l4.75 7.8c.14.23.48.73.7 1.12 9.42 6.24 14.9 14.47 32.25 15.84 18.43 1.46 25.66-8.8 41.04-9.26 8.6-.25 14.98 3.65 19.54 3.42 8.45-.4 6.82-6 20.8-1.74 15.57 4.73 32.04 8.36 30.4 17.17-5.6 10.6-12.5 12.2-21.95 19.44l21.23-3.22c15.47-2.26 35.04-7.6 37.13 8.57l-2.46 14.17 6.8-1.9c6.4-5.15 10.3-6.42 15.5-14.23 4.5-6.76 7.03-14.35 8.56-23.98l-.3-20.9c-4.54 4.56-2.4 4.1-7.36 7.3l-5.22-19.07c-.9 1.98-.92 1.94-1.68 4.1-1.3 3.77-.7 4.2-2.75 7.87-2.7 4.86-7.06 7.64-12.57 9.4-5.6-14.12-17.53-29.06-26.65-38.1-.3.33-.6.5-.7 1.12s-.57.87-.7 1.12l-3.77 7.44c-9.16-22.28-32.8-2.64-47.5-18.08-10.74-12.72 8.63-22.97 21.55-23l2.06 8.66 6.07 8.53c6.8-4.66 54.65-32.87 55.92-6.37l-11.24 15.65 15.4-5.43c2.84-4.2 13.26-11.73 18.33-14.03l4.56 10.03c3.14 23.12 1.42 23.7 6.96 22.1 8.1-21.14 9.47-21.48 9.62-49.72 10.63-1.52 24.5 14.07 28.73 18.7-10.07-23.94-22.74-26.7-36.87-35.95-7.66-5.02-6.35-8.4-12.77-13-9 1.65-12.15 6.62-21.16 4.3-7.4-1.9-8.7-7.9-12.95-12.8-19.52 2.36-30.48-5.07-35.74-19.94-6.93-19.6-3.28-24.05-28.5-29-26.32-5.16-31.25 16.5-89.5-12.66-41.86-20.97-65.54-41.4-96.76-72.03l-26.45-29.27c1.52 13.64 24.2 44.85 33.87 56 16.36 18.8 42 47.06 60.7 61.4 4.6 3.52 13.88 10.63 15.86 15-25.35 1.65-40.88-16.08-57.88-23.55-8.68 3.9-11.35 8.23-32.3 16.44-38.98 15.3-81.55 17.76-122.36 27.2 12.74 6.45 42.97 5.1 60.52 11.58-41.2 9.7-62.66.72-130.5 27.47C345 360.3 326.6 371.53 296.3 395.6c-4.53 3.6-6.58 7.3-9.9 9.95l23.13-8.7zm348 323.46c7.73 6.7 12.06 13.06 22.63 20.34 7.93 5.46 17 9.86 27.95 13.45 23.42 7.68 48.77 6.7 73.02.7l17.93-6.78c-19.4-2.46-37.75-.1-50.8-11.43-7.76-6.3-4.74-11.73-1.28-21.16 42.72-.75 102.9-8.33 118.8 24.7 28.74 33.65-18.9 139.45-35.04 166.83-33.08 56.18-47.64 79-115.7 103.38-53.3 19.07-134.57 33-182.64 2.13-22.2-14.26-33.37-34.36-42.55-67.12-11.42-40.75-6.88-60.2-8.5-101.62l-4.2.73c-4.42 5.72-22.7 18.02-31.76 20.18-16.98 10.92-45.4 7.7-56.4-6.96-19.87-26.05 34.7-66.6 51.2-32.6 2.76 6.58-5.7 13.66-12.94 13.87-8.64.24-14.12-6.33-18.05-11.76-4.86-.54-1.9-.9-2.94 2.1-.9 13.43 3.76 14.35 6.92 20.06 38 20.54 72.05-11 65.73-53.28-7.26-22.94-16.6-26.8-43.45-28.6l-4.86-.64c-9 5.76-25.85 5.65-36.2 10.7-17.07 8.36-18.6 46.24-43.45 89.9l14.16 2.27c14.44 1.98 22.27 7.5 26.58 18.22 13.93 23.03-30.4 48.87 18.55 77.9 11.9 7.04 26.1 14.84 32.37 25.2 8 13.2 5.64 28.57 16.4 40.55 30.54 12.2 56.32-2.1 72.7 28.52l3.88 5.5c17.57 23.24 38.6 1.35 69.46 1.84 30.5.5 43.13 18.84 74.15-1.28 17.4-11.3 32.1-27.04 52.68-37.12 20.32-9.95 49.7-11.6 69.12-22.45 25.04-14.02 18.75-31.64 28.42-61.4 10.5-32.27 11.44-39.17 30.1-61.5 21.93-26.23 19.6-26.23 25-64.78 8.26-58.84 17.23-40.54 18.8-73.88-25.08-37.84 1.4-68.08-116.1-56.04-8 .82-45.2 5.22-52.77 1-16.75 2.8-40.23-10.04-47.22-17.45-4.84-5.13-20.15-31.34-19.83-40.38-6.6 33.6 17.06 61.7 42.76 74.8 9.98 5.1 18.2 7.35 16.27 22.2-17.34 13.26-38.74 5.3-52.26-5.84-14.53-11.95-26.2-29.62-33.34-35.32 2.58 12.85 11.08 23 16.7 32.33h0zm-323.1 95.52c4.55 7.68 7.5 19.3 14.2 25.14 23.92-44.14 9.07-81.66 86.95-84.25l14.53-2.06c-10.8-14.8-16.96-18.27-27.42-29.38-8-8.5-18.27-21.22-25.85-31.65-11.47-15.77-33.5-53.6-29.9-81.5l10.58 25.4c6.47 8.4 12.36 20.62 19.1 29.38 6.98 9.1 16.28 19.53 24.12 26.18 18.8 15.94 32.8 26.7 62.14 36.13l24 3.83c-10.8-6.8-27.77-11.76-39.98-19.67-11.68-7.57-23.83-16.9-31.24-26.24-12.45-15.65-37.55-52-44.13-71.25-7.64-14.84 7.63-18.76 19.72-15.75 10.96 2.73 22.4 7.45 34.27 10.6 25.02 6.65 51.5 10.52 78.7 11.2 38.06.95 79.4-4.8 114.3-18.7 10.54-4.2 21.82-10.2 30.83-13.23l30.2-23.13c-18.36 6.7-37.3 17-58.55 24.4-21.4 7.45-44.1 13.33-68.3 16.2-25.8 3.06-52.54 2.02-76.88-4.06-17.66-4.42-46-16.2-56.08-26.77-22.6-21.9 61.84-20.56 73.72-21.62 65.4-5.86 138.2-23.9 187.7-67l25.94-23.82c3.45-6.83 8.02-8.83 12.44-14.96-19.78 4.7-21.8 13.5-33.26 22.3-53.06 40.75-141.3 65.2-209 60.88-31.22-2-64.38-11.42-73.38-34.97-6.5 4.8-19.73 30.52-31.34 19.93-6.3-12.54 15.3-39.53 21.26-47.4 7.83-10.35 23.76-31.33 32.7-38.22 2.62-4.94-.36.01 3.24-4.83.06-.07 2-2.5 2.5-3.13 1.8-2.3 2.8-4.1 4.6-5.85-12.47 3.97-35.46 16.92-48.08 25.4-47.74 32.12-76.8 73.78-96.73 127.8-23.23 63-17.6 126.78 2.22 190.7 2.93 9.46 6.17 18.95 9.77 27.94 3.2 7.98 8.62 18.33 10.4 25.97v.01z" class="K"/><path d="M3894 442.2c9.96 0 55.93-8.9 71.5-11.1 24.07-3.36 47.1-6.2 73.62-8.97 50.14-5.24 99.75-8.68 156.5-8.68l37.7-107.8-96.85 5.5c-6.76.53-6.22 1.5-14.45 1.7-17.17.44-37.88 2-54.9 4.34-27.15 3.74-106.98 12-129.4 17.83-8.67 2.26-6.72 4.15-11.6 18.93L3894 442.2z"/><path d="M499.8 941.4c-1.76-26.58 27.47-14.88 44.27-12.3 11.72 1.8 19.56-.93 29.75-4.34 18.38-6.15 14.74.05 29.73-1.14 14.04-23.55 24.02-31.42 53.12-14.58.53-.5 6.36.86-6.06-9.4-3.07-2.53-7-4.85-11.45-6.6-47.43-18.6-41.07 29-89.3 12.9-2.16-2.74-3.14 4-1.26-6.4 1.06-5.88 7.13-9.17 11.9-11.5 8.4-4.1 14.23-6.07 21.05-11.25 11.42-8.66 20.4-20.54 22.36-41.77 3.76-13.45 16.02-4.08 30.42-1.35-11.77-17.28-52.27-8.72-60.5 5.5 2.45 8.5 1.3 2.3 6.37 8.98-4.32 9.26-17.34 22.7-27.4 27.65-5.56 4.38-5.6 5.6-14.6 8.25 1.98-12.54 15.4-22.23 18.7-41.1l-.27-9.5-14.66-2.53-4.16-4.32c1.9-6.17-.55-2.08 2.53-4.67 4.6-7.37 10.2-10.72 19.6-14.46-15.83-.15-29.53 6.52-38.8 14.25-24.34 20.32-.13 27.7 2.75 29.88 2 17.5-14.02 40.9-24.83 36.54-11.14-9.33-4.54-18.63-12.53-27.5-1.25 11.12.9 32.95 2.37 44.6l10.87 36.12v.01zM168.94 426.2c13.98 4.6 17.97 8.4 23.24 19.6 8.6 4.56 11.57 7.36 23.88 11.97 10.12 3.8 17.52 5.86 21.2 13.7l.5 13.5 4.33-5.56c3.55-9.07 19.2-30.6 26-34.88 3.62-6.7 10.03-13 14.83-19.5-7.06 2.15-18.2 13.56-26.2 8.08-5.16-6.17-7.6-23.58-1.2-31.62 7.74-9.74 19.9 2.26 20.65-20.62-2.35-14.07-17.85-25.68-27.83-31.43 5.56 5.17 15.8 14.98 12.63 26.76-12.67 2.7-18.8-8.43-23.6 8.98-3.04 11.04-.97 23.25-2.4 35.28-7.17-2.7-12.55-18-15.2-25.77-1.62-4.7-4.26-12.3-3.5-17.13 1.3-8.08 5.57-5.38 9.98-10.8-3.4-18.7-21.53-32.7-45.03-30.08 9.72 3.97 18.92 1.54 26.3 8.73-.58 17.87-14.2 13-5.2 45.2 7.9 28.34 17.77 15.35 16.75 39.87-7.5-.93-21.32-7.9-26.7-11.9-9.96-7.42-6.98-14.78-14.44-23.28-22.5-25.62-46.28-12.3-51.25-11.7 12.83 1.2 26.8.7 31.76 11.66 7.22 15.93.4 27.77 10.5 30.97h0z" class="K"/><path d="M280.62 738.73c2.35-6.45-3.8-27.7-4.74-37.74-12.7-134.1 62.82-270.78 203.2-298.6 64.95-12.86 101.2-4.34 161.93 6.9 5.65-13.23 3.53-21.15 15.16-29.8 6-7.52 20.44-14.53 32.55-19.07-22.02-3.54-38.23 2.5-46.43 22.06-1.37 3.27-2.04 5.78-3.26 9.28l-3.5 7.88c-60.7-11.2-99-20.36-165.12-5.72-96.85 21.45-159.96 89.74-188.03 181.72-18 58.98-14.47 106.03-1.76 163.1h0zm254.93 326.83c15.14 35.64 32.37 14.07 62.8 12.32l2.48-.16c21.03-7.23 45.4 14.3 72.03 3.68 19.05-7.6 32.55-25.9 50.65-34.66 2.52-8.83 7.6-10.8 17.85-9.67 17.9-12.7 54.4-8.4 75.05-29.44 10.55-10.77 10.3-20.8 13.98-38.32 2.98-14.27 7.72-26.75 11.75-40.7 13.74 16.2 23.83 8.7 41.55 2.2l-14.07-4.28c-13.42 2.9-30.15 7.06-27.78-12.6l8.14-3.5c7.27-8.6 12.45-16.24 19.87-23.6 6.84-6.78 10.97-14.9 14.3-27.04 4.7-17.07 5.67-57.54 13.48-68.9 2.1-8.92 7.2-12.45 9.28-23.12 1.35-6.9.9-20.6-3.6-22.75-1.57 33.34-10.54 15.04-18.8 73.88-5.4 38.55-3.08 38.55-25 64.78-18.66 22.32-19.62 29.22-30.1 61.5-9.67 29.75-3.38 47.36-28.42 61.4-19.4 10.86-48.8 12.5-69.12 22.45-20.6 10.07-35.28 25.83-52.68 37.1-31.02 20.13-43.63 1.77-74.15 1.3-30.87-.5-51.9 21.4-69.46-1.84h-.01z"/><path d="M470.55 582.4c28.9 7.93 40.7 10.6 74.05 8.1 58.37-4.4 113.62-21 161.46-52.6 8.76-5.8 16.16-12.66 24.54-17.6 8.05-10.2 9.35-8.4 24.28-28.76-17.54 12.22-32.07 25.22-54.03 37.6-97.13 54.77-193.82 35.73-235.07 45.1 2.3 7.7-.75 2.6 4.77 8.17zm231.62 31.93c19.45 3.85 43.42 14.06 47.28 30.66-2.1 11.1-12.43 16.9-25.9 18.6-14.8 1.86-22.7-4.62-33.53-8.67 1.73 3.78 7.7 9.66 9.77 12.43 12.7 4.92 16.75 10.37 35.4 12.17 2.72.24 7.38.84 9.96.68 2.78-.17 2.3-.04 4.83-.8 5.22-1.6.58.98 3.74-2.24-16.8-27.3 46.27-6.8 52.54-3.9 3.26-10.42-25.4-40.94-45.18-51.3-22-11.54-50.77-18.87-79.88-17.07 7.3 4.78 13.96 5.47 21 9.44h0z" class="K"/><path d="M727.07 464.25l-25.94 23.82c-49.5 43.13-122.3 61.15-187.7 67-11.9 1.07-96.33-.3-73.72 21.63 9.2-11.08 30.15-9.5 43.15-10.08 44.46-1.94 93.75-7.82 134.53-22.3 29.08-10.33 48-19.82 70.8-35.05 11.44-7.64 46.8-39.95 53.58-50.8l-14.7 5.8zm-57.74 125.8c-9 3.03-20.3 9.04-30.84 13.23-34.9 13.9-76.24 19.65-114.3 18.7-27.22-.68-53.7-4.55-78.7-11.2-11.87-3.16-23.32-7.88-34.28-10.6-12.08-3-27.36.92-19.7 15.75 11.9-12.05 15.9-8.34 37.57-1.25 67 21.9 144.4 23.36 210.42-1.44 19.4-7.3 51.3-24.16 60.74-36.04l-30.9 12.87zm61.27-69.75c-8.38 4.95-15.77 11.82-24.54 17.6-47.84 31.6-103.1 48.2-161.46 52.6-33.36 2.5-45.16-.17-74.05-8.1-2.63 4.37-.34-.26-2.18 5.68 53.27 32.66 178.18.43 237.67-39.38 16.62-11.12 43.43-32.24 50.78-48L730.6 520.3z"/><path d="M416.42 626.04c5.02 4.23 7.1 10.38 24 22.14 30.97 21.55 76.18 32.17 115.35 30.78 9.28-.6 18.07-.64 27.35-1.68 6.16-.7 19.38-4.1 22.7-3.95-56.3-7.68-98.64 2.6-155.3-35.2-27.17-18.13-22.7-25.6-36.42-24.06-2.75 7.1-.4 5.66 2.34 11.97v.01z" class="N"/><path d="M328.9 938.08c8.56-7.67 17.96-11.38 29.87-16.53 14.05-6.08 21-5.87 21.9-24.3-1.8-9.48-9.2-18.77-21-14.93-15.97 5.22-37.7 39.7-39.47 64l8.7-8.23z" class="K"/><path d="M499.8 941.4l2.4 7.98c.28-.44.52-1.07.68-1.42l1.9-4.16c1.27-2.74-.02-1.44 2.45-4.9 2.17-3.02 4.24-4.5 9.72-5.07 8.88-.9 17.57 1.67 25.95 3.5 25.4 5.54 25.1-3.03 44.83-5.9 10.73-1.57 14.37 5.64 21.13-.24 3.9-3.38 7.8-11.4 12.8-16.04 15.7-14.53 27.5-1.55 41.58 3.12-2.94-5.52-3.65-5.07-6.57-9.22-29.1-16.84-39.08-8.97-53.12 14.58-15 1.2-11.35-5-29.74 1.14-10.18 3.4-18.03 6.14-29.74 4.34-16.8-2.6-46.03-14.3-44.27 12.3h0zm55.97-262.43c-39.16 1.4-84.38-9.23-115.35-30.78-16.9-11.76-18.98-17.9-24-22.14-3.23 8.74 20.38 27.5 27.92 32.6 12.46 8.4 27.35 15.24 44.22 20.38 17.63 5.37 35.9 8.27 55.36 9.1 10.73.46 21.33.3 32.03-.56 4.62-.37 9.58-.84 14.34-1.48l6.15-1.14 4.33-1.92c.27-.66 1-.5 1.43-.83l-46.4-3.27-.02.02z"/><path d="M602.9 255.32L520.77 207c3.15 7.9 10.7 15.7 15.47 22 4.2 5.55 4.1 4.28 9.26 8.7 4.1 3.52 14.37 18.28 31.26 26.15 11.45 5.34 17.14-2.38 26.13-8.52h.01zm-209.36 778l44.83-19.54 1.64-11.94-1.34-9.04c-21.33-7.15-24.37 1.63-35.65 12.56-8.5 8.23-16.47 19.73-18.38 35.8l8.9-7.85zm82.14 65.66c10.76-16.92 39.02-21 41.3-39l-2.43-8.74c-5.68-5.5-6.4-6.5-17.3-5-13.68 10.4-29.13 32.02-26.56 58.6l2.14-2.8c2.73-3.25.87-1.1 2.87-3.02h0z" class="K"/><path d="M803.2 447.6c1.64-8.8-14.82-12.43-30.4-17.17-14-4.24-12.37 1.33-20.8 1.74-4.57.23-10.94-3.67-19.55-3.42-15.37.46-22.6 10.72-41.04 9.26-17.34-1.37-22.82-9.6-32.25-15.84 3.14 10.77 13.15 18.3 25.72 22.73 27.43 9.67 38.67-11.14 61.45-5.83 13.2 3.08 4.2 4.04 17.56.4 12.7-3.48 24.85 6.64 39.3 8.14h.01z"/><path d="M334.4 815.83c.96 7.47 11.14 28.44 15.67 34.03 11.75-9.83 15.43-43.9 24.24-58.25 8.75-14.23 32.2-24.6 56.23-24.8l4.86.64c5.53-2.8 11.24-2.1 16.95-3.13l-5.17-8.08-11.63.48c-77.88 2.6-63.03 40.1-86.94 84.25-6.7-5.85-9.65-17.46-14.2-25.14h0z" class="L"/><path d="M748.25 736.6c2.83-17.03 7.56-11.53 25.52-11.8l35.92-.68c43.17.46 43.7 11.5 56.08 16.02-15.9-33.03-76.08-25.46-118.8-24.7-3.46 9.43-6.48 14.87 1.28 21.17h0z"/><path d="M781.12 754.8c-24.25 6.02-49.6 6.98-73.02-.7-10.95-3.6-20.02-8-27.95-13.44-10.57-7.3-14.9-13.64-22.63-20.35 4.83 16.4 36.06 38.3 59.57 44.5 25.05 6.6 66.6 5.15 86.74-7.54l-22.7-2.48z" class="L"/><path d="M549.85 905.96c12.52.04-1.36-1.03 21.06-11.07 8-3.6 14.03-6.62 19.9-12.4 18.86-18.52 11.2-20.5 19-43.5 14.04-3 16.02 1.95 29.12 3.95-6.84-7.8-21.63-12.08-35.02-7.9-1.96 21.24-10.94 33.12-22.36 41.78-6.82 5.17-12.64 7.14-21.05 11.24-4.8 2.34-10.85 5.62-11.9 11.5-1.88 10.4-.9 3.66 1.26 6.4v-.01z"/><path d="M584.92 1128.74c5.3-11.38 6.15-10.38 13.9-17.32 3.48-3.12 4.38-5.15 7.7-8.4 5.4-5.25 4.17-2.97 7.66-9.34 4.3-10.62-2.62-16.38-13.35-15.97l-2.48.16c-26.13 27.4-16.34 51.83-13.44 50.86h0z" class="K"/><path d="M482.84 729.23c-29.33-9.43-43.34-20.2-62.14-36.13-7.84-6.65-17.14-17.08-24.12-26.17-6.73-8.76-12.62-20.97-19.1-29.4 2.8 28.2 69.18 103.74 130.84 104.75-7.1-5.18-19.34-6.83-25.5-13.06h0z" class="O"/><path d="M388.95 857.68c11 14.67 39.4 17.88 56.4 6.96-16.15.9-30.15-2.16-32.2-15.3-3.17-5.7-7.83-6.63-6.93-20.06-8.35 5.53-15.25 13.62-17.26 28.4h0z" class="P"/><path d="M413.14 849.34c2.06 13.14 16.06 16.2 32.2 15.3 9.07-2.16 27.34-14.46 31.76-20.18 3.66-6.93 6.42-14.55 7.24-23.7.4-4.58.28-10.48-.53-14.63-1.2-6.1-1.86-6.9-4.96-10.06 6.33 42.27-27.7 73.82-65.72 53.28h0zM446.5 431.8c-8.95 6.9-24.9 27.87-32.7 38.22-5.96 7.88-27.57 34.87-21.26 47.4 4.83-6.4 9-17.56 14.46-25.5 17.38-25.18 39.34-46.44 51.1-64.25l-11.58 4.1zM328.9 938.08l-3.62 17.4c26.67-27.57 50.9-23.6 57.85-36.6 4.45-8.34 2.47-16.5-2.46-21.64-.9 18.44-7.85 18.22-21.9 24.3-11.9 5.15-21.3 8.86-29.87 16.52v.01z"/><path d="M723.52 1046.74l3.72 11.46c8.2 8.22 13.33 17.5 27.17 22.53.33-1.07-4.24-15.43-5.05-21.26-1.4-10.13-4.98-16.73-8-22.4-10.25-1.12-15.33.84-17.85 9.67h0z" class="N"/><path d="M388.95 857.68c2-14.78 8.9-22.87 17.26-28.4 1.06-3-1.9-2.64 2.95-2.1 15.1-12.3 21.14-2.48 29-1.83l1.97-.28c-16.5-34-71.07 6.54-51.2 32.6h0zm4.6 175.65c-3.06 6.46-5.62 10.88-4.9 18.73 9.28-13.86 37.94-20.88 54.5-29.6 1.4-7.57 3.86-17.83-3.13-20.63l-1.63 11.94-44.84 19.54v.01zm82.14 65.66l-.7 13.8c.4-.33.8-.68 1.16-1.03l1.13-1.03 1.06-1 10.96-10.87c5.07-4.14 9.4-6.63 15.07-10.05 9.3-5.6 26.38-15.6 12.6-28.83-2.27 18-30.52 22.1-41.3 39.02h0zm312.1-702.38l2.7 9.73c17.94-7.97 25.85-20.05 53.22-16.1-1.27-26.5-49.12 1.7-55.93 6.36h0z"/><path d="M878.42 404.78l.45 11.1c13.85-9.27 13.63-31.2 14.07-52.2 5.97.7 10.75 3.74 15.17 7 3.42 2.52 10.54 9.03 12.58 11.47-.9-3.67-2.34-5.54-3.93-8.4-4.2-4.62-18.1-20.2-28.73-18.7-.15 28.24-1.5 28.6-9.62 49.72h.01z" class="O"/><path d="M734.43 689.97l21.36-.76-2.02-8.4-18.6-1.28c-18.64-1.8-22.68-7.25-35.4-12.17l-7.02-2.53c7.57 17.7 36.74 22.3 41.67 25.14z" class="M"/><path d="M497.22 1046.23c10.93-1.5 11.64-.48 17.32 5 3.84 1.04 6.46 1.9 9.48 3.8 5.4 3.37 1.8 2.48 7.66 5.02-16.38-30.6-42.16-16.3-72.7-28.5-.96 12.6 22.93 14.8 38.25 14.68h0z" class="L"/><path d="M868 446.45c-1.53 9.64-4.06 17.22-8.56 23.98-5.2 7.82-9.1 9.08-15.5 14.24l-2.08 11.28c26.8-7.3 34.9-39.83 30.48-57.1-1.43-5.62-.56-2.06-2.14-4.07l-2.2 11.68z" class="M"/><path d="M753.7 677.16c13.93-10.78 41.12-.2 55.82 5.65l-3.28-9.54c-6.27-2.9-69.35-23.4-52.54 3.9h0zM749.45 645c-3.86-16.6-27.83-26.8-47.28-30.66l-17.8.5c10.73 7.46 30.8 8.84 50.7 20.54 6 3.53 8.44 6.78 14.36 9.6h.01z"/><path d="M869.63 926.52l11.55-5.45-31.2-10.65-8.14 3.5c-2.37 19.67 14.36 15.5 27.78 12.6h0z" class="N"/><path d="M256.73 433.1c-.14-26.7 3.64-23.1 14.68-26.68 7.73-2.5 10.16-8.67 9.5-16.35-.6-7.05-1.35-6.5-4.75-9.2-.76 22.88-12.9 10.88-20.65 20.62-6.4 8.04-3.95 25.45 1.2 31.62h0z" class="L"/><path d="M802.48 463.82c-7.88 8.2-9.6 6.06-15.2 12.7 17.8-1.6 34.13-8.44 52.34-4.12-2.1-16.18-21.67-10.83-37.14-8.57h0zM228.6 556l-.6 12.07c9.18-4.45 13.7-17.18 25.24-23.33l6.6-16.38c-11.56 3.18-26.67 19.9-31.24 27.64h0z"/><path d="M409.15 827.2c3.94 5.43 9.4 12 18.06 11.76 7.23-.2 15.7-7.3 12.93-13.87l-1.97.28c-7.87-.65-13.9-10.46-29.02 1.83z" class="P"/><path d="M791.2 317.9l-5.36-15.18-29.92-7.3c3.96 6.8 8.36 10.54 12.98 15.16 6 6 11.32 7.46 22.3 7.32h0z" fill="#44080a"/><path d="M584.92 1128.74l.2 10.47c4.02-4.3 5.3-8.9 8.85-12.85 2.38-2.64 37.82-32.2 20.2-32.67-3.5 6.37-2.26 4.1-7.66 9.34-3.32 3.23-4.22 5.27-7.7 8.4-7.76 6.94-8.6 5.94-13.9 17.32z"/><path d="M268.1 444.53c-6.8 4.27-22.46 25.8-26 34.88l1.14 9.58c5.4-9.2 11.74-17.73 17.92-26.2 3.15-4.32 5.6-7.4 9.44-12.1 3.44-4.22 7.3-7.43 9.55-11.9l-12.04 5.74z" class="L"/><path d="M552.8 875.83c3.88-10.63 9.92-17 8.9-31.8l-4.78-1.04c-3.32 18.87-16.72 28.57-18.7 41.1 9-2.67 9.03-3.88 14.6-8.26h0z"/><path d="M848.56 386.67c-2.64 5.93-8.02 10.97-11.17 15.14 14.98-1.53 21.02-14.3 34.06-19.14l-4.55-10.03c-5.08 2.3-15.5 9.84-18.34 14.03h0z" class="M"/><path d="M758.8 388.64c14.12-10.48-2.8-3.62 23.6-14.35l-2.06-8.66c-12.92.04-32.3 10.3-21.55 23h0z"/><path d="M237.26 471.46c-3.68-7.85-11.08-9.92-21.2-13.7-12.3-4.6-15.27-7.4-23.88-11.97 7.28 20 28.82 17.2 44 28.63l1.07-2.95z" class="L"/><path d="M391.66 887.92c-4.3-10.72-12.14-16.24-26.58-18.22-6.96-.3-7 2.38-9.35 7.33 20.1 2.12 21.73 4.5 35.93 10.9h0z"/><path d="M309.53 396.85c-4.32 6.44-5.57 4.85-9.93 9.2-3.6 3.6-5.44 6.08-8.07 8.77l16.27-5.35c4.56-2.4 16.56-13.86 18.8-18.54l-17.06 5.9z" class="O"/><path d="M897.64 790.88l-.3 7.74 4.26 1.37 11.66-2.55c1.47-.98 3.53-1.9 5.54-3.47 6.35-4.97 2.16-.94 4.8-5.9-9.3-.1-18.82-.17-25.95 2.8z" class="N"/><path d="M901.6 800c-2.08 4.34-1.6 1.63-.7 7.67 10.15 4.4 20.2-3 25.58-10.04l-13.22-.18L901.6 800h-.01z" class="M"/><path d="M754.4 1080.73c-13.84-5.02-18.96-14.3-27.17-22.53.55 12.07 18.95 28.7 30.5 32.03l-3.32-9.5zM192.18 445.78c-5.27-11.2-9.26-14.98-23.23-19.6l-.34 7.16c9.94 4.6 9.98 1.04 18.27 8.67.38.36 1.4 1.5 1.8 1.8 3.05 2.4.06.45 3.5 1.95h0zm348.2 376.18c-3.08 2.58-.63-1.5-2.53 4.67l4.15 4.32 17.78-12.72c.22-.72.8-.74 1.02-1.83l-20.42 5.56z" class="O"/><path d="M900.12 719.9c9.3.1 12.9-5.58 15.1-13.18-6.8 2.86-16.27 4.2-15.1 13.18z" fill="snow"/><path d="M903.1 729.4c9.2-.8 11.77-4.67 14.24-12.88-7.97 2.24-15.12 3.74-14.24 12.88z" class="M"/></svg>