<?xml version="1.0" encoding="UTF-8"?>
<!DOCTYPE svg PUBLIC "-//W3C//DTD SVG 1.1//EN" "http://www.w3.org/Graphics/SVG/1.1/DTD/svg11.dtd">
<!-- Creator: CorelDRAW 2018 (64-Bit) -->
<svg xmlns="http://www.w3.org/2000/svg" xml:space="preserve" width="83.3966mm" height="86.3598mm" version="1.1" style="shape-rendering:geometricPrecision; text-rendering:geometricPrecision; image-rendering:optimizeQuality; fill-rule:evenodd; clip-rule:evenodd"
viewBox="0 0 8339.66 8635.98"
 xmlns:xlink="http://www.w3.org/1999/xlink">
 <defs>
  <style type="text/css">
   <![CDATA[
    .str0 {stroke:black;stroke-width:42.33;stroke-miterlimit:22.9256}
    .fil0 {fill:#121325}
   ]]>
  </style>
 </defs>
 <g id="Layer_x0020_1">
  <metadata id="CorelCorpID_0Corel-Layer"/>
  <path class="fil0 str0" d="M2537.38 2305.72c-95.48,13.61 -1530.2,1.26 -1792.93,2.79 -253.82,1.47 -276.31,209.16 -340.45,429.14l-400.2 1395.71c-8.4,129.75 -0.25,624.37 -0.25,778.1l0 2056.16c-0.02,178.83 16.75,307.95 119.97,398.86 135.6,119.42 293.15,100.14 500.76,100.78l151.28 0.34c-55.74,113.52 -347.64,487.64 -342.88,553.93 51.44,37.68 271.33,17.48 358.32,17.48l1143.88 0.12c-23.54,81.92 -62.82,168.35 -92.78,248.48 -60.37,161.5 -94.69,195.98 23.28,195.98l4630.98 0c98.74,0 56.12,-63.62 3.8,-194.96 -30.16,-75.71 -72.44,-172.23 -93.01,-249.53 165.96,-0.41 1369.01,14.91 1419.13,-10.17 33.94,-36.46 -133.62,-252.73 -158.01,-288.14 -63.83,-92.68 -127.18,-178.72 -182.55,-274.42 146.42,1.01 753.96,17.45 845.56,-6.74l8.39 -3094.62c-0.13,-385.81 -6.14,-254.97 -125.45,-679.72l-408.55 -1372.44 -1999.82 -4.29 -0.18 -1231.54c0.39,-92.63 22.98,-126.68 -68.78,-126.68l-3139.81 0c-79.41,0 -60.09,37.87 -59.57,117.4l-0.13 1237.98zm-2465.44 1985.34l8199.03 -0.32 0.57 -132.7 -8199.83 0.23 0.23 132.79zm6305.54 3677.91l1355.33 1.92c-28.96,-63.88 -525.5,-782.79 -609.82,-916.83l-244.18 -367.23c-21.89,-32.11 -38.14,-56.99 -59.86,-88.17 -20.43,-29.36 -39.28,-67.24 -63.25,-94.56l-934.53 -2.42 556.31 1467.29zm-570.2 -5367.18l-1.31 90.39c194.62,17.39 469.47,1.73 671.87,1.58 568.22,-0.4 456.49,-27.38 694.2,662.56 112.08,325.32 -46.23,303.05 -295.94,303.05l-5408.97 0c-230.01,0 -416.4,30.39 -295.76,-302.62 251.28,-693.66 116.35,-662.76 694.01,-662.85 204.95,-0.05 473.37,14.8 670.52,-1.81l1.25 -90.38 -1101.76 1.83c-218.03,27.61 -254.69,305.93 -296.1,451.47 -31.29,109.97 -156.82,511.42 -153.03,596.78 5.04,114.01 71.19,189.65 184.01,194.28 241.72,9.9 506.4,0.1 750.69,0.1l3741.82 0c495.04,0 1008.15,13.28 1500.89,0.12 113,-3.02 180.75,-67.55 191.97,-176.61 10.35,-100.61 -113.37,-477.29 -147.94,-600.2 -23.29,-82.79 -53.02,-219.46 -86.34,-292.94 -105.03,-231.55 -324.07,-176.73 -569.43,-176.63 -123.49,0.04 -246.99,0.01 -370.47,0 -112.21,0 -267.31,-8.92 -374.18,1.88zm-5275.08 5368.26l1425.81 0.82 563.35 -1468.35 -1020.38 -0.75c-18.9,50.97 -193.97,297.87 -237.35,363.96 -81.64,124.38 -160.27,243.05 -244.38,366.99l-366.76 550.27c-34.27,51.7 -95.62,134.2 -120.29,187.06zm990.66 -1576.67l0.01 39.03c339.61,10.25 851.49,0.84 1194.61,0.8l4019.89 -1.14 -0.33 -438.91 -5214.21 -0.99 0.03 401.21zm4282.7 -3627.47l0.16 95.34c94.95,13.29 280.82,2.29 385.04,1.54 71.29,-0.52 106.76,-4.69 156.71,39.45 35.92,31.75 60.63,68.97 52.4,134.56 -16.2,128.87 -128.91,130.74 -255.46,130.64l-3927.08 0c-130.16,0.01 -250.41,5.18 -272.79,-122.94 -45.7,-261.56 340.38,-154.01 592.32,-184.05l0.87 -94.46 -950.69 -2.28c-106.79,0.99 -155.59,51.4 -186.49,135.97 -57.16,156.41 -106.82,318.19 -162.19,476.97 -91.56,262.55 -21.71,213.3 358.43,213.3 1713.46,0 3426.92,0 5140.38,0 102.57,0 214.26,4.27 315.63,0.23 130.01,-5.19 84.62,-115.75 57.13,-200 -52.68,-161.39 -107.58,-323.4 -163.46,-484.91 -27.05,-78.19 -77.73,-136.98 -171.97,-142.16l-968.94 2.8zm-5718.93 1320.91l8170.52 0.17 -495.38 -1708.17 -1954.49 -1.21 -1.78 150.4c71.87,10.21 650.24,3.15 774.22,3.22 299.89,0.17 468.45,-28.74 593.16,194.17 36.66,65.52 255.86,815.15 254.73,917.3 -1.46,134.33 -63.75,212.8 -151.23,252.31 -91.45,41.31 -612.82,21.8 -752.23,21.8l-4695.81 0c-137.41,0 -674.05,19.12 -761.98,-21.4 -242,-111.54 -127.64,-391.46 -78.08,-564.79 32.15,-112.41 142.02,-534.01 181.92,-605.4 123.66,-221.25 284.64,-194.36 584.04,-194.17 125.15,0.08 711.68,7.73 783.18,-2.83l-0.26 -148.72c-103.45,-10.44 -1335.31,-1.91 -1551.66,-1.91 -478.5,0 -389.49,-26.73 -547.36,495.05l-351.51 1214.18zm2519.81 -3019.07l3.99 1904.76 3122.36 1.13 3.7 -1954.1 -3129.78 -0.38 -0.27 48.59zm-737.48 7346.67l4603.12 1.04 -727.44 -1907.31 -72.59 0.18 -2954.57 0.08 -55.57 0 -64.74 -0.17 -728.21 1906.18zm-649.3 -1616.33c23.62,-23.62 37.77,-50.89 55.04,-78.35 47.57,-75.63 128.34,-179.84 167.12,-249.45 58.39,-104.77 -49.82,-523.01 46.74,-544.73 13.52,-3.04 28.8,-2.16 42.79,-2.09 1695.64,8.78 3406.11,0.55 5103.94,0.57l128.53 0.15c26.21,3.88 13.47,-1.24 32.21,12.85 27.78,33.24 3.43,388.6 9.49,484.08 3.34,52.66 151.67,256.11 184.15,303.35 42.58,61.9 91.38,148.55 135.25,197.22 9.3,-205.9 1.04,-431.38 1.04,-639.45 0,-199.42 15.09,-1145.8 -13.14,-1265.06 -37.77,-159.59 -164.36,-286.41 -316.66,-331.71 -115.06,-34.23 -1076.81,-17.8 -1272.31,-17.8 -858.26,0 -1716.54,0 -2574.82,0 -420.96,0 -870.26,-15.2 -1287.69,0.35 -196.2,7.3 -328.83,125.21 -393.12,248.06 -76.03,145.29 -50.96,418.39 -50.96,597.42 0,211.64 -11.13,1161.7 2.4,1284.59zm6219.85 597.31l827.74 0.51 16.67 -3036.27 -8209.83 1.55c-11.54,142.83 -1.64,797.26 -1.64,994.85l0 1500.43c0,154.67 -18.89,324.75 70.58,425.82 109.62,123.84 187.09,114.36 388.63,114.36 81.54,0 170.64,3.61 251.04,0.95 59.65,-1.97 67.08,-32.48 125.42,-127.54 62.38,-101.68 134.52,-197.34 201.03,-299.05 55.7,-85.18 39.14,-86.81 39.14,-207.16 -0.01,-272.21 -14.18,-1615.25 10.48,-1743.87 27.43,-143.11 114.59,-254.34 191.23,-309.28 126.16,-90.43 197.71,-111.44 385.71,-111.18l4501.32 0.02c147.57,0 353.7,-11.85 494.38,3.24 122.04,13.08 264.58,85.53 330.57,169.04 79.28,100.33 131.82,196.67 133.06,371.18l-0.1 1750.52c-0.03,124.35 -14.55,118.3 42.81,203.52 52.12,77.41 142.53,237.53 201.76,298.36zm227.88 -2531.82c-346.22,86.89 -215.47,603.12 127.59,522.2 344.9,-81.36 224.44,-610.55 -127.59,-522.2zm27.73 64.86c-274,60.87 -169.89,453.47 86.69,389.3 252,-63.04 159.07,-443.88 -86.69,-389.3zm-12.93 1331.62c-260.18,75.44 -142.99,447.32 105.46,378.04 88.18,-24.59 166.03,-119.82 137.03,-236.59 -22.77,-91.7 -124.12,-175.77 -242.49,-141.45zm22.91 67.21c-171.12,41.94 -106.11,286.13 61.75,243.23 155.71,-39.8 101.87,-283.32 -61.75,-243.23zm-24.29 -670c-251.53,69.87 -146.77,449.64 106.12,377.85 88.67,-25.19 165.07,-119.44 138.11,-236.56 -21.3,-92.48 -125.9,-174.16 -244.23,-141.29zm23.06 67.46c-170.53,42.89 -103.15,285.18 62.6,243.2 154.75,-39.2 103.94,-285.07 -62.6,-243.2z"/>
 </g>
</svg>
