<svg xmlns="http://www.w3.org/2000/svg" width="301.761" height="87.039" viewBox="0 0 7984.06 2302.92" shape-rendering="geometricPrecision" image-rendering="optimizeQuality" fill-rule="evenodd"><style><![CDATA[.K{fill:#214468}.L{fill:#204369}.M{fill:#234368}.N{fill:#21446a}.O{fill:#224569}.P{fill:#23446a}]]></style><path d="M3348.56 821.26v660.4c0 133.27 71.78 160.87 203.2 160.87h728.14c241.2 0 195.86-200.67 115.65-234.2-85.2-35.6-668.4-19.8-801.45-19.8V914.4c174 0 323.08-8.36 491.06-8.46 139.35-.1 372.54 58.7 372.54-127 0-67.77-64.3-110.07-143.94-110.07h-812.8c-101.43 0-152.4 50.97-152.4 152.4z" class="L"/><path d="M6862.23 812.8V1143c0 109.55 51.54 143.94 160.86 143.94h711.2c0 42.23-8.47 58.65-8.47 110.06H7023.1c-37.9 0-85.7 9.8-108.05 27.42-43.9 34.56-117 218.12 141.92 218.12h736.6c230.67 0 186.26-109.7 186.26-440.27 0-118.6-35.08-149.82-132.7-163.64l-646.24 2.77c-47 0-50.2-8.46-93.13-8.46 0-133.2 35.35-364.07-118.53-364.07-86.24 0-127 56.68-127 143.93z" class="K"/><path d="M6049.43 1642.53h465.66c129.42 0 254-5.28 254-135.47V804.33c0-154.52-193-180.7-251.87-57.14-35.4 74.28-10.6 510.95-10.6 641.34h-491.07c0-48.34-17.16-121.96-7.23-210.43 8.73-77.75 27.84-384.07-23.7-452.9-63.2-84.4-176.17-70.4-223.05 11.4-23.76 41.45-16.96 97.23-16.94 160.86.02 106.34-24.04 590.3 19.2 675.05 38.3 75.02 173.44 70.02 285.6 70.02z" class="L"/><path d="M2129.37 795.86c0 49.44 34.03 90.83 69.8 108 71.03 34.1 421.52 10.54 522.86 10.54h254c34.57 0 25.4 26.55 25.4 93.14 0 39.33-91.32 28.74-152.44 25.44-37.66-2.04-40.62-8.3-84.3-8.85-112-1.38-262.8-9.7-262.8 127.34 0 90.45 100.07 167.77 158.85 222.14l189.37 191.64c71.27 86.04 125.75 77.3 244.44 77.3 223.5 0 191.48-218.5 61.77-240.14-47.5-7.92-55.72 15.3-112.47-5.5-25.38-9.3-37.75-20.52-37.53-49.17 1-131.8 240.63 4.87 240.63-196.27v-355.6c0-90.45-61.93-127-152.4-127h-838.2c-72.65 0-127 55.76-127 127z" class="K"/><path d="M1358.9 872.06c0-42.55-7.6-37.9-8.47-76.2-24.9 6.65-77.7 50.77-101.66 67.67l-208 147.6c-35.06 25.35-69.18 53.55-105.2 72.6v330.2c38.72-10.34 40-33.87 78.32-74.08 89.95-94.4 68.58-119.37 203.77-194.16L1477.4 999c46.58-24.05 171.78-100.7 211.7-110.02l-34.32 219.68c-8.73 64.8-31.98 156.35-33.4 220.6l228.6-101.6c0-115.9-21.16-204.8-36.47-310.67-6.45-44.6-10.55-97.4-17.9-151.42l-9.56-75.1c-5-31.26-11.63-52.25-12.26-80.87-45.98 12.28-32.48 50-87 82.33-37.94 22.5-73.02 39.9-108.2 61.12-49.65 29.94-165.2 106.33-219.65 119.02z" class="M"/><path d="M4694.76 956.73c8.36 31.3 56.26 61.42 98.93 95.8 111.4 89.73 133.3 98.85 24.45 179.98l-211.83 169.16c-31.96 24.7-20.25 11.54-38.55 46.12 33.66-4.9 41.22 2.46 59.27 21.2 31.94-15.92 15.6-18.86 71.94-16.93-3.83 50.1-7.53 110.65 4.22 165.03l-54.5-10.9c5.66 13.14 3.5 9.26 3.74 27.9 90.7 0 201.2-114.3 273.55-175.18 181.42-152.68 165.13-146.38 276.78-61.93 19.62-16.4 11.22-4.62 15.3-33.66 2.32-16.52-4.43-32.3-6.88-39.65 32.52.07 41.7-6.63 47.85-43.94 3.37-20.48.14-83.78.14-108.46l-107.2-3.3c-12.75-66.66.45-90.66-33.46-120.35-1.5-1.3-3.7-2.62-5.17-3.8l-15.03-10.84c-13.92 33.1 10.02-17.42 11.32-19.83-23.48-50.14-162.28-137.58-209.08-177.53-28.85-24.62-43-44.1-78.8-52.47-49.4 8.75-73.66-4.32-118.53-6.32-3.42 16.16-8.9 78.7-5 102.52 10.45 63.75 21.1 11.45-3.46 77.4z" fill="#22456a"/><path d="M969.44 999.06l331.5-227.28c30.38-22.4 81.2-67.9 117.22-77.52-15.5 32.32-9.9 86.2-25.4 118.53 83.03-19.34 166.55-83.78 242.78-121.28 61.13-30.07 58.53-29.02 92.6-85.22 40.14-66.2 16.48-81.9-13.26-132.55L1521.4 116.9c-12.9-21.32-20.8-38.1-33.7-59.44-4.04-6.68-12.16-20.13-16.53-25.8-19-24.7-1.3-13.66-27.6-23.2 7.48 89.93 61.22 423.07-8.47 474.14-20.62-88.52 8.47-106.75 8.47-186.27-47.23 31.63-103.37 99.6-141.4 146.47-50.88 62.73-175.37 283.52-225.35 367.32-19.52 32.72-35.45 56.74-53.7 90.24-15.78 29-46.7 72.52-53.7 98.7zM88.9 558.8l61.4 91c23.68 26.34 263.75 153.92 302.68 162.98L434.55 694.5 661 850.3c75.34 56.95 146.9 105.75 223.77 157.23-9.47-40.63-292.77-509.17-332.1-556.9-26.46-32.1-38.27-46.47-67.94-76-18.93-18.84-60.48-68.35-74.08-78.3 0 47.05 1.04 54.22 9.45 92.54 12.7 57.8.2 41.1-1 93.73h-16.93c-13.96-59.94-25.4-56.65-25.4-135.47 0-128.02 25.4-220.08 25.4-347.13-7.72 8.87-1.8 1.4-10.78 14.62l-263.1 473.5c-15.5 30.83-22.24 45.04-39.4 70.67zm7120.46 211.66c0 130.46 101.74 135.75 211.65 135.48 99.2-.25 387.58 20.92 475.92-6.7 93.53-29.25 121.9-172.2 18.2-216.5-54.74-23.38-540.9-28.47-616.34-9.13-40.45 10.37-89.43 51.03-89.43 96.84z" class="K"/><path d="M1257.3 1532.42l8.53-59.62 2.67-8.26 5.7-33.64c-58 0-88.72 16.93-220.1 16.93-21.08-23 17.4 27.2-6.76-12.1-9.54-15.55-.73-3.48-9.52-14.68-7.36-9.37 5.24-2.26-17.63-15.6-27.7 11.28-50.38 30.97-69.66 57.3-28.95 39.5-14.96 290.72-14.96 349.1v491.06c42.36-3.52 42.1-16.83 88.33-47.13 45-29.5 39.76-29.1 38.93-96.53-4.9-399.18-19.3-260.25 143.3-542.5 13.67-23.74 29-72.6 51.16-84.35z" fill="#22456a"/><path d="M453 863.6l-16.97 27.55c-59.37-30.6-127.37-21.33-211.67-21.2-3.57-13.75 20.32-53.47-33.3-35.48-23.5 7.9-12.34-23.18-22.43 28.54-8.92 45.75-1.56 14.5 4.96 25.98l205.94 115.76c116.7 62.83 306.45 147.72 381.8 244.73 14.68 18.9 21.75 22.9 36.22 39.98 37.53 44.3 80.54 113.64 121.07 124.47l.26-254.27c1.16-95.44-2.56-68.6-111.52-150.94-25.52-19.3-47.88-34.18-73.73-53.28-42.1-31.1-199.58-150.55-238.35-159.58 0 73.14 14.72 75.84-42.3 67.73z" class="N"/><path d="M2137.83 1185.33c0 96.4-13.95 368.3 22 435.2 43.2 80.35 176.7 76.5 215.68-19.7 23-56.8 22.27-427.28 3-503.77-12-47.66-42.84-70.25-88.08-81.93-40.1-10.35-90.38 6.76-116.8 36.68-25.5 28.85-35.8 81-35.8 133.54z" class="M"/><path d="M588.4 1490.13c-10.96 45.07 51 116.53 74.6 154.04l91.26 145.8c38.47 64 40.7 100.5 37.66 199.95-1.34 44.15-9.15 57.72-8.94 109.6l.2 127.2c30.83 20.65 95.33 72.86 135.47 76.2v-668.86c0-72.42 13.4-161.52-33.9-186.27-27.12 25.12-122.52 18.1-178.1 17.05-17.9-.34-33.6-1.95-49.78-4.32-13.95-2.05-15.86-4.65-35.87-5.05-32.74-.65-34.78 4.62-32.58 34.66z" class="N"/><path d="M3695.7 1126.06c0 86.62 19.88 152.4 160.86 152.4 97.1 0 355.78 13.76 425.35-23.4 63.62-33.96 132.33-230.6-129-230.6-146.58 0-457.2-35.4-457.2 101.6z" class="L"/><path d="M935.57 965.2c33.5-24.54 86.6-129.03 113.73-174.13l110.07-186.27c35.96-59.8 70.5-123.7 112.84-175.02 32.84-39.8 117.75-125.1 129.02-167.3L1061.03 60.8C1024.58 38.74 970.33 2.9 935.57 0c14.2 29.56 19.25 98.14 30.6 138.72 18.08 64.6 30.25 61.28 78 91.35 124.5 78.4 110.2 267.4 16.27 343.53-89.23 72.3-124.87-38.87-124.87 391.6z" class="K"/><path d="M444.5 262.46c10.43 39.05 52.3 70.6 91.9 119.78 13.08 16.24 23.23 23.6 36.43 39.77 39.77 48.75 82.57 115.28 114.3 173.56 35.2 64.6 70.87 121.25 104.5 183.36 22.48 41.52 85.52 155.7 118.53 177.8 2-89.4 24.7-137.4-7.98-271.43C868.9 548.8 715.44 611 715.44 406.4c0-92.06 49.14-152.53 108.4-187.93 54.07-32.3 46.37-21.3 60.3-92.1 8.1-41.2 25.12-85.4 26.03-126.36C873.2 8.6 828 41.84 794.3 61.94l-117.63 68.63c-43.4 25.5-196.92 123.68-232.18 131.9z" class="M"/><path d="M5202.76 1396.95c29.5 5.78-1.37-3.06 61.87 48.24l198.42 157.18c120.97 100.86 286.27-42.38 165.54-165.54l-482.62-406.8c-24.83-21.56-4.57-18.78-36.34-16.9-1.3 2.4-25.24 52.94-11.32 19.83l15.03 10.84c1.47 1.17 3.68 2.48 5.17 3.8 33.9 29.7 20.7 53.7 33.46 120.35l107.2 3.3c0 24.68 3.23 87.98-.14 108.46-6.15 37.3-15.33 44-47.85 43.94 2.45 7.36 9.2 23.13 6.88 39.65-4.1 29.04 4.3 17.27-15.3 33.66z" class="O"/><path d="M588.4 1490.13c-2.2-30.04-.16-35.3 32.58-34.66 20 .4 21.92 3 35.87 5.05 16.17 2.37 31.87 3.98 49.78 4.32 55.6 1.05 151 8.07 178.1-17.05-23.62-31.22-47.75-53.25-73.64-78.72-54.2-53.32-123.03-10.24-341.08-107.66-19.55-8.73-80.86-35.23-95.94-47.98-27.74-23.44-32.9-67.1-44.44-107.97C292.7 974.66 306.5 996.7 198.97 939.8c0 51.25 51.38 373.9 66.35 399.32 13.28 22.53 37.52 35.07 63.3 46.78 59.63 27.1 204.7 101 259.78 104.24z" class="P"/><path d="M173.6 889c-6.52-11.48-13.88 19.77-4.96-25.98 10.1-51.72-1.07-20.65 22.43-28.54 53.6-18 29.72 21.73 33.3 35.48 84.3-.14 152.3-9.4 211.67 21.2L453 863.6 269.32 750.9c-61.25-34.08-153.56-72.44-171.95-141.32l-79.95 453.45C9.95 1114.46-.52 1174.6-4.23 1219.2l227.03 113.23c1.57-44.2-57.54-425.46-66.16-443.43h16.97z" class="K"/><path d="M1020.2 1405.46c22.87 13.34 10.27 6.23 17.63 15.6 8.8 11.2-.02-.87 9.52 14.68 24.15 39.3-14.32-10.9 6.76 12.1 131.37 0 162.08-16.93 220.1-16.93l-5.7 33.64c-.87 2.9-1.72 5.6-2.67 8.26l-8.53 59.62c44.85-88.85 241.4-110.08 315.05-175.98 34.9-31.22 35.38-129.46 45.3-191.77 12.5-78.5 29.13-128.6 29.13-216.4-87.02 20.27-99.28 62.26-123.43 147.5-31.27 110.38-16.33 110.3-118.53 152.4-62.87 25.9-122.47 68.83-192 78.94-63.82 9.28-140.26-.63-182.63 54.75-12.76 16.68-9.62 8.54-10 23.6z" class="O"/><path d="M5253.56 905.93c0 97.95 46.02 135.46 135.47 135.46 34.13 0 61.75-26.97 83.53-43.46 23-17.4 49.22-36.82 70.85-56.16 12.97-11.6 17.1-17.72 30.64-28.62 64.95-52.3 85.9-59.5 85.9-134.22 0-50.45-83.43-175.6-217.85-73.92-61.44 46.47-188.55 135.38-188.55 200.92z" fill="#224269"/><path d="M834.43 498.36c-18.45-36.46-14.4-77.06-2.57-117.58l31.64.53 4.37 67.42c3.74 42.92-2.78 45.54-33.44 49.63zm-8.93-176.63c60.94-14.2 257-30.98 192.5 82.44-10.73 18.88-18.1 15.98-40.1 27.63 15.2 20.72 11.53 18.22 42.33 25.4v25.4C947.45 498 901.7 435.5 901.7 406.4c0-37.56 45.43-25.4 84.67-25.4v-25.4c-156.18-13-129.8 25.24-160.87-33.87zm-93.13 76.2c0 277.13 381 253.06 381 33.87V381c0-90.85-74.48-169.34-194.73-169.34-98.5 0-186.27 86.25-186.27 186.27z" fill="#23436a"/><path d="M596.9 2091.26c0-86.04 5.7-102.06-25.13-161.13-22.46-43-114.57-198.9-146.37-226.16-29.37-25.2-82.87-51.85-133.3-52.98l87.53 285c19.92 62.53 41.07 64.67 92.9 93.38 36.13 20.02 81.72 58.33 124.38 61.88z" class="K"/><path d="M1257.3 2091.26c30.54-7.12 91.76-46.18 122.14-64.13 23.27-13.75 38.26-18.15 59.72-33.4 34.23-24.35 54.5-125.4 79.56-199.84 13.24-39.34 28.3-111.48 43.38-142.9-130.5 2.9-166.4 97.68-209.95 162.6-97.65 145.5-94.85 124.6-94.85 277.68z" class="L"/><path d="M749.3 1981.2c0-52.98-4.63-72.14-8.34-118.65-5-62.42-92.53-172.63-142.46-255.48-55.14-91.5-41.18-77.5-137.06-125.4-40.7-20.33-137.66-75.32-177.8-84.67 21.57 92.6 51.84 97.73 124.28 138.18 93.72 52.33 86.45 24.94 132.62 129.85 28.06 63.74 49.43 122.83 83.26 179.2 23.53 39.23 81.3 125.16 125.5 136.96z" class="O"/><path d="M1104.9 1981.2c53.3-14.23 134.6-151.85 162.1-218.9 56.7-138.35 46.18-160.17 170.9-227.04 56.15-30.12 122.03-40.1 124.22-138.25-29.86 14.33-55.48 22.98-87.62 39.38-142.08 72.5-161.3 71.46-220.76 168.7-34.85 57-69.18 103.5-103.05 159.42-46.14 76.2-45.77 101.06-45.77 216.7z" class="K"/><path d="M1257.3 1888.06c37.23-24.93 71.42-94.8 97.93-139.14 47.1-78.84 37.5-74.46 127-110.05 93.1-37.03 85-19 124.56-112.5l73.83-171.7c-77.8 6.47-94.97 54.72-124.06 113-38.93 78-51.3 72.16-127.1 109.94-88.9 44.32-75.73 29.8-112.9 124.18-20.95 53.2-59.27 116.9-59.27 186.27z" class="M"/><path d="M4694.76 956.73c24.56-65.94 13.9-13.64 3.46-77.4-3.9-23.8 1.6-86.36 5-102.52 44.87 2 69.13 15.07 118.53 6.32-19.97-39.44-80.43-73.85-121.03-94.85-132.23-68.42-262.5 78.9-73.8 226.2 22.48 17.54 34.52 34.5 67.82 42.25z" class="P"/><path d="M588.44 1888.06c0-77.03-27.13-128.25-53.63-183.44-74.85-155.84-27.84-68.84-188.8-166.8-80.14-48.78-31.93-150.4-172.45-183.15l70.08 167c41.26 96.72 22.36 76.8 121.03 116.03 94.58 37.6 78.83 26.67 127.95 109.12 20.73 34.8 70.36 122.6 95.8 141.26z" class="M"/><path d="M749.3 2192.86c0-73.8 11.56-135.13-21.5-181.7-25.13-35.42-63.48-85.02-113.97-89.23 0 54.37-14.87 155.38 10.3 192.9 17.6 26.23 86.3 74.8 125.16 78.04z" class="N"/><path d="M1104.9 2201.32c43.8-23.17 82.12-52.45 127-76.2v-203.2c-146.37 34.1-127 198.88-127 279.4z" fill="#224269"/><path d="M4652.43 1634.06c-.24-18.63 1.92-14.75-3.74-27.9l54.5 10.9c-11.75-54.38-8.05-114.92-4.22-165.03-56.34-1.93-40 1-71.94 16.93-18.05-18.73-25.6-26.1-59.27-21.2-32.72 23.98-35.07 83-14.9 124.97 18.35 38.18 50.1 57.18 99.57 61.3z" class="P"/><path d="M834.43 498.36c30.66-4.1 37.18-6.7 33.44-49.63l-4.37-67.42-31.64-.53c-11.82 40.52-15.88 81.12 2.57 117.58z" fill="#fdfdfd"/><path d="M969.44 999.06h-8.47l7.05 9.88z" class="L"/></svg>