<svg xmlns="http://www.w3.org/2000/svg" width="698.102" height="235.772"><path d="M695.88 54.96c9.773 53.82-137.59 125.678-329.114 160.48-191.546 34.8-354.77 19.213-364.543-34.606C-7.55 126.917 139.81 55.06 331.356 20.356c191.526-34.8 354.75-19.312 364.524 34.605m-312.9 78.524c0-28.625-30.33-22.057-30.33-33.625 0-3.235.185-5.5 5.37-5.5 5.363 0 5 4.902 5 9.902h18.097c2.058-18.234-6.235-22.94-22.244-22.94-20.48 0-24.792 6.568-24.792 21.273 0 25.194 29.086 19.508 29.086 31.762 0 4.314-1.57 5.98-4.333 5.98-6.5 0-6.284-4.02-6.284-10.49h-19.9c-1.363 13.626 3.068 24.4 22.83 24.4 12.156 0 27.488-2.353 27.488-20.783M117 155.346c12.146 0 27.488-2.352 27.488-20.684 0-28.724-30.332-22.156-30.332-33.724 0-3.235.187-5.5 5.363-5.5 5.362 0 5 4.902 5 9.902h18.096c2.068-18.234-6.225-22.94-22.243-22.94-1.95 0-3.775.098-5.44.197-5.735 2.45-11.274 4.9-16.646 7.45-2.03 3.333-2.706 7.842-2.706 13.626 0 25.195 29.086 19.51 29.096 31.763-.01 4.313-1.568 5.98-4.333 5.98-6.5 0-6.284-3.92-6.284-10.5h-19.9c-1.373 13.627 3.068 24.4 22.83 24.4m71.966-56.27l8.166 53.722h19.067l-11.842-68.72h-30.32l-11.853 68.72h19.087l7.696-53.72m84.7 22.155l-5.882-37.546h-30.665l-1.264 68.916h17.49l.882-50.976 10.93 50.976h18.4l10.784-51.172.254 51.172h18.195l-1.47-68.916h-30.567l-7.087 37.546M403.45 82.9v50.094c0 13.332 8.176 21.763 25.145 21.763 18.803 0 25.028-11.175 25.028-21.763V82.9h-19.234v49.702c0 5.196.01 7.94-6 7.94-5.146 0-5.156-2.744-5.156-7.94V82.9H403.45m132.726 69.2V82.9h-17.822l.078 41.663L500.66 82.9h-22.704v69.2h17.753l-.02-41.565 19 41.565h21.488m48.38-72.936c-24.4 0-25.292 18.627-25.292 36.96 0 25.782.764 36.566 22.674 37.546a565.334 565.334 0 0 0 23.254-10.49c1.235-2.058 2.137-4.313 2.176-6.862V113.3H584.35l-.01 10.39h4.784v10.5c0 4.803-2.41 5.685-4.872 5.685-3.764 0-5.196-2.058-5.196-5.686l-.068-33.92c0-4.607 1.47-6.96 5.127-6.96 6.44 0 4.92 5.686 4.92 10.5h18.333c1.323-16.568-8.205-24.607-22.812-24.607" letter-spacing="0" word-spacing=".101" fill="#034ea1"/></svg>