<svg xmlns="http://www.w3.org/2000/svg" xmlns:xlink="http://www.w3.org/1999/xlink" width="409.599" height="81.6" viewBox="0 0 10837.32 2158.98" shape-rendering="geometricPrecision" image-rendering="optimizeQuality" fill-rule="evenodd"><defs><clipPath id="A"><path d="M0 0h10837.32v2158.98H0z"/></clipPath></defs><g clip-path="url(#A)"><image width="10837.32" height="2158.98" xlink:href="sandisk_Images\sandisk_ImgID1.png"/></g><path d="M4834.46 110.07c0 108.76 65.98 93.6 126.94 93.2 353.16-2.38 612.02-19.25 817.8 325.2 171.65 287.3 143.3 865.7-5.2 1122.26-187.04 323.17-489.56 313.54-821 313.54-83.42 0-59.26-108.93-59.26-194.73l.3-762.3c-.6-526.3-672.54-589.63-938.22-319.57-29.64 30.12-53.16 81.48-78.07 99.73V601.13l-27.22-23.6-590.85-1.8c-.06.2-77.27 135.7 8.47 177.8 1.8 1.14 4.84.15 5.88 2.58l52.93 6.34c55.7-.44 135.92-18.8 135.92 92.68v1041.4c0 86.4-92.65 67.73-177.8 67.73-11.25 23.45-48.4 132.06-50.8 160.86h812.8c13.34-57.25 50.18-66.03 0-160.86-56.67 0-89.32 2.28-135.46-8.47-9.83-20.47-16.94-37.04-16.94-67.73v-778.93c0-118.05 185.74-372.53 338.67-372.53h42.33c99.42 0 169.33 93.8 169.33 194.73v990.6c0 59.12-109.84 42.33-169.33 42.33-9 33.74-27.45 40.65-21.23 88.6 4.34 33.45 14.3 72.26 46.63 72.26h939.8c374.6 0 741.64-93.63 974.98-379.68C6538.04 1350.5 6493.66 567.1 6091.3 267.2c-53.1-39.57-99.07-71.17-158.9-103.55-310.22-167.87-693.45-146.7-1047.1-146.7-34.58 0-50.8 56.3-50.8 93.14zm4047.06-16.94c0 36.2 19.45 63.13 33.87 84.67l178.77-.98c68.93.5 49.83-7.85 49.83 271.9v1507.05c-59.2 13.8-147.6 8.47-220.13 8.47-53.47 101.05-4.22 160.86 25.4 160.86h787.4c31.08 0 42.34-51.78 42.34-84.66 0-118.1-86.15-61.34-186.27-84.67-18.82-80.8-8.47-309.4-8.47-406.4 0-20.32 117.88-152.4 152.4-152.4 23.78 0 17.26 6.9 29.6 21.2l256.62 395.3c16.73 26.74 29.9 43.53 46.7 71.83 15.95 26.87 36.9 46.14 39.63 78.9h-118.54c-6.5 27.96-23.65 52.4-22.6 83.65.68 20.26 9.85 77.2 39.54 77.2h787.4c29.2 0 42.33-44.5 42.33-76.2 0-50.7-16.3-50.55-25.4-84.66-172.83 0-205.77-9.62-284.38-130.5-56.38-86.67-112.6-162.76-164.75-250.1-50.5-84.58-112.3-162.46-165.36-249.5-28.2-46.24-51.8-81.48-79.78-123.43l-40.65-60.94-20.15-30.66-9.77-15.63c-10.72-16.25-2.77-6.74-14.1-19.77 152.52-227.77 309.93-355.6 609.6-355.6.38-1.64 50.72-152.4-16.94-152.4h-474.13c-44.02 0-72.54 40.64-91.62 69.25-23.34 35-42.58 59.63-65.9 94.97-24.08 36.48-41.92 58.4-66.03 94.83l-343.73 486V42.33c-17.44-11.68-21.97-25.4-42.33-25.4h-618.06c-28.72 0-42.34 48.98-42.34 76.2zM0 584.2C0 778 30 886.15 167.04 1018.28 456.2 1297.08 1143 1270.44 1143 1642.52c0 165.43-176.32 287.86-321.73 287.86-207.6 0-307.4-15.3-459.32-167.2-66.63-66.63-124-137.13-167.3-222.17-38.93-76.45-11.8-67.8-160.78-67.8-19.82 0-33.87 14.04-33.87 33.86V1905c0 67.53 36.43 82.95 113.58 115.03 347.86 144.6 882.23 212.6 1175.63-78.88 234.46-232.92 314.94-728.45-32.63-954.05-68.7-44.6-146.83-79.68-229.8-108.86-170.32-59.9-333.7-95.7-499.12-178.2-69.57-34.7-148.9-86.52-168.56-170.15-47.24-200.75 139.6-326.7 326.7-326.7 139.68 0 229.13 12.56 352.22 104.98C1137.43 382.83 1177.2 508 1219.2 508c82.66 0 118.53 11.47 118.53-25.4V143.93c0-57.8-43.5-65.1-91.24-78.1C1016.03 3.17 908.22.08 671.76 0H660.4C480 0 302.7 78.02 201.86 159.53 101.65 240.54 0 404.42 0 584.2zm2032 1066.78c0-105.63 41.1-187.2 132.3-231.75 106.73-52.12 251.1-56.1 384.15-56.1v364.06c0 37.56-149.5 160.87-245.53 160.87-79.25 0-171.32 8.6-225.26-71.07-10.33-15.26-26.92-49.55-32.13-69.47-4.35-16.62-13.54-81-13.54-96.53zM1794.93 643.46v237.07c0 44.26 53.07 33.86 101.6 33.86 53.2 0 67.3-37.35 95.1-65.76 84.87-86.7 163.4-162.84 328.23-162.84 136.65 0 228.6 108.1 228.6 254v245.53l-143.93-8.46c-342.68 0-770.47 70.03-770.47 482.6 0 268.9 193.6 482.6 440.27 482.6 151.23 0 314.9-12.6 429.83-120.5 27.84-26.13 47.57-53.74 78.17-74.22 8.1 97.45 85.1 177.8 186.27 177.8 377.25 0 311.93 24.2 348.36-74.96 8.07-21.95 22.3-64.35 32.64-85.9-48.8 0-82.37-2.02-116.37-19.1-33.27-16.7-43.2-41.87-49.96-85.5-31.5-203.76 43.02-851.9-40.27-1060.38-142.3-356.17-743.94-309.7-1055-223.58-61.96 17.16-93.08 17.4-93.08 67.78z" fill="#ec1a24"/><path d="M7653.86 973.66c0 105-5.67 144.96 39.7 248.16 20.72 47.12 49.73 79.04 79.84 114.9 141.6 168.57 356.8 176.84 532.5 246.43 110.76 43.88 194.62 78.96 194.62 211.78 0 113.1-106.5 186.26-220.13 186.26-149.48 0-229.05-25.3-328.35-137.32-201.04-226.8-44.15-235.2-272.78-235.2-19.82 0-33.87 14.05-33.87 33.87v304.8c0 113.6 359.42 211.66 474.13 211.66h213.83c84.47-4.9 162.06-22.83 256.94-79.57 107.53-64.3 169.57-161.33 205.7-276.9 14.77-47.25 15.03-82.37 23.05-138.4 4.6-32.2-5.78-116.36-11.64-142.2-28.22-124.48-96.7-212.3-203.5-279.1-245.28-153.4-636.77-104.96-636.77-345.36 0-216.8 397.26-277.27 615.27 2.8 37.2 47.77 10.23 39.53 129.8 39.53 19.5 0 25.4-5.9 25.4-25.4 0-332.57 26.77-301.26-86.24-328.62-167.43-40.53-299.78-43.9-472.56-43.9-144.1 0-268.27 57.83-353.3 120.84-25.25 18.7-43.88 31.78-62.9 55.64-53.94 67.7-108.75 157.08-108.75 255.32z" fill="#eb1b23"/><path d="M6604 660.4c0 45.84 15.8 66.17 33.87 93.14h169.33c21.6 92.76 8.47 981.7 8.47 1151.45 0 82.1-103.4 59.27-228.6 59.27-12.92 48.38-56.1 64.46 8.47 160.86h880.53c9.1-34.1 25.4-33.96 25.4-84.66 0-95.13-46.14-76.88-135.53-76.15-96.4.8-119.6 7.66-118.83-92.82l.36-863.96c0-122.57 15.46-320.64-8.47-423.33-84.44-19.67-469.22-8.46-584.2-8.46-31.86 0-50.8 53.32-50.8 84.66zm211.66-321.74c0 10.3 17.5 25.4 33.86 25.4h397.94c43.36 0 61.06-94.44 81.47-155.6 7.3-21.9 56.27-152.66 45.53-174.6-11.4-28.22 19.36-7.76-29.37-21.44-31.65-8.9-323.64-3.96-377.03-3.96-81.37 0-74.83 38.93-101.57 135.5-12.9 46.53-50.83 145.94-50.83 194.7z" fill="#ec1a24"/></svg>