<svg xmlns="http://www.w3.org/2000/svg" width="1055.679" height="194.88" viewBox="0 0 27931.52 5156.18" shape-rendering="geometricPrecision" image-rendering="optimizeQuality" fill-rule="evenodd"><path d="M22772.57 2535.98c0 330.72-5.45 395.8 71.2 733.63 42.33 186.57 144.13 474 239.68 630.8 19.4 31.85 29.3 58.35 48.94 91.47l176.94 263.03c189.2 232.1 365.7 389.6 615.13 555.12l184.16 106.1c236.76 120.16 579.4 240.05 930.47 240.05h2154.13c27.14 0 87.03-123 102.62-150.13l592.14-1045.98c16.84-27.6 37.77-54.33 45.13-85.92H25498c-197.74 0-409.1-2.12-551.4-57.32-158.02-61.3-256.15-127.85-368.8-239.78-100.2-99.56-183.64-230.88-239.97-368.5-92.4-225.73-104.22-384.12-104.22-635.15 0-305.37 162.28-652.64 381.47-863.45 302-290.47 603.23-268.85 985.94-268.85h1517.25l277.06-481.16c18.66-31.44 26.63-54.32 45.3-85.76l374.04-655.8c15.02-26.63 56.5-68.66 6.04-68.66h-2697.34c-300.16 0-595.7 61.77-860.46 169.63-162.68 66.27-333.1 169.13-473.34 266.33-103.27 71.57-189.07 159.03-280.64 243.63-135.17 124.86-256.02 296.8-356.27 448.8l-108.5 191.05c-86 185.33-147.2 338.92-196.8 542.65-36.72 150.83-74.82 339.2-74.82 524.15zM79.3 1403.68h2275.9L1246.06 3112.22c-125.96 206.45-307.7 467.58-447.4 685.27-25.6 39.88-49.82 72.1-74.96 112.26-51.63 82.48-98.56 150.5-151.9 231.92L16.74 4991.84c-14.82 23.3-35.33 52.05 6.36 52.05h4223.96c44.26 0 161.15-244.97 180.9-277.8 121.95-202.6 251.2-453.72 375.66-663.37l85.76-148.27c17.13-28.86 26.97-53.12 41.37-80.3h-2566.2c13.2-56.54 424.67-673.65 503.96-797.2l436.48-677.47 72.97-114.25 144.86-229.58c15.64-25.27 18.42-24.82 35.1-49.14l988.42-1539.05c30.84-51.6 129.55-184.74 140.92-233.5l-3868.64-.58c-41.75-.1-54.5-3.47-73.97 19.67-4.37 5.18-23.48 42.45-30.3 53.95-12.67 21.38-20.6 39-33.72 59.88-112.1 178.4-227.04 398.75-333.54 574.46L79.3 1403.68zM16563.06 5043.9h1432.96c14.2-26.83 28.57-49.34 45.14-76.56 17.16-28.2 25.65-49.17 43.08-78.6l456.7-788.27 367.66-633.95c18.05-29.7 27.2-51.23 43.04-78.64l143.23-240.57c56.2-101.9 348.83-582 362.22-639.38 37.53 10 38.85 41.37 57.9 73.15 18.03 30.1 32.54 50.46 50.67 80.4l588.45 1002.88 50.23 81.7c4.72 7.92 10 15.9 11.04 17.62 7.98 13.2 4 5.55 13.23 23.3 10.05 19.3 15.67 32.97 24.57 49.78h-1152l-262.78 467.36c-45.53 75.3-86.12 156.35-131 234.06l-266.67 465.62c-30.43 61.66 55.12 40.3 107.86 40.14h3839.98c-4.33-52.07-57.17-117.08-81.18-162.2l-274.77-474.1c-28.5-55.22-57.24-98.63-89.65-153.72l-92.23-160.5L21580 3624.6c-126.46-237.6-320.3-538.17-458.7-786.3l-231.33-395.84c-67.87-132.4-149.52-264.02-226.48-391.33l-457.7-787.3c-30.34-50.28-56.74-100.64-89.07-154.32-18.1-30.05-28.7-45.46-44.66-77.02-63.23-125.04-244.38-420.83-320.74-549.82-17.43-29.44-25.9-50.4-43.08-78.6-18.37-30.2-30.55-50.13-48.34-82.7-35.25-64.5-170.3-269.8-184.1-321.38h-18.73c-13.47 57.74-140.58 257.77-177.42 318.7-16.37 27.1-28.52 46.4-44.2 77.48-17.4 34.48-27.46 44.56-46.13 75.56l-135.38 239.05c-13.74 23.93-32.25 51.8-45.95 75.74l-92.43 160.3-224.6 393.2-45.76 75.94-181.43 314.68c-15.1 25.04-28.08 50-44.43 77.26l-138.43 236c-17.43 29.45-25.92 50.4-43.08 78.6l-1272.06 2200.8-228.7 398.46c-41.37 70.3-169.1 263.38-174 322.12z" fill="#6c6e6f"/><path d="M10587.74 3761.86c-10.5-28.07 4.55-20.07-55.2-19.75l-1087.46 1.08c-22.27-42.9 1.74-13.6-26.9-23.46-62.85-21.6-331.25 20.77-357.15-13.97-53.28 0-52.78-10.3-93.62 18.62-28.85-6.4-2.36-6.66-25.43 3.15l-133.55 90.7c-113.42 58.93-197.55 98-337.3 121.53-404.46 68.1-772.63-89.86-1014.57-390.2-112.34-139.46-203.9-293.93-250.03-470.74-153.84-589.74 7.03-1192.25 520.72-1529.3 114.5-75.13 331.68-157.72 481.45-155.1 45.3.8 60.94 10.04 84.37-18.78 89.66 0 170.48 9.27 271.6 9.27l1826.34.01c20.7.07 47.33 1.92 66.76 1.37 41.65-1.17 45.6 9.66 45.66-20.05.65-10.54 9.2-1.56-14-41.53l-330.25-410c-276.16-275.93-627.98-497.9-998.4-621.34-34.9-11.64-72-21.04-101.77-29.33-285.73-79.5-537.4-118.46-841.25-114.7-253.27 3.13-672.96 86.95-897.5 179.4-274.55 113.04-461.98 216.37-690.44 395.66-16.92 13.27-19.4 17.7-34.86 30.68-104.34 87.66-223.92 195.6-306.2 302.33-19.87 25.78-40.88 49.58-63.4 77.02-253.9 309.52-435.34 743.28-491.98 1136.7l-35.33 367.83c-.9 51.8 10.75 70.65 10.2 130.8-2.6 283.52 119.66 723.83 243.1 964.28 123.17 239.92 262.32 443.64 452.3 633.6 14.8 14.8 17.1 18.1 30.93 34.6 49.75 59.5 260.47 232.53 335.56 282.34 143.13 94.95 268.42 175.8 429.66 244.46 166 70.7 325.22 129.22 513.2 170.37 138 30.22 308.04 50.46 481.83 56.75h225.38c99.72-3.8 196.58-12.87 285.02-28.02 82.8-14.18 149.2-28.13 224.74-46.83 141.7-35.08 274.45-79.08 408.2-134.9 215.77-90.06 444.02-234.24 624.92-386.26 145.75-122.48 148.68-124.2 275.82-267.16 65.37-73.5 368.54-450.22 348.83-531.15z" fill="#ffd300"/><path d="M11571.1 1506.62h2041.74v3509.2c0 21.56 6.52 28.08 28.1 28.08h1386.13c21.58 0 28.1-6.52 28.1-28.08v-3509.2h1498.52c9.9-42.46 62.27-117.42 86.16-157.23l416.68-706.6c19.3-32.37 28.2-50.85 46.7-84.36l94.95-157.8c22-36.4 82.57-124.8 86.06-166.67h-4963.87c-95.4 142.37-269.1 464.15-376.56 634.4l-280.92 477.3c-16.65 27.62-26 51.74-43.02 78.67-20.4 32.25-30.78 48.35-48.76 82.3z" fill="#6c6e6f"/><path d="M8293.08 1375.65c12.18 29.08-5.78 15.8 46.2 19.96 17.4 1.4 45.16-2.24 65.73-.83 29.9 2.06 76.43 11.74 104.45 17.27 70.3 13.9 125.2 33.9 185.14 58.33 123.4 50.27 205.92 111.45 306.36 189.87 272.16 212.5 463.85 687.08 444.15 1044.2-11.4 206.57-63.53 413.46-149.7 589.7-47.76 97.7-130.73 213.26-203.97 292.17-56.3 60.65-105.85 93.4-124.05 138.04 40.84-28.92 40.34-18.62 93.62-18.62 25.9 34.74 294.3-7.64 357.15 13.97 28.63 9.85 4.62-19.44 26.9 23.46l1087.46-1.08c59.76-.32 44.72-8.32 55.2 19.75 24.85-15.6 8.63 3.82 30-26.48l42.2-97.86c67.34-155.85 102.3-248.92 143.3-418.3 51.65-213.37 66.12-425.58 65.75-692.93-.3-209.68-86.38-599.26-163.5-781.8l-56.2-131.02-125.5-232.05c-17.45-16.4 9.1 3.3-20.36-15.2-.06 29.7-4 18.88-45.66 20.05-19.43.55-46.05-1.3-66.76-1.37l-1826.34-.01c-101.13 0-181.95-9.27-271.6-9.27z" fill="#ffd200"/></svg>